<svg xmlns="http://www.w3.org/2000/svg" width="72" height="72" viewBox="0 0 72 72">
  <g id="Grupo_1008533" data-name="Grupo 1008533" transform="translate(-610.534 -6167.893)">
    <circle id="Elipse_5640" data-name="Elipse 5640" cx="36" cy="36" r="36" transform="translate(610.534 6167.893)" fill="none"/>
    <g id="maceta_1_" data-name="maceta (1)" transform="translate(616.66 6142.249)">
      <path id="Trazado_713263" data-name="Trazado 713263" d="M43.7,73.426,49.69,116.58a3.468,3.468,0,0,0,3.435,2.991h1.755a2.714,2.714,0,0,0,2.524-1.715h0a2.714,2.714,0,0,1,2.524-1.715H77.019a2.714,2.714,0,0,1,2.524,1.715h0a2.714,2.714,0,0,0,2.524,1.715h1.755a3.467,3.467,0,0,0,3.435-2.991l5.992-43.154H43.7Z" transform="translate(-38.599 -33.373)" fill="#fec37d"/>
      <path id="Trazado_713264" data-name="Trazado 713264" d="M131.229,73.426l-5.992,43.154v.006a.445.445,0,0,1-.7.3,2.715,2.715,0,0,1-.956-1.2h0a2.77,2.77,0,0,0-2.575-1.715H103.568a2.77,2.77,0,0,0-2.575,1.715h0a2.77,2.77,0,0,1-2.575,1.715H96.626a3.536,3.536,0,0,1-3.323-2.277l.2,1.462a3.468,3.468,0,0,0,3.435,2.991H98.7a2.714,2.714,0,0,0,2.524-1.715h0a2.714,2.714,0,0,1,2.524-1.715h17.092a2.714,2.714,0,0,1,2.524,1.715h0a2.708,2.708,0,0,0,.627.94h0l.049.046a2.793,2.793,0,0,0,.254.21h0a2.709,2.709,0,0,0,.3.189l.049.026c.037.019.073.037.111.054l.106.046.077.03.1.034.063.021c.051.016.1.029.154.042l.057.013q.072.016.145.028l.029.005c.058.009.117.015.176.02l.062,0c.057,0,.113.006.17.006h1.752a3.467,3.467,0,0,0,3.435-2.991l5.992-43.154Z" transform="translate(-82.415 -33.373)" fill="#f9ae5d"/>
      <path id="Trazado_713265" data-name="Trazado 713265" d="M64.34,50.281H8.658A1.158,1.158,0,0,1,7.5,49.123V44.3a1.158,1.158,0,0,1,1.158-1.158H64.34A1.158,1.158,0,0,1,65.5,44.3v4.821A1.158,1.158,0,0,1,64.34,50.281Z" transform="translate(-6.625 -6.625)" fill="#f2a559"/>
      <path id="Trazado_713266" data-name="Trazado 713266" d="M457.968,43.143h-4.836V50.28h4.836a1.158,1.158,0,0,0,1.158-1.158V44.3A1.158,1.158,0,0,0,457.968,43.143Z" transform="translate(-400.253 -6.624)" fill="#ea8f3d"/>
      <path id="Trazado_713267" data-name="Trazado 713267" d="M108,226c-2.982,0-2.982-1.167-5.964-1.167S99.053,226,96.071,226s-2.982-1.167-5.964-1.167S87.125,226,84.143,226s-2.982-1.167-5.964-1.167S75.2,226,72.214,226s-2.983-1.167-5.965-1.167a11.633,11.633,0,0,0-1.436.078l1,7.213a6.247,6.247,0,0,1,1.209-.109c2.871,0,2.871,1.167,5.743,1.167s2.871-1.167,5.743-1.167,2.871,1.167,5.742,1.167,2.871-1.167,5.743-1.167,2.871,1.167,5.743,1.167,2.871-1.167,5.743-1.167,2.885,1.231,5.757,1.167c.407-.009.753-.032,1.059-.064l1-7.236A6.606,6.606,0,0,1,108,226Z" transform="translate(-57.25 -167.108)" fill="#f2a559"/>
      <path id="Trazado_713268" data-name="Trazado 713268" d="M394.042,227.029c-2.347,0-2.848-.723-4.408-1.03l-.989,7.121c1.817.267,2.2,1.145,4.633,1.091.407-.009.753-.032,1.059-.064l1-7.236A6.6,6.6,0,0,1,394.042,227.029Z" transform="translate(-343.292 -168.141)" fill="#ea8f3d"/>
      <path id="Trazado_713269" data-name="Trazado 713269" d="M57.715,35.644H2.033A2.035,2.035,0,0,0,0,37.677V42.5a2.035,2.035,0,0,0,2.033,2.033h2.8l5.387,38.8a4.361,4.361,0,0,0,4.3,3.746h1.755a3.571,3.571,0,0,0,3.338-2.268,1.829,1.829,0,0,1,1.71-1.162H38.42a1.829,1.829,0,0,1,1.71,1.162,3.57,3.57,0,0,0,3.337,2.268h1.755a4.361,4.361,0,0,0,4.3-3.746l.517-3.721a.875.875,0,1,0-1.734-.241l-.517,3.721a2.6,2.6,0,0,1-2.568,2.236H43.468a1.829,1.829,0,0,1-1.71-1.162,3.57,3.57,0,0,0-3.337-2.268H21.328a3.571,3.571,0,0,0-3.337,2.268,1.829,1.829,0,0,1-1.71,1.162H14.526a2.6,2.6,0,0,1-2.568-2.236l-2.4-17.3c.072,0,.144,0,.219,0a5.721,5.721,0,0,1,2.542.519,7.441,7.441,0,0,0,3.2.648,7.442,7.442,0,0,0,3.2-.648,5.719,5.719,0,0,1,2.542-.519A5.721,5.721,0,0,1,23.8,66.3a7.441,7.441,0,0,0,3.2.648,7.442,7.442,0,0,0,3.2-.648,6.483,6.483,0,0,1,5.084,0,8.232,8.232,0,0,0,6.4,0,5.719,5.719,0,0,1,2.542-.519,5.566,5.566,0,0,1,2.514.529,6.96,6.96,0,0,0,3.033.641l.228,0h.025l-.873,6.284a.875.875,0,1,0,1.734.241l4.018-28.937h2.8A2.035,2.035,0,0,0,59.748,42.5V37.677A2.035,2.035,0,0,0,57.715,35.644Zm-6.8,24.95-.637,4.59c-.1,0-.2.008-.309.01a5.321,5.321,0,0,1-2.551-.5,7.28,7.28,0,0,0-3.186-.663,7.442,7.442,0,0,0-3.2.648,6.483,6.483,0,0,1-5.084,0,8.231,8.231,0,0,0-6.4,0A5.719,5.719,0,0,1,27,65.194a5.72,5.72,0,0,1-2.542-.519,7.441,7.441,0,0,0-3.2-.648,7.441,7.441,0,0,0-3.2.648,5.72,5.72,0,0,1-2.542.519,5.72,5.72,0,0,1-2.542-.519,7.441,7.441,0,0,0-3.2-.648c-.158,0-.311,0-.46.013L8.559,58.6c.141,0,.287-.006.441-.006a6.19,6.19,0,0,1,2.664.523,7.929,7.929,0,0,0,3.3.644,7.928,7.928,0,0,0,3.3-.644,6.187,6.187,0,0,1,2.663-.523,6.188,6.188,0,0,1,2.663.523,7.928,7.928,0,0,0,3.3.644,7.928,7.928,0,0,0,3.3-.644,6.187,6.187,0,0,1,2.663-.523,6.187,6.187,0,0,1,2.663.523,8.786,8.786,0,0,0,6.6,0,7.039,7.039,0,0,1,5.326,0,7.928,7.928,0,0,0,3.3.644q.142,0,.279,0ZM58,42.5a.283.283,0,0,1-.283.283H17.075a.875.875,0,1,0,0,1.75H53.144L51.275,57.992c-.168.013-.342.021-.525.021a6.187,6.187,0,0,1-2.663-.523,8.787,8.787,0,0,0-6.6,0,7.039,7.039,0,0,1-5.326,0,7.927,7.927,0,0,0-3.3-.644,7.928,7.928,0,0,0-3.3.644,6.187,6.187,0,0,1-2.663.523,6.187,6.187,0,0,1-2.663-.523,7.929,7.929,0,0,0-3.3-.644,7.928,7.928,0,0,0-3.3.644,6.187,6.187,0,0,1-2.663.523A6.19,6.19,0,0,1,12.3,57.49,7.929,7.929,0,0,0,9,56.846c-.24,0-.466.005-.683.014L6.6,44.531h4.16a.875.875,0,1,0,0-1.75H2.033A.283.283,0,0,1,1.75,42.5V37.677a.283.283,0,0,1,.283-.283H57.715a.283.283,0,0,1,.283.283Z" transform="translate(0)"/>
    </g>
  </g>
</svg>
