<svg xmlns="http://www.w3.org/2000/svg" xmlns:xlink="http://www.w3.org/1999/xlink" width="148" height="149" viewBox="0 0 148 149">
  <defs>
    <radialGradient id="radial-gradient" cx="0.5" cy="0.5" r="0.5" gradientUnits="objectBoundingBox">
      <stop offset="0" stop-color="#fff"/>
      <stop offset="1" stop-color="#e9e9e9"/>
    </radialGradient>
    <filter id="_51" x="0" y="0" width="148" height="149" filterUnits="userSpaceOnUse">
      <feOffset dx="3" dy="3" input="SourceAlpha"/>
      <feGaussianBlur stdDeviation="3" result="blur"/>
      <feFlood flood-opacity="0.161"/>
      <feComposite operator="in" in2="blur"/>
      <feComposite in="SourceGraphic"/>
    </filter>
  </defs>
  <g id="Grupo_1008509" data-name="Grupo 1008509" transform="translate(-263.534 -1115.893)">
    <g transform="matrix(1, 0, 0, 1, 263.53, 1115.89)" filter="url(#_51)">
      <g id="_51-2" data-name="51" transform="translate(6 6)" stroke="#fff" stroke-width="3" fill="url(#radial-gradient)">
        <ellipse cx="65" cy="65.5" rx="65" ry="65.5" stroke="none"/>
        <ellipse cx="65" cy="65.5" rx="63.5" ry="64" fill="none"/>
      </g>
    </g>
    <g id="_006-seeding" data-name="006-seeding" transform="translate(301.534 1152.893)">
      <g id="Grupo_1008503" data-name="Grupo 1008503" transform="translate(1.012 1.008)">
        <path id="Trazado_713154" data-name="Trazado 713154" d="M45.2,354.3h56.8v7.378H45.2Z" transform="translate(-41.289 -307.583)" fill="#e59b6c" fill-rule="evenodd"/>
        <path id="Trazado_713155" data-name="Trazado 713155" d="M18.638,413.906h59.73a2.45,2.45,0,0,0,2.44-2.44v-9.219a2.45,2.45,0,0,0-2.44-2.444H18.638a2.448,2.448,0,0,0-2.44,2.444v9.219a2.447,2.447,0,0,0,2.44,2.44Z" transform="translate(-16.198 -346.951)" fill="#ffefd6" fill-rule="evenodd"/>
        <g id="Grupo_1008502" data-name="Grupo 1008502">
          <path id="Trazado_713156" data-name="Trazado 713156" d="M16.329,108.075a9.922,9.922,0,0,0,4.93,5.95c3.1,1.791,6.484,2.058,8.569.882-.023-2.394-1.944-5.19-5.048-6.985a9.953,9.953,0,0,0-7.607-1.3C16.123,106.956,16.092,107,16.329,108.075Z" transform="translate(-16.207 -93.01)" fill="#b3e59f" fill-rule="evenodd"/>
          <path id="Trazado_713157" data-name="Trazado 713157" d="M293.677,108.075a9.921,9.921,0,0,0,4.93,5.95c3.1,1.791,6.484,2.058,8.569.882-.023-2.394-1.944-5.19-5.049-6.985a9.953,9.953,0,0,0-7.607-1.3C293.471,106.956,293.44,107,293.677,108.075Z" transform="translate(-256.191 -93.01)" fill="#b3e59f" fill-rule="evenodd"/>
          <path id="Trazado_713158" data-name="Trazado 713158" d="M16.317,9.236a9.935,9.935,0,0,0,4.93,5.942c3.1,1.795,6.484,2.058,8.569.886-.023-2.394-1.944-5.194-5.048-6.985A9.949,9.949,0,0,0,17.15,7.785c-1.046.332-1.069.378-.832,1.451Z" transform="translate(-16.195 -7.484)" fill="#b3e59f" fill-rule="evenodd"/>
          <path id="Trazado_713159" data-name="Trazado 713159" d="M293.665,9.236a9.936,9.936,0,0,0,4.93,5.942c3.1,1.795,6.484,2.058,8.569.886-.023-2.394-1.944-5.194-5.049-6.985A9.948,9.948,0,0,0,294.5,7.785C293.451,8.117,293.428,8.163,293.665,9.236Z" transform="translate(-256.179 -7.484)" fill="#b3e59f" fill-rule="evenodd"/>
        </g>
        <path id="Trazado_713160" data-name="Trazado 713160" d="M130.814,108.087a9.921,9.921,0,0,1-4.93,5.95c-3.1,1.791-6.488,2.058-8.573.882.027-2.394,1.948-5.19,5.052-6.985a9.934,9.934,0,0,1,7.622-1.291C131.024,106.971,131.051,107.021,130.814,108.087Z" transform="translate(-103.689 -93.022)" fill="#95d6a4" fill-rule="evenodd"/>
        <path id="Trazado_713161" data-name="Trazado 713161" d="M408.187,108.087a9.922,9.922,0,0,1-4.93,5.95c-3.1,1.791-6.484,2.058-8.569.882.023-2.394,1.944-5.19,5.048-6.985a9.934,9.934,0,0,1,7.622-1.291C408.4,106.971,408.424,107.021,408.187,108.087Z" transform="translate(-343.699 -93.022)" fill="#95d6a4" fill-rule="evenodd"/>
        <path id="Trazado_713162" data-name="Trazado 713162" d="M130.814,9.237a9.933,9.933,0,0,1-4.93,5.942c-3.1,1.795-6.488,2.058-8.573.886.027-2.394,1.948-5.194,5.052-6.985a9.937,9.937,0,0,1,7.615-1.294C131.024,8.114,131.051,8.164,130.814,9.237Z" transform="translate(-103.689 -7.485)" fill="#95d6a4" fill-rule="evenodd"/>
        <path id="Trazado_713163" data-name="Trazado 713163" d="M408.187,9.237a9.933,9.933,0,0,1-4.93,5.942c-3.1,1.795-6.484,2.058-8.569.886.023-2.394,1.944-5.194,5.048-6.985a9.937,9.937,0,0,1,7.615-1.294C408.4,8.114,408.424,8.164,408.187,9.237Z" transform="translate(-343.699 -7.485)" fill="#95d6a4" fill-rule="evenodd"/>
        <path id="Trazado_713164" data-name="Trazado 713164" d="M18.638,272.991h59.73a2.447,2.447,0,0,0,2.44-2.44v-9.222a2.447,2.447,0,0,0-2.44-2.44H18.638a2.447,2.447,0,0,0-2.44,2.44v9.222a2.447,2.447,0,0,0,2.44,2.44Z" transform="translate(-16.198 -225.02)" fill="#ffefd6" fill-rule="evenodd"/>
        <path id="Trazado_713165" data-name="Trazado 713165" d="M179,293.1h16.516a2.442,2.442,0,1,1,0,4.884H179a2.442,2.442,0,1,1,0-4.884Z" transform="translate(-154.953 -254.626)" fill="#0c5e7f" fill-rule="evenodd"/>
        <path id="Trazado_713166" data-name="Trazado 713166" d="M72.963,269.722H16.2v.829a2.447,2.447,0,0,0,2.44,2.44h59.73a2.447,2.447,0,0,0,2.44-2.44v-9.222a2.447,2.447,0,0,0-2.44-2.44h-.829v6.255a4.591,4.591,0,0,1-4.575,4.579Z" transform="translate(-16.197 -225.02)" fill="#ffe6c1" fill-rule="evenodd"/>
        <path id="Trazado_713167" data-name="Trazado 713167" d="M72.959,410.636H16.2v.829a2.447,2.447,0,0,0,2.44,2.44h59.73a2.45,2.45,0,0,0,2.44-2.44v-9.219a2.451,2.451,0,0,0-2.44-2.444h-.829v6.255a4.589,4.589,0,0,1-4.579,4.579Z" transform="translate(-16.197 -346.951)" fill="#ffe6c1" fill-rule="evenodd"/>
      </g>
      <path id="Trazado_713168" data-name="Trazado 713168" d="M10.763,15.656a6.269,6.269,0,0,0,1.161,2.559,10.636,10.636,0,0,0,3.326,2.933,10.7,10.7,0,0,0,4.2,1.417,6.247,6.247,0,0,0,2.8-.279A6.371,6.371,0,0,0,21.1,19.727a10.717,10.717,0,0,0-3.334-2.933,10.776,10.776,0,0,0-4.2-1.421,6.271,6.271,0,0,0-2.8.283Zm51.217-4.067V18.3a13.121,13.121,0,0,1,8.34-4.5,7.6,7.6,0,0,1,4.479.775,1.006,1.006,0,0,1,.512.974,7.615,7.615,0,0,1-1.566,4.189,13.024,13.024,0,0,1-8.787,5.071,8.667,8.667,0,0,1-2.979-.183v9.238h9.887a3.468,3.468,0,0,1,3.452,3.452v2.322a1.01,1.01,0,1,1-2.02,0V37.316a1.441,1.441,0,0,0-1.432-1.428H12.138a1.441,1.441,0,0,0-1.432,1.428v9.222a1.441,1.441,0,0,0,1.432,1.428h59.73A1.441,1.441,0,0,0,73.3,46.539V44.217a1.01,1.01,0,1,1,2.02,0v2.322a3.462,3.462,0,0,1-3.452,3.448h-.455v2.864h.455A3.462,3.462,0,0,1,75.32,56.3v9.219a3.469,3.469,0,0,1-3.452,3.452H12.138a3.462,3.462,0,0,1-3.452-3.452V63.2a1.01,1.01,0,1,1,2.02,0v2.322a1.441,1.441,0,0,0,1.432,1.428h59.73A1.441,1.441,0,0,0,73.3,65.522V56.3a1.441,1.441,0,0,0-1.432-1.432H12.138A1.441,1.441,0,0,0,10.706,56.3v2.318a1.01,1.01,0,1,1-2.02,0V56.3a3.455,3.455,0,0,1,3.452-3.452h.454V49.987h-.454a3.455,3.455,0,0,1-3.452-3.448V37.316a3.462,3.462,0,0,1,3.452-3.452H22.312V24.378a8.759,8.759,0,0,1-3.063.195,12.773,12.773,0,0,1-5-1.68A12.733,12.733,0,0,1,10.29,19.4a7.744,7.744,0,0,1-1.6-4.266,1,1,0,0,1,.512-.974,7.723,7.723,0,0,1,4.563-.791,12.764,12.764,0,0,1,5.006,1.68A13.012,13.012,0,0,1,22.312,18V11.062a8.762,8.762,0,0,1-3.063.191A13.282,13.282,0,0,1,10.29,6.082a7.743,7.743,0,0,1-1.6-4.269A1,1,0,0,1,9.205.839,7.721,7.721,0,0,1,13.769.052a13.313,13.313,0,0,1,8.963,5.171,10.057,10.057,0,0,1,.588.92c.179-.309.374-.619.592-.92A13.3,13.3,0,0,1,32.874.052a7.721,7.721,0,0,1,4.563.787,1,1,0,0,1,.512.974,7.746,7.746,0,0,1-1.6,4.269,13.282,13.282,0,0,1-8.959,5.171,8.762,8.762,0,0,1-3.063-.191V18a13.007,13.007,0,0,1,3.536-2.952,12.768,12.768,0,0,1,5.006-1.68,7.721,7.721,0,0,1,4.563.791,1,1,0,0,1,.512.974,7.745,7.745,0,0,1-1.6,4.266,13.286,13.286,0,0,1-8.959,5.175,8.759,8.759,0,0,1-3.063-.195v9.486H59.961V24.627a8.657,8.657,0,0,1-2.979.183A13.061,13.061,0,0,1,48.2,19.738a7.645,7.645,0,0,1-1.566-4.189,1.012,1.012,0,0,1,.512-.974,7.606,7.606,0,0,1,4.48-.775,12.567,12.567,0,0,1,4.911,1.646A12.81,12.81,0,0,1,59.961,18.3v-6.71a8.565,8.565,0,0,1-2.979.183A13.033,13.033,0,0,1,48.2,6.7,7.634,7.634,0,0,1,46.63,2.512a1.011,1.011,0,0,1,.512-.974,7.577,7.577,0,0,1,4.48-.771,13.016,13.016,0,0,1,8.787,5.071,8.616,8.616,0,0,1,.565.867,9.309,9.309,0,0,1,.561-.867A13,13,0,0,1,70.321.767a7.571,7.571,0,0,1,4.479.771,1,1,0,0,1,.512.974A7.6,7.6,0,0,1,73.747,6.7a13.024,13.024,0,0,1-8.787,5.071,8.573,8.573,0,0,1-2.979-.183ZM33.745,38.477H50.261a3.45,3.45,0,0,1,0,6.9H33.745a3.45,3.45,0,0,1,0-6.9ZM50.261,40.5H33.745a1.43,1.43,0,0,0,0,2.86H50.261a1.43,1.43,0,0,0,0-2.86ZM14.613,52.851H69.393V49.987H14.613Zm57.5-47.334a6.165,6.165,0,0,0,1.13-2.482,6.144,6.144,0,0,0-2.715-.264,10.968,10.968,0,0,0-7.359,4.25A6.127,6.127,0,0,0,62.038,9.5a6.143,6.143,0,0,0,2.715.267,10.981,10.981,0,0,0,7.359-4.25ZM34.719,4.9a6.284,6.284,0,0,0,1.161-2.562,6.331,6.331,0,0,0-2.8-.279,11.263,11.263,0,0,0-7.534,4.35,6.388,6.388,0,0,0-1.161,2.562,6.3,6.3,0,0,0,2.8.279A11.24,11.24,0,0,0,34.719,4.9ZM72.112,18.554a6.165,6.165,0,0,0,1.13-2.482,6.144,6.144,0,0,0-2.715-.264,10.968,10.968,0,0,0-7.359,4.25,6.126,6.126,0,0,0-1.131,2.478,6.141,6.141,0,0,0,2.715.267,10.982,10.982,0,0,0,7.359-4.25Zm-37.393-.34a6.269,6.269,0,0,0,1.161-2.559,6.272,6.272,0,0,0-2.8-.283,11.274,11.274,0,0,0-7.534,4.353,6.373,6.373,0,0,0-1.161,2.559,6.244,6.244,0,0,0,2.8.279,11.225,11.225,0,0,0,7.531-4.35ZM48.7,3.035a6.27,6.27,0,0,0,1.13,2.482,10.983,10.983,0,0,0,7.359,4.25A6.143,6.143,0,0,0,59.9,9.5a6.166,6.166,0,0,0-1.126-2.478,10.977,10.977,0,0,0-7.359-4.25,6.159,6.159,0,0,0-2.719.263Zm-37.936-.7A6.284,6.284,0,0,0,11.924,4.9a11.24,11.24,0,0,0,7.531,4.35,6.3,6.3,0,0,0,2.8-.279A6.385,6.385,0,0,0,21.1,6.407a11.262,11.262,0,0,0-7.534-4.35,6.33,6.33,0,0,0-2.8.279ZM48.7,16.072a6.268,6.268,0,0,0,1.13,2.482,10.988,10.988,0,0,0,7.359,4.25,6.141,6.141,0,0,0,2.715-.267,6.168,6.168,0,0,0-1.126-2.478,11,11,0,0,0-7.359-4.25A6.164,6.164,0,0,0,48.7,16.072Z" transform="translate(-8.686 0)"/>
    </g>
  </g>
</svg>
