<svg xmlns="http://www.w3.org/2000/svg" xmlns:xlink="http://www.w3.org/1999/xlink" width="1240" height="563" viewBox="0 0 1240 563">
  <defs>
    <linearGradient id="linear-gradient" x1="0.5" x2="0.5" y2="1.789" gradientUnits="objectBoundingBox">
      <stop offset="0" stop-color="#d2e1f1"/>
      <stop offset="1" stop-color="#cdd7a6"/>
    </linearGradient>
    <clipPath id="clip-path">
      <path id="Rectángulo_348772" data-name="Rectángulo 348772" d="M15,0H1225a15,15,0,0,1,15,15V548a15,15,0,0,1-15,15H15A15,15,0,0,1,0,548V15A15,15,0,0,1,15,0Z" transform="translate(188.852 122.543)" fill="none"/>
    </clipPath>
    <clipPath id="clip-path-2">
      <rect id="Rectángulo_348757" data-name="Rectángulo 348757" width="421.667" height="260.739" transform="translate(136.677 481.993)" fill="none"/>
    </clipPath>
    <clipPath id="clip-path-3">
      <rect id="Rectángulo_348758" data-name="Rectángulo 348758" width="485.46" height="260.745" transform="translate(810.52 481.987)" fill="none"/>
    </clipPath>
    <clipPath id="clip-path-4">
      <rect id="Rectángulo_348760" data-name="Rectángulo 348760" width="250" height="478.862" transform="translate(1298.75 325.145)" fill="none"/>
    </clipPath>
    <clipPath id="clip-path-5">
      <rect id="Rectángulo_348762" data-name="Rectángulo 348762" width="250.001" height="478.862" transform="translate(558.344 325.145)" fill="none"/>
    </clipPath>
    <clipPath id="clip-path-6">
      <rect id="Rectángulo_348763" data-name="Rectángulo 348763" width="123.92" height="98.018" transform="translate(1269.14 475.907)" fill="none"/>
    </clipPath>
    <clipPath id="clip-path-7">
      <rect id="Rectángulo_348764" data-name="Rectángulo 348764" width="172.73" height="58.905" transform="translate(1328.71 502.766)" fill="none"/>
    </clipPath>
    <clipPath id="clip-path-8">
      <rect id="Rectángulo_348770" data-name="Rectángulo 348770" width="365.127" height="365.101" transform="translate(0 -0.01)" fill="none"/>
    </clipPath>
  </defs>
  <g id="Grupo_1008718" data-name="Grupo 1008718" transform="translate(6018 4922)">
    <rect id="Rectángulo_348615" data-name="Rectángulo 348615" width="1240" height="563" rx="15" transform="translate(-6018 -4922)" fill="url(#linear-gradient)"/>
    <g id="Grupo_1008673" data-name="Grupo 1008673" transform="translate(-6206.852 -5044.543)">
      <g id="Grupo_1008672" data-name="Grupo 1008672" clip-path="url(#clip-path)">
        <g id="Grupo_1008653" data-name="Grupo 1008653" opacity="0.36" style="isolation: isolate">
          <g id="Grupo_1008652" data-name="Grupo 1008652">
            <g id="Grupo_1008651" data-name="Grupo 1008651" clip-path="url(#clip-path-2)">
              <path id="Trazado_714907" data-name="Trazado 714907" d="M402.572,546.335c-47.428-21.3-97.476-42.456-155.958-54.1-35.547-7.083-72.644-10.149-109.937-10.238V742.732H558.3c0-52.721.04-165.053.04-165.053s-62.862,7.091-155.772-31.344" fill="#b7cbdf"/>
            </g>
          </g>
        </g>
        <g id="Grupo_1008656" data-name="Grupo 1008656" opacity="0.36" style="isolation: isolate">
          <g id="Grupo_1008655" data-name="Grupo 1008655">
            <g id="Grupo_1008654" data-name="Grupo 1008654" clip-path="url(#clip-path-3)">
              <path id="Trazado_714908" data-name="Trazado 714908" d="M1122.251,492.231c-58.483,11.648-108.53,32.8-155.958,54.1-92.91,38.435-155.772,31.344-155.772,31.344s.039,112.333.039,165.053h485.425V484.565c-58.239-4.688-117.9-3.459-173.734,7.666" fill="#b7cbdf"/>
            </g>
          </g>
        </g>
        <g id="Grupo_1008659" data-name="Grupo 1008659" opacity="0.4">
          <g id="Grupo_1008658" data-name="Grupo 1008658">
            <g id="Grupo_1008657" data-name="Grupo 1008657" clip-path="url(#clip-path-4)">
              <rect id="Rectángulo_348759" data-name="Rectángulo 348759" width="250.001" height="478.862" transform="translate(1298.75 325.145)" fill="#f3f2f1"/>
            </g>
          </g>
        </g>
        <g id="Grupo_1008662" data-name="Grupo 1008662" opacity="0.4">
          <g id="Grupo_1008661" data-name="Grupo 1008661">
            <g id="Grupo_1008660" data-name="Grupo 1008660" clip-path="url(#clip-path-5)">
              <rect id="Rectángulo_348761" data-name="Rectángulo 348761" width="250.001" height="478.862" transform="translate(558.344 325.145)" fill="#f3f2f1"/>
            </g>
          </g>
        </g>
        <path id="Trazado_714909" data-name="Trazado 714909" d="M1422.044,452.143h115.847V336.3H1422.044Zm114.141-1.706H1423.751V338h112.434Z" fill="#80a2a1"/>
        <path id="Trazado_714910" data-name="Trazado 714910" d="M1422.044,566.283h115.847V450.437H1422.044Zm114.141-1.707H1423.751V452.143h112.434Z" fill="#80a2a1"/>
        <path id="Trazado_714911" data-name="Trazado 714911" d="M1422.044,680.422h115.847V564.577H1422.044Zm114.141-1.707H1423.751V566.283h112.434Z" fill="#80a2a1"/>
        <path id="Trazado_714912" data-name="Trazado 714912" d="M1422.044,794.562h115.847V678.715H1422.044Zm114.141-1.706H1423.751V680.422h112.434Z" fill="#80a2a1"/>
        <path id="Trazado_714913" data-name="Trazado 714913" d="M1307.905,452.143H1423.75V336.3H1307.905Zm114.139-1.706H1309.612V338h112.432Z" fill="#80a2a1"/>
        <path id="Trazado_714914" data-name="Trazado 714914" d="M1307.905,566.283H1423.75V450.437H1307.905Zm114.139-1.707H1309.612V452.143h112.432Z" fill="#80a2a1"/>
        <path id="Trazado_714915" data-name="Trazado 714915" d="M1307.905,680.422H1423.75V564.577H1307.905Zm114.139-1.707H1309.612V566.283h112.432Z" fill="#80a2a1"/>
        <path id="Trazado_714916" data-name="Trazado 714916" d="M1307.905,794.562H1423.75V678.715H1307.905Zm114.139-1.706H1309.612V680.422h112.432Z" fill="#80a2a1"/>
        <path id="Trazado_714917" data-name="Trazado 714917" d="M1297.044,805.714h251.707V325.146H1297.044Zm250-1.707h-248.3V326.852h248.3Z" fill="#80a2a1"/>
        <path id="Trazado_714918" data-name="Trazado 714918" d="M683.413,452.143H799.258V336.3H683.413Zm114.138-1.706H685.119V338H797.551Z" fill="#80a2a1"/>
        <path id="Trazado_714919" data-name="Trazado 714919" d="M683.413,566.283H799.258V450.437H683.413Zm114.138-1.707H685.119V452.143H797.551Z" fill="#80a2a1"/>
        <path id="Trazado_714920" data-name="Trazado 714920" d="M683.413,680.422H799.258V564.577H683.413Zm114.138-1.707H685.119V566.283H797.551Z" fill="#80a2a1"/>
        <path id="Trazado_714921" data-name="Trazado 714921" d="M683.413,794.562H799.258V678.715H683.413Zm114.138-1.706H685.119V680.422H797.551Z" fill="#80a2a1"/>
        <path id="Trazado_714922" data-name="Trazado 714922" d="M569.272,452.143H685.119V336.3H569.272Zm114.141-1.706H570.979V338H683.413Z" fill="#80a2a1"/>
        <path id="Trazado_714923" data-name="Trazado 714923" d="M569.272,566.283H685.119V450.437H569.272Zm114.141-1.707H570.979V452.143H683.413Z" fill="#80a2a1"/>
        <path id="Trazado_714924" data-name="Trazado 714924" d="M569.272,680.422H685.119V564.577H569.272Zm114.141-1.707H570.979V566.283H683.413Z" fill="#80a2a1"/>
        <path id="Trazado_714925" data-name="Trazado 714925" d="M569.272,794.562H685.119V678.715H569.272Zm114.141-1.706H570.979V680.422H683.413Z" fill="#80a2a1"/>
        <path id="Trazado_714926" data-name="Trazado 714926" d="M558.412,805.714H810.118V325.146H558.412Zm250-1.707H560.118V326.852H808.411Z" fill="#80a2a1"/>
        <path id="Trazado_714927" data-name="Trazado 714927" d="M1344.623,556.514c2.016-.422,5.106-.463,7.122-.884a69.863,69.863,0,0,0,30.765,27.645,100.676,100.676,0,0,0,18.742-40.067c2.525,0,5.561,1.649,8.086,1.649-3.057,8.474-5.916,16.829-8.973,25.3a72.71,72.71,0,0,0,39.311-30.694c2.423,0,5.572-.412,7.995-.412-6.479,14.968-19.51,26.442-34.188,33.556-7.613,3.691-16.212,6.718-20.95,13.728-4.946,7.32-4.242,17.242-.925,25.43l-15.369.589a43.846,43.846,0,0,1,3.249-23.32,68.1,68.1,0,0,1-34.865-32.524" fill="#a77256"/>
        <path id="Trazado_714928" data-name="Trazado 714928" d="M1269.139,532.065a23.576,23.576,0,0,0,13.993,21.33,12.8,12.8,0,0,0,5.528,9.982,11.949,11.949,0,0,0,10.955,1.11c3.515,5.562,9.949,8.8,16.484,9.368a21.716,21.716,0,0,0,17.679-7c5.545,5.068,15.306,3.857,20.186-1.859,5.939,4.453,14.539,2.184,19.743-3.089,5.222-5.273,6.809-13.412,5.427-20.7,5.818-.392,11.535-4.129,13.292-9.692a15.015,15.015,0,0,0-4.76-15.767,9.387,9.387,0,0,0,2.525-9.846,9.9,9.9,0,0,0-7.849-6.928c2.252-3.345,1.826-7.884-.41-11.245s-7.884-3.806-11.842-3.038a9.67,9.67,0,0,0-1.877-8.788,12.022,12.022,0,0,0-5.171-3.958c-5-1.946-10.716-.837-15.562,1.416a17.346,17.346,0,0,0-15.2-4.932A18.994,18.994,0,0,0,1318.4,477.9a17.009,17.009,0,0,0-18.668-.1,17.566,17.566,0,0,0-7.457,17.473c-3.7-.461-7.1,2.116-9.112,5.256a10.227,10.227,0,0,0-.069,10.614,21.5,21.5,0,0,0-7.235,4.88,23.151,23.151,0,0,0-6.723,16.04" fill="#5c9a76"/>
        <g id="Grupo_1008665" data-name="Grupo 1008665" style="mix-blend-mode: multiply;isolation: isolate">
          <g id="Grupo_1008664" data-name="Grupo 1008664">
            <g id="Grupo_1008663" data-name="Grupo 1008663" clip-path="url(#clip-path-6)">
              <path id="Trazado_714929" data-name="Trazado 714929" d="M1269.139,532.065a23.576,23.576,0,0,0,13.993,21.33,12.8,12.8,0,0,0,5.528,9.982,11.949,11.949,0,0,0,10.955,1.11c3.515,5.562,9.949,8.8,16.484,9.368a21.716,21.716,0,0,0,17.679-7c5.545,5.068,15.306,3.857,20.186-1.859,5.939,4.453,14.539,2.184,19.743-3.089,5.222-5.273,6.809-13.412,5.427-20.7,5.818-.392,11.535-4.129,13.292-9.692a15.015,15.015,0,0,0-4.76-15.767,9.387,9.387,0,0,0,2.525-9.846,9.9,9.9,0,0,0-7.849-6.928c2.252-3.345,1.826-7.884-.41-11.245s-7.884-3.806-11.842-3.038a9.67,9.67,0,0,0-1.877-8.788,11.818,11.818,0,0,0-10.153,6.553c-5.683-2.014-12.406-.614-17.423,2.747a19.775,19.775,0,0,0-8.6,15.17c-5.375,2.611-8.856,8.652-9.351,14.59a17.63,17.63,0,0,0,7.184,15.545c-2.645,6.28-.819,14.232,3.618,19.4a18.879,18.879,0,0,0,18.5,5.9,10.858,10.858,0,0,0,4.42,4.607,11.78,11.78,0,0,1-7.492-1.484c.973,1.109,1.946,2.218,2.918,3.344a16.284,16.284,0,0,1-11.927,1.894,16.636,16.636,0,0,1-9.881-7.166,8.3,8.3,0,0,0,1.809,5.682c-4.505,4.88-11.228,7.389-17.661,5.75a18.92,18.92,0,0,1-13.361-13.48,7.568,7.568,0,0,0-1.928,5.853,10.8,10.8,0,0,1-9.693-5.136c-2.116-3.26-2.8-7.253-2.815-11.143a8.769,8.769,0,0,0-2.065,4.2,22.465,22.465,0,0,1-12.4-17.286,22.962,22.962,0,0,1,3.958-15.426,23.151,23.151,0,0,0-6.723,16.04" fill="#acd1c2"/>
            </g>
          </g>
        </g>
        <path id="Trazado_714930" data-name="Trazado 714930" d="M1314.532,488.99c8.784,0,8.8,13.651,0,13.651s-8.8-13.651,0-13.651" fill="#fbd46d"/>
        <path id="Trazado_714931" data-name="Trazado 714931" d="M1316.454,550.746c6.588,0,6.6,10.238,0,10.238s-6.6-10.238,0-10.238" fill="#fbd46d"/>
        <path id="Trazado_714932" data-name="Trazado 714932" d="M1336.047,527.611c-3.106,5.153-2.321,12.576.938,17.627a16.51,16.51,0,0,0,15.512,7.252,16.415,16.415,0,0,0,12.371,6.246,16.2,16.2,0,0,0,12.61-5.529,25.941,25.941,0,0,0,38.872-.6c2.338,3.14,6.092,3.959,9.966,3.361a11.074,11.074,0,0,0,8.6-7.115c7,4.726,17.149,4.778,24.623.836a23.974,23.974,0,0,0,12.559-20.613,32.8,32.8,0,0,0,8.72,1.484,12.751,12.751,0,0,0,8.907-2.44c2.441-2,3.771-5.495,2.645-8.447,4.232-1.621,7.918-5.443,8.805-9.88a15.207,15.207,0,0,0-.153-6.313v-.018a13.7,13.7,0,0,0-3.652-6.842c1.689-7.457-1.553-15.511-7.218-20.631-5.665-5.136-13.4-7.559-21.023-7.9s-15.221,1.263-22.559,3.378a13.258,13.258,0,0,0-9.521-7.166,13.957,13.957,0,0,0-11.757,3.5c-7.594-9.283-20.358-13.907-31.978-10.99a32.542,32.542,0,0,0-23.429,24.76c-4.2-1.6-9.8,1.5-10.426,5.956a17.8,17.8,0,0,0-15.46,1.74,17.38,17.38,0,0,0-7.816,13.242c-.153.085-.307.171-.443.256a15,15,0,0,0-7.031,12.439,14.342,14.342,0,0,0,7.338,12.406" fill="#3a5f58"/>
        <g id="Grupo_1008668" data-name="Grupo 1008668" style="mix-blend-mode: multiply;isolation: isolate">
          <g id="Grupo_1008667" data-name="Grupo 1008667">
            <g id="Grupo_1008666" data-name="Grupo 1008666" clip-path="url(#clip-path-7)">
              <path id="Trazado_714933" data-name="Trazado 714933" d="M1336.047,527.611c-3.106,5.153-2.321,12.576.938,17.627a16.51,16.51,0,0,0,15.512,7.252,16.415,16.415,0,0,0,12.371,6.246,16.2,16.2,0,0,0,12.61-5.529,25.941,25.941,0,0,0,38.872-.6c2.338,3.14,6.092,3.959,9.966,3.361a11.074,11.074,0,0,0,8.6-7.115c7,4.726,17.149,4.778,24.623.836a23.974,23.974,0,0,0,12.559-20.613,32.8,32.8,0,0,0,8.72,1.484,12.751,12.751,0,0,0,8.907-2.44c2.441-2,3.771-5.495,2.645-8.447,4.232-1.621,7.918-5.443,8.805-9.88a15.207,15.207,0,0,0-.153-6.313,9.973,9.973,0,0,1-1.331,3.344,13.52,13.52,0,0,1-8.566,5.631,25.352,25.352,0,0,1-10.444-.188,9.07,9.07,0,0,0,5.2,4.488c-2.85,4.164-8.225,6.6-12.917,4.761A13.817,13.817,0,0,0,1468.5,510.8a27.28,27.28,0,0,1-2.526,21.023,22.161,22.161,0,0,1-17.593,11.126c-7.218.341-14.624-3.755-17.661-10.324a17.138,17.138,0,0,0,2.44,9.5c-2,4.164-6.4,7.133-10.938,6.263a10.881,10.881,0,0,1-8.566-9.641c-.683,2.867-1.143,5.614-.341,8.429-6.467,4.539-15.034,5.956-22.286,2.833a23.657,23.657,0,0,1-13.822-17.968,27.507,27.507,0,0,0-2.866,14.777,12.465,12.465,0,0,1-13.635,1.468,12.872,12.872,0,0,1-6.842-12.15,13.279,13.279,0,0,0-2.184,8.327,15.622,15.622,0,0,1-9.9-10.869,16.339,16.339,0,0,1,3.873-14.539c-2.781.409-5.665,1.894-7,4.385-3.276-2.337-5.8-5.665-6.263-9.658a14.617,14.617,0,0,1,3.345-11.023,15,15,0,0,0-7.031,12.439,14.342,14.342,0,0,0,7.338,12.406" fill="#acd1c2"/>
            </g>
          </g>
        </g>
        <path id="Trazado_714934" data-name="Trazado 714934" d="M1418.777,482.422c5.49,0,5.5,8.533,0,8.533s-5.5-8.533,0-8.533" fill="#fbd46d"/>
        <path id="Trazado_714935" data-name="Trazado 714935" d="M1395.238,509.167c8.784,0,8.8,13.651,0,13.651s-8.8-13.651,0-13.651" fill="#fbd46d"/>
        <path id="Trazado_714936" data-name="Trazado 714936" d="M1374.581,495.5c6.588,0,6.6,10.239,0,10.239s-6.6-10.239,0-10.239" fill="#fbd46d"/>
        <path id="Trazado_714937" data-name="Trazado 714937" d="M1277.7,609.484l9.215,15.87,2.15,3.7,4.982,8.6h197.38l6.654-11.467,2.219-3.823,7.474-12.883c2.508-4.351-.222-10.136-4.8-10.136H1282.5c-4.573,0-7.3,5.785-4.8,10.136" fill="#eb9168"/>
        <path id="Trazado_714938" data-name="Trazado 714938" d="M1286.92,625.353l2.15,3.7a35.638,35.638,0,0,0,9.727-.631c10.784-2.168,20.715-8.379,31.909-8.447,9.061-.051,16.16,5.631,24.351,8.583,7.678,2.764,14.692,1.16,21.722-2.543,7.082-3.7,13.788-8.207,22.166-7.03,7.747,1.092,14.692,5.256,21.944,7.952,7.423,2.764,14.778,3.447,22.218.358,7.918-3.293,14.931-8.941,23.975-7.917,8.771.972,16.467,6.057,25.271,6.876a26.818,26.818,0,0,0,5.734-.068l2.218-3.822c-4.624,1.263-10.136.443-14.436-.888-9.283-2.9-18.4-7.644-28.309-4.607-7.577,2.321-14.01,8.054-22,9.061-7.627.956-14.982-2.7-21.79-5.631-6.553-2.85-13.532-5.665-20.818-4.761-7.56.922-13.7,5.665-20.426,8.8a21.237,21.237,0,0,1-11.143,2.27c-3.993-.427-7.73-2.184-11.3-3.959a80.371,80.371,0,0,0-10.648-4.761,29.861,29.861,0,0,0-13.1-1.007c-9.488,1.263-18.02,5.9-27.3,8a31.136,31.136,0,0,1-12.115.461" fill="#f8d0aa"/>
        <rect id="Rectángulo_348765" data-name="Rectángulo 348765" width="278.802" height="9.898" transform="translate(1253.34 637.655)" fill="#a77256"/>
        <rect id="Rectángulo_348766" data-name="Rectángulo 348766" width="245.771" height="6.414" transform="translate(1269.855 647.554)" fill="#7b3e2a"/>
        <path id="Trazado_714939" data-name="Trazado 714939" d="M1238.95,925.357h-7.084l51.9-271.39H1297.1Z" fill="#a77256"/>
        <path id="Trazado_714940" data-name="Trazado 714940" d="M1390.164,925.357h5.154l3.05-271.39h-11.255Z" fill="#a77256"/>
        <path id="Trazado_714941" data-name="Trazado 714941" d="M1299.638,359.593a.668.668,0,0,0,.1-.008.638.638,0,0,0,.533-.731,40.93,40.93,0,0,1,53.785-45.021.64.64,0,1,0,.417-1.21,42.209,42.209,0,0,0-55.465,46.429.64.64,0,0,0,.632.541" fill="#3a5f58"/>
        <path id="Trazado_714942" data-name="Trazado 714942" d="M1299.483,359.387a.641.641,0,0,0,.636-.567c.786-6.859,1.674-14.635,6.041-20.571,4.63-6.295,13.16-9.94,22.227-9.49,7.44.359,15.189,3.161,23.689,8.563a.64.64,0,1,0,.687-1.08c-8.694-5.525-16.646-8.391-24.313-8.762-9.493-.459-18.44,3.374-23.32,10.01-4.569,6.212-5.519,14.514-6.284,21.185a.642.642,0,0,0,.564.708c.025,0,.05,0,.073,0" fill="#3a5f58"/>
        <path id="Trazado_714943" data-name="Trazado 714943" d="M1299.289,360.44l.062,0a.64.64,0,0,0,.574-.7,78.169,78.169,0,0,1,36.331-73.791.64.64,0,0,0-.679-1.085,79.439,79.439,0,0,0-36.925,75,.64.64,0,0,0,.637.578" fill="#3a5f58"/>
        <path id="Trazado_714944" data-name="Trazado 714944" d="M1299.751,359.395a.64.64,0,0,0,.64-.623,74.723,74.723,0,0,0-34.583-64.254.64.64,0,0,0-.677,1.087,73.418,73.418,0,0,1,33.98,63.133.641.641,0,0,0,.623.657Z" fill="#3a5f58"/>
        <path id="Trazado_714945" data-name="Trazado 714945" d="M1299.594,360.209a.267.267,0,0,0,.04,0,.639.639,0,0,0,.6-.679c-.925-14.482-1.88-29.457-5.619-43.789-4.181-16.021-11.593-29.25-21.437-38.255a.64.64,0,1,0-.863.944c9.66,8.838,16.943,21.852,21.06,37.635,3.71,14.213,4.661,29.125,5.583,43.547a.639.639,0,0,0,.638.6" fill="#3a5f58"/>
        <path id="Trazado_714946" data-name="Trazado 714946" d="M1299.884,360.28a.654.654,0,0,0,.207-.034.641.641,0,0,0,.4-.812c-2.22-6.517-4.836-13.4-8.922-19.587-4.423-6.7-10.029-11.566-16.213-14.081-7.18-2.923-15.3-2.448-21.173,1.238a.64.64,0,0,0,.68,1.085c5.536-3.471,13.206-3.907,20.01-1.138,7.51,3.054,12.645,9.082,15.629,13.6,4,6.066,6.584,12.858,8.775,19.295a.642.642,0,0,0,.607.433" fill="#3a5f58"/>
        <path id="Trazado_714947" data-name="Trazado 714947" d="M1299.661,359.156l.063,0a.64.64,0,0,0,.574-.7c-.42-4.215-.855-8.572-2.608-12.58-1.983-4.528-5.524-7.755-9.476-8.631-3.8-.845-8.112.39-11.819,3.389-3.25,2.631-5.583,6.106-7.837,9.467a.64.64,0,0,0,1.063.714c2.2-3.283,4.479-6.677,7.58-9.186,3.351-2.711,7.362-3.882,10.737-3.134,3.553.788,6.76,3.739,8.579,7.894,1.673,3.823,2.1,8.078,2.508,12.193a.64.64,0,0,0,.636.577" fill="#3a5f58"/>
        <path id="Trazado_714948" data-name="Trazado 714948" d="M1299.444,356.977h.01a.641.641,0,0,0,.63-.65,245.261,245.261,0,0,1,12.738-82.168.64.64,0,1,0-1.213-.406,246.524,246.524,0,0,0-12.805,82.594.64.64,0,0,0,.64.63" fill="#3a5f58"/>
        <path id="Trazado_714949" data-name="Trazado 714949" d="M1361.552,350.3H1237.439s30.662,35.568,38.553,40.524c16.039,2.086,33.007,1.894,50.669,0Z" fill="#f8d0aa"/>
        <path id="Trazado_714950" data-name="Trazado 714950" d="M1268.931,388.206a.767.767,0,0,0,.654-.307l30.226-36.271,30.835,36.277a.775.775,0,0,0,.658.3.859.859,0,0,0,.653-.314l30.256-37.049a.853.853,0,0,0,.068-.981l-62.055-102.5a.886.886,0,0,0-1.46,0l-62.057,102.5a.853.853,0,0,0,.08.994l31.492,37.049a.851.851,0,0,0,.65.3M1299.8,349.45a1.025,1.025,0,0,0-.655.307l-30.225,36.271-30.437-35.809L1299.5,249.45l61.014,100.78-29.227,35.789-30.829-36.268a.853.853,0,0,0-.65-.3" fill="#415067"/>
        <path id="Trazado_714951" data-name="Trazado 714951" d="M1299.7,390.543a218.456,218.456,0,0,0,31.715-2.346.855.855,0,0,0,.722-.969.843.843,0,0,0-.969-.719,208.375,208.375,0,0,1-62.112,0,.863.863,0,0,0-.973.713.855.855,0,0,0,.714.974,202.189,202.189,0,0,0,30.9,2.347" fill="#415067"/>
        <path id="Trazado_714952" data-name="Trazado 714952" d="M1300.222,411.8h0a1.159,1.159,0,0,0,1.156-1.163l-.419-139.365V183.7a1.16,1.16,0,1,0-2.32,0v87.57l.419,139.369a1.159,1.159,0,0,0,1.16,1.156" transform="translate(-0.362 -60.643)" fill="#415067"/>
        <path id="Trazado_714953" data-name="Trazado 714953" d="M1296.667,350.3a3.138,3.138,0,1,0,3.137-3.137,3.137,3.137,0,0,0-3.137,3.137" fill="#415067"/>
        <path id="Trazado_714954" data-name="Trazado 714954" d="M1328.158,387.352a3.138,3.138,0,1,0,3.137-3.138,3.137,3.137,0,0,0-3.137,3.138" fill="#415067"/>
        <path id="Trazado_714955" data-name="Trazado 714955" d="M1265.793,387.352a3.138,3.138,0,1,0,3.137-3.138,3.137,3.137,0,0,0-3.137,3.138" fill="#415067"/>
        <path id="Trazado_714956" data-name="Trazado 714956" d="M1362.259,336.141c12.143,2.979,24.052-3.023,26.6-13.406s-5.234-21.213-17.377-24.191-24.052,3.023-26.6,13.4,5.233,21.213,17.377,24.192" fill="#3a5f58"/>
        <path id="Trazado_714957" data-name="Trazado 714957" d="M1256.4,286.343c9.529,8.1,22.864,8.054,29.786-.093s4.807-21.314-4.722-29.409-22.864-8.054-29.786.093-4.807,21.314,4.722,29.409" fill="#3a5f58"/>
        <path id="Trazado_714958" data-name="Trazado 714958" d="M1302.111,252.585c-4.055,9.891-.486,20.719,7.97,24.186s18.6-1.742,22.654-11.633.486-20.719-7.971-24.186-18.6,1.742-22.653,11.633" fill="#3a5f58"/>
        <path id="Trazado_714959" data-name="Trazado 714959" d="M1225.6,325.009c-6.122,10.6-3.736,23.442,5.33,28.676s21.377.881,27.5-9.723,3.736-23.441-5.329-28.675-21.377-.881-27.5,9.722" fill="#3a5f58"/>
        <path id="Trazado_714960" data-name="Trazado 714960" d="M1356.788,344.486c-7.473-6.782-18.232-7.1-24.03-.71s-4.44,17.067,3.034,23.848,18.232,7.1,24.03.71,4.44-17.066-3.034-23.848" fill="#3a5f58"/>
        <path id="Trazado_714961" data-name="Trazado 714961" d="M1281.369,358.622c3.037-7.41.364-15.521-5.97-18.118s-13.933,1.3-16.97,8.714-.364,15.521,5.97,18.118,13.933-1.3,16.97-8.714" fill="#5c9a76"/>
        <path id="Trazado_714962" data-name="Trazado 714962" d="M1299.36,362.781c1.925,10.191,10.549,17.118,19.262,15.472s14.215-11.242,12.29-21.433-10.55-17.118-19.263-15.472-14.215,11.242-12.289,21.433" fill="#5c9a76"/>
        <path id="Trazado_714963" data-name="Trazado 714963" d="M1364.582,330.8c-6.916-3.581-15.005-1.691-18.066,4.222s.063,13.61,6.979,17.191,15,1.691,18.066-4.222-.063-13.61-6.979-17.191" fill="#5c9a76"/>
        <path id="Trazado_714964" data-name="Trazado 714964" d="M1339.458,262.97c-9.681,6.284-13.173,18.089-7.8,26.365s17.576,9.892,27.257,3.608,13.173-18.089,7.8-26.366-17.576-9.891-27.257-3.607" fill="#5c9a76"/>
        <path id="Trazado_714965" data-name="Trazado 714965" d="M1252.655,302.271c7.217,4.658,16.3,3.431,20.28-2.74s1.359-14.951-5.858-19.609-16.3-3.431-20.281,2.74-1.361,14.951,5.859,19.609" fill="#5c9a76"/>
        <path id="Trazado_714966" data-name="Trazado 714966" d="M837.676,662.774a11.922,11.922,0,0,1-.214,2.894c-.061.336-.143.672-.234,1.009a25.839,25.839,0,0,1-1.8,4.575c-.173.336-.336.672-.51,1.009-.764,1.518-1.569,3.026-2.241,4.565-.143.336-.286.672-.418,1.009a15.627,15.627,0,0,0-1.111,4.585c-.02.265-.03.54-.03.8a1.533,1.533,0,0,0,.01.214,13.753,13.753,0,0,0,.937,4.616c.123.346.255.683.4,1.029.652,1.569,1.477,3.108,2.272,4.636.173.347.357.693.53,1.04.224.438.438.886.652,1.324a13.01,13.01,0,0,1,1.019,3.3c.061.336.112.672.143,1.019a15.193,15.193,0,0,1-.173,4.606c-.062.346-.143.682-.235,1.008a9.624,9.624,0,0,1-2.2,4.087H816.919a8.25,8.25,0,0,0,2.232-4.4c.071-.337.122-.673.163-1.009a17.633,17.633,0,0,0-.163-4.606c-.051-.336-.112-.673-.173-1.019a33.108,33.108,0,0,0-1.264-4.626c-.122-.357-.244-.693-.367-1.029-.081-.2-.152-.408-.234-.6-.52-1.334-1.1-2.679-1.661-4.035-.143-.336-.285-.682-.418-1.029a38.016,38.016,0,0,1-1.61-4.636c-.091-.337-.173-.673-.244-1.019a15.924,15.924,0,0,1-.408-4.606c.021-.336.051-.672.1-1.019.02-.112.031-.224.051-.336a16.531,16.531,0,0,1,1.386-4.239c.163-.347.326-.683.5-1.019.774-1.539,1.661-3.037,2.476-4.555q.261-.5.52-1.009a19.212,19.212,0,0,0,1.661-4.575c.03-.183.061-.367.092-.55.02-.153.04-.306.061-.459a17.054,17.054,0,0,0-.143-4.6c-.041-.337-.1-.683-.163-1.03-.275-1.538-.652-3.067-.978-4.616-.071-.336-.143-.682-.2-1.029a23.524,23.524,0,0,1-.479-4.29c0-.1,0-.214.01-.316,0-.346.01-.682.041-1.019a21.5,21.5,0,0,1,.887-4.6c.1-.336.213-.673.326-1.009a47.657,47.657,0,0,1,1.875-4.575c.152-.336.315-.673.468-1,.082-.163.153-.326.235-.489.642-1.345,1.3-2.7,1.905-4.076.163-.336.306-.683.438-1.019a31.17,31.17,0,0,0,1.62-4.565c.092-.336.174-.683.245-1.029a18.591,18.591,0,0,0,.346-2.14,16.311,16.311,0,0,0,.062-2.445c-.021-.337-.051-.683-.092-1.019a13.409,13.409,0,0,0-1.406-4.637,8.279,8.279,0,0,0-.622-1.029,9.258,9.258,0,0,0-2.924-2.833,23.021,23.021,0,0,1,6.817,2.9,16.963,16.963,0,0,1,1.467,1.05,18.232,18.232,0,0,1,4.31,4.687c.224.326.428.673.622,1.019.02.041.051.092.071.133a20.072,20.072,0,0,1,1.783,4.5,8.842,8.842,0,0,1,.255,1.029,21.212,21.212,0,0,1,.51,4.606c0,.346-.011.682-.031,1.029a20.586,20.586,0,0,1-.713,4.585q-.138.5-.306,1.009a1.137,1.137,0,0,1-.051.173c-.509,1.488-1.182,2.945-1.834,4.4-.153.336-.306.673-.448,1.009a22.686,22.686,0,0,0-1.57,4.575,8.635,8.635,0,0,0-.153,1.019,9.472,9.472,0,0,0-.091,1.518,11.65,11.65,0,0,0,.5,3.088,10.3,10.3,0,0,0,.336,1.029,37.378,37.378,0,0,0,2.161,4.636c.173.347.356.683.529,1.03a25.558,25.558,0,0,1,1.957,4.646,8.774,8.774,0,0,1,.265,1.019,12,12,0,0,1,.224,1.712" fill="#3a5f58"/>
        <path id="Trazado_714967" data-name="Trazado 714967" d="M831.114,683.225a1.533,1.533,0,0,0,.01.214q-8.85-.168-17.7-.326c-.092-.336-.174-.673-.245-1.019l4.9.092q6.527.122,13.064.234c-.021.265-.031.54-.031.8" fill="#5c9a76"/>
        <path id="Trazado_714968" data-name="Trazado 714968" d="M832.673,676.826c-.143.336-.285.672-.418,1.009q-9.737-.168-19.483-.347c.021-.336.051-.672.1-1.019l5.207.092q7.292.138,14.592.265" fill="#5c9a76"/>
        <path id="Trazado_714969" data-name="Trazado 714969" d="M835.424,671.252c-.173.336-.336.672-.51,1.009l-20.6-.367c.163-.347.326-.683.5-1.019l3.271.061q8.667.153,17.343.316" fill="#5c9a76"/>
        <path id="Trazado_714970" data-name="Trazado 714970" d="M837.462,665.668c-.061.336-.143.672-.234,1.009q-9.966-.168-19.942-.357.261-.5.52-1.009a2.289,2.289,0,0,0,.275.011q9.69.168,19.381.346" fill="#5c9a76"/>
        <path id="Trazado_714971" data-name="Trazado 714971" d="M837.452,661.062q-8.988-.168-17.985-.326c.031-.184.061-.367.092-.55.02-.153.041-.306.061-.459q8.789.153,17.567.316a8.774,8.774,0,0,1,.265,1.019" fill="#5c9a76"/>
        <path id="Trazado_714972" data-name="Trazado 714972" d="M835.231,655.4c-5.247-.092-10.506-.194-15.753-.275-.041-.336-.1-.683-.163-1.029l15.386.275c.173.346.357.683.53,1.029" fill="#5c9a76"/>
        <path id="Trazado_714973" data-name="Trazado 714973" d="M832.541,649.731q-7.107-.123-14.205-.255c-.071-.336-.142-.682-.2-1.029q7.032.123,14.073.255a9.8,9.8,0,0,0,.336,1.029" fill="#5c9a76"/>
        <path id="Trazado_714974" data-name="Trazado 714974" d="M831.95,643.077a8.635,8.635,0,0,0-.153,1.019q-7.062-.138-14.133-.255c0-.346.01-.683.041-1.019.122.01.254.01.377.01l13.868.245" fill="#5c9a76"/>
        <path id="Trazado_714975" data-name="Trazado 714975" d="M833.967,637.493c-.153.336-.306.673-.448,1.009l-14.928-.275c.1-.337.214-.673.326-1.009l15.05.275" fill="#5c9a76"/>
        <path id="Trazado_714976" data-name="Trazado 714976" d="M836.158,631.909q-.138.5-.306,1.009l-15.06-.275c.153-.337.316-.673.469-1q7.443.123,14.9.265" fill="#5c9a76"/>
        <path id="Trazado_714977" data-name="Trazado 714977" d="M836.9,626.294c0,.346-.01.683-.03,1.029l-13.471-.244c.163-.337.3-.683.438-1.019q6.527.121,13.063.234" fill="#5c9a76"/>
        <path id="Trazado_714978" data-name="Trazado 714978" d="M836.392,621.689c-3.648-.061-7.286-.133-10.934-.194.092-.336.174-.682.245-1.029,3.475.072,6.96.133,10.434.194a8.842,8.842,0,0,1,.255,1.029" fill="#5c9a76"/>
        <path id="Trazado_714979" data-name="Trazado 714979" d="M834.283,616.023c-2.721-.051-5.452-.092-8.172-.143-.021-.336-.051-.682-.092-1.019,2.547.051,5.1.092,7.642.143.225.326.428.673.622,1.019" fill="#5c9a76"/>
        <path id="Trazado_714980" data-name="Trazado 714980" d="M829.351,610.317l-4.738-.092a8.155,8.155,0,0,0-.622-1.029c1.294.031,2.6.051,3.893.071a16.755,16.755,0,0,1,1.467,1.05" fill="#5c9a76"/>
        <path id="Trazado_714981" data-name="Trazado 714981" d="M800.63,670.509a11.118,11.118,0,0,1,.571,2.651c.034.318.05.641.056.967a24.057,24.057,0,0,1-.411,4.578c-.066.347-.124.692-.191,1.039-.285,1.563-.609,3.127-.806,4.684-.039.339-.079.678-.109,1.015a14.662,14.662,0,0,0,.213,4.4c.052.243.115.493.185.73a1.481,1.481,0,0,0,.066.19,12.847,12.847,0,0,0,2.058,3.891c.2.279.408.545.627.818,1,1.236,2.145,2.4,3.26,3.559.247.265.5.527.75.792.316.334.626.679.934,1.016a12.175,12.175,0,0,1,1.784,2.691c.143.286.278.574.4.876a14.191,14.191,0,0,1,1.059,4.176c.036.327.052.65.056.966a9.008,9.008,0,0,1-.9,4.245L794.5,718.423a7.708,7.708,0,0,0,.84-4.535c-.025-.32-.068-.635-.12-.948a16.481,16.481,0,0,0-1.361-4.087c-.134-.288-.277-.573-.424-.868a31.081,31.081,0,0,0-2.353-3.815c-.2-.287-.4-.557-.6-.826-.127-.161-.244-.325-.369-.477-.818-1.06-1.693-2.113-2.553-3.18-.217-.264-.436-.537-.646-.813a35.5,35.5,0,0,1-2.666-3.733c-.171-.277-.333-.557-.488-.849a14.9,14.9,0,0,1-1.58-4.023c-.07-.306-.132-.616-.177-.94-.011-.106-.032-.209-.043-.315a15.439,15.439,0,0,1,.125-4.166c.055-.354.112-.7.179-1.046.288-1.584.688-3.161,1.019-4.737.067-.347.133-.694.2-1.041a18,18,0,0,0,.283-4.541l-.063-.518-.066-.427a15.937,15.937,0,0,0-1.342-4.092c-.126-.291-.272-.585-.418-.88-.652-1.307-1.394-2.578-2.094-3.881-.153-.283-.308-.575-.454-.869a22,22,0,0,1-1.561-3.721c-.027-.091-.056-.191-.074-.285-.091-.311-.171-.615-.232-.925a20.073,20.073,0,0,1-.417-4.354c0-.329.014-.66.026-.991a44.957,44.957,0,0,1,.475-4.6c.048-.342.106-.686.157-1.019.03-.168.051-.333.081-.5.221-1.376.458-2.766.634-4.158.058-.344.094-.692.124-1.029a29.1,29.1,0,0,0,.249-4.52c-.006-.326-.024-.658-.052-.988a17.405,17.405,0,0,0-.253-2.01,15.246,15.246,0,0,0-.59-2.209c-.107-.3-.226-.6-.351-.889a12.529,12.529,0,0,0-2.484-3.787,7.634,7.634,0,0,0-.828-.759,8.658,8.658,0,0,0-3.37-1.769,21.477,21.477,0,0,1,6.879.807,15.6,15.6,0,0,1,1.592.554,17.025,17.025,0,0,1,5.1,3.067c.287.233.561.49.826.749.029.031.07.069.1.1a18.813,18.813,0,0,1,2.787,3.569,8.3,8.3,0,0,1,.5.855,19.811,19.811,0,0,1,1.672,4c.091.31.171.615.244.931a19.222,19.222,0,0,1,.569,4.3q.011.489-.008.986a1.043,1.043,0,0,1,0,.168c-.064,1.469-.283,2.953-.484,4.431-.048.342-.1.684-.136,1.023a21.3,21.3,0,0,0-.2,4.516,7.926,7.926,0,0,0,.132.954,8.881,8.881,0,0,0,.318,1.386,10.911,10.911,0,0,0,1.262,2.637,9.661,9.661,0,0,0,.573.834,35.02,35.02,0,0,0,3.159,3.588c.247.265.5.518.747.783a23.827,23.827,0,0,1,2.979,3.65,8.028,8.028,0,0,1,.507.844,11.088,11.088,0,0,1,.652,1.476" fill="#3a5f58"/>
        <path id="Trazado_714982" data-name="Trazado 714982" d="M799.849,684.428c-.039.339-.078.678-.109,1.015q-8.773,2.417-17.562,4.826c-.07-.307-.131-.616-.177-.94l4.693-1.291q6.573-1.8,13.155-3.61" fill="#5c9a76"/>
        <path id="Trazado_714983" data-name="Trazado 714983" d="M800.846,678.7c-.067.347-.124.692-.191,1.039l-18.572,5.1c.055-.354.113-.7.18-1.046l2.949-.807q7.811-2.148,15.634-4.29" fill="#5c9a76"/>
        <path id="Trazado_714984" data-name="Trazado 714984" d="M801.2,673.16c.034.318.049.641.056.966q-8.98,2.478-17.975,4.939c.067-.347.133-.7.2-1.042a2.334,2.334,0,0,0,.249-.063q8.734-2.4,17.47-4.8" fill="#5c9a76"/>
        <path id="Trazado_714985" data-name="Trazado 714985" d="M799.977,669.033q-8.1,2.219-16.213,4.45l-.063-.518-.066-.427q7.922-2.18,15.836-4.349a8.189,8.189,0,0,1,.506.844" fill="#5c9a76"/>
        <path id="Trazado_714986" data-name="Trazado 714986" d="M796.492,664.538q-7.1,1.953-14.2,3.907c-.125-.291-.272-.585-.418-.88l13.87-3.81c.247.265.5.518.747.783" fill="#5c9a76"/>
        <path id="Trazado_714987" data-name="Trazado 714987" d="M792.586,660.168q-6.405,1.764-12.8,3.517c-.153-.283-.308-.574-.454-.869q6.336-1.744,12.685-3.482a9.661,9.661,0,0,0,.573.834" fill="#5c9a76"/>
        <path id="Trazado_714988" data-name="Trazado 714988" d="M790.3,654.357a7.98,7.98,0,0,0,.132.954q-6.369,1.738-12.74,3.5c-.092-.31-.171-.615-.233-.924.113-.023.232-.058.341-.091l12.5-3.437" fill="#5c9a76"/>
        <path id="Trazado_714989" data-name="Trazado 714989" d="M790.638,648.818c-.048.342-.1.684-.136,1.023l-13.458,3.689c0-.328.014-.659.026-.99l13.568-3.722" fill="#5c9a76"/>
        <path id="Trazado_714990" data-name="Trazado 714990" d="M791.13,643.233c.006.326,0,.654-.008.985l-13.577,3.725c.048-.342.106-.687.157-1.019q6.706-1.854,13.428-3.691" fill="#5c9a76"/>
        <path id="Trazado_714991" data-name="Trazado 714991" d="M790.316,638c.091.311.171.615.244.931l-12.144,3.333c.058-.345.094-.693.125-1.03q5.884-1.611,11.775-3.234" fill="#5c9a76"/>
        <path id="Trazado_714992" data-name="Trazado 714992" d="M788.645,634.007c-3.287.907-6.568,1.8-9.855,2.709-.006-.325-.025-.658-.052-.987q4.7-1.278,9.407-2.578a8.311,8.311,0,0,1,.5.856" fill="#5c9a76"/>
        <path id="Trazado_714993" data-name="Trazado 714993" d="M785.26,629.483c-2.453.672-4.913,1.355-7.366,2.027-.107-.3-.225-.6-.351-.89,2.3-.626,4.593-1.261,6.891-1.887.287.233.561.49.826.75" fill="#5c9a76"/>
        <path id="Trazado_714994" data-name="Trazado 714994" d="M779.333,625.667l-4.273,1.167a7.554,7.554,0,0,0-.829-.759c1.169-.314,2.344-.639,3.51-.962a15.775,15.775,0,0,1,1.592.554" fill="#5c9a76"/>
        <path id="Trazado_714995" data-name="Trazado 714995" d="M831.432,671.349a11.891,11.891,0,0,0-.373,2.878c-.008.341.005.687.027,1.035a25.752,25.752,0,0,0,.846,4.845c.1.364.194.726.3,1.09.443,1.641.928,3.281,1.277,4.923.072.358.144.716.206,1.072a15.632,15.632,0,0,1,.165,4.716c-.033.263-.079.535-.132.794a1.51,1.51,0,0,1-.053.208,13.756,13.756,0,0,1-1.847,4.332c-.19.315-.387.618-.6.929-.954,1.406-2.072,2.747-3.159,4.084-.239.3-.488.607-.728.911-.308.384-.607.781-.9,1.167a13.018,13.018,0,0,0-1.663,3.028c-.127.317-.245.637-.345.97a15.176,15.176,0,0,0-.757,4.546c-.01.352,0,.7.027,1.036a9.632,9.632,0,0,0,1.333,4.445l17.188,3.531a8.245,8.245,0,0,1-1.3-4.761c0-.343.016-.683.043-1.021a17.635,17.635,0,0,1,1.087-4.478c.118-.319.245-.636.375-.964a33.07,33.07,0,0,1,2.169-4.277c.191-.324.378-.629.566-.934.121-.183.232-.368.351-.542.777-1.2,1.617-2.4,2.439-3.618.207-.3.416-.611.616-.924a37.945,37.945,0,0,0,2.51-4.217c.158-.311.3-.624.445-.949a15.949,15.949,0,0,0,1.326-4.43c.048-.333.085-.669.1-1.019,0-.113.015-.225.018-.339a16.518,16.518,0,0,0-.5-4.431c-.09-.372-.182-.735-.284-1.1-.449-1.663-1.016-3.309-1.509-4.96l-.306-1.093a19.243,19.243,0,0,1-.706-4.816l.021-.557c.01-.154.021-.308.032-.461a16.99,16.99,0,0,1,1.067-4.483c.107-.321.237-.648.367-.976.579-1.451,1.256-2.873,1.887-4.324.137-.315.277-.64.406-.967a23.507,23.507,0,0,0,1.333-4.106c.021-.1.043-.21.054-.311.069-.34.127-.671.165-1.007a21.526,21.526,0,0,0,.056-4.68c-.032-.35-.074-.7-.116-1.053a47.852,47.852,0,0,0-.916-4.859c-.082-.361-.174-.723-.258-1.073-.047-.176-.084-.35-.131-.526-.358-1.447-.734-2.908-1.046-4.376-.092-.362-.162-.73-.225-1.087a31.32,31.32,0,0,1-.668-4.8c-.022-.348-.032-.7-.032-1.058a18.491,18.491,0,0,1,.091-2.165,16.257,16.257,0,0,1,.432-2.408c.088-.325.188-.659.295-.98a13.391,13.391,0,0,1,2.311-4.258,8.021,8.021,0,0,1,.816-.883,9.253,9.253,0,0,1,3.434-2.187,23,23,0,0,0-7.261,1.473,16.672,16.672,0,0,0-1.649.733,18.216,18.216,0,0,0-5.165,3.724c-.286.274-.555.573-.814.873-.029.036-.069.079-.1.115a20.137,20.137,0,0,0-2.653,4.053,8.935,8.935,0,0,0-.457.957,21.2,21.2,0,0,0-1.426,4.409c-.069.339-.127.671-.177,1.014a20.549,20.549,0,0,0-.224,4.635q.033.522.1,1.05a1.232,1.232,0,0,0,.015.18c.2,1.56.566,3.122.911,4.681.082.36.164.72.236,1.078a22.761,22.761,0,0,1,.617,4.8,8.483,8.483,0,0,1-.056,1.029,9.3,9.3,0,0,1-.216,1.505,11.655,11.655,0,0,1-1.11,2.924,10.121,10.121,0,0,1-.537.941,37.215,37.215,0,0,1-3.048,4.106c-.24.3-.487.6-.727.9a25.579,25.579,0,0,0-2.851,4.157,8.815,8.815,0,0,0-.465.945,12.042,12.042,0,0,0-.564,1.632" fill="#5c9a76"/>
        <path id="Trazado_714996" data-name="Trazado 714996" d="M831.932,680.107c.1.364.193.726.295,1.091l20.256,3.787c-.09-.372-.181-.734-.284-1.1l-3.216-.6q-8.52-1.595-17.051-3.181" fill="#6fb38b"/>
        <path id="Trazado_714997" data-name="Trazado 714997" d="M831.059,674.227c-.008.342,0,.687.027,1.035q9.8,1.842,19.6,3.664l-.306-1.092a2.49,2.49,0,0,1-.272-.046q-9.526-1.785-19.054-3.561" fill="#6fb38b"/>
        <path id="Trazado_714998" data-name="Trazado 714998" d="M832,669.717q8.838,1.644,17.683,3.3c.007-.186.014-.371.02-.557l.033-.462q-8.64-1.618-17.271-3.226a8.815,8.815,0,0,0-.465.945" fill="#6fb38b"/>
        <path id="Trazado_714999" data-name="Trazado 714999" d="M835.312,664.615q7.738,1.449,15.486,2.9c.108-.321.238-.648.367-.975l-15.127-2.827c-.239.3-.487.6-.726.9" fill="#6fb38b"/>
        <path id="Trazado_715000" data-name="Trazado 715000" d="M839.087,659.607q6.987,1.311,13.965,2.609c.138-.315.277-.64.407-.967q-6.912-1.295-13.835-2.582a10.235,10.235,0,0,1-.537.94" fill="#6fb38b"/>
        <path id="Trazado_715001" data-name="Trazado 715001" d="M841.005,653.208a8.672,8.672,0,0,1-.055,1.029q6.943,1.287,13.895,2.595c.07-.34.127-.671.165-1.007-.122-.014-.252-.041-.371-.065l-13.634-2.552" fill="#6fb38b"/>
        <path id="Trazado_715002" data-name="Trazado 715002" d="M840.153,647.332c.082.36.164.72.236,1.078l14.678,2.735c-.032-.35-.074-.7-.116-1.053l-14.8-2.76" fill="#6fb38b"/>
        <path id="Trazado_715003" data-name="Trazado 715003" d="M839.131,641.421q.033.522.1,1.05l14.808,2.761c-.082-.36-.174-.722-.258-1.072q-7.315-1.378-14.646-2.739" fill="#6fb38b"/>
        <path id="Trazado_715004" data-name="Trazado 715004" d="M839.532,635.772c-.07.339-.127.671-.177,1.014l13.244,2.472c-.092-.362-.162-.73-.224-1.086q-6.417-1.194-12.843-2.4" fill="#6fb38b"/>
        <path id="Trazado_715005" data-name="Trazado 715005" d="M840.958,631.363c3.586.674,7.163,1.337,10.749,2.011-.022-.348-.032-.7-.033-1.058q-5.127-.943-10.259-1.91a8.935,8.935,0,0,0-.457.957" fill="#6fb38b"/>
        <path id="Trazado_715006" data-name="Trazado 715006" d="M844.164,626.238c2.675.5,5.359,1.007,8.034,1.505.087-.325.187-.658.295-.98-2.506-.462-5.009-.935-7.515-1.4-.285.274-.555.573-.814.873" fill="#6fb38b"/>
        <path id="Trazado_715007" data-name="Trazado 715007" d="M850.144,621.641l4.66.864a8.021,8.021,0,0,1,.816-.883c-1.274-.231-2.556-.473-3.828-.714a16.763,16.763,0,0,0-1.648.733" fill="#6fb38b"/>
        <path id="Trazado_715008" data-name="Trazado 715008" d="M795.835,666.606a11.028,11.028,0,0,0,.46,2.659c.087.306.192.61.308.912a24.007,24.007,0,0,0,2.082,4.072c.191.295.372.592.563.888.845,1.336,1.726,2.659,2.487,4.022.163.3.325.6.478.9a14.53,14.53,0,0,1,1.442,4.143c.043.244.078.5.1.743a1.662,1.662,0,0,1,.01.2,12.8,12.8,0,0,1-.451,4.356c-.082.332-.174.655-.275.989-.462,1.511-1.086,3.01-1.684,4.5-.129.336-.268.674-.4,1.01-.168.426-.326.86-.484,1.285a12.085,12.085,0,0,0-.645,3.148c-.026.316-.043.632-.04.956a14.111,14.111,0,0,0,.577,4.247,9.292,9.292,0,0,0,.308.912,8.943,8.943,0,0,0,2.406,3.583l16.24-1.586a7.666,7.666,0,0,1-2.463-3.872c-.1-.3-.174-.612-.242-.919a16.375,16.375,0,0,1-.266-4.278c.017-.315.043-.632.068-.958a30.921,30.921,0,0,1,.752-4.4c.081-.341.163-.663.246-.986.057-.2.1-.391.163-.577.36-1.283.776-2.58,1.172-3.885.1-.324.2-.658.294-.99a35.189,35.189,0,0,0,1.071-4.437c.055-.319.1-.638.134-.965a14.815,14.815,0,0,0-.038-4.3c-.05-.31-.108-.618-.187-.934-.029-.1-.049-.2-.077-.307a15.4,15.4,0,0,0-1.666-3.8c-.182-.306-.364-.6-.554-.9-.856-1.354-1.812-2.66-2.7-3.992l-.572-.886a17.884,17.884,0,0,1-1.95-4.085l-.135-.5c-.033-.139-.065-.279-.1-.418a15.825,15.825,0,0,1-.284-4.276c.007-.315.033-.641.058-.967.115-1.449.326-2.9.488-4.361.036-.317.07-.645.1-.971a21.894,21.894,0,0,0,.055-4.013,2.892,2.892,0,0,0-.038-.292c-.031-.32-.071-.631-.13-.939a20.008,20.008,0,0,0-1.235-4.173c-.125-.3-.259-.6-.393-.905a44.611,44.611,0,0,0-2.149-4.064c-.172-.3-.353-.594-.524-.882-.09-.144-.171-.288-.261-.432-.716-1.187-1.451-2.381-2.132-3.6-.181-.3-.345-.6-.5-.9a29.056,29.056,0,0,1-1.912-4.079c-.115-.3-.222-.616-.319-.93a17.3,17.3,0,0,1-.514-1.95,15.169,15.169,0,0,1-.278-2.257c-.011-.314-.014-.637-.007-.952a12.455,12.455,0,0,1,.883-4.418,7.586,7.586,0,0,1,.482-1.009,8.623,8.623,0,0,1,2.45-2.886,21.405,21.405,0,0,0-6.046,3.3,15.46,15.46,0,0,0-1.263,1.1,16.941,16.941,0,0,0-3.566,4.728c-.178.322-.335.661-.483,1-.015.04-.039.09-.054.129a18.746,18.746,0,0,0-1.244,4.33,8.208,8.208,0,0,0-.142.975,19.7,19.7,0,0,0-.056,4.309c.032.321.071.631.122.95a19.115,19.115,0,0,0,1.074,4.179q.172.454.374.906a1.091,1.091,0,0,0,.063.156c.606,1.331,1.36,2.618,2.095,3.908.172.3.344.6.506.893a21.082,21.082,0,0,1,1.866,4.093,7.829,7.829,0,0,1,.234.929,8.833,8.833,0,0,1,.222,1.4,10.834,10.834,0,0,1-.183,2.9,9.35,9.35,0,0,1-.219.983,34.667,34.667,0,0,1-1.58,4.486c-.129.336-.268.664-.4,1a23.708,23.708,0,0,0-1.391,4.477,8.138,8.138,0,0,0-.153.967,11.129,11.129,0,0,0-.053,1.605" fill="#5c9a76"/>
        <path id="Trazado_715009" data-name="Trazado 715009" d="M803.757,684.94a1.47,1.47,0,0,1,.01.2q8.175-.955,16.352-1.9c.054-.32.1-.638.134-.965l-4.528.527q-6.03.7-12.069,1.4c.043.243.077.5.1.742" fill="#6fb38b"/>
        <path id="Trazado_715010" data-name="Trazado 715010" d="M801.735,679.159c.162.3.325.6.478.9q9-1.035,18-2.081c-.049-.31-.108-.618-.186-.934l-4.811.555q-6.735.786-13.481,1.564" fill="#6fb38b"/>
        <path id="Trazado_715011" data-name="Trazado 715011" d="M798.685,674.249c.191.3.372.592.563.888l19.036-2.2c-.183-.306-.364-.6-.555-.9l-3.021.352q-8.008.926-16.023,1.86" fill="#6fb38b"/>
        <path id="Trazado_715012" data-name="Trazado 715012" d="M796.295,669.265c.087.306.193.61.308.912q9.208-1.056,18.424-2.132l-.572-.886a2.412,2.412,0,0,1-.254.034q-8.953,1.032-17.906,2.072" fill="#6fb38b"/>
        <path id="Trazado_715013" data-name="Trazado 715013" d="M795.888,665q8.3-.967,16.616-1.927l-.135-.5c-.032-.14-.065-.279-.1-.419q-8.12.936-16.23,1.88a8.307,8.307,0,0,0-.153.967" fill="#6fb38b"/>
        <path id="Trazado_715014" data-name="Trazado 715014" d="M797.432,659.557c4.849-.559,9.706-1.129,14.555-1.678.008-.315.033-.641.058-.967l-14.215,1.645c-.13.336-.269.664-.4,1" fill="#6fb38b"/>
        <path id="Trazado_715015" data-name="Trazado 715015" d="M799.409,654.07q6.567-.756,13.124-1.519c.035-.318.07-.645.095-.971q-6.5.748-13,1.507a9.341,9.341,0,0,1-.218.983" fill="#6fb38b"/>
        <path id="Trazado_715016" data-name="Trazado 715016" d="M799.355,647.859a8.035,8.035,0,0,1,.234.929q6.522-.765,13.057-1.513c-.031-.32-.071-.631-.13-.939-.112.02-.235.032-.348.043l-12.813,1.48" fill="#6fb38b"/>
        <path id="Trazado_715017" data-name="Trazado 715017" d="M796.983,642.873c.172.3.344.6.506.893l13.791-1.6c-.124-.3-.259-.6-.393-.905l-13.9,1.615" fill="#6fb38b"/>
        <path id="Trazado_715018" data-name="Trazado 715018" d="M794.451,637.9q.172.454.374.906l13.914-1.615c-.172-.3-.353-.594-.524-.882q-6.879.785-13.764,1.591" fill="#6fb38b"/>
        <path id="Trazado_715019" data-name="Trazado 715019" d="M793.255,632.774c.031.321.071.631.121.95l12.446-1.444c-.182-.3-.345-.6-.5-.9q-6.03.7-12.069,1.4" fill="#6fb38b"/>
        <path id="Trazado_715020" data-name="Trazado 715020" d="M793.311,628.465c3.371-.386,6.731-.781,10.1-1.167-.116-.3-.222-.616-.32-.931-3.209.38-6.429.752-9.639,1.122a8.268,8.268,0,0,0-.143.976" fill="#6fb38b"/>
        <path id="Trazado_715021" data-name="Trazado 715021" d="M794.751,623.031c2.513-.293,5.037-.577,7.551-.87-.012-.314-.015-.637-.007-.952-2.354.277-4.708.545-7.061.823-.178.322-.335.661-.483,1" fill="#6fb38b"/>
        <path id="Trazado_715022" data-name="Trazado 715022" d="M798.8,617.3l4.377-.513a7.525,7.525,0,0,1,.482-1.009c-1.2.145-2.4.282-3.6.418a15.636,15.636,0,0,0-1.263,1.1" fill="#6fb38b"/>
        <path id="Trazado_715023" data-name="Trazado 715023" d="M744.782,486.752H984.33a14.443,14.443,0,0,0,14.444-14.443V431.854a14.443,14.443,0,0,0-14.444-14.443H744.782a14.443,14.443,0,0,0-14.443,14.443v40.455a14.443,14.443,0,0,0,14.443,14.443" fill="#fff"/>
        <path id="Trazado_715024" data-name="Trazado 715024" d="M777.64,436.488a1.182,1.182,0,1,1-2.362,0,1.177,1.177,0,0,1,1.2-1.241,1.147,1.147,0,0,1,1.162,1.241M775.5,448.97l.279-9.541h1.361l.3,9.541Z"/>
        <path id="Trazado_715025" data-name="Trazado 715025" d="M791.642,439.089c-.1-1.881-.221-4.143-.2-5.822h-.061c-.46,1.58-1.019,3.261-1.7,5.121l-2.38,6.541h-1.32l-2.181-6.42c-.64-1.9-1.18-3.643-1.56-5.242h-.04c-.04,1.679-.14,3.941-.26,5.961l-.361,5.781h-1.66l.941-13.482h2.219l2.3,6.521c.561,1.66,1.021,3.141,1.361,4.541h.059c.341-1.361.821-2.84,1.421-4.541l2.4-6.521h2.221l.84,13.482h-1.7Z"/>
        <path id="Trazado_715026" data-name="Trazado 715026" d="M798.5,432.607a1.091,1.091,0,0,1-2.181,0,1.073,1.073,0,0,1,1.1-1.1,1.046,1.046,0,0,1,1.081,1.1m-1.961,2.721H798.3v9.682h-1.761Z"/>
        <rect id="Rectángulo_348767" data-name="Rectángulo 348767" width="1.761" height="14.203" transform="translate(801.218 430.806)"/>
        <path id="Trazado_715027" data-name="Trazado 715027" d="M818.519,435.328c-.04.7-.08,1.48-.08,2.66v5.621c0,2.221-.44,3.582-1.381,4.422a5.135,5.135,0,0,1-3.52,1.16,6.252,6.252,0,0,1-3.221-.8l.441-1.34a5.442,5.442,0,0,0,2.839.76c1.8,0,3.122-.939,3.122-3.381v-1.08h-.041a3.455,3.455,0,0,1-3.081,1.621c-2.4,0-4.12-2.041-4.12-4.72,0-3.282,2.14-5.143,4.361-5.143a3.219,3.219,0,0,1,3.02,1.682h.04l.08-1.461Zm-1.82,3.82a2.5,2.5,0,0,0-.1-.8,2.534,2.534,0,0,0-2.46-1.861c-1.68,0-2.88,1.42-2.88,3.66,0,1.9.96,3.482,2.86,3.482a2.574,2.574,0,0,0,2.44-1.8,3.045,3.045,0,0,0,.141-.942Z"/>
        <path id="Trazado_715028" data-name="Trazado 715028" d="M821.237,438.349c0-1.141-.02-2.121-.08-3.021h1.54l.061,1.9h.08a2.9,2.9,0,0,1,2.68-2.121,1.947,1.947,0,0,1,.5.06v1.661a2.633,2.633,0,0,0-.6-.061,2.471,2.471,0,0,0-2.361,2.262,4.945,4.945,0,0,0-.08.82v5.16h-1.74Z"/>
        <path id="Trazado_715029" data-name="Trazado 715029" d="M833.038,445.009l-.14-1.22h-.059a3.608,3.608,0,0,1-2.961,1.441,2.759,2.759,0,0,1-2.961-2.781c0-2.34,2.081-3.621,5.821-3.6v-.2a2,2,0,0,0-2.2-2.24,4.824,4.824,0,0,0-2.521.721l-.4-1.161a6.005,6.005,0,0,1,3.181-.861c2.96,0,3.68,2.022,3.68,3.961v3.621a13.63,13.63,0,0,0,.16,2.32Zm-.26-4.941c-1.92-.039-4.1.3-4.1,2.182a1.557,1.557,0,0,0,1.661,1.679,2.409,2.409,0,0,0,2.34-1.619,1.848,1.848,0,0,0,.1-.56Z"/>
        <path id="Trazado_715030" data-name="Trazado 715030" d="M844.219,444.65a6.479,6.479,0,0,1-2.78.561,4.6,4.6,0,0,1-4.822-4.942,4.919,4.919,0,0,1,5.2-5.14,5.863,5.863,0,0,1,2.44.5l-.4,1.359a4.083,4.083,0,0,0-2.04-.459,3.65,3.65,0,0,0-.06,7.281,5,5,0,0,0,2.16-.48Z"/>
        <path id="Trazado_715031" data-name="Trazado 715031" d="M848.238,432.607a1.09,1.09,0,0,1-2.18,0,1.073,1.073,0,0,1,1.1-1.1,1.045,1.045,0,0,1,1.081,1.1m-1.961,2.721h1.761v9.682h-1.761Z"/>
        <path id="Trazado_715032" data-name="Trazado 715032" d="M856.319,445.009l-.14-1.22h-.06a3.605,3.605,0,0,1-2.961,1.441,2.759,2.759,0,0,1-2.96-2.781c0-2.34,2.08-3.621,5.821-3.6v-.2a2,2,0,0,0-2.2-2.24,4.83,4.83,0,0,0-2.521.721l-.4-1.161a6,6,0,0,1,3.181-.861c2.959,0,3.68,2.022,3.68,3.961v3.621a13.63,13.63,0,0,0,.16,2.32Zm-.26-4.941c-1.921-.039-4.1.3-4.1,2.182a1.558,1.558,0,0,0,1.662,1.679,2.409,2.409,0,0,0,2.339-1.619,1.82,1.82,0,0,0,.1-.56Z"/>
        <path id="Trazado_715033" data-name="Trazado 715033" d="M860.357,443.208a4.587,4.587,0,0,0,2.32.7c1.281,0,1.881-.64,1.881-1.441,0-.84-.5-1.3-1.8-1.78-1.74-.621-2.56-1.58-2.56-2.74,0-1.56,1.261-2.842,3.341-2.842a4.849,4.849,0,0,1,2.381.6l-.441,1.28a3.758,3.758,0,0,0-1.98-.56c-1.04,0-1.62.6-1.62,1.319,0,.8.58,1.161,1.84,1.642,1.68.64,2.54,1.48,2.54,2.922,0,1.7-1.32,2.9-3.62,2.9a5.517,5.517,0,0,1-2.72-.66Z"/>
        <path id="Trazado_715034" data-name="Trazado 715034" d="M868.177,443.99a1.173,1.173,0,0,1,1.18-1.24,1.242,1.242,0,0,1,0,2.481,1.173,1.173,0,0,1-1.18-1.241m.5-2.861-.28-9.6h1.921l-.281,9.6Z"/>
        <path id="Trazado_715035" data-name="Trazado 715035" d="M879.378,436.488a1.182,1.182,0,1,1-2.362,0,1.177,1.177,0,0,1,1.2-1.241,1.147,1.147,0,0,1,1.162,1.241m-2.141,12.482.279-9.541h1.362l.3,9.541Z"/>
        <path id="Trazado_715036" data-name="Trazado 715036" d="M893.379,439.089c-.1-1.881-.22-4.143-.2-5.822h-.06c-.46,1.58-1.02,3.261-1.7,5.121l-2.381,6.541h-1.32l-2.181-6.42c-.639-1.9-1.179-3.643-1.559-5.242h-.04c-.04,1.679-.141,3.941-.261,5.961l-.36,5.781h-1.661l.941-13.482h2.22l2.3,6.521c.56,1.66,1.02,3.141,1.361,4.541h.059c.34-1.361.82-2.84,1.42-4.541l2.4-6.521h2.221l.841,13.482h-1.7Z"/>
        <path id="Trazado_715037" data-name="Trazado 715037" d="M906.2,442.369c0,1,.02,1.881.08,2.641h-1.56l-.1-1.58h-.04a3.643,3.643,0,0,1-3.2,1.8c-1.521,0-3.341-.84-3.341-4.24v-5.662H899.8v5.361c0,1.84.559,3.08,2.16,3.08a2.475,2.475,0,0,0,2.48-2.5v-5.941H906.2Z"/>
        <path id="Trazado_715038" data-name="Trazado 715038" d="M909.757,435.328l2.12,5.721c.22.64.46,1.4.62,1.98h.04c.18-.58.38-1.32.62-2.019l1.92-5.682h1.861l-2.64,6.9c-1.261,3.321-2.121,5.02-3.321,6.061a4.793,4.793,0,0,1-2.16,1.141l-.441-1.481a4.641,4.641,0,0,0,1.54-.861,5.313,5.313,0,0,0,1.481-1.959,1.27,1.27,0,0,0,.14-.42,1.531,1.531,0,0,0-.12-.461l-3.581-8.922Z"/>
        <path id="Trazado_715039" data-name="Trazado 715039" d="M930.878,442.369c0,1,.02,1.881.08,2.64H929.4l-.1-1.58h-.04a3.642,3.642,0,0,1-3.2,1.8c-1.521,0-3.341-.84-3.341-4.24v-5.662h1.761v5.361c0,1.84.559,3.08,2.16,3.08a2.476,2.476,0,0,0,2.48-2.5v-5.941h1.761Zm-1.2-11.223-2.44,2.861h-1.261l1.761-2.861Z"/>
        <path id="Trazado_715040" data-name="Trazado 715040" d="M935.916,432.546v2.781h2.521v1.34h-2.521v5.221c0,1.2.341,1.881,1.32,1.881a3.927,3.927,0,0,0,1.021-.119l.08,1.32a4.332,4.332,0,0,1-1.561.24,2.439,2.439,0,0,1-1.9-.74,3.593,3.593,0,0,1-.68-2.522v-5.281h-1.5v-1.34h1.5v-2.32Z"/>
        <path id="Trazado_715041" data-name="Trazado 715041" d="M942.376,432.607a1.091,1.091,0,0,1-2.181,0,1.073,1.073,0,0,1,1.1-1.1,1.045,1.045,0,0,1,1.08,1.1m-1.96,2.721h1.76v9.682h-1.76Z"/>
        <rect id="Rectángulo_348768" data-name="Rectángulo 348768" width="1.76" height="14.203" transform="translate(945.096 430.806)"/>
        <path id="Trazado_715042" data-name="Trazado 715042" d="M949.475,443.99a1.173,1.173,0,0,1,1.181-1.24,1.242,1.242,0,0,1,0,2.481,1.173,1.173,0,0,1-1.181-1.241m.5-2.861-.279-9.6h1.92l-.281,9.6Z"/>
        <path id="Trazado_715043" data-name="Trazado 715043" d="M796.94,460.488a1.182,1.182,0,1,1-2.362,0,1.177,1.177,0,0,1,1.2-1.241,1.147,1.147,0,0,1,1.162,1.241M794.8,472.97l.279-9.541h1.361l.3,9.541Z"/>
        <path id="Trazado_715044" data-name="Trazado 715044" d="M810.942,463.089c-.1-1.881-.221-4.143-.2-5.822h-.062c-.459,1.58-1.019,3.261-1.7,5.121l-2.379,6.541h-1.32l-2.182-6.42c-.64-1.9-1.18-3.643-1.56-5.242H801.5c-.041,1.679-.141,3.941-.26,5.961l-.362,5.781h-1.659l.94-13.482h2.219l2.3,6.521c.56,1.66,1.021,3.141,1.361,4.541h.058c.341-1.361.821-2.84,1.422-4.541l2.4-6.521h2.221l.841,13.482h-1.7Z"/>
        <path id="Trazado_715045" data-name="Trazado 715045" d="M821.079,469.009l-.139-1.22h-.06a3.608,3.608,0,0,1-2.961,1.441,2.759,2.759,0,0,1-2.961-2.781c0-2.34,2.081-3.621,5.821-3.6v-.2a2,2,0,0,0-2.2-2.24,4.824,4.824,0,0,0-2.521.721l-.4-1.161a6,6,0,0,1,3.18-.861c2.96,0,3.68,2.022,3.68,3.961v3.621a13.623,13.623,0,0,0,.161,2.32Zm-.259-4.941c-1.921-.039-4.1.3-4.1,2.182a1.557,1.557,0,0,0,1.661,1.679,2.408,2.408,0,0,0,2.339-1.619,1.85,1.85,0,0,0,.1-.56Z"/>
        <path id="Trazado_715046" data-name="Trazado 715046" d="M825.359,461.949c0-1-.022-1.82-.08-2.621h1.558l.1,1.6h.041a3.559,3.559,0,0,1,3.2-1.821c1.341,0,3.421.8,3.421,4.121v5.782h-1.76v-5.581c0-1.56-.581-2.861-2.24-2.861a2.5,2.5,0,0,0-2.361,1.8,2.559,2.559,0,0,0-.12.82v5.821h-1.759Z"/>
        <path id="Trazado_715047" data-name="Trazado 715047" d="M845.22,464.089c0,3.58-2.481,5.141-4.822,5.141-2.62,0-4.64-1.92-4.64-4.98,0-3.243,2.12-5.143,4.8-5.143,2.78,0,4.661,2.021,4.661,4.982m-7.682.1c0,2.121,1.22,3.721,2.94,3.721,1.681,0,2.941-1.58,2.941-3.762,0-1.639-.82-3.721-2.9-3.721s-2.98,1.922-2.98,3.762"/>
        <path id="Trazado_715048" data-name="Trazado 715048" d="M847.2,467.208a4.587,4.587,0,0,0,2.32.7c1.281,0,1.881-.64,1.881-1.441,0-.84-.5-1.3-1.8-1.78-1.74-.621-2.56-1.58-2.56-2.74,0-1.56,1.261-2.842,3.341-2.842a4.849,4.849,0,0,1,2.381.6l-.441,1.28a3.758,3.758,0,0,0-1.98-.56c-1.04,0-1.62.6-1.62,1.319,0,.8.58,1.161,1.84,1.642,1.68.64,2.54,1.48,2.54,2.922,0,1.7-1.32,2.9-3.62,2.9a5.518,5.518,0,0,1-2.72-.66Z"/>
        <path id="Trazado_715049" data-name="Trazado 715049" d="M864.958,469.009l-.14-1.22h-.059a3.608,3.608,0,0,1-2.961,1.441,2.759,2.759,0,0,1-2.961-2.781c0-2.34,2.081-3.621,5.821-3.6v-.2a2,2,0,0,0-2.2-2.24,4.824,4.824,0,0,0-2.521.721l-.4-1.161a6.005,6.005,0,0,1,3.181-.861c2.96,0,3.68,2.022,3.68,3.961v3.621a13.63,13.63,0,0,0,.16,2.32Zm-.26-4.941c-1.92-.039-4.1.3-4.1,2.182a1.557,1.557,0,0,0,1.661,1.679,2.409,2.409,0,0,0,2.34-1.619,1.848,1.848,0,0,0,.1-.56Z"/>
        <rect id="Rectángulo_348769" data-name="Rectángulo 348769" width="1.761" height="14.203" transform="translate(873.477 454.806)"/>
        <path id="Trazado_715050" data-name="Trazado 715050" d="M883.558,469.009l-.14-1.22h-.06a3.605,3.605,0,0,1-2.961,1.441,2.759,2.759,0,0,1-2.96-2.781c0-2.34,2.08-3.621,5.821-3.6v-.2a2,2,0,0,0-2.2-2.24,4.83,4.83,0,0,0-2.521.721l-.4-1.161a6,6,0,0,1,3.181-.861c2.959,0,3.68,2.022,3.68,3.961v3.621a13.63,13.63,0,0,0,.16,2.32Zm-.26-4.941c-1.921-.039-4.1.3-4.1,2.182a1.558,1.558,0,0,0,1.662,1.679,2.409,2.409,0,0,0,2.339-1.619,1.82,1.82,0,0,0,.1-.56Z"/>
        <path id="Trazado_715051" data-name="Trazado 715051" d="M900.838,464.089c0,3.58-2.481,5.141-4.821,5.141-2.621,0-4.641-1.92-4.641-4.98,0-3.243,2.12-5.143,4.8-5.143,2.781,0,4.661,2.021,4.661,4.982m-7.682.1c0,2.121,1.221,3.721,2.94,3.721,1.681,0,2.942-1.58,2.942-3.762,0-1.639-.82-3.721-2.9-3.721s-2.98,1.922-2.98,3.762"/>
        <path id="Trazado_715052" data-name="Trazado 715052" d="M902.977,469.01c.04-.66.08-1.641.08-2.5v-11.7h1.74v6.082h.04a3.607,3.607,0,0,1,3.3-1.781c2.4,0,4.1,2,4.08,4.941,0,3.461-2.18,5.182-4.341,5.182a3.449,3.449,0,0,1-3.24-1.821h-.061l-.08,1.6Zm1.82-3.881a3.292,3.292,0,0,0,.08.641,2.716,2.716,0,0,0,2.641,2.06c1.84,0,2.94-1.5,2.94-3.721,0-1.941-1-3.6-2.881-3.6a2.806,2.806,0,0,0-2.68,2.16,3.491,3.491,0,0,0-.1.721Z"/>
        <path id="Trazado_715053" data-name="Trazado 715053" d="M914.437,462.349c0-1.141-.021-2.121-.08-3.021h1.54l.06,1.9h.08a2.905,2.905,0,0,1,2.68-2.121,1.946,1.946,0,0,1,.5.06v1.661a2.623,2.623,0,0,0-.6-.061,2.47,2.47,0,0,0-2.361,2.262,4.939,4.939,0,0,0-.08.82v5.16h-1.74Z"/>
        <path id="Trazado_715054" data-name="Trazado 715054" d="M926.238,469.009l-.14-1.22h-.06a3.606,3.606,0,0,1-2.961,1.441,2.759,2.759,0,0,1-2.96-2.781c0-2.34,2.08-3.621,5.821-3.6v-.2a2,2,0,0,0-2.2-2.24,4.83,4.83,0,0,0-2.521.721l-.4-1.161a6,6,0,0,1,3.181-.861c2.959,0,3.68,2.022,3.68,3.961v3.621a13.63,13.63,0,0,0,.16,2.32Zm-.26-4.941c-1.921-.039-4.1.3-4.1,2.182a1.558,1.558,0,0,0,1.662,1.679,2.409,2.409,0,0,0,2.339-1.619,1.82,1.82,0,0,0,.1-.56Z"/>
        <path id="Trazado_715055" data-name="Trazado 715055" d="M930.176,467.99a1.173,1.173,0,0,1,1.18-1.24,1.242,1.242,0,0,1,0,2.481,1.173,1.173,0,0,1-1.18-1.241m.5-2.861-.28-9.6h1.921l-.281,9.6Z"/>
        <path id="Trazado_715056" data-name="Trazado 715056" d="M1171.223,415.553c8.195-3.274,16.212-7.937,21.154-15.249s6.053-17.734.769-24.8c-3.883-5.2-10.86-8.48-12.119-14.842-1.568-7.926,6.961-15.344,5.187-23.227-1.122-4.983-5.918-8.091-9.164-12.034-3.848-4.673-5.571-10.68-7.419-16.443s-4.074-11.708-8.575-15.755-11.939-5.459-16.559-1.549c-11.552-7.373-25.537-11.85-38.657-7.891s-24,16.093-24.347,29.794c-.186,7.283,2.4,14.755.282,21.725-1.6,5.243-5.751,9.687-6.093,15.156-.415,6.649,4.937,12.224,10.473,15.929,3.1,2.074,6.646,4.2,7.686,7.776,1.424,4.9-2.527,9.533-4.549,14.223-3.5,8.12-.932,18.054,5.03,24.582s14.781,9.93,23.581,10.785,17.66-.621,26.281-2.582,18.828-2.316,27.039-5.6" fill="#212131"/>
        <path id="Trazado_715057" data-name="Trazado 715057" d="M1206.929,593.54l-2.1,181.094L1229.9,932.545s-11.088,7.585-27.114.667l-42.4-147.883a38.494,38.494,0,0,1-1.238-6.2l-16.744-144.606-36.624,149.338-2.123,150.567s-14.861,5.21-27.029,1.693l-14.67-150.088a38.568,38.568,0,0,1,.113-8.531l22.4-179.661Z" fill="#e5c282"/>
        <path id="Trazado_715058" data-name="Trazado 715058" d="M1207.336,591.68s3.821,156.647,3.821,174.093c0,0-76.833,43.368-153.667,5.425,0,0,17.472-137.525,26.314-177.364Z" fill="#415067"/>
        <path id="Trazado_715059" data-name="Trazado 715059" d="M1102.874,400.2c-6.331,1.866-15.22,13.211-20.051,20.5l-3,71.723c7.346-10.869,21.17-35.451,21.17-35.451,10.209-23.449,16.573-35.548,1.881-56.773" fill="#e5c282"/>
        <path id="Trazado_715060" data-name="Trazado 715060" d="M1095.184,465.247l-1.271-59.3s-49.82,47.207-69.479,200.329a33.427,33.427,0,0,0-1.271,33.977,1.119,1.119,0,0,0,1.038.586,9.448,9.448,0,0,0,3.325,4.546,1.065,1.065,0,0,0,1.452-.155,5.22,5.22,0,0,0,.756.873,3.639,3.639,0,0,0,3.6.778,2.892,2.892,0,0,0,3.171.152c2.18-1.265,1.817-3.837,1.595-5.931a38.682,38.682,0,0,1,.027-8.242,39.409,39.409,0,0,1,3.4-12.216q.05,1.033.1,2.067a46.942,46.942,0,0,0,.334,6.288c.276,1.483,1.615,2.877,3.271,2.324,1.628-.542,1.876-2.675,2.183-4.058a38.743,38.743,0,0,0-1.9-22.706c3.707-20.881,18.32-93.315,49.659-139.316" fill="#e5c282"/>
        <path id="Trazado_715061" data-name="Trazado 715061" d="M1207.336,591.68a116.752,116.752,0,0,0-1.9-15.374c-2.039-9.433-14.156-33.626-18.964-70.1-1.159-8.732-.708-20.929.193-32.064,1.217-15.081,3.239-28.227,3.26-28.367l0-.006c-1.961-26.634-2.975-45.561-2.64-45.691-5.766-5.174-18.244-8.246-28.646-8.223h-1.581c-8.56-1.133-25.429-.38-30.329.608-2.14.315-4.294.694-6.4,1.152l-6.448,1.661c-4.945,1.489-8.829,3.228-10.055,4.8-2.324,3.35-3.691,13.773-5.065,31.382-5.266,10.4-11.376,27.354-2.868,42.206v.016l.011,0a33.684,33.684,0,0,0,3.987,5.565s.214,1.241.514,3.384c.945,6.649,2.726,21.871,1.5,34.288-1.473,14.975-14.809,49.664-18.11,76.909l-.007.009h.005c0,.025-1.54,5.418,5.738,7.318,37.268,9.727,74.409,10.6,111.831.987,4.474-1.15,5.967-4.215,5.965-10.469" fill="#eb9168"/>
        <path id="Trazado_715062" data-name="Trazado 715062" d="M1063.307,705.773c4.164-27.132,10.433-68.164,14.6-95.3,2.886-18.8,5.782-37.654,10.813-56,3.377-12.318,7.712-24.386,10.331-36.887s4.463-26.088.849-38.338c0,0-7.457-2.3-8.192-20.931s7.063-26.858,7.063-26.858a27.712,27.712,0,0,0,5.581-7.064c2.178-4.467,5.752-27.846,5.752-27.846,2.249-3.046,7.094-2.126,7.094-2.126s-5.816,30.6,0,33.887,32.86,3.7,38.385,0S1167,392.451,1167,392.451c4.19-1.335,8.146,1.7,8.146,1.7s-3.481,32.191-2.361,38.488c1.831,10.3,15.172,28.268,15.172,28.268-2.192,19.5-1.651,39.473,2.686,58.608,3.021,13.332,8.243,26.055,12.1,39.17,12.572,42.765,10.789,102.575,8.414,147.087-47.769,13.443-100.765,15.674-147.85,0" fill="#5c9a76"/>
        <path id="Trazado_715063" data-name="Trazado 715063" d="M1133.574,595.466a88.752,88.752,0,0,0,38.413-8.668,1.054,1.054,0,0,0-.915-1.9,87.339,87.339,0,0,1-74.727.128,1.054,1.054,0,0,0-.906,1.9,88.793,88.793,0,0,0,38.135,8.536" fill="#3a5f58"/>
        <path id="Trazado_715064" data-name="Trazado 715064" d="M1187.289,400.082c6.331,1.866,15.22,13.211,20.051,20.5l3,71.723c-7.346-10.869-21.17-35.451-21.17-35.451-10.209-23.449-16.573-35.548-1.881-56.773" fill="#e5c282"/>
        <path id="Trazado_715065" data-name="Trazado 715065" d="M1194.979,465.134l1.271-59.3s49.819,47.207,69.479,200.329A33.436,33.436,0,0,1,1267,640.144a1.122,1.122,0,0,1-1.039.586,9.449,9.449,0,0,1-3.325,4.546,1.065,1.065,0,0,1-1.452-.155,5.221,5.221,0,0,1-.756.873,3.639,3.639,0,0,1-3.6.778,2.891,2.891,0,0,1-3.171.152c-2.18-1.265-1.817-3.837-1.6-5.931a38.682,38.682,0,0,0-.027-8.242,39.435,39.435,0,0,0-3.4-12.216q-.051,1.034-.1,2.067a46.943,46.943,0,0,1-.334,6.288c-.276,1.483-1.615,2.877-3.271,2.324-1.628-.542-1.876-2.675-2.183-4.058a38.744,38.744,0,0,1,1.9-22.706c-3.707-20.881-18.319-93.315-49.658-139.316" fill="#e5c282"/>
        <path id="Trazado_715066" data-name="Trazado 715066" d="M1145.405,305.313c-15.438-20-56.283-5.827-56.775,12.109-1.014,36.895,6.432,50.788,17.738,57.665,13.083,7.958,19.472,4.341,23,22.282,6.1,10.258,23.744,12.9,27.155-.41a125.6,125.6,0,0,1,1.387-49.351s-6.136-34.048-12.5-42.3" fill="#e5c282"/>
        <path id="Trazado_715067" data-name="Trazado 715067" d="M1087.583,328.54s-4.4-7.359,3.141-22c4.82-9.367,22.4-14.288,38.113-13.9s23.411,5.969,25.654,16.842,5.535,24.372,5.535,24.372l-5.2,5.463c-6.021-2.763-9.49-12.041-11.332-19.256a58.293,58.293,0,0,1-35.542-6.8,37.386,37.386,0,0,1-20.364,15.281" fill="#212131"/>
        <path id="Trazado_715068" data-name="Trazado 715068" d="M1125.109,343.174a2.729,2.729,0,1,1-3.124-2.265,2.728,2.728,0,0,1,3.124,2.265"/>
        <path id="Trazado_715069" data-name="Trazado 715069" d="M1122.3,342.867a1,1,0,1,1-1.144-.83,1,1,0,0,1,1.144.83" fill="#fff"/>
        <path id="Trazado_715070" data-name="Trazado 715070" d="M1104.263,346.5a2.729,2.729,0,1,1-3.125-2.266,2.73,2.73,0,0,1,3.125,2.266"/>
        <path id="Trazado_715071" data-name="Trazado 715071" d="M1101.451,346.188a1,1,0,1,1-1.144-.83,1,1,0,0,1,1.144.83" fill="#fff"/>
        <path id="Trazado_715072" data-name="Trazado 715072" d="M1104.386,335.657a8.931,8.931,0,0,0-10.888,2.287,1.8,1.8,0,0,0,.107,2.267,1.3,1.3,0,0,0,1.989-.025,6.406,6.406,0,0,1,4.364-2.258,6.532,6.532,0,0,1,2.5.277c.723.226,1.467.7,2.151.149a1.409,1.409,0,0,0,.386-.51,1.783,1.783,0,0,0-.608-2.187" fill="#212131"/>
        <path id="Trazado_715073" data-name="Trazado 715073" d="M1114.892,333.983a11.426,11.426,0,0,1,12.668-1.466,1.608,1.608,0,1,1-1.544,2.821,8.025,8.025,0,0,0-5.517-.656,8.691,8.691,0,0,0-2.644,1.084c-.718.446-1.381,1.138-2.307.845a1.539,1.539,0,0,1-.591-.354,1.62,1.62,0,0,1-.065-2.274" fill="#212131"/>
        <path id="Trazado_715074" data-name="Trazado 715074" d="M1113.38,360.755a9.653,9.653,0,0,1-4.651-.386,1.425,1.425,0,1,1,.912-2.7,7.493,7.493,0,0,0,8.421-2.993,1.426,1.426,0,0,1,2.539,1.3,10.217,10.217,0,0,1-7.221,4.78" fill="#ba8947"/>
        <path id="Trazado_715075" data-name="Trazado 715075" d="M1108.777,353.271a.359.359,0,0,1-.379-.2c-1.033-2.192-.376-3.1.357-3.471a3.439,3.439,0,0,1,2.888.166.357.357,0,0,1,.192.467.362.362,0,0,1-.467.191,2.782,2.782,0,0,0-2.289-.188c-.658.334-.67,1.186-.035,2.532a.356.356,0,0,1-.267.5" fill="#ba8947"/>
        <path id="Trazado_715076" data-name="Trazado 715076" d="M1167.251,346.926c-2.918,4.871-8.419,6.941-12.285,4.625s-4.634-8.143-1.716-13.014,8.419-6.942,12.285-4.625,4.635,8.143,1.716,13.014" fill="#e5c282"/>
        <path id="Trazado_715077" data-name="Trazado 715077" d="M1163.518,336.389a6.3,6.3,0,0,0-5.445.976,5.155,5.155,0,0,0-1.83,1.957,3.131,3.131,0,0,0,.008,2.919,4.457,4.457,0,0,0,1.782,1.531,4.22,4.22,0,0,1,1.169.854,1.6,1.6,0,0,1-1.677,2.558.714.714,0,0,0-.387,1.374,2.956,2.956,0,0,0,1.268.068,3.015,3.015,0,0,0,1.9-4.9,5.4,5.4,0,0,0-1.556-1.185,3.307,3.307,0,0,1-1.263-1.011,1.725,1.725,0,0,1,.037-1.574,1.436,1.436,0,0,1,2.575-.254,2.551,2.551,0,0,1,.942,1.965.713.713,0,0,0,.71.716.639.639,0,0,0,.116-.009.713.713,0,0,0,.6-.7,3.951,3.951,0,0,0-1.479-3.088,3.256,3.256,0,0,0-1.169-.552,4.491,4.491,0,0,1,3.241-.291,2.759,2.759,0,0,1,1.894,3.09.713.713,0,1,0,1.373.388,4.172,4.172,0,0,0-2.807-4.829" fill="#ba8947"/>
        <path id="Trazado_715078" data-name="Trazado 715078" d="M445.452,362.629l-37.47,40.736,80.391-15.738Z" fill="#fff"/>
        <path id="Trazado_715079" data-name="Trazado 715079" d="M988.838,464.213l69.5-51.434L985.5,431.452Z" fill="#fff"/>
        <g id="Grupo_1008671" data-name="Grupo 1008671" opacity="0.48" style="isolation: isolate">
          <g id="Grupo_1008670" data-name="Grupo 1008670">
            <g id="Grupo_1008669" data-name="Grupo 1008669" clip-path="url(#clip-path-8)">
              <path id="Trazado_715080" data-name="Trazado 715080" d="M182.564,0C81.737,0,0,81.725,0,182.543S81.737,365.091,182.564,365.091s182.564-81.729,182.564-182.548S283.391,0,182.564,0m0,292.029a109.48,109.48,0,1,1,109.49-109.481,109.486,109.486,0,0,1-109.49,109.481" fill="#fff"/>
            </g>
          </g>
        </g>
        <path id="Trazado_715081" data-name="Trazado 715081" d="M411.158,677.07l31.093,351.4c-12.42,4.484-28.233.071-28.233.071l-64.306-312.15-6.92-37.27Z" fill="#a77256"/>
        <path id="Trazado_715082" data-name="Trazado 715082" d="M283.491,672.584l13.492,355.884c12.894,2.847,28.268-.7,28.268-.7l23.483-319.429,2.064-37.852Z" fill="#a77256"/>
        <path id="Trazado_715083" data-name="Trazado 715083" d="M411.159,677.07,431.1,851.714c-16.035,9.189-34.952,10.944-56.106,6.928l-25.51-127.821-8.6,128.174s-17.812,12.682-54.382-1.946c0,0-6.877-143.141-3.008-184.465Z" fill="#eb9168"/>
        <path id="Trazado_715084" data-name="Trazado 715084" d="M294.143,854.522c.028,0,.054,0,.082,0a1.1,1.1,0,0,0,1.017-1.177C290.426,786.394,289.777,737.1,293,683.21a1.1,1.1,0,0,0-1.031-1.164,1.038,1.038,0,0,0-1.164,1.031c-3.23,54-2.581,103.373,2.242,170.425a1.1,1.1,0,0,0,1.1,1.02" fill="#d16a42"/>
        <path id="Trazado_715085" data-name="Trazado 715085" d="M288.932,478.728s-48.355,60.9-45.006,235.245l23.1-.774s.527-102.938,32.962-169.019Z" fill="#a77256"/>
        <path id="Trazado_715086" data-name="Trazado 715086" d="M415.915,538.945s30.59,45.378,46.778,42S572.2,555.768,572.2,555.768l-2.694-20.212L464.7,545.651c-17.083-26.892-23.065-32.3-44.3-56.05-4.536-5.072-20.373-19.38-28.859-19.9-9.97,25,8.527,47.8,24.377,69.24" fill="#a77256"/>
        <path id="Trazado_715087" data-name="Trazado 715087" d="M312.27,457.76C288.8,467,264.246,519.7,264.246,519.7l35.534,22.95Z" fill="#f8d0aa"/>
        <path id="Trazado_715088" data-name="Trazado 715088" d="M448.471,517.876,412.322,538.19,380.3,500.2l.866-35.117c-13.093-15.845,16.126-18.958,20.96-11.374Z" fill="#f8d0aa"/>
        <path id="Trazado_715089" data-name="Trazado 715089" d="M367.661,445.351l27.491,4.229c5.665.386,10.647,8.786,10.725,14.463.453,32.967,2.1,134.245,5.282,213.027-90.112,15.918-127.667-4.487-127.667-4.487,9.026-110.425,28.779-214.823,28.779-214.823l28.536-8.321Z" fill="#f8d0aa"/>
        <path id="Trazado_715090" data-name="Trazado 715090" d="M322.573,570.482c0,33.715,14.41,61.046,32.186,61.046s32.186-27.331,32.186-61.046-14.41-61.046-32.186-61.046-32.186,27.331-32.186,61.046" fill="#ecab74"/>
        <path id="Trazado_715091" data-name="Trazado 715091" d="M302.394,540.115a.548.548,0,0,0,.524-.387,143.471,143.471,0,0,1,15.833-34.2.549.549,0,0,0-.928-.588A144.466,144.466,0,0,0,301.87,539.4a.549.549,0,0,0,.361.688.514.514,0,0,0,.163.025" fill="#ecab74"/>
        <path id="Trazado_715092" data-name="Trazado 715092" d="M305.285,357.237c2.476-8.026,10.288-14.433,18.452-13.646.041-.088.1-.165.139-.252-.263-.012-.531-.012-.794-.025,22.832-38.413,78.465-10.824,79.756,20.045-1.818,2.124-7.458,7.523-11.44,9.424-9.061,18.724-30.9,26.834-39.634,45.658-1.91,4.117-4.37,8.785-9.457,9.275-4.683.451-8.139-3.388-10.937-6.57a129.369,129.369,0,0,1-19.65-30.059c-4.891-10.325-10-22.308-6.435-33.85" fill="#212131"/>
        <path id="Trazado_715093" data-name="Trazado 715093" d="M326.384,358.444c9.88-24.418,54.87-21.663,60.4-3.8,11.384,36.758,7.812,52.8-1.607,62.879-10.9,11.665-20.053,10.223-17.52,27.823-3.243,12.013-19.691,16.488-26.853,4.088-2.95-28.626-15.091-45.02-15.091-45.02s-3.406-35.907.668-45.975" fill="#a77256"/>
        <path id="Trazado_715094" data-name="Trazado 715094" d="M331.671,362.993s3.809,24.61-5.187,32.235l-6.761-4.022s-.487-14.478-1.29-26.024,5.355-19.311,21.025-24.117,34.7-4.8,42.169,3.247c11.681,12.584,9.335,21.207,9.335,21.207-9.767,0-20.564-2.235-28.687-7.66-8.725,5.815-20.556,8.129-30.6,5.134" fill="#212131"/>
        <path id="Trazado_715095" data-name="Trazado 715095" d="M357.4,390.755a2.845,2.845,0,1,0,2.5-3.152,2.844,2.844,0,0,0-2.5,3.152"/>
        <path id="Trazado_715096" data-name="Trazado 715096" d="M360.136,389.656a1.042,1.042,0,1,0,.916-1.154,1.042,1.042,0,0,0-.916,1.154" fill="#fff"/>
        <path id="Trazado_715097" data-name="Trazado 715097" d="M379.261,388.232a2.845,2.845,0,1,0,2.5-3.152,2.845,2.845,0,0,0-2.5,3.152"/>
        <path id="Trazado_715098" data-name="Trazado 715098" d="M382,387.133a1.042,1.042,0,1,0,.916-1.154,1.042,1.042,0,0,0-.916,1.154" fill="#fff"/>
        <path id="Trazado_715099" data-name="Trazado 715099" d="M376.092,377.385a9.311,9.311,0,0,1,11.574-.763,1.874,1.874,0,0,1,.529,2.306,1.359,1.359,0,0,1-2,.533,6.681,6.681,0,0,0-5.016-1.04,6.782,6.782,0,0,0-2.431.98c-.663.431-1.276,1.117-2.118.754a1.463,1.463,0,0,1-.531-.4,1.86,1.86,0,0,1,0-2.367" fill="#212131"/>
        <path id="Trazado_715100" data-name="Trazado 715100" d="M365.074,378.656a11.912,11.912,0,0,0-13.13,2.087,1.676,1.676,0,1,0,2.342,2.4,8.361,8.361,0,0,1,5.355-2.209,9.074,9.074,0,0,1,2.959.345c.846.246,1.707.755,2.553.2a1.625,1.625,0,0,0,.495-.522,1.689,1.689,0,0,0-.574-2.3" fill="#212131"/>
        <path id="Trazado_715101" data-name="Trazado 715101" d="M374.114,405.11a10.065,10.065,0,0,0,4.561-1.694A1.486,1.486,0,0,0,377,400.961a7.81,7.81,0,0,1-9.3-.639,1.487,1.487,0,0,0-2.185,2.018,10.652,10.652,0,0,0,8.593,2.77" fill="#7b3e2a"/>
        <path id="Trazado_715102" data-name="Trazado 715102" d="M376.633,396.3a.373.373,0,0,0,.324-.308c.421-2.49-.492-3.215-1.333-3.384a3.593,3.593,0,0,0-2.854.978.373.373,0,0,0-.061.523.378.378,0,0,0,.523.061,2.893,2.893,0,0,1,2.245-.832c.754.15,1.006,1,.747,2.531a.372.372,0,0,0,.3.428.331.331,0,0,0,.1,0" fill="#7b3e2a"/>
        <path id="Trazado_715103" data-name="Trazado 715103" d="M316.143,406.361c4.3,4.07,10.4,4.6,13.634,1.192s2.364-9.478-1.934-13.549-10.4-4.6-13.634-1.191-2.365,9.478,1.934,13.548" fill="#a77256"/>
        <path id="Trazado_715104" data-name="Trazado 715104" d="M316.931,394.734a6.562,6.562,0,0,1,5.741-.55,5.367,5.367,0,0,1,2.387,1.45,3.27,3.27,0,0,1,.811,2.933,4.649,4.649,0,0,1-1.358,2.038,4.369,4.369,0,0,0-.934,1.186,1.671,1.671,0,0,0,2.4,2.1.743.743,0,1,1,.775,1.269,3.092,3.092,0,0,1-1.255.426,3.144,3.144,0,0,1-3.283-4.39,5.661,5.661,0,0,1,1.231-1.627,3.452,3.452,0,0,0,.983-1.37,1.8,1.8,0,0,0-.479-1.57,3.078,3.078,0,0,0-.625-.5,3.038,3.038,0,0,0-2.033.97,2.669,2.669,0,0,0-.394,2.238.743.743,0,0,1-.509.918.773.773,0,0,1-.12.024.741.741,0,0,1-.8-.535,4.11,4.11,0,0,1,.617-3.516,3.392,3.392,0,0,1,1.017-.882,4.678,4.678,0,0,0-3.336.618,2.879,2.879,0,0,0-1.033,3.635.743.743,0,0,1-1.269.775,4.351,4.351,0,0,1,1.462-5.637" fill="#7b3e2a"/>
        <path id="Trazado_715105" data-name="Trazado 715105" d="M580.411,561.2a67.189,67.189,0,0,0,15.029,7.69,5.773,5.773,0,0,0,2.031.455,2.077,2.077,0,0,0,1.782-.914c.647-1.112-.261-2.464-1.143-3.4a69.029,69.029,0,0,0-7.636-7.344c4.947,1.906,9.9,3.813,14.919,5.515a6.873,6.873,0,0,0,2.5.508,2.132,2.132,0,0,0,1.725-3.572,7.065,7.065,0,0,0-1.863-1.6c-4.1-2.768-8.265-5.454-12.367-8.222a123.741,123.741,0,0,0,18.452,3.829,5.948,5.948,0,0,0,2.2-.061,1.92,1.92,0,0,0,.939-3.362,6.109,6.109,0,0,0-1.759-1.162,100.549,100.549,0,0,0-18.832-7.211,86.9,86.9,0,0,0,17.172-.231c1.117-.127,2.431-.422,2.844-1.467a2.173,2.173,0,0,0-.868-2.4,6.183,6.183,0,0,0-2.55-.936,141,141,0,0,0-30.831-2.782c2.865-3.206,5.639-6.74,6.537-10.945.279-1.306.115-3.032-1.147-3.466a3.174,3.174,0,0,0-2.62.748l-10.062,6.583a60.72,60.72,0,0,0-9.142,6.837,20.358,20.358,0,0,0-5.917,9.606,14.1,14.1,0,0,0,3.071,12.67,15.942,15.942,0,0,0,7.831,4.451c2.948.759,6.659.322,9.7.186" fill="#a77256"/>
        <path id="Trazado_715106" data-name="Trazado 715106" d="M453.15,393.861H774.024a19.2,19.2,0,0,0,19.2-19.2V321.481a19.2,19.2,0,0,0-19.2-19.2H453.15a19.2,19.2,0,0,0-19.2,19.2v53.177a19.2,19.2,0,0,0,19.2,19.2" fill="#fff"/>
        <path id="Trazado_715107" data-name="Trazado 715107" d="M466.5,334.851h-5.241v4.861H467.1v1.46h-7.582V327.69H466.8v1.46h-5.541v4.261H466.5Z"/>
        <path id="Trazado_715108" data-name="Trazado 715108" d="M469.059,339.372a4.6,4.6,0,0,0,2.32.7c1.281,0,1.881-.639,1.881-1.44,0-.84-.5-1.3-1.8-1.781-1.74-.62-2.56-1.58-2.56-2.74,0-1.56,1.26-2.841,3.341-2.841a4.831,4.831,0,0,1,2.38.6l-.44,1.28a3.767,3.767,0,0,0-1.98-.56c-1.04,0-1.62.6-1.62,1.32,0,.8.58,1.16,1.839,1.641,1.681.639,2.541,1.48,2.541,2.921,0,1.7-1.32,2.9-3.621,2.9a5.52,5.52,0,0,1-2.72-.66Z"/>
        <path id="Trazado_715109" data-name="Trazado 715109" d="M479.339,328.71v2.781h2.521v1.34h-2.521v5.221c0,1.2.34,1.881,1.32,1.881a3.93,3.93,0,0,0,1.021-.12l.08,1.32a4.318,4.318,0,0,1-1.561.24,2.439,2.439,0,0,1-1.9-.74,3.589,3.589,0,0,1-.681-2.521v-5.281h-1.5v-1.34h1.5V329.17Z"/>
        <path id="Trazado_715110" data-name="Trazado 715110" d="M489.2,341.172l-.14-1.22H489a3.607,3.607,0,0,1-2.961,1.44,2.758,2.758,0,0,1-2.96-2.78c0-2.341,2.08-3.621,5.821-3.6v-.2a2,2,0,0,0-2.2-2.24,4.82,4.82,0,0,0-2.521.72l-.4-1.161a6.009,6.009,0,0,1,3.181-.86c2.959,0,3.68,2.021,3.68,3.961v3.621a13.63,13.63,0,0,0,.16,2.32Zm-.26-4.941c-1.921-.04-4.1.3-4.1,2.181a1.558,1.558,0,0,0,1.662,1.68,2.408,2.408,0,0,0,2.339-1.62,1.814,1.814,0,0,0,.1-.56Z"/>
        <path id="Trazado_715111" data-name="Trazado 715111" d="M499.678,328.77a1.091,1.091,0,0,1-2.181,0,1.073,1.073,0,0,1,1.1-1.1,1.045,1.045,0,0,1,1.08,1.1m-1.96,2.721h1.76v9.682h-1.76Z"/>
        <path id="Trazado_715112" data-name="Trazado 715112" d="M502.4,334.111c0-1-.021-1.82-.08-2.62h1.559l.1,1.6h.04a3.563,3.563,0,0,1,3.2-1.82c1.341,0,3.421.8,3.421,4.121v5.782h-1.76v-5.582c0-1.56-.58-2.86-2.241-2.86a2.5,2.5,0,0,0-2.36,1.8,2.534,2.534,0,0,0-.12.82v5.822H502.4Z"/>
        <path id="Trazado_715113" data-name="Trazado 715113" d="M513.677,341.172V332.83h-1.359v-1.34h1.359v-.461a4.56,4.56,0,0,1,1.121-3.379,3.365,3.365,0,0,1,2.36-.9,4.073,4.073,0,0,1,1.5.28l-.24,1.36a2.644,2.644,0,0,0-1.12-.22c-1.5,0-1.88,1.32-1.88,2.8v.52h2.34v1.34h-2.34v8.342Z"/>
        <path id="Trazado_715114" data-name="Trazado 715114" d="M527.839,336.251c0,3.581-2.481,5.141-4.821,5.141-2.621,0-4.641-1.92-4.641-4.98,0-3.242,2.121-5.142,4.8-5.142,2.781,0,4.661,2.02,4.661,4.981m-7.682.1c0,2.121,1.221,3.721,2.94,3.721,1.681,0,2.942-1.58,2.942-3.761,0-1.64-.82-3.721-2.9-3.721s-2.98,1.921-2.98,3.761"/>
        <path id="Trazado_715115" data-name="Trazado 715115" d="M530.058,334.511c0-1.141-.021-2.121-.08-3.021h1.54l.06,1.9h.08a2.9,2.9,0,0,1,2.68-2.121,1.9,1.9,0,0,1,.5.06v1.66a2.63,2.63,0,0,0-.6-.06,2.47,2.47,0,0,0-2.361,2.261,4.956,4.956,0,0,0-.08.82v5.161h-1.74Z"/>
        <path id="Trazado_715116" data-name="Trazado 715116" d="M536.678,334.111c0-1-.021-1.82-.08-2.62h1.54l.08,1.559h.06a3.339,3.339,0,0,1,3.041-1.78,2.863,2.863,0,0,1,2.74,1.941h.04a4.014,4.014,0,0,1,1.08-1.26,3.3,3.3,0,0,1,2.141-.681c1.28,0,3.18.841,3.18,4.2v5.7h-1.719v-5.482c0-1.86-.681-2.98-2.1-2.98a2.281,2.281,0,0,0-2.081,1.6,2.9,2.9,0,0,0-.14.88v5.982h-1.72v-5.8c0-1.541-.68-2.661-2.021-2.661a2.623,2.623,0,0,0-2.32,2.621v5.841h-1.72Z"/>
        <path id="Trazado_715117" data-name="Trazado 715117" d="M558.719,341.172l-.14-1.22h-.06a3.607,3.607,0,0,1-2.961,1.44,2.758,2.758,0,0,1-2.96-2.78c0-2.341,2.08-3.621,5.821-3.6v-.2a2,2,0,0,0-2.2-2.24,4.82,4.82,0,0,0-2.521.72l-.4-1.161a6.009,6.009,0,0,1,3.181-.86c2.959,0,3.68,2.021,3.68,3.961v3.621a13.63,13.63,0,0,0,.16,2.32Zm-.26-4.941c-1.921-.04-4.1.3-4.1,2.181a1.558,1.558,0,0,0,1.662,1.68,2.408,2.408,0,0,0,2.339-1.62,1.813,1.813,0,0,0,.1-.56Z"/>
        <path id="Trazado_715118" data-name="Trazado 715118" d="M569.9,340.812a6.479,6.479,0,0,1-2.78.561,4.6,4.6,0,0,1-4.822-4.942,4.92,4.92,0,0,1,5.2-5.14,5.863,5.863,0,0,1,2.44.5l-.4,1.36a4.089,4.089,0,0,0-2.041-.46,3.65,3.65,0,0,0-.06,7.281,5,5,0,0,0,2.16-.48Z"/>
        <path id="Trazado_715119" data-name="Trazado 715119" d="M573.918,328.77a1.091,1.091,0,0,1-2.181,0,1.073,1.073,0,0,1,1.1-1.1,1.046,1.046,0,0,1,1.081,1.1m-1.961,2.721h1.761v9.682h-1.761Z"/>
        <path id="Trazado_715120" data-name="Trazado 715120" d="M585.4,336.251c0,3.581-2.481,5.141-4.821,5.141-2.621,0-4.641-1.92-4.641-4.98,0-3.242,2.121-5.142,4.8-5.142,2.782,0,4.662,2.02,4.662,4.981m-7.682.1c0,2.121,1.221,3.721,2.94,3.721,1.681,0,2.942-1.58,2.942-3.761,0-1.64-.821-3.721-2.9-3.721s-2.98,1.921-2.98,3.761m5.581-9.042-2.44,2.861H579.6l1.76-2.861Z"/>
        <path id="Trazado_715121" data-name="Trazado 715121" d="M587.617,334.111c0-1-.021-1.82-.08-2.62H589.1l.1,1.6h.04a3.563,3.563,0,0,1,3.2-1.82c1.341,0,3.421.8,3.421,4.121v5.782H594.1v-5.582c0-1.56-.58-2.86-2.241-2.86a2.5,2.5,0,0,0-2.36,1.8,2.534,2.534,0,0,0-.12.82v5.822h-1.76Z"/>
        <path id="Trazado_715122" data-name="Trazado 715122" d="M609.558,339.673h-.04a3.445,3.445,0,0,1-3.16,1.719c-2.261,0-4.1-1.96-4.1-4.9,0-3.621,2.34-5.222,4.381-5.222a3.185,3.185,0,0,1,2.981,1.681h.04l.059-1.46h1.661c-.04.819-.06,1.66-.06,2.66v10.983h-1.761Zm0-4.262a3.039,3.039,0,0,0-.079-.739,2.574,2.574,0,0,0-2.522-2c-1.82,0-2.92,1.54-2.92,3.72,0,1.921.92,3.6,2.861,3.6a2.622,2.622,0,0,0,2.52-1.92,2.957,2.957,0,0,0,.14-.84Z"/>
        <path id="Trazado_715123" data-name="Trazado 715123" d="M622.318,338.532c0,1,.02,1.881.08,2.641h-1.56l-.1-1.58h-.04a3.645,3.645,0,0,1-3.2,1.8c-1.521,0-3.341-.839-3.341-4.24v-5.661h1.761v5.36c0,1.841.559,3.081,2.16,3.081a2.476,2.476,0,0,0,2.48-2.5v-5.94h1.761Z"/>
        <path id="Trazado_715124" data-name="Trazado 715124" d="M626.217,336.652a3.1,3.1,0,0,0,3.32,3.36,6.367,6.367,0,0,0,2.681-.5l.3,1.26a7.842,7.842,0,0,1-3.221.6c-2.981,0-4.761-1.96-4.761-4.88s1.721-5.222,4.541-5.222c3.161,0,4,2.781,4,4.561a6.917,6.917,0,0,1-.059.821Zm5.161-1.261c.02-1.12-.46-2.86-2.44-2.86-1.781,0-2.561,1.639-2.7,2.86Z"/>
        <path id="Trazado_715125" data-name="Trazado 715125" d="M641.616,328.71v2.781h2.521v1.34h-2.521v5.221c0,1.2.341,1.881,1.32,1.881a3.918,3.918,0,0,0,1.021-.12l.08,1.32a4.31,4.31,0,0,1-1.561.24,2.439,2.439,0,0,1-1.9-.74,3.589,3.589,0,0,1-.68-2.521v-5.281h-1.5v-1.34h1.5V329.17Z"/>
        <path id="Trazado_715126" data-name="Trazado 715126" d="M646.977,336.652a3.1,3.1,0,0,0,3.32,3.36,6.367,6.367,0,0,0,2.681-.5l.3,1.26a7.842,7.842,0,0,1-3.221.6c-2.981,0-4.761-1.96-4.761-4.88s1.721-5.222,4.541-5.222c3.161,0,4,2.781,4,4.561a6.93,6.93,0,0,1-.059.821Zm5.161-1.261c.02-1.12-.46-2.86-2.44-2.86-1.781,0-2.561,1.639-2.7,2.86Z"/>
        <path id="Trazado_715127" data-name="Trazado 715127" d="M665.617,341.172l-.14-1.22h-.06a3.607,3.607,0,0,1-2.961,1.44,2.758,2.758,0,0,1-2.96-2.78c0-2.341,2.08-3.621,5.821-3.6v-.2a2,2,0,0,0-2.2-2.24,4.82,4.82,0,0,0-2.521.72l-.4-1.161a6.009,6.009,0,0,1,3.181-.86c2.959,0,3.68,2.021,3.68,3.961v3.621a13.63,13.63,0,0,0,.16,2.32Zm-.26-4.941c-1.921-.04-4.1.3-4.1,2.181a1.558,1.558,0,0,0,1.662,1.68,2.408,2.408,0,0,0,2.339-1.62,1.813,1.813,0,0,0,.1-.56Z"/>
        <path id="Trazado_715128" data-name="Trazado 715128" d="M676.8,340.812a6.48,6.48,0,0,1-2.78.561,4.6,4.6,0,0,1-4.822-4.942,4.919,4.919,0,0,1,5.2-5.14,5.863,5.863,0,0,1,2.44.5l-.4,1.36a4.089,4.089,0,0,0-2.041-.46,3.65,3.65,0,0,0-.06,7.281,5,5,0,0,0,2.16-.48Z"/>
        <path id="Trazado_715129" data-name="Trazado 715129" d="M684.217,341.172l-.14-1.22h-.06a3.608,3.608,0,0,1-2.961,1.44,2.758,2.758,0,0,1-2.96-2.78c0-2.341,2.08-3.621,5.821-3.6v-.2a2,2,0,0,0-2.2-2.24,4.82,4.82,0,0,0-2.521.72l-.4-1.161a6.008,6.008,0,0,1,3.181-.86c2.959,0,3.68,2.021,3.68,3.961v3.621a13.63,13.63,0,0,0,.16,2.32Zm-.26-4.941c-1.921-.04-4.1.3-4.1,2.181a1.559,1.559,0,0,0,1.662,1.68,2.408,2.408,0,0,0,2.339-1.62,1.815,1.815,0,0,0,.1-.56Z"/>
        <path id="Trazado_715130" data-name="Trazado 715130" d="M688.415,341.173c.04-.66.08-1.641.08-2.5v-11.7h1.74v6.081h.04a3.606,3.606,0,0,1,3.3-1.78c2.4,0,4.1,2,4.081,4.941,0,3.461-2.181,5.181-4.341,5.181a3.45,3.45,0,0,1-3.241-1.821h-.06l-.08,1.6Zm1.82-3.881a3.317,3.317,0,0,0,.08.641,2.716,2.716,0,0,0,2.641,2.059c1.841,0,2.94-1.5,2.94-3.721,0-1.94-1-3.6-2.88-3.6a2.805,2.805,0,0,0-2.68,2.16,3.465,3.465,0,0,0-.1.721Z"/>
        <path id="Trazado_715131" data-name="Trazado 715131" d="M705.237,341.172l-.14-1.22h-.06a3.607,3.607,0,0,1-2.961,1.44,2.758,2.758,0,0,1-2.96-2.78c0-2.341,2.08-3.621,5.821-3.6v-.2a2,2,0,0,0-2.2-2.24,4.82,4.82,0,0,0-2.521.72l-.4-1.161a6.009,6.009,0,0,1,3.181-.86c2.959,0,3.68,2.021,3.68,3.961v3.621a13.63,13.63,0,0,0,.16,2.32Zm-.26-4.941c-1.921-.04-4.1.3-4.1,2.181a1.558,1.558,0,0,0,1.662,1.68,2.408,2.408,0,0,0,2.339-1.62,1.813,1.813,0,0,0,.1-.56Z"/>
        <path id="Trazado_715132" data-name="Trazado 715132" d="M709.515,334.111c0-1-.02-1.82-.08-2.62h1.54l.08,1.559h.061a3.338,3.338,0,0,1,3.04-1.78,2.864,2.864,0,0,1,2.741,1.941h.04a3.987,3.987,0,0,1,1.08-1.26,3.3,3.3,0,0,1,2.141-.681c1.28,0,3.18.841,3.18,4.2v5.7h-1.72v-5.482c0-1.86-.68-2.98-2.1-2.98a2.279,2.279,0,0,0-2.08,1.6,2.9,2.9,0,0,0-.14.88v5.982h-1.72v-5.8c0-1.541-.681-2.661-2.021-2.661a2.4,2.4,0,0,0-2.181,1.76,2.45,2.45,0,0,0-.139.861v5.841h-1.721Z"/>
        <path id="Trazado_715133" data-name="Trazado 715133" d="M734.957,336.251c0,3.581-2.48,5.141-4.822,5.141-2.619,0-4.64-1.92-4.64-4.98,0-3.242,2.12-5.142,4.8-5.142,2.779,0,4.66,2.02,4.66,4.981m-7.681.1c0,2.121,1.219,3.721,2.939,3.721,1.681,0,2.941-1.58,2.941-3.761,0-1.64-.82-3.721-2.9-3.721s-2.979,1.921-2.979,3.761"/>
        <path id="Trazado_715134" data-name="Trazado 715134" d="M736.935,339.372a4.606,4.606,0,0,0,2.32.7c1.281,0,1.881-.639,1.881-1.44,0-.84-.5-1.3-1.8-1.781-1.74-.62-2.56-1.58-2.56-2.74,0-1.56,1.261-2.841,3.341-2.841a4.838,4.838,0,0,1,2.381.6l-.441,1.28a3.768,3.768,0,0,0-1.98-.56c-1.04,0-1.62.6-1.62,1.32,0,.8.58,1.16,1.84,1.641,1.68.639,2.54,1.48,2.54,2.921,0,1.7-1.32,2.9-3.62,2.9a5.518,5.518,0,0,1-2.72-.66Z"/>
        <path id="Trazado_715135" data-name="Trazado 715135" d="M757.7,326.969v11.7c0,.861.02,1.841.08,2.5H756.2l-.08-1.68h-.04a3.582,3.582,0,0,1-3.3,1.9c-2.341,0-4.141-1.981-4.141-4.921-.02-3.221,1.981-5.2,4.341-5.2a3.234,3.234,0,0,1,2.92,1.48h.04v-5.781Zm-1.761,8.462a3.151,3.151,0,0,0-.079-.74,2.59,2.59,0,0,0-2.541-2.04c-1.82,0-2.9,1.6-2.9,3.74,0,1.961.96,3.581,2.861,3.581a2.646,2.646,0,0,0,2.581-2.1,3.1,3.1,0,0,0,.079-.759Z"/>
        <path id="Trazado_715136" data-name="Trazado 715136" d="M761.595,336.652a3.1,3.1,0,0,0,3.32,3.36,6.366,6.366,0,0,0,2.681-.5l.3,1.26a7.842,7.842,0,0,1-3.221.6c-2.981,0-4.761-1.96-4.761-4.88s1.721-5.222,4.541-5.222c3.161,0,4,2.781,4,4.561a6.917,6.917,0,0,1-.059.821Zm5.161-1.261c.02-1.12-.46-2.86-2.44-2.86-1.781,0-2.561,1.639-2.7,2.86Z"/>
        <path id="Trazado_715137" data-name="Trazado 715137" d="M481.191,364.812a6.481,6.481,0,0,1-2.781.561,4.6,4.6,0,0,1-4.821-4.942,4.919,4.919,0,0,1,5.2-5.14,5.867,5.867,0,0,1,2.44.5l-.4,1.36a4.081,4.081,0,0,0-2.04-.46,3.65,3.65,0,0,0-.061,7.281,5,5,0,0,0,2.16-.48Z"/>
        <path id="Trazado_715138" data-name="Trazado 715138" d="M491.891,360.251c0,3.581-2.481,5.141-4.822,5.141-2.62,0-4.64-1.92-4.64-4.98,0-3.242,2.12-5.142,4.8-5.142,2.78,0,4.661,2.02,4.661,4.981m-7.682.1c0,2.121,1.22,3.721,2.94,3.721,1.681,0,2.941-1.58,2.941-3.761,0-1.64-.82-3.721-2.9-3.721s-2.98,1.921-2.98,3.761"/>
        <path id="Trazado_715139" data-name="Trazado 715139" d="M494.108,358.111c0-1-.02-1.82-.08-2.62h1.54l.08,1.559h.061a3.338,3.338,0,0,1,3.04-1.78,2.864,2.864,0,0,1,2.741,1.941h.04a3.988,3.988,0,0,1,1.08-1.26,3.3,3.3,0,0,1,2.141-.681c1.28,0,3.18.841,3.18,4.2v5.7h-1.72v-5.482c0-1.86-.68-2.98-2.1-2.98a2.279,2.279,0,0,0-2.08,1.6,2.9,2.9,0,0,0-.14.88v5.982h-1.72v-5.8c0-1.541-.681-2.661-2.021-2.661a2.4,2.4,0,0,0-2.181,1.76,2.45,2.45,0,0,0-.139.861v5.841h-1.721Z"/>
        <path id="Trazado_715140" data-name="Trazado 715140" d="M510.789,358.651c0-1.24-.04-2.24-.08-3.16h1.58l.08,1.66h.04a3.8,3.8,0,0,1,3.44-1.881c2.341,0,4.1,1.981,4.1,4.921,0,3.481-2.12,5.2-4.4,5.2a3.394,3.394,0,0,1-2.981-1.519h-.04v5.26h-1.74Zm1.74,2.581a3.96,3.96,0,0,0,.08.72,2.715,2.715,0,0,0,2.641,2.06c1.86,0,2.94-1.52,2.94-3.741,0-1.94-1.02-3.6-2.881-3.6a2.809,2.809,0,0,0-2.66,2.181,2.862,2.862,0,0,0-.12.72Z"/>
        <path id="Trazado_715141" data-name="Trazado 715141" d="M527.53,365.172l-.14-1.22h-.059a3.609,3.609,0,0,1-2.961,1.44,2.758,2.758,0,0,1-2.961-2.78c0-2.341,2.081-3.621,5.821-3.6v-.2a2,2,0,0,0-2.2-2.24,4.815,4.815,0,0,0-2.521.72l-.4-1.161a6.014,6.014,0,0,1,3.181-.86c2.96,0,3.68,2.021,3.68,3.961v3.621a13.63,13.63,0,0,0,.16,2.32Zm-.26-4.941c-1.92-.04-4.1.3-4.1,2.181a1.558,1.558,0,0,0,1.661,1.68,2.408,2.408,0,0,0,2.34-1.62,1.842,1.842,0,0,0,.1-.56Z"/>
        <path id="Trazado_715142" data-name="Trazado 715142" d="M531.809,358.511c0-1.141-.02-2.121-.08-3.021h1.54l.061,1.9h.08a2.9,2.9,0,0,1,2.68-2.121,1.905,1.905,0,0,1,.5.06v1.66a2.639,2.639,0,0,0-.6-.06,2.47,2.47,0,0,0-2.361,2.261,4.949,4.949,0,0,0-.08.82v5.161h-1.74Z"/>
        <path id="Trazado_715143" data-name="Trazado 715143" d="M540.949,352.71v2.781h2.521v1.34h-2.521v5.221c0,1.2.34,1.881,1.32,1.881a3.93,3.93,0,0,0,1.021-.12l.08,1.32a4.318,4.318,0,0,1-1.561.24,2.439,2.439,0,0,1-1.9-.74,3.589,3.589,0,0,1-.681-2.521v-5.281h-1.5v-1.34h1.5V353.17Z"/>
        <path id="Trazado_715144" data-name="Trazado 715144" d="M547.409,352.77a1.09,1.09,0,0,1-2.18,0,1.073,1.073,0,0,1,1.1-1.1,1.045,1.045,0,0,1,1.08,1.1m-1.96,2.721h1.76v9.682h-1.76Z"/>
        <path id="Trazado_715145" data-name="Trazado 715145" d="M550.129,358.511c0-1.141-.021-2.121-.08-3.021h1.54l.06,1.9h.08a2.9,2.9,0,0,1,2.68-2.121,1.9,1.9,0,0,1,.5.06v1.66a2.63,2.63,0,0,0-.6-.06,2.47,2.47,0,0,0-2.361,2.261,4.956,4.956,0,0,0-.08.82v5.161h-1.74Z"/>
        <path id="Trazado_715146" data-name="Trazado 715146" d="M563.028,352.71v2.781h2.521v1.34h-2.521v5.221c0,1.2.341,1.881,1.32,1.881a3.918,3.918,0,0,0,1.021-.12l.08,1.32a4.31,4.31,0,0,1-1.561.24,2.439,2.439,0,0,1-1.9-.74,3.589,3.589,0,0,1-.68-2.521v-5.281h-1.5v-1.34h1.5V353.17Z"/>
        <path id="Trazado_715147" data-name="Trazado 715147" d="M568.388,360.652a3.1,3.1,0,0,0,3.321,3.36,6.37,6.37,0,0,0,2.681-.5l.3,1.26a7.846,7.846,0,0,1-3.221.6c-2.981,0-4.761-1.96-4.761-4.88s1.72-5.222,4.541-5.222c3.16,0,4,2.781,4,4.561a6.712,6.712,0,0,1-.059.821Zm5.161-1.261c.021-1.12-.46-2.86-2.44-2.86-1.781,0-2.561,1.639-2.7,2.86Z"/>
        <path id="Trazado_715148" data-name="Trazado 715148" d="M581.428,363.372a4.6,4.6,0,0,0,2.32.7c1.281,0,1.881-.639,1.881-1.44,0-.84-.5-1.3-1.8-1.781-1.74-.62-2.56-1.58-2.56-2.74,0-1.56,1.26-2.841,3.341-2.841a4.831,4.831,0,0,1,2.38.6l-.44,1.28a3.768,3.768,0,0,0-1.98-.56c-1.04,0-1.62.6-1.62,1.32,0,.8.58,1.16,1.839,1.641,1.681.639,2.541,1.48,2.541,2.921,0,1.7-1.32,2.9-3.621,2.9a5.521,5.521,0,0,1-2.72-.66Z"/>
        <path id="Trazado_715149" data-name="Trazado 715149" d="M590.568,360.652a3.1,3.1,0,0,0,3.321,3.36,6.37,6.37,0,0,0,2.681-.5l.3,1.26a7.846,7.846,0,0,1-3.221.6c-2.981,0-4.761-1.96-4.761-4.88s1.72-5.222,4.541-5.222c3.16,0,4,2.781,4,4.561a6.712,6.712,0,0,1-.059.821Zm5.161-1.261c.021-1.12-.46-2.86-2.44-2.86-1.781,0-2.561,1.639-2.7,2.86Z"/>
        <path id="Trazado_715150" data-name="Trazado 715150" d="M599.607,358.511c0-1.141-.02-2.121-.08-3.021h1.54l.061,1.9h.08a2.9,2.9,0,0,1,2.68-2.121,1.9,1.9,0,0,1,.5.06v1.66a2.639,2.639,0,0,0-.6-.06,2.47,2.47,0,0,0-2.361,2.261,4.956,4.956,0,0,0-.08.82v5.161h-1.74Z"/>
        <path id="Trazado_715151" data-name="Trazado 715151" d="M611.409,365.172l-.14-1.22h-.06a3.606,3.606,0,0,1-2.961,1.44,2.758,2.758,0,0,1-2.96-2.78c0-2.341,2.08-3.621,5.821-3.6v-.2a2,2,0,0,0-2.2-2.24,4.828,4.828,0,0,0-2.521.719l-.4-1.16a6.009,6.009,0,0,1,3.181-.86c2.96,0,3.68,2.02,3.68,3.961v3.621a13.63,13.63,0,0,0,.16,2.32Zm-.26-4.941c-1.921-.04-4.1.3-4.1,2.181a1.558,1.558,0,0,0,1.661,1.68,2.412,2.412,0,0,0,2.34-1.62,1.848,1.848,0,0,0,.1-.56Zm.88-8.922-2.44,2.861h-1.261l1.761-2.861Z"/>
        <path id="Trazado_715152" data-name="Trazado 715152" d="M628.29,350.969v11.7c0,.861.019,1.841.08,2.5h-1.581l-.08-1.68h-.04a3.581,3.581,0,0,1-3.3,1.9c-2.34,0-4.141-1.981-4.141-4.921-.019-3.221,1.981-5.2,4.341-5.2a3.237,3.237,0,0,1,2.921,1.48h.04v-5.781Zm-1.761,8.462a3.152,3.152,0,0,0-.08-.74,2.589,2.589,0,0,0-2.54-2.04c-1.821,0-2.9,1.6-2.9,3.74,0,1.961.96,3.581,2.861,3.581a2.646,2.646,0,0,0,2.58-2.1,3.1,3.1,0,0,0,.08-.759Z"/>
        <path id="Trazado_715153" data-name="Trazado 715153" d="M632.188,360.652a3.1,3.1,0,0,0,3.321,3.36,6.37,6.37,0,0,0,2.681-.5l.3,1.26a7.846,7.846,0,0,1-3.221.6c-2.981,0-4.761-1.96-4.761-4.88s1.72-5.222,4.541-5.222c3.16,0,4,2.781,4,4.561a6.712,6.712,0,0,1-.059.821Zm5.161-1.261c.021-1.12-.46-2.86-2.44-2.86-1.781,0-2.561,1.639-2.7,2.86Z"/>
        <path id="Trazado_715154" data-name="Trazado 715154" d="M653.809,355.491c-.04.7-.08,1.479-.08,2.66v5.621c0,2.221-.44,3.581-1.381,4.421a5.13,5.13,0,0,1-3.52,1.16,6.252,6.252,0,0,1-3.221-.8l.441-1.341a5.442,5.442,0,0,0,2.839.761c1.8,0,3.122-.94,3.122-3.381v-1.08h-.041a3.454,3.454,0,0,1-3.081,1.62c-2.4,0-4.12-2.04-4.12-4.72,0-3.282,2.14-5.142,4.361-5.142a3.22,3.22,0,0,1,3.02,1.681h.04l.08-1.46Zm-1.82,3.82a2.505,2.505,0,0,0-.1-.8,2.534,2.534,0,0,0-2.46-1.86c-1.68,0-2.88,1.42-2.88,3.66,0,1.9.96,3.481,2.86,3.481a2.573,2.573,0,0,0,2.44-1.8,3.041,3.041,0,0,0,.141-.941Z"/>
        <path id="Trazado_715155" data-name="Trazado 715155" d="M656.528,358.511c0-1.141-.022-2.121-.08-3.021h1.539l.06,1.9h.081a2.9,2.9,0,0,1,2.679-2.121,1.894,1.894,0,0,1,.5.06v1.66a2.63,2.63,0,0,0-.6-.06,2.471,2.471,0,0,0-2.361,2.261,4.962,4.962,0,0,0-.079.82v5.161h-1.74Z"/>
        <path id="Trazado_715156" data-name="Trazado 715156" d="M668.328,365.172l-.14-1.22h-.059a3.609,3.609,0,0,1-2.961,1.44,2.758,2.758,0,0,1-2.961-2.78c0-2.341,2.081-3.621,5.821-3.6v-.2a2,2,0,0,0-2.2-2.24,4.815,4.815,0,0,0-2.521.72l-.4-1.161a6.014,6.014,0,0,1,3.181-.86c2.96,0,3.68,2.021,3.68,3.961v3.621a13.63,13.63,0,0,0,.16,2.32Zm-.26-4.941c-1.92-.04-4.1.3-4.1,2.181a1.558,1.558,0,0,0,1.661,1.68,2.408,2.408,0,0,0,2.34-1.62,1.842,1.842,0,0,0,.1-.56Z"/>
        <path id="Trazado_715157" data-name="Trazado 715157" d="M672.607,358.111c0-1-.021-1.82-.08-2.62h1.559l.1,1.6h.04a3.563,3.563,0,0,1,3.2-1.82c1.341,0,3.421.8,3.421,4.121v5.782h-1.76v-5.582c0-1.56-.58-2.86-2.241-2.86a2.5,2.5,0,0,0-2.36,1.8,2.534,2.534,0,0,0-.12.82v5.822h-1.76Z"/>
        <path id="Trazado_715158" data-name="Trazado 715158" d="M696.048,362.532c0,1,.021,1.881.08,2.641h-1.56l-.1-1.58h-.04a3.643,3.643,0,0,1-3.2,1.8c-1.521,0-3.341-.839-3.341-4.24v-5.661h1.76v5.36c0,1.841.56,3.081,2.161,3.081a2.546,2.546,0,0,0,2.32-1.6,2.574,2.574,0,0,0,.16-.9v-5.94h1.76Z"/>
        <path id="Trazado_715159" data-name="Trazado 715159" d="M701.087,352.71v2.781h2.521v1.34h-2.521v5.221c0,1.2.34,1.881,1.32,1.881a3.93,3.93,0,0,0,1.021-.12l.08,1.32a4.318,4.318,0,0,1-1.561.24,2.439,2.439,0,0,1-1.9-.74,3.589,3.589,0,0,1-.681-2.521v-5.281h-1.5v-1.34h1.5V353.17Z"/>
        <path id="Trazado_715160" data-name="Trazado 715160" d="M707.547,352.77a1.091,1.091,0,0,1-2.181,0,1.073,1.073,0,0,1,1.1-1.1,1.045,1.045,0,0,1,1.08,1.1m-1.96,2.721h1.76v9.682h-1.76Z"/>
        <rect id="Rectángulo_348771" data-name="Rectángulo 348771" width="1.76" height="14.203" transform="translate(710.267 350.969)"/>
        <path id="Trazado_715161" data-name="Trazado 715161" d="M716.946,352.77a1.09,1.09,0,0,1-2.18,0,1.073,1.073,0,0,1,1.1-1.1,1.045,1.045,0,0,1,1.08,1.1m-1.96,2.721h1.76v9.682h-1.76Z"/>
        <path id="Trazado_715162" data-name="Trazado 715162" d="M728.028,350.969v11.7c0,.861.02,1.841.08,2.5h-1.58l-.08-1.68h-.04a3.582,3.582,0,0,1-3.3,1.9c-2.341,0-4.141-1.981-4.141-4.921-.02-3.221,1.981-5.2,4.341-5.2a3.234,3.234,0,0,1,2.92,1.48h.04v-5.781Zm-1.761,8.462a3.151,3.151,0,0,0-.079-.74,2.59,2.59,0,0,0-2.541-2.04c-1.82,0-2.9,1.6-2.9,3.74,0,1.961.96,3.581,2.861,3.581a2.646,2.646,0,0,0,2.581-2.1,3.1,3.1,0,0,0,.079-.759Z"/>
        <path id="Trazado_715163" data-name="Trazado 715163" d="M736.307,365.172l-.14-1.22h-.06a3.607,3.607,0,0,1-2.961,1.44,2.758,2.758,0,0,1-2.96-2.78c0-2.341,2.08-3.621,5.821-3.6v-.2a2,2,0,0,0-2.2-2.24,4.82,4.82,0,0,0-2.521.72l-.4-1.161a6.009,6.009,0,0,1,3.181-.86c2.959,0,3.68,2.021,3.68,3.961v3.621a13.63,13.63,0,0,0,.16,2.32Zm-.26-4.941c-1.921-.04-4.1.3-4.1,2.181a1.558,1.558,0,0,0,1.662,1.68,2.408,2.408,0,0,0,2.339-1.62,1.813,1.813,0,0,0,.1-.56Z"/>
        <path id="Trazado_715164" data-name="Trazado 715164" d="M748.948,350.969v11.7c0,.861.02,1.841.08,2.5h-1.58l-.08-1.68h-.04a3.582,3.582,0,0,1-3.3,1.9c-2.341,0-4.141-1.981-4.141-4.921-.02-3.221,1.981-5.2,4.341-5.2a3.234,3.234,0,0,1,2.92,1.48h.04v-5.781Zm-1.761,8.462a3.151,3.151,0,0,0-.079-.74,2.59,2.59,0,0,0-2.541-2.04c-1.82,0-2.9,1.6-2.9,3.74,0,1.961.96,3.581,2.861,3.581a2.646,2.646,0,0,0,2.581-2.1,3.1,3.1,0,0,0,.079-.759Z"/>
        <path id="Trazado_715165" data-name="Trazado 715165" d="M751.245,364.132a1.183,1.183,0,0,1,1.2-1.261,1.263,1.263,0,1,1-1.2,1.261"/>
        <path id="Trazado_715166" data-name="Trazado 715166" d="M1300.656,572.48l-16.788.156-10.258,58.551c-.635,3.827,1.995,7.36,5.456,7.328l29.08-.27c3.452-.032,6.015-3.6,5.323-7.406Z" fill="#415067"/>
        <path id="Trazado_715167" data-name="Trazado 715167" d="M1282.826,563.927s-8.642,11.1-13.07,13.607l1.9.8a31.443,31.443,0,0,0,15.084-11.3Z" fill="#415067"/>
        <path id="Trazado_715168" data-name="Trazado 715168" d="M1296.684,548.381c4.413.408,10.55,7.3,10.55,7.3l.263,6.343-6.392,5.606-.449,4.855-16.788.156s1.461-5.708.51-7.254-17.447-4.906-17.447-4.906l-.192-4.272c5.143-3.048,25.531-8.231,29.945-7.823" fill="#eb9168"/>
      </g>
    </g>
  </g>
</svg>
