<svg xmlns="http://www.w3.org/2000/svg" width="72" height="72" viewBox="0 0 72 72">
  <g id="Grupo_1008534" data-name="Grupo 1008534" transform="translate(-299.534 -6167.893)">
    <circle id="Elipse_5639" data-name="Elipse 5639" cx="36" cy="36" r="36" transform="translate(299.534 6167.893)" fill="none"/>
    <g id="Grupo_1008530" data-name="Grupo 1008530" transform="translate(0 -3)">
      <g id="Layer_1_3_" transform="translate(280.906 6159.087)">
        <g id="Grupo_1008524" data-name="Grupo 1008524" transform="translate(27.735 18.805)">
          <path id="Trazado_713270" data-name="Trazado 713270" d="M34.037,127.728A25.78,25.78,0,0,0,47.444,158.85h22.1a25.744,25.744,0,0,0,13.407-31.122Z" transform="translate(-31.602 -102.032)" fill="#a55d26" fill-rule="evenodd"/>
          <path id="Trazado_713271" data-name="Trazado 713271" d="M120.95,47.13h7.637a63.815,63.815,0,0,0,1.268-8.619c.256-3.356.308-7.773-.851-11.019-.732-2.052-1.99-3.688-4.236-3.7-2.246.014-3.5,1.649-4.236,3.7-1.159,3.248-1.107,7.662-.851,11.019a63.855,63.855,0,0,0,1.268,8.619Z" transform="translate(-97.875 -22.615)" fill="#387639" fill-rule="evenodd"/>
          <path id="Trazado_713272" data-name="Trazado 713272" d="M167.155,39.237a49.21,49.21,0,0,1-.445,9.792,14.829,14.829,0,0,1,5.914-5.221c.5-.89,1.194-2.163,1.811-3.4.545-1.089,2.763-6.3,2.211-7.472-.087-.1-.511-.125-1.162-.053a9.824,9.824,0,0,0-4.226,1.7,14.577,14.577,0,0,0-4.1,4.647Z" transform="translate(-133.924 -29.532)" fill="#387639" fill-rule="evenodd"/>
          <path id="Trazado_713273" data-name="Trazado 713273" d="M84.292,49.03a49.2,49.2,0,0,1-.445-9.792,14.58,14.58,0,0,0-4.1-4.647,9.826,9.826,0,0,0-4.226-1.7c-.651-.072-1.075-.047-1.162.053-.551,1.175,1.666,6.383,2.211,7.472.617,1.233,1.314,2.506,1.811,3.4A14.9,14.9,0,0,1,84.292,49.03Z" transform="translate(-63.29 -29.533)" fill="#387639" fill-rule="evenodd"/>
          <path id="Trazado_713274" data-name="Trazado 713274" d="M50.424,63.248c.46,4.753,3.607,10.443,6.669,14.03H66.8A10.872,10.872,0,0,0,65.087,72.9a15.336,15.336,0,0,0-1.613-2.013c-2.231-2.317-4.46-3.165-7.379-4.262A20.839,20.839,0,0,1,52.412,64.5C51.6,63.956,50.859,63.464,50.424,63.248Z" transform="translate(-45.071 -52.763)" fill="#387639" fill-rule="evenodd"/>
          <path id="Trazado_713275" data-name="Trazado 713275" d="M179.991,63.247c-2.122.952-3.348,2.251-4.984,3-1.581.723-2.541,1.029-4.071,1.77a13.3,13.3,0,0,0-5.533,4.776,10.885,10.885,0,0,0-1.793,4.486h9.712C176.383,73.69,179.531,68,179.991,63.247Z" transform="translate(-131.555 -52.763)" fill="#387639" fill-rule="evenodd"/>
          <g id="Grupo_1008523" data-name="Grupo 1008523" transform="translate(0 0)">
            <path id="Trazado_713276" data-name="Trazado 713276" d="M116.064,44.04c-1.288-5.741-2.5-15.1-.482-20.754.917-2.57,2.579-4.465,5.345-4.48,2.823,0,4.469,2.013,5.35,4.48,2.02,5.66.806,15.013-.482,20.754l-.1.461h-9.525Zm1.047-.72h7.637c1.171-5.41,2.315-14.321.418-19.638-.733-2.052-1.99-3.688-4.236-3.7-2.246.014-3.5,1.649-4.236,3.7C114.8,29,115.941,37.909,117.111,43.32Z" transform="translate(-94.036 -18.805)" fill="#000002" fill-rule="evenodd"/>
            <path id="Trazado_713277" data-name="Trazado 713277" d="M46.5,59.057c.46,4.753,3.607,10.443,6.669,14.03h9.712a10.66,10.66,0,0,0-.513-2,13.521,13.521,0,0,0-5.5-6.549,27.765,27.765,0,0,0-4.7-2.1,20.84,20.84,0,0,1-3.683-2.129c-.816-.544-1.553-1.036-1.988-1.252ZM45.3,58.749c-.065-1.03.79-.975.79-.984.65-.041,1.771.707,3.06,1.566a20.054,20.054,0,0,0,3.443,2,28.463,28.463,0,0,1,4.891,2.193,14.7,14.7,0,0,1,6,7.153,11.872,11.872,0,0,1,.658,2.941l.061.646H52.632l-.177-.2C49.111,70.222,45.621,63.9,45.3,58.749Z" transform="translate(-41.15 -48.572)" fill="#000002" fill-rule="evenodd"/>
            <path id="Trazado_713278" data-name="Trazado 713278" d="M73.731,40.9c-.491-.874-1.231-2.222-1.924-3.606-.807-1.612-3.06-6.894-2.2-8.555,1.488-1.614,5.41.083,7.092,1.234a15.908,15.908,0,0,1,4.562,5.209c.08.112.051.223.076.335a41.927,41.927,0,0,0,.051,6.269,64.438,64.438,0,0,0,.979,7.2l.125.649-1.294.1-.127-.473a10.678,10.678,0,0,0-.666-1.807,11.416,11.416,0,0,0-1.1-1.842,14.455,14.455,0,0,0-2.571-2.755,13.834,13.834,0,0,0-2.745-1.715A.8.8,0,0,1,73.731,40.9Zm-.872-4.132c.617,1.233,1.314,2.506,1.811,3.4a14.824,14.824,0,0,1,2.807,1.78,15.6,15.6,0,0,1,2.779,2.971q.172.236.329.472c-.157-1.165-.283-2.344-.373-3.514a43.539,43.539,0,0,1-.065-6.264,14.592,14.592,0,0,0-4.113-4.663,9.826,9.826,0,0,0-4.226-1.7c-.651-.072-1.075-.047-1.162.053C70.1,30.47,72.313,35.678,72.859,36.768Z" transform="translate(-59.582 -25.889)" fill="#000002" fill-rule="evenodd"/>
            <path id="Trazado_713279" data-name="Trazado 713279" d="M176.945,58.749c-.325,5.157-3.815,11.473-7.16,15.317a.469.469,0,0,1-.445.2h-11.3l.061-.646a11.89,11.89,0,0,1,.658-2.941,14.669,14.669,0,0,1,6-7.153,28.485,28.485,0,0,1,4.892-2.193,20.055,20.055,0,0,0,3.443-2c1.289-.86,2.409-1.608,3.06-1.566C176.155,57.773,177.009,57.718,176.945,58.749Zm-1.207.308c-.435.216-1.173.708-1.988,1.252a20.832,20.832,0,0,1-3.682,2.129,27.715,27.715,0,0,0-4.7,2.1,13.541,13.541,0,0,0-5.5,6.549,10.667,10.667,0,0,0-.513,2h9.712c3.061-3.587,6.208-9.277,6.669-14.031Z" transform="translate(-127.302 -48.572)" fill="#000002" fill-rule="evenodd"/>
            <path id="Trazado_713280" data-name="Trazado 713280" d="M30.17,123.9a25.78,25.78,0,0,0,13.407,31.122h22.1A25.779,25.779,0,0,0,79.087,123.9Zm49.342-1.181a.584.584,0,0,1,.558.4,26.907,26.907,0,0,1-13.8,32.922,1.138,1.138,0,0,1-.73.162H43.658a1.773,1.773,0,0,1-.665-.158,26.9,26.9,0,0,1-13.806-32.926.514.514,0,0,1,.558-.4Z" transform="translate(-27.735 -98.206)" fill="#000002" fill-rule="evenodd"/>
            <path id="Trazado_713281" data-name="Trazado 713281" d="M167.379,40.9c.491-.874,1.231-2.222,1.924-3.606.807-1.612,3.06-6.894,2.2-8.555-1.488-1.614-5.41.083-7.092,1.234a15.905,15.905,0,0,0-4.562,5.209c-.08.112-.051.223-.076.335a41.928,41.928,0,0,1-.051,6.269,64.438,64.438,0,0,1-.979,7.2l-.125.649,1.294.1.127-.473a10.685,10.685,0,0,1,.666-1.807,11.42,11.42,0,0,1,1.1-1.842,14.455,14.455,0,0,1,2.571-2.755,13.823,13.823,0,0,1,2.745-1.715A.81.81,0,0,0,167.379,40.9Zm.872-4.132c-.617,1.233-1.314,2.507-1.811,3.4a14.812,14.812,0,0,0-2.807,1.78,15.607,15.607,0,0,0-2.779,2.971q-.172.236-.329.472c.157-1.165.283-2.344.373-3.514a43.538,43.538,0,0,0,.065-6.264,14.593,14.593,0,0,1,4.113-4.663,9.828,9.828,0,0,1,4.226-1.7c.651-.072,1.075-.047,1.162.053C171.013,30.469,168.8,35.677,168.251,36.767Z" transform="translate(-127.739 -25.888)" fill="#000002" fill-rule="evenodd"/>
          </g>
          <path id="Trazado_713282" data-name="Trazado 713282" d="M34.329,127.728c4.864,17.024,17.129,28.106,34.777,31.122H47.444a25.78,25.78,0,0,1-13.407-31.122Z" transform="translate(-31.602 -102.032)" fill="#904720" fill-rule="evenodd"/>
        </g>
      </g>
      <g id="Grupo_1008525" data-name="Grupo 1008525">
        <circle id="Elipse_5677" data-name="Elipse 5677" cx="1.5" cy="1.5" r="1.5" transform="translate(314.534 6205.893)" fill="#12263f" opacity="0.32"/>
        <circle id="Elipse_5678" data-name="Elipse 5678" cx="1.5" cy="1.5" r="1.5" transform="translate(321.534 6205.893)" fill="#12263f" opacity="0.32"/>
        <circle id="Elipse_5679" data-name="Elipse 5679" cx="1.5" cy="1.5" r="1.5" transform="translate(327.534 6205.893)" fill="#12263f" opacity="0.32"/>
        <circle id="Elipse_5680" data-name="Elipse 5680" cx="1.5" cy="1.5" r="1.5" transform="translate(334.534 6205.893)" fill="#12263f" opacity="0.32"/>
        <circle id="Elipse_5681" data-name="Elipse 5681" cx="1.5" cy="1.5" r="1.5" transform="translate(341.534 6205.893)" fill="#12263f" opacity="0.32"/>
        <circle id="Elipse_5682" data-name="Elipse 5682" cx="1.5" cy="1.5" r="1.5" transform="translate(347.534 6205.893)" fill="#12263f" opacity="0.32"/>
        <circle id="Elipse_5683" data-name="Elipse 5683" cx="1.5" cy="1.5" r="1.5" transform="translate(354.534 6205.893)" fill="#12263f" opacity="0.32"/>
      </g>
      <g id="Grupo_1008526" data-name="Grupo 1008526" transform="translate(0 6)">
        <circle id="Elipse_5677-2" data-name="Elipse 5677" cx="1.5" cy="1.5" r="1.5" transform="translate(314.534 6205.893)" fill="#12263f" opacity="0.32"/>
        <circle id="Elipse_5678-2" data-name="Elipse 5678" cx="1.5" cy="1.5" r="1.5" transform="translate(321.534 6205.893)" fill="#12263f" opacity="0.32"/>
        <circle id="Elipse_5679-2" data-name="Elipse 5679" cx="1.5" cy="1.5" r="1.5" transform="translate(327.534 6205.893)" fill="#12263f" opacity="0.32"/>
        <circle id="Elipse_5680-2" data-name="Elipse 5680" cx="1.5" cy="1.5" r="1.5" transform="translate(334.534 6205.893)" fill="#12263f" opacity="0.32"/>
        <circle id="Elipse_5681-2" data-name="Elipse 5681" cx="1.5" cy="1.5" r="1.5" transform="translate(341.534 6205.893)" fill="#12263f" opacity="0.32"/>
        <circle id="Elipse_5682-2" data-name="Elipse 5682" cx="1.5" cy="1.5" r="1.5" transform="translate(347.534 6205.893)" fill="#12263f" opacity="0.32"/>
        <circle id="Elipse_5683-2" data-name="Elipse 5683" cx="1.5" cy="1.5" r="1.5" transform="translate(354.534 6205.893)" fill="#12263f" opacity="0.32"/>
      </g>
      <g id="Grupo_1008527" data-name="Grupo 1008527" transform="translate(0 11)">
        <circle id="Elipse_5677-3" data-name="Elipse 5677" cx="1.5" cy="1.5" r="1.5" transform="translate(314.534 6205.893)" fill="#12263f" opacity="0.32"/>
        <circle id="Elipse_5678-3" data-name="Elipse 5678" cx="1.5" cy="1.5" r="1.5" transform="translate(321.534 6205.893)" fill="#12263f" opacity="0.32"/>
        <circle id="Elipse_5679-3" data-name="Elipse 5679" cx="1.5" cy="1.5" r="1.5" transform="translate(327.534 6205.893)" fill="#12263f" opacity="0.32"/>
        <circle id="Elipse_5680-3" data-name="Elipse 5680" cx="1.5" cy="1.5" r="1.5" transform="translate(334.534 6205.893)" fill="#12263f" opacity="0.32"/>
        <circle id="Elipse_5681-3" data-name="Elipse 5681" cx="1.5" cy="1.5" r="1.5" transform="translate(341.534 6205.893)" fill="#12263f" opacity="0.32"/>
        <circle id="Elipse_5682-3" data-name="Elipse 5682" cx="1.5" cy="1.5" r="1.5" transform="translate(347.534 6205.893)" fill="#12263f" opacity="0.32"/>
        <circle id="Elipse_5683-3" data-name="Elipse 5683" cx="1.5" cy="1.5" r="1.5" transform="translate(354.534 6205.893)" fill="#12263f" opacity="0.32"/>
      </g>
      <g id="Grupo_1008528" data-name="Grupo 1008528" transform="translate(0 17)">
        <circle id="Elipse_5677-4" data-name="Elipse 5677" cx="1.5" cy="1.5" r="1.5" transform="translate(314.534 6205.893)" fill="#12263f" opacity="0.32"/>
        <circle id="Elipse_5678-4" data-name="Elipse 5678" cx="1.5" cy="1.5" r="1.5" transform="translate(321.534 6205.893)" fill="#12263f" opacity="0.32"/>
        <circle id="Elipse_5679-4" data-name="Elipse 5679" cx="1.5" cy="1.5" r="1.5" transform="translate(327.534 6205.893)" fill="#12263f" opacity="0.32"/>
        <circle id="Elipse_5680-4" data-name="Elipse 5680" cx="1.5" cy="1.5" r="1.5" transform="translate(334.534 6205.893)" fill="#12263f" opacity="0.32"/>
        <circle id="Elipse_5681-4" data-name="Elipse 5681" cx="1.5" cy="1.5" r="1.5" transform="translate(341.534 6205.893)" fill="#12263f" opacity="0.32"/>
        <circle id="Elipse_5682-4" data-name="Elipse 5682" cx="1.5" cy="1.5" r="1.5" transform="translate(347.534 6205.893)" fill="#12263f" opacity="0.32"/>
        <circle id="Elipse_5683-4" data-name="Elipse 5683" cx="1.5" cy="1.5" r="1.5" transform="translate(354.534 6205.893)" fill="#12263f" opacity="0.32"/>
      </g>
      <g id="Grupo_1008529" data-name="Grupo 1008529" transform="translate(0 22)">
        <circle id="Elipse_5678-5" data-name="Elipse 5678" cx="1.5" cy="1.5" r="1.5" transform="translate(321.534 6205.893)" fill="#12263f" opacity="0.32"/>
        <circle id="Elipse_5679-5" data-name="Elipse 5679" cx="1.5" cy="1.5" r="1.5" transform="translate(327.534 6205.893)" fill="#12263f" opacity="0.32"/>
        <circle id="Elipse_5680-5" data-name="Elipse 5680" cx="1.5" cy="1.5" r="1.5" transform="translate(334.534 6205.893)" fill="#12263f" opacity="0.32"/>
        <circle id="Elipse_5681-5" data-name="Elipse 5681" cx="1.5" cy="1.5" r="1.5" transform="translate(341.534 6205.893)" fill="#12263f" opacity="0.32"/>
        <circle id="Elipse_5682-5" data-name="Elipse 5682" cx="1.5" cy="1.5" r="1.5" transform="translate(347.534 6205.893)" fill="#12263f" opacity="0.32"/>
      </g>
    </g>
  </g>
</svg>
