<svg xmlns="http://www.w3.org/2000/svg" width="72" height="72" viewBox="0 0 72 72">
  <g id="Grupo_1008531" data-name="Grupo 1008531" transform="translate(-1230.534 -6167.893)">
    <circle id="Elipse_5642" data-name="Elipse 5642" cx="36" cy="36" r="36" transform="translate(1230.534 6167.893)" fill="none"/>
    <g id="planta" transform="translate(1183.443 6174.893)">
      <path id="Trazado_713244" data-name="Trazado 713244" d="M223.936,7.5s-4.269,14.765-4.068,22.254c.271,10.125,1.992,10.682,1.992,10.682h4.152s1.722-.557,1.992-10.682C228.2,22.265,223.936,7.5,223.936,7.5Z" transform="translate(-140.845 -6.654)" fill="#66ad66"/>
      <path id="Trazado_713245" data-name="Trazado 713245" d="M254.161,7.5l-.234,32.936h2.31s1.722-.557,1.992-10.682C258.429,22.265,254.161,7.5,254.161,7.5Z" transform="translate(-171.07 -6.654)" fill="#5e9e5e"/>
      <path id="Trazado_713246" data-name="Trazado 713246" d="M260.946,66.027c-4.2-12.475,1.967-29.684,1.967-29.684A42.671,42.671,0,0,0,253.6,49.354c-2.678,5.531-2.016,12.433-1.2,16.673Z" transform="translate(-169.075 -32.245)" fill="#9cd38c"/>
      <path id="Trazado_713247" data-name="Trazado 713247" d="M286.945,66.027c-4.2-12.475,1.967-29.684,1.967-29.684S277.6,51.511,282,66.027Z" transform="translate(-195.074 -32.245)" fill="#80c56e"/>
      <path id="Trazado_713248" data-name="Trazado 713248" d="M162.66,66.027c4.2-12.475-1.967-29.684-1.967-29.684a42.671,42.671,0,0,1,9.317,13.011c2.678,5.531,2.016,12.433,1.2,16.673Z" transform="translate(-88.349 -32.245)" fill="#9cd38c"/>
      <path id="Trazado_713249" data-name="Trazado 713249" d="M168.3,66.027c2.65-10.966-7.609-29.684-7.609-29.684a42.671,42.671,0,0,1,9.317,13.011c2.678,5.531,2.016,12.433,1.2,16.673Z" transform="translate(-88.35 -32.245)" fill="#80c56e"/>
      <path id="Trazado_713250" data-name="Trazado 713250" d="M291.487,200.863c.52-7.029,8.669-12.547,8.669-12.547s-6.675.8-11.356,4.592a15.478,15.478,0,0,0-4.769,7.955Z" transform="translate(-197.781 -167.081)" fill="#9cd38c"/>
      <g id="Grupo_1008522" data-name="Grupo 1008522" transform="translate(63.828 21.235)">
        <path id="Trazado_713251" data-name="Trazado 713251" d="M316.97,200.863c.52-7.029,8.669-12.547,8.669-12.547a21.38,21.38,0,0,0-12.886,12.547Z" transform="translate(-287.091 -188.316)" fill="#80c56e"/>
        <path id="Trazado_713252" data-name="Trazado 713252" d="M93.845,200.863c-.521-7.029-8.669-12.547-8.669-12.547s6.675.8,11.356,4.592a15.478,15.478,0,0,1,4.769,7.955Z" transform="translate(-85.176 -188.316)" fill="#80c56e"/>
      </g>
      <path id="Trazado_713253" data-name="Trazado 713253" d="M93.845,200.863c-.521-7.029-8.669-12.547-8.669-12.547s9.725,2.934,12.863,12.547Z" transform="translate(-21.348 -167.081)" fill="#9cd38c"/>
      <path id="Trazado_713254" data-name="Trazado 713254" d="M247.568,98.012c-6.583,4.692-9.321,15.1-9.8,17.138h8.456c1.094-13.911,14.73-23.441,14.73-23.441S254.882,92.8,247.568,98.012Z" transform="translate(-156.731 -81.368)" fill="#66ad66"/>
      <path id="Trazado_713255" data-name="Trazado 713255" d="M273.666,115.15h4.407c1.094-13.911,14.73-23.441,14.73-23.441S277.706,98.213,273.666,115.15Z" transform="translate(-188.583 -81.368)" fill="#5e9e5e"/>
      <path id="Trazado_713256" data-name="Trazado 713256" d="M82,98.012c6.583,4.692,9.321,15.1,9.8,17.138H83.345c-1.094-13.91-14.73-23.441-14.73-23.441S74.684,92.8,82,98.012Z" transform="translate(-6.654 -81.368)" fill="#66ad66"/>
      <path id="Trazado_713257" data-name="Trazado 713257" d="M82,98.012c6.583,4.692,9.321,15.1,9.8,17.138H87.669c-1.5-16.937-19.054-23.441-19.054-23.441S74.684,92.8,82,98.012Z" transform="translate(-6.654 -81.368)" fill="#5e9e5e"/>
      <path id="Trazado_713258" data-name="Trazado 713258" d="M155.612,325.834H142.118a1.787,1.787,0,0,1-1.738-1.37l-5.118-21.337h27.206l-5.118,21.337A1.787,1.787,0,0,1,155.612,325.834Z" transform="translate(-65.786 -268.946)" fill="#fec37d"/>
      <path id="Trazado_713259" data-name="Trazado 713259" d="M274.637,303.127l-5.118,21.337a1.787,1.787,0,0,1-1.738,1.37h5.407a1.787,1.787,0,0,0,1.738-1.37l5.118-21.337Z" transform="translate(-183.362 -268.946)" fill="#f9ae5d"/>
      <path id="Trazado_713260" data-name="Trazado 713260" d="M144.311,295.508H113.445a.71.71,0,0,1-.71-.71v-2.712a.71.71,0,0,1,.71-.71h30.866a.71.71,0,0,1,.71.71V294.8A.71.71,0,0,1,144.311,295.508Z" transform="translate(-45.799 -258.52)" fill="#f2a559"/>
      <path id="Trazado_713261" data-name="Trazado 713261" d="M352.583,291.378h-5.107v4.132h5.107a.71.71,0,0,0,.71-.71v-2.712A.71.71,0,0,0,352.583,291.378Z" transform="translate(-254.071 -258.522)" fill="#ea8f3d"/>
      <path id="Trazado_713262" data-name="Trazado 713262" d="M105,10.017a.846.846,0,0,0-.93-.508A36.026,36.026,0,0,0,92.046,14.8,67.914,67.914,0,0,1,94.634,4.383a.846.846,0,0,0-1.345-.928A38.564,38.564,0,0,0,86.6,11.64C85.421,5.883,83.92.669,83.9.611a.846.846,0,0,0-1.625,0c-.017.059-1.518,5.272-2.694,11.03a38.572,38.572,0,0,0-6.692-8.186.846.846,0,0,0-1.345.928A67.933,67.933,0,0,1,74.134,14.8,36.024,36.024,0,0,0,62.11,9.509a.846.846,0,0,0-.634,1.526,41.475,41.475,0,0,1,6.564,6.094,37.665,37.665,0,0,1,4.22,5.841A27.976,27.976,0,0,0,63.929,20.4a.846.846,0,0,0-.575,1.54c.068.046,6.407,4.4,7.975,10.075H67.646a1.557,1.557,0,0,0-1.556,1.556v2.712a1.557,1.557,0,0,0,1.556,1.556h1.837l4.289,17.882a2.624,2.624,0,0,0,2.56,2.019H89.826a2.625,2.625,0,0,0,2.56-2.019l4.29-17.882h1.837a1.557,1.557,0,0,0,1.556-1.556V33.566a1.557,1.557,0,0,0-1.556-1.556H94.876c1.567-5.668,7.908-10.03,7.975-10.075a.846.846,0,0,0-.575-1.54,27.967,27.967,0,0,0-8.365,2.591,37.615,37.615,0,0,1,4.2-5.824,41.653,41.653,0,0,1,6.593-6.127A.846.846,0,0,0,105,10.017Zm-19.317,6.65q.173-.342.353-.682l.064-.122q.167-.315.339-.628l.1-.183q.152-.275.308-.546a45.825,45.825,0,0,1,5.145-7.292,72.015,72.015,0,0,0-1.862,8.9l-.024.018q-.181.134-.358.274l-.094.075q-.135.108-.267.219l-.115.1q-.155.132-.308.268l-.158.144-.165.153q-.182.171-.362.349l-.06.059q-.113.113-.225.229l-.045.047a22.883,22.883,0,0,0-2.546,3.21l-.063.1q-.114.174-.227.351-.084.132-.166.264l-.11.177q-.135.221-.266.443l-.042.071q-.156.266-.306.533-.024-.2-.052-.4l-.013-.091q-.085-.607-.2-1.193l-.007-.04q.023-.111.048-.221c.018-.083.036-.166.056-.248.024-.1.049-.2.074-.3.02-.081.04-.162.061-.242.026-.1.054-.2.082-.295.022-.078.044-.156.066-.233.03-.1.061-.2.092-.295.023-.074.046-.148.07-.221.033-.1.068-.2.1-.3.024-.069.047-.138.072-.206.038-.1.078-.2.117-.306.024-.061.047-.123.071-.184.046-.114.094-.225.142-.337.02-.046.039-.093.059-.139q.1-.235.214-.463.177-.365.361-.729ZM83.09,4.076c.637,2.444,1.525,6.08,2.207,9.733q-.588,1.038-1.166,2.18l-.02.039q-.175.349-.349.707l0,.006c-.074.153-.145.308-.215.465l-.062.142q-.077.176-.15.356l-.057.14c-.063.158-.125.317-.184.479-.026-.071-.054-.141-.081-.212s-.064-.169-.1-.253-.056-.138-.085-.207q-.061-.147-.124-.292c-.024-.055-.048-.111-.073-.166-.068-.152-.138-.3-.209-.452q-.179-.371-.361-.731L82.054,16q-.578-1.146-1.17-2.188C81.565,10.155,82.454,6.52,83.09,4.076ZM79.333,14.508q.155.271.307.545l.1.181q.173.314.341.632l.061.117q.18.342.355.686l.04.079q.184.365.362.73.1.215.2.437l.047.109q.078.179.152.361l.038.095q.087.219.169.442l.005.014a18.663,18.663,0,0,1,.748,2.686,23.547,23.547,0,0,1,.392,2.886l-.037-.072q-.111-.219-.227-.44l-.034-.065q-.125-.235-.255-.472l-.08-.145q-.126-.227-.257-.454l-.028-.049q-.142-.245-.291-.491l-.084-.139q-.141-.231-.287-.46l-.028-.044c-.1-.164-.213-.327-.322-.491l-.089-.133q-.155-.228-.314-.455l-.03-.044q-.173-.243-.352-.482l-.095-.126q-.169-.223-.342-.442l-.033-.043q-.188-.235-.383-.465l-.1-.118q-.182-.213-.37-.422l-.037-.041q-.2-.224-.414-.441l-.107-.11q-.2-.2-.4-.393l-.042-.041q-.219-.209-.446-.409l-.114-.1q-.21-.183-.425-.36l-.047-.039q-.235-.19-.478-.371l-.054-.042a71.949,71.949,0,0,0-1.862-8.9A45.833,45.833,0,0,1,79.333,14.508Zm-10.02,1.507a46.379,46.379,0,0,0-3.538-3.621,41.5,41.5,0,0,1,9.078,4.938q.169.12.334.246l.114.089c.071.055.143.111.213.167.044.036.088.073.131.109.063.052.126.1.189.157l.137.12c.059.052.118.1.176.155l.14.129c.055.051.111.1.166.155l.14.137c.053.052.106.1.159.156l.14.143.152.157.139.148.147.159.137.153.141.16.135.158.137.162.133.162.132.163.131.166.127.164.129.17.123.164.127.173.119.165.124.176.114.164.122.18.109.164.12.183.105.163.118.186.1.161.117.19.095.157.116.194.089.153.115.2.085.149.113.2.079.143.113.207.073.136.113.213.065.125.114.222.056.112.116.233.047.1c.04.082.081.165.12.246l.033.07c.043.09.085.179.127.268l.015.033c.2.428.386.847.557,1.25A45.371,45.371,0,0,0,80.627,32l0,.006h-3.29c0-.018-.006-.035-.009-.052a26.812,26.812,0,0,0-2.161-7.081.857.857,0,0,0-.065-.115A37.5,37.5,0,0,0,69.313,16.015ZM67.1,22.8a22.741,22.741,0,0,1,6.611,2.976,25.1,25.1,0,0,1,1.915,6.232H73.075C72.162,28.117,69.306,24.845,67.1,22.8ZM90.741,55.321a.939.939,0,0,1-.915.722H76.332a.938.938,0,0,1-.915-.722L72.5,43.153H93.66ZM98.376,33.7v2.44H79.2a.846.846,0,1,0,0,1.691H94.936l-.87,3.628H72.092l-.87-3.628h1.8a.846.846,0,1,0,0-1.691H67.781V33.7H98.376Zm.732-10.9c-2.21,2.043-5.067,5.315-5.98,9.208H90.56a25.1,25.1,0,0,1,1.9-6.209A22.7,22.7,0,0,1,99.109,22.8Zm-2.241-6.787a37.476,37.476,0,0,0-5.8,8.773A.845.845,0,0,0,91,24.9a26.8,26.8,0,0,0-2.15,7.064c0,.015-.005.029-.007.044H82.387a43.546,43.546,0,0,1,1.485-4.194v0c.15-.362.309-.731.474-1.1v0a32.805,32.805,0,0,1,2.064-3.906,19.808,19.808,0,0,1,4.717-5.33c.066-.049.133-.1.2-.146A41.523,41.523,0,0,1,100.4,12.4,46.418,46.418,0,0,0,96.867,16.015Z"/>
    </g>
  </g>
</svg>
