<svg xmlns="http://www.w3.org/2000/svg" xmlns:xlink="http://www.w3.org/1999/xlink" width="148" height="149" viewBox="0 0 148 149">
  <defs>
    <radialGradient id="radial-gradient" cx="0.5" cy="0.5" r="0.5" gradientUnits="objectBoundingBox">
      <stop offset="0" stop-color="#fff"/>
      <stop offset="1" stop-color="#e9e9e9"/>
    </radialGradient>
    <filter id="_51" x="0" y="0" width="148" height="149" filterUnits="userSpaceOnUse">
      <feOffset dx="3" dy="3" input="SourceAlpha"/>
      <feGaussianBlur stdDeviation="3" result="blur"/>
      <feFlood flood-opacity="0.161"/>
      <feComposite operator="in" in2="blur"/>
      <feComposite in="SourceGraphic"/>
    </filter>
  </defs>
  <g id="Grupo_1008512" data-name="Grupo 1008512" transform="translate(-1193.534 -1115.893)">
    <g transform="matrix(1, 0, 0, 1, 1193.53, 1115.89)" filter="url(#_51)">
      <g id="_51-2" data-name="51" transform="translate(6 6)" stroke="#fff" stroke-width="3" fill="url(#radial-gradient)">
        <ellipse cx="65" cy="65.5" rx="65" ry="65.5" stroke="none"/>
        <ellipse cx="65" cy="65.5" rx="63.5" ry="64" fill="none"/>
      </g>
    </g>
    <g id="_036-hydroponics" data-name="036-hydroponics" transform="translate(1230.534 1158.893)">
      <g id="Grupo_1008508" data-name="Grupo 1008508" transform="translate(1.012 1.077)">
        <path id="Trazado_713191" data-name="Trazado 713191" d="M111.61,150.143c.485,2.459,2.543,5.117,5.629,6.9,3.528,2.039,7.37,2.341,9.738,1-.027-2.719-2.211-5.9-5.736-7.932-3.085-1.783-6.412-2.234-8.783-1.428C111.412,149.039,111.4,149.062,111.61,150.143Z" transform="translate(-97.492 -135.036)" fill="#b3e59f" fill-rule="evenodd"/>
        <path id="Trazado_713192" data-name="Trazado 713192" d="M121.778,169.17a13.17,13.17,0,0,0,4.353,3.956c3.528,2.039,7.37,2.341,9.738,1-.023-2.429-1.768-5.22-4.651-7.24a8.391,8.391,0,0,1,1.207,2.639c.332,1.348.3,1.44-1.02,1.833a11.368,11.368,0,0,1-8.543-1.5c-.378-.218-.741-.447-1.085-.687Z" transform="translate(-106.385 -151.123)" fill="#95d6a4" fill-rule="evenodd"/>
        <path id="Trazado_713193" data-name="Trazado 713193" d="M229.487,50.387c-1.89,1.646-3.166,4.762-3.166,8.332,0,4.075,1.657,7.554,4,8.936,2.341-1.382,4-4.861,4-8.936,0-3.563-1.272-6.671-3.154-8.317C230.338,49.677,230.315,49.669,229.487,50.387Z" transform="translate(-196.844 -49.853)" fill="#b3e59f" fill-rule="evenodd"/>
        <path id="Trazado_713194" data-name="Trazado 713194" d="M234.484,64.144a7.617,7.617,0,0,0,2.9,3.509c2.341-1.382,4-4.861,4-8.936,0-3.563-1.272-6.671-3.154-8.317-.642-.561-.8-.7-1.222-.39a13.283,13.283,0,0,1,1.107,5.438C238.116,59.305,236.626,62.628,234.484,64.144Z" transform="translate(-203.907 -49.851)" fill="#95d6a4" fill-rule="evenodd"/>
        <path id="Trazado_713195" data-name="Trazado 713195" d="M300.989,150.157c-.493,2.455-2.547,5.106-5.629,6.881-3.525,2.039-7.366,2.341-9.738,1,.031-2.719,2.211-5.9,5.74-7.932,3.093-1.787,6.427-2.238,8.8-1.421C301.2,149.046,301.2,149.073,300.989,150.157Z" transform="translate(-248.156 -135.036)" fill="#b3e59f" fill-rule="evenodd"/>
        <path id="Trazado_713196" data-name="Trazado 713196" d="M300.989,150.161c-.493,2.455-2.547,5.106-5.629,6.881-3.525,2.039-7.366,2.341-9.738,1a6.457,6.457,0,0,1,.561-2.467,12.972,12.972,0,0,0,5.908-1.806,12.186,12.186,0,0,0,5.182-5.465,7.936,7.936,0,0,1,2.887.386C301.2,149.05,301.2,149.077,300.989,150.161Z" transform="translate(-248.156 -135.04)" fill="#95d6a4" fill-rule="evenodd"/>
        <path id="Trazado_713197" data-name="Trazado 713197" d="M32.621,296.077c-2.792,0-5.583-1.684-8.371-1.684s-5.579,1.684-8.371,1.684c-2.44,0-4.877-1.31-7.317-1.612-.623-.076-1.05.195-1.05.974v20.575a1.05,1.05,0,0,0,1.046,1.046H73.421a1.053,1.053,0,0,0,1.046-1.046V295.439c-.008-.783-.4-1.054-1.054-.974-2.444.3-4.877,1.612-7.317,1.612-2.788,0-5.579-1.684-8.371-1.684s-5.579,1.684-8.367,1.684-5.579-1.684-8.371-1.684S35.409,296.077,32.621,296.077Z" transform="translate(-7.513 -261.449)" fill="#d68756" fill-rule="evenodd"/>
        <path id="Trazado_713198" data-name="Trazado 713198" d="M7.512,314.168v2.226a1.05,1.05,0,0,0,1.046,1.046H73.42a1.053,1.053,0,0,0,1.046-1.046V295.819c-.008-.783-.4-1.054-1.054-.974a13.843,13.843,0,0,0-2.215.485V310.9a3.28,3.28,0,0,1-3.269,3.269H7.512Z" transform="translate(-7.512 -261.829)" fill="#c47443" fill-rule="evenodd"/>
        <path id="Trazado_713199" data-name="Trazado 713199" d="M7.512,380.143H74.466v3.922H7.512Z" transform="translate(-7.512 -335.647)" fill="#9dc6fb" fill-rule="evenodd"/>
        <path id="Trazado_713200" data-name="Trazado 713200" d="M218.211,355.877h8.371a1.048,1.048,0,0,1,1.046,1.046v8.367a1.048,1.048,0,0,1-1.046,1.046h-8.371a1.05,1.05,0,0,1-1.046-1.046v-8.367A1.051,1.051,0,0,1,218.211,355.877Z" transform="translate(-188.922 -314.65)" fill="#0c5e7f" fill-rule="evenodd"/>
        <path id="Trazado_713201" data-name="Trazado 713201" d="M224.359,355.877h2.223a1.048,1.048,0,0,1,1.046,1.046v8.367a1.048,1.048,0,0,1-1.046,1.046H218.21a1.05,1.05,0,0,1-1.046-1.046v-2.223H222.4a1.967,1.967,0,0,0,1.963-1.963Z" transform="translate(-188.921 -314.65)" fill="#174b67" fill-rule="evenodd"/>
        <path id="Trazado_713202" data-name="Trazado 713202" d="M480.251,380.143h3.269v3.922h-3.269Z" transform="translate(-416.566 -335.647)" fill="#80b4fb" fill-rule="evenodd"/>
      </g>
      <path id="Trazado_713203" data-name="Trazado 713203" d="M23.054,56.083a1.009,1.009,0,1,1-.718,1.886,10.89,10.89,0,0,0-3.83-.764,6.56,6.56,0,0,0-2.429.416A7.226,7.226,0,0,0,17.436,60.7a12.93,12.93,0,0,0,8.653,5,8.245,8.245,0,0,0,1.734.011l-3.551-2.043a1.006,1.006,0,1,1,1-1.745l3.842,2.211a7.264,7.264,0,0,0-.531-1.1,10.9,10.9,0,0,0-2.574-2.937,1.007,1.007,0,1,1,1.272-1.562,12.853,12.853,0,0,1,3.047,3.486,8.328,8.328,0,0,1,1.153,3.479l2,1.146V61.281a9.036,9.036,0,0,1-2.818-3.658,14.9,14.9,0,0,1,0-11.639,8.684,8.684,0,0,1,3.292-3.971A1.016,1.016,0,0,1,35,42a8.107,8.107,0,0,1,2.8,2.979,12.894,12.894,0,0,1,1.5,4.384,1.005,1.005,0,1,1-1.986.317,11,11,0,0,0-1.256-3.7,6.577,6.577,0,0,0-1.573-1.894A7.22,7.22,0,0,0,32.5,46.8a12.988,12.988,0,0,0,0,10,8.506,8.506,0,0,0,.981,1.669V54.243a1.01,1.01,0,1,1,2.02,0V58.47a7.77,7.77,0,0,0,.561-.848,10.992,10.992,0,0,0,1.256-3.7,1.005,1.005,0,1,1,1.986.317,12.9,12.9,0,0,1-1.5,4.384A8.512,8.512,0,0,1,35.5,61.281v5.358l1.993-1.146a8.917,8.917,0,0,1,1.768-4.422,14.962,14.962,0,0,1,10.081-5.82,8.633,8.633,0,0,1,5.106.878,1.006,1.006,0,0,1,.512.97,8.128,8.128,0,0,1-1.172,3.838,12.986,12.986,0,0,1-3.047,3.49,1.008,1.008,0,0,1-1.272-1.566,10.84,10.84,0,0,0,2.574-2.937,6.576,6.576,0,0,0,.855-2.3,7.194,7.194,0,0,0-3.349-.367,12.892,12.892,0,0,0-8.653,5A8.266,8.266,0,0,0,39.86,64.13L43.7,61.919a1.007,1.007,0,0,1,1,1.745l-3.555,2.043a8.028,8.028,0,0,0,.813.042,10.938,10.938,0,0,0,3.826-.764,1.01,1.01,0,1,1,.722,1.887,12.965,12.965,0,0,1-4.548.89,8.508,8.508,0,0,1-3.315-.615L35.5,68.96v5.969a19.907,19.907,0,0,1,3.46.825,14.013,14.013,0,0,0,3.9.8,13.987,13.987,0,0,0,3.9-.8,15.526,15.526,0,0,1,4.472-.886,15.527,15.527,0,0,1,4.476.886,13.988,13.988,0,0,0,3.9.8,13.961,13.961,0,0,0,3.9-.8,15.576,15.576,0,0,1,4.476-.886,1.01,1.01,0,0,1,1.008,1.012V98.548a1.007,1.007,0,0,1-1.008,1.008H36.774a1.01,1.01,0,0,1,0-2.02h30.18V92.366H40.731v2.257a1.014,1.014,0,0,1-1.012,1.012H29.255a1.01,1.01,0,0,1-1.008-1.012V92.366H2.02v5.171H32.2a1.01,1.01,0,1,1,0,2.02H1.012A1.01,1.01,0,0,1,0,98.548V75.88a1.014,1.014,0,0,1,1.012-1.012,15.526,15.526,0,0,1,4.472.886,13.988,13.988,0,0,0,3.9.8,14.014,14.014,0,0,0,3.9-.8,15.525,15.525,0,0,1,4.472-.886,15.525,15.525,0,0,1,4.472.886,14.013,14.013,0,0,0,3.9.8,13.988,13.988,0,0,0,3.9-.8,19.865,19.865,0,0,1,3.464-.825V68.96l-3.15-1.814a9.07,9.07,0,0,1-4.441.554,14.931,14.931,0,0,1-10.082-5.816A8.7,8.7,0,0,1,14.015,57.1a1.006,1.006,0,0,1,.512-.97,8.054,8.054,0,0,1,3.979-.936,12.881,12.881,0,0,1,4.548.89ZM38.707,85.171H30.267v8.443h8.439Zm2.024,1.249H66.954V76.968a19.969,19.969,0,0,0-2.887.722,15.643,15.643,0,0,1-4.472.882,15.643,15.643,0,0,1-4.472-.882,14.029,14.029,0,0,0-3.9-.8,14.031,14.031,0,0,0-3.9.8,15.643,15.643,0,0,1-4.472.882,15.642,15.642,0,0,1-4.472-.882,19.953,19.953,0,0,0-2.887-.722v6.183h4.22a1.014,1.014,0,0,1,1.012,1.012Zm-7.252-3.269V76.968a19.843,19.843,0,0,0-2.887.722,15.643,15.643,0,0,1-4.472.882,15.669,15.669,0,0,1-4.476-.882,14,14,0,0,0-3.9-.8,13.977,13.977,0,0,0-3.9.8,15.7,15.7,0,0,1-4.476.882,15.643,15.643,0,0,1-4.472-.882,19.826,19.826,0,0,0-2.887-.722V86.42H28.247V84.163a1.01,1.01,0,0,1,1.008-1.012Zm33.475,7.195V88.44H40.731v1.906ZM28.247,88.44H2.02v1.906H28.247V88.44Z" transform="translate(0 -41.859)"/>
    </g>
  </g>
</svg>
