<svg xmlns="http://www.w3.org/2000/svg" xmlns:xlink="http://www.w3.org/1999/xlink" width="123" height="123" viewBox="0 0 123 123">
  <defs>
    <radialGradient id="radial-gradient" cx="0.5" cy="0.5" r="0.5" gradientUnits="objectBoundingBox">
      <stop offset="0" stop-color="#fff"/>
      <stop offset="1" stop-color="#e9e9e9"/>
    </radialGradient>
    <filter id="_43" x="0" y="0" width="123" height="123" filterUnits="userSpaceOnUse">
      <feOffset dx="3" dy="3" input="SourceAlpha"/>
      <feGaussianBlur stdDeviation="3" result="blur"/>
      <feFlood flood-opacity="0.161"/>
      <feComposite operator="in" in2="blur"/>
      <feComposite in="SourceGraphic"/>
    </filter>
  </defs>
  <g id="Grupo_1008700" data-name="Grupo 1008700" transform="translate(-174 -1582)">
    <g transform="matrix(1, 0, 0, 1, 174, 1582)" filter="url(#_43)">
      <g id="_43-2" data-name="43" transform="translate(6 6)" stroke="#fff" stroke-width="3" fill="url(#radial-gradient)">
        <circle cx="52.5" cy="52.5" r="52.5" stroke="none"/>
        <circle cx="52.5" cy="52.5" r="51" fill="none"/>
      </g>
    </g>
    <g id="Plant_Lab" data-name="Plant Lab" transform="translate(73.181 1607.002)">
      <g id="Filled" transform="translate(145.756 1.045)">
        <g id="Grupo_1008699" data-name="Grupo 1008699" transform="translate(0)">
          <path id="Trazado_715284" data-name="Trazado 715284" d="M161.619,154.536c3.512,1.227,4.987,3.231,4.415,4.869s-2.974,2.288-6.486,1.061-6.838-5.715-6.838-5.715S158.107,153.31,161.619,154.536Z" transform="translate(-152.71 -134.931)" fill="#9ccc65"/>
          <path id="Trazado_715285" data-name="Trazado 715285" d="M261.8,154.536c-3.512,1.227-4.987,3.231-4.415,4.869s2.974,2.288,6.486,1.061,6.838-5.715,6.838-5.715S265.31,153.31,261.8,154.536Z" transform="translate(-243.581 -134.931)" fill="#9ccc65"/>
          <path id="Trazado_715286" data-name="Trazado 715286" d="M174.558,87.606c2.95,1.03,4.224,2.617,3.785,3.873s-2.423,1.7-5.373.675-5.82-4.584-5.82-4.584S171.608,86.576,174.558,87.606Z" transform="translate(-165.26 -76.783)" fill="#9ccc65"/>
          <path id="Trazado_715287" data-name="Trazado 715287" d="M259.509,88.5c-2.95,1.03-4.234,2.587-3.808,3.807s2.4,1.639,5.35.608,5.843-4.517,5.843-4.517S262.459,87.467,259.509,88.5Z" transform="translate(-242.155 -77.541)" fill="#9ccc65"/>
          <path id="Trazado_715288" data-name="Trazado 715288" d="M239.828,13.025c.018,2.234.97,3.46,2.133,3.45s2.095-1.25,2.077-3.484S241.893,8,241.893,8,239.81,10.791,239.828,13.025Z" transform="translate(-228.428 -8)" fill="#9ccc65"/>
        </g>
        <path id="Trazado_715289" data-name="Trazado 715289" d="M200,240h14.656v4.187H200Z" transform="translate(-193.812 -209.641)" fill="#b2ebf2"/>
        <path id="Trazado_715290" data-name="Trazado 715290" d="M220.562,272v24.078a6.281,6.281,0,0,1-12.562,0V272" transform="translate(-200.765 -237.453)" fill="#b2ebf2"/>
        <path id="Trazado_715291" data-name="Trazado 715291" d="M220.562,370.636a20.4,20.4,0,0,1-12.562,7.7v3.47a6.281,6.281,0,0,0,12.562,0Z" transform="translate(-200.765 -323.182)" fill="#80deea"/>
        <path id="Trazado_715292" data-name="Trazado 715292" d="M209.43,95.923a8.4,8.4,0,0,1-3.97,3.523,7.113,7.113,0,0,0,.807.343c2.95,1.03,4.935.581,5.373-.675C211.99,98.111,211.247,96.9,209.43,95.923Z" transform="translate(-198.557 -84.418)" fill="#83bd46"/>
        <path id="Trazado_715293" data-name="Trazado 715293" d="M264.164,88.219a8.379,8.379,0,0,1-8.3,4.091,1.422,1.422,0,0,0,.048.175c.426,1.219,2.4,1.639,5.35.608s5.843-4.517,5.843-4.517A21.562,21.562,0,0,0,264.164,88.219Z" transform="translate(-242.365 -77.722)" fill="#83bd46"/>
        <path id="Trazado_715294" data-name="Trazado 715294" d="M190.316,161.718a8.372,8.372,0,0,1-6.031,3.892,10.2,10.2,0,0,0,2.706,1.528c3.512,1.227,5.915.576,6.486-1.061C193.976,164.65,192.919,162.945,190.316,161.718Z" transform="translate(-180.153 -141.603)" fill="#83bd46"/>
        <path id="Trazado_715295" data-name="Trazado 715295" d="M269.357,154.226a8.381,8.381,0,0,1-8.429,5.981c.928,1.143,3.12,1.469,6.127.419,3.512-1.226,6.838-5.714,6.838-5.714a24.582,24.582,0,0,0-4.536-.686Z" transform="translate(-246.767 -135.091)" fill="#83bd46"/>
        <path id="Trazado_715296" data-name="Trazado 715296" d="M244.655,31.368a6.056,6.056,0,0,0-.538-2.225,9.988,9.988,0,0,1-3.579,3.334c.266,1.547,1.081,2.383,2.04,2.375C243.74,34.843,244.673,33.6,244.655,31.368Z" transform="translate(-229.045 -26.376)" fill="#83bd46"/>
        <path id="Trazado_715297" data-name="Trazado 715297" d="M265.568,244.187V240h-3.35a11.566,11.566,0,0,1-3.641,4.187Z" transform="translate(-244.723 -209.641)" fill="#80deea"/>
        <circle id="Elipse_5684" data-name="Elipse 5684" cx="1.57" cy="1.57" r="1.57" transform="translate(6.188 30.359)" fill="#e0f7fa"/>
        <circle id="Elipse_5685" data-name="Elipse 5685" cx="1.57" cy="1.57" r="1.57" transform="translate(2.001 18.844)" fill="#c6ed93"/>
        <circle id="Elipse_5686" data-name="Elipse 5686" cx="1.57" cy="1.57" r="1.57" transform="translate(16.657 19.89)" fill="#c6ed93"/>
        <circle id="Elipse_5687" data-name="Elipse 5687" cx="1.047" cy="1.047" r="1.047" transform="translate(10.376 31.406)" fill="#e0f7fa"/>
      </g>
      <g id="Outline" transform="translate(144.71 -0.002)">
        <path id="Trazado_715298" data-name="Trazado 715298" d="M173.152,19.855c-4.323-1.156-9.332-1.247-12.833,1.554V17.871a5.118,5.118,0,0,0,1.38.176c3.739,0,7.217-2.606,9.6-5.48a1.047,1.047,0,0,0-.592-1.693c-3.509-.736-7.39-.655-10.39,1.309V10.355c2.217-.954,3.383-5.214-.27-9.949a1.047,1.047,0,0,0-1.668.013c-3.476,4.66-2.434,8.938-.156,9.928v1.976c-3-2.282-7.281-2.3-10.808-1.513a1.047,1.047,0,0,0-.587,1.68c.125.155,3.094,3.8,6.289,4.914,1.574.55,3.563.946,5.105.3v3.631a11.377,11.377,0,0,0-3.215-1.672c-3.773-1.318-9.291.13-9.524.192a1.047,1.047,0,0,0-.571,1.635c4.9,6.614,10.571,7.564,13.311,6.322v2.547h-6.281A1.047,1.047,0,0,0,150.9,31.4v4.187a1.047,1.047,0,0,0,1.047,1.047v2.094a1.047,1.047,0,0,0,2.094,0V36.639h10.469V39.78h-2.094a1.047,1.047,0,1,0,0,2.094h2.094v2.094h-5.234a1.047,1.047,0,1,0,0,2.094h5.234v2.094h-2.094a1.047,1.047,0,1,0,0,2.094h2.094v2.094h-5.234a1.047,1.047,0,1,0,0,2.094h5.234v2.094h-2.094a1.047,1.047,0,1,0,0,2.094h2.094V59.67a5.234,5.234,0,0,1-10.469,0V47.108a1.047,1.047,0,1,0-2.094,0V59.67a7.328,7.328,0,0,0,14.656,0V36.639a1.047,1.047,0,0,0,1.047-1.047V31.4a1.047,1.047,0,0,0-1.047-1.047H160.32v-2.59c1.8.869,4.178.462,6.07-.2,3.773-1.318,7.19-5.886,7.334-6.08a1.048,1.048,0,0,0-.571-1.635ZM160.32,15.109c.373-.952,2.088-1.753,3.136-2.119a12.367,12.367,0,0,1,4.889-.34,12.426,12.426,0,0,1-4.037,2.778c-2.422.846-3.743.5-3.988.093Zm-2.469.288c-.181.519-1.59.887-4.04.031a12.232,12.232,0,0,1-4.071-2.864,12.239,12.239,0,0,1,4.969.293c2.449.855,3.323,2.021,3.142,2.539Zm-4.912,10.2c-2.04-.712-4.075-2.716-5.271-4.058,1.772-.307,4.611-.607,6.651.1,5.94,2.075,4.569,6.032-1.381,3.954ZM158.2,6.062a7.073,7.073,0,0,1,1.033-3.091,7.075,7.075,0,0,1,1.083,3.074c.007.835-.242,2.423-1.038,2.429C159.268,8.464,158.223,8.455,158.2,6.062Zm7.35,26.389v2.094H152.992V32.451Zm.145-6.859c-5.946,2.077-7.323-1.878-1.381-3.953a14.558,14.558,0,0,1,6.651-.1C169.774,22.877,167.739,24.88,165.7,25.592Z" transform="translate(-144.71 0.002)"/>
        <circle id="Elipse_5688" data-name="Elipse 5688" cx="1.047" cy="1.047" r="1.047" transform="translate(7.235 41.875)"/>
      </g>
    </g>
  </g>
</svg>
