<svg xmlns="http://www.w3.org/2000/svg" xmlns:xlink="http://www.w3.org/1999/xlink" width="1048" height="195" viewBox="0 0 1048 195">
  <defs>
    <filter id="Rect치ngulo_348644" x="0" y="0" width="1048" height="195" filterUnits="userSpaceOnUse">
      <feOffset dy="3" input="SourceAlpha"/>
      <feGaussianBlur stdDeviation="3" result="blur"/>
      <feFlood flood-opacity="0.161"/>
      <feComposite operator="in" in2="blur"/>
      <feComposite in="SourceGraphic"/>
    </filter>
    <filter id="Icon_akar-arrow-right-thick" x="184.126" y="67.762" width="60.679" height="60.679" filterUnits="userSpaceOnUse">
      <feOffset dy="3" input="SourceAlpha"/>
      <feGaussianBlur stdDeviation="3" result="blur-2"/>
      <feFlood flood-opacity="0.161"/>
      <feComposite operator="in" in2="blur-2"/>
      <feComposite in="SourceGraphic"/>
    </filter>
    <filter id="Icon_akar-arrow-right-thick-2" x="611.268" y="67.762" width="60.679" height="60.679" filterUnits="userSpaceOnUse">
      <feOffset dy="3" input="SourceAlpha"/>
      <feGaussianBlur stdDeviation="3" result="blur-3"/>
      <feFlood flood-opacity="0.161"/>
      <feComposite operator="in" in2="blur-3"/>
      <feComposite in="SourceGraphic"/>
    </filter>
    <filter id="Icon_akar-arrow-right-thick-3" x="376.126" y="67.762" width="60.679" height="60.679" filterUnits="userSpaceOnUse">
      <feOffset dy="3" input="SourceAlpha"/>
      <feGaussianBlur stdDeviation="3" result="blur-4"/>
      <feFlood flood-opacity="0.161"/>
      <feComposite operator="in" in2="blur-4"/>
      <feComposite in="SourceGraphic"/>
    </filter>
    <filter id="Icon_akar-arrow-right-thick-4" x="803.268" y="67.762" width="60.679" height="60.679" filterUnits="userSpaceOnUse">
      <feOffset dy="3" input="SourceAlpha"/>
      <feGaussianBlur stdDeviation="3" result="blur-5"/>
      <feFlood flood-opacity="0.161"/>
      <feComposite operator="in" in2="blur-5"/>
      <feComposite in="SourceGraphic"/>
    </filter>
  </defs>
  <g id="Grupo_1008715" data-name="Grupo 1008715" transform="translate(814 7248.971)">
    <g transform="matrix(1, 0, 0, 1, -814, -7248.97)" filter="url(#Rect치ngulo_348644)">
      <rect id="Rect치ngulo_348644-2" data-name="Rect치ngulo 348644" width="1030" height="177" rx="15" transform="translate(9 6)" fill="#fff"/>
    </g>
    <path id="Trazado_715387" data-name="Trazado 715387" d="M42.035,14.829a1.278,1.278,0,0,0-.5-1.083,6.533,6.533,0,0,0-1.793-.8,12.71,12.71,0,0,1-2.05-.826,3.35,3.35,0,0,1-2.059-3,2.919,2.919,0,0,1,.552-1.747,3.6,3.6,0,0,1,1.585-1.2,5.967,5.967,0,0,1,2.32-.432,5.432,5.432,0,0,1,2.308.469,3.674,3.674,0,0,1,1.573,1.324,3.464,3.464,0,0,1,.56,1.942h-2.49a1.63,1.63,0,0,0-.523-1.291,2.15,2.15,0,0,0-1.469-.461,2.3,2.3,0,0,0-1.419.386,1.217,1.217,0,0,0-.506,1.017,1.166,1.166,0,0,0,.594.988,6.705,6.705,0,0,0,1.747.747,7.55,7.55,0,0,1,3.1,1.585,3.157,3.157,0,0,1,.971,2.357,2.909,2.909,0,0,1-1.187,2.461,5.2,5.2,0,0,1-3.2.892,6.171,6.171,0,0,1-2.54-.51,4.019,4.019,0,0,1-1.747-1.4,3.582,3.582,0,0,1-.6-2.059h2.5q0,2,2.391,2a2.326,2.326,0,0,0,1.386-.361A1.175,1.175,0,0,0,42.035,14.829Zm9.4,2.258a3.008,3.008,0,0,1-2.457,1.079,2.837,2.837,0,0,1-2.2-.83A3.543,3.543,0,0,1,46,14.9V9.019h2.4v5.809q0,1.4,1.278,1.4a1.732,1.732,0,0,0,1.677-.848V9.019h2.407V18H51.507Zm9-1.569A.773.773,0,0,0,60,14.825a4.95,4.95,0,0,0-1.4-.452q-3.2-.672-3.2-2.723a2.468,2.468,0,0,1,.992-2,4,4,0,0,1,2.594-.8,4.307,4.307,0,0,1,2.735.805,2.538,2.538,0,0,1,1.025,2.092h-2.4a1.161,1.161,0,0,0-.332-.851,1.405,1.405,0,0,0-1.038-.336,1.436,1.436,0,0,0-.938.274.865.865,0,0,0-.332.7.739.739,0,0,0,.378.643,3.885,3.885,0,0,0,1.274.423,10.407,10.407,0,0,1,1.511.4,2.482,2.482,0,0,1,1.9,2.416,2.343,2.343,0,0,1-1.054,1.988,4.548,4.548,0,0,1-2.723.76,4.75,4.75,0,0,1-2-.4,3.363,3.363,0,0,1-1.374-1.1,2.565,2.565,0,0,1-.5-1.515h2.274a1.252,1.252,0,0,0,.473.979,1.877,1.877,0,0,0,1.179.34,1.737,1.737,0,0,0,1.042-.261A.814.814,0,0,0,60.438,15.518Zm6.749-8.708V9.019h1.536v1.76H67.187v4.482a1.07,1.07,0,0,0,.191.714.959.959,0,0,0,.73.216,3.826,3.826,0,0,0,.706-.058V17.95a4.938,4.938,0,0,1-1.453.216,2.29,2.29,0,0,1-2.573-2.548V10.778H63.476V9.019h1.312V6.811Zm7.919,4.458a6.517,6.517,0,0,0-.863-.066,1.757,1.757,0,0,0-1.785.921V18h-2.4V9.019h2.266l.066,1.071a2.223,2.223,0,0,1,2-1.237,2.514,2.514,0,0,1,.747.108ZM81.215,18a2.664,2.664,0,0,1-.241-.805,2.9,2.9,0,0,1-2.266.971,3.189,3.189,0,0,1-2.187-.764,2.456,2.456,0,0,1-.867-1.926,2.538,2.538,0,0,1,1.058-2.191,5.222,5.222,0,0,1,3.059-.772h1.1V12a1.48,1.48,0,0,0-.32-1,1.257,1.257,0,0,0-1.009-.374,1.429,1.429,0,0,0-.95.291.987.987,0,0,0-.344.8h-2.4a2.41,2.41,0,0,1,.481-1.444A3.182,3.182,0,0,1,77.7,9.23a4.961,4.961,0,0,1,1.976-.378,3.92,3.92,0,0,1,2.635.834,2.918,2.918,0,0,1,.975,2.345v3.893a4.294,4.294,0,0,0,.357,1.934V18Zm-1.984-1.668a2.066,2.066,0,0,0,.979-.237,1.554,1.554,0,0,0,.664-.635V13.916h-.9q-1.8,0-1.917,1.245l-.008.141a.96.96,0,0,0,.315.739A1.225,1.225,0,0,0,79.231,16.332ZM88,6.811V9.019h1.536v1.76H88v4.482a1.07,1.07,0,0,0,.191.714.959.959,0,0,0,.73.216,3.826,3.826,0,0,0,.706-.058V17.95a4.938,4.938,0,0,1-1.453.216A2.29,2.29,0,0,1,85.6,15.618V10.778H84.286V9.019H85.6V6.811Zm2.25,6.616a5.326,5.326,0,0,1,.515-2.382,3.768,3.768,0,0,1,1.482-1.619,4.323,4.323,0,0,1,2.245-.573,4.09,4.09,0,0,1,2.968,1.112,4.464,4.464,0,0,1,1.282,3.021l.017.614A4.694,4.694,0,0,1,97.6,16.917a4.472,4.472,0,0,1-6.2,0,4.777,4.777,0,0,1-1.158-3.387Zm2.4.17a3.357,3.357,0,0,0,.481,1.958,1.73,1.73,0,0,0,2.739.008,3.674,3.674,0,0,0,.49-2.141,3.324,3.324,0,0,0-.49-1.945,1.592,1.592,0,0,0-1.378-.69,1.566,1.566,0,0,0-1.361.686A3.736,3.736,0,0,0,92.645,13.6Z" transform="translate(-768 -7117)" fill="#12263f"/>
    <path id="Trazado_715388" data-name="Trazado 715388" d="M41.064,18h-2.49V12.82H33.718V18h-2.49V5.914h2.49v4.9h4.856v-4.9h2.49Zm7.4-.913A3.008,3.008,0,0,1,46,18.166a2.837,2.837,0,0,1-2.2-.83,3.543,3.543,0,0,1-.776-2.432V9.019h2.4v5.809q0,1.4,1.278,1.4a1.732,1.732,0,0,0,1.677-.848V9.019h2.407V18H48.527Zm6.383-8.068.075,1A3.156,3.156,0,0,1,57.5,8.853a2.4,2.4,0,0,1,2.382,1.37,3.084,3.084,0,0,1,2.7-1.37,2.679,2.679,0,0,1,2.175.851,3.911,3.911,0,0,1,.714,2.561V18H63.061V12.272a1.71,1.71,0,0,0-.3-1.116,1.324,1.324,0,0,0-1.054-.353,1.5,1.5,0,0,0-1.494,1.029L60.222,18h-2.4V12.281a1.689,1.689,0,0,0-.307-1.129A1.337,1.337,0,0,0,56.47,10.8a1.555,1.555,0,0,0-1.478.847V18h-2.4V9.019Zm16.6,9.147a4.409,4.409,0,0,1-3.217-1.212,4.308,4.308,0,0,1-1.241-3.229v-.232a5.426,5.426,0,0,1,.523-2.42,3.838,3.838,0,0,1,1.482-1.644,4.159,4.159,0,0,1,2.187-.577,3.727,3.727,0,0,1,2.9,1.162,4.722,4.722,0,0,1,1.058,3.3v.979H69.42a2.229,2.229,0,0,0,.7,1.411,2.12,2.12,0,0,0,1.482.531,2.589,2.589,0,0,0,2.167-1l1.179,1.32a3.6,3.6,0,0,1-1.461,1.191A4.793,4.793,0,0,1,71.445,18.166Zm-.274-7.379a1.5,1.5,0,0,0-1.158.484,2.5,2.5,0,0,0-.569,1.384h3.337v-.192a1.786,1.786,0,0,0-.432-1.238A1.547,1.547,0,0,0,71.171,10.787Zm4.956,2.656a5.413,5.413,0,0,1,.942-3.345,3.057,3.057,0,0,1,2.577-1.245,2.751,2.751,0,0,1,2.167.979V5.25H84.22V18H82.053l-.116-.955a2.823,2.823,0,0,1-2.308,1.121,3.049,3.049,0,0,1-2.544-1.249A5.587,5.587,0,0,1,76.127,13.443Zm2.4.179a3.546,3.546,0,0,0,.44,1.937,1.433,1.433,0,0,0,1.278.673,1.605,1.605,0,0,0,1.569-.939v-3.55A1.582,1.582,0,0,0,80.26,10.8Q78.526,10.8,78.526,13.621ZM91.284,18a2.664,2.664,0,0,1-.241-.805,2.9,2.9,0,0,1-2.266.971A3.189,3.189,0,0,1,86.59,17.4a2.456,2.456,0,0,1-.867-1.926,2.538,2.538,0,0,1,1.058-2.191,5.222,5.222,0,0,1,3.059-.772h1.1V12a1.48,1.48,0,0,0-.32-1,1.257,1.257,0,0,0-1.009-.374,1.429,1.429,0,0,0-.95.291.987.987,0,0,0-.344.8h-2.4a2.41,2.41,0,0,1,.481-1.444A3.182,3.182,0,0,1,87.764,9.23a4.961,4.961,0,0,1,1.976-.378,3.92,3.92,0,0,1,2.635.834,2.918,2.918,0,0,1,.975,2.345v3.893a4.294,4.294,0,0,0,.357,1.934V18ZM89.3,16.332a2.066,2.066,0,0,0,.979-.237,1.554,1.554,0,0,0,.664-.635V13.916h-.9q-1.8,0-1.917,1.245l-.008.141a.96.96,0,0,0,.315.739A1.225,1.225,0,0,0,89.3,16.332Zm5.52-2.889a5.413,5.413,0,0,1,.942-3.345A3.057,3.057,0,0,1,98.34,8.853a2.751,2.751,0,0,1,2.167.979V5.25h2.407V18h-2.167l-.116-.955a2.823,2.823,0,0,1-2.308,1.121,3.049,3.049,0,0,1-2.544-1.249A5.587,5.587,0,0,1,94.82,13.443Zm2.4.179a3.546,3.546,0,0,0,.44,1.937,1.433,1.433,0,0,0,1.278.673,1.605,1.605,0,0,0,1.569-.939v-3.55a1.582,1.582,0,0,0-1.552-.939Q97.219,10.8,97.219,13.621Z" transform="translate(-574 -7117)" fill="#12263f"/>
    <path id="Trazado_715390" data-name="Trazado 715390" d="M27.891,7.931h-3.7V18H21.7V7.931H18.046V5.914h9.845Zm5.4,10.235a4.409,4.409,0,0,1-3.217-1.212,4.308,4.308,0,0,1-1.241-3.229v-.232a5.426,5.426,0,0,1,.523-2.42,3.838,3.838,0,0,1,1.482-1.644,4.159,4.159,0,0,1,2.187-.577,3.727,3.727,0,0,1,2.9,1.162,4.722,4.722,0,0,1,1.058,3.3v.979H31.261a2.229,2.229,0,0,0,.7,1.411,2.12,2.12,0,0,0,1.482.531,2.589,2.589,0,0,0,2.167-1l1.179,1.32a3.6,3.6,0,0,1-1.461,1.191A4.793,4.793,0,0,1,33.286,18.166Zm-.274-7.379a1.5,1.5,0,0,0-1.158.484,2.5,2.5,0,0,0-.569,1.384h3.337v-.192a1.786,1.786,0,0,0-.432-1.238A1.547,1.547,0,0,0,33.012,10.787Zm7.579-1.768.075,1a3.156,3.156,0,0,1,2.582-1.17,2.4,2.4,0,0,1,2.382,1.37,3.084,3.084,0,0,1,2.7-1.37A2.679,2.679,0,0,1,50.5,9.7a3.911,3.911,0,0,1,.714,2.561V18H48.809V12.272a1.71,1.71,0,0,0-.3-1.116,1.324,1.324,0,0,0-1.054-.353,1.5,1.5,0,0,0-1.494,1.029L45.97,18h-2.4V12.281a1.689,1.689,0,0,0-.307-1.129,1.337,1.337,0,0,0-1.046-.349,1.555,1.555,0,0,0-1.478.847V18h-2.4V9.019Zm20.553,4.574a5.387,5.387,0,0,1-.942,3.324,3.021,3.021,0,0,1-2.544,1.249,2.8,2.8,0,0,1-2.2-.946v4.233h-2.4V9.019h2.225l.083.88a2.819,2.819,0,0,1,2.274-1.046,3.041,3.041,0,0,1,2.582,1.229,5.532,5.532,0,0,1,.921,3.387Zm-2.4-.174a3.535,3.535,0,0,0-.444-1.934A1.446,1.446,0,0,0,57.01,10.8a1.571,1.571,0,0,0-1.552.863v3.677a1.6,1.6,0,0,0,1.569.888Q58.745,16.232,58.745,13.418Zm8.019,4.748a4.409,4.409,0,0,1-3.217-1.212,4.308,4.308,0,0,1-1.241-3.229v-.232a5.426,5.426,0,0,1,.523-2.42,3.838,3.838,0,0,1,1.482-1.644A4.159,4.159,0,0,1,66.5,8.853a3.727,3.727,0,0,1,2.9,1.162,4.722,4.722,0,0,1,1.058,3.3v.979H64.738a2.229,2.229,0,0,0,.7,1.411,2.12,2.12,0,0,0,1.482.531,2.589,2.589,0,0,0,2.167-1l1.179,1.32a3.6,3.6,0,0,1-1.461,1.191A4.793,4.793,0,0,1,66.763,18.166Zm-.274-7.379a1.5,1.5,0,0,0-1.158.484,2.5,2.5,0,0,0-.569,1.384H68.1v-.192a1.786,1.786,0,0,0-.432-1.238A1.547,1.547,0,0,0,66.49,10.787Zm10.376.481A6.517,6.517,0,0,0,76,11.2a1.757,1.757,0,0,0-1.785.921V18h-2.4V9.019h2.266l.066,1.071a2.223,2.223,0,0,1,2-1.237,2.514,2.514,0,0,1,.747.108ZM82.975,18a2.664,2.664,0,0,1-.241-.805,2.9,2.9,0,0,1-2.266.971,3.189,3.189,0,0,1-2.187-.764,2.456,2.456,0,0,1-.867-1.926,2.538,2.538,0,0,1,1.058-2.191,5.222,5.222,0,0,1,3.059-.772h1.1V12a1.48,1.48,0,0,0-.32-1,1.257,1.257,0,0,0-1.009-.374,1.429,1.429,0,0,0-.95.291.987.987,0,0,0-.344.8h-2.4a2.41,2.41,0,0,1,.481-1.444A3.182,3.182,0,0,1,79.455,9.23a4.961,4.961,0,0,1,1.976-.378,3.92,3.92,0,0,1,2.635.834,2.918,2.918,0,0,1,.975,2.345v3.893a4.294,4.294,0,0,0,.357,1.934V18Zm-1.984-1.668a2.066,2.066,0,0,0,.979-.237,1.554,1.554,0,0,0,.664-.635V13.916h-.9q-1.8,0-1.917,1.245l-.008.141a.96.96,0,0,0,.315.739A1.225,1.225,0,0,0,80.991,16.332Zm8.766-9.521V9.019h1.536v1.76H89.757v4.482a1.07,1.07,0,0,0,.191.714.959.959,0,0,0,.73.216,3.826,3.826,0,0,0,.706-.058V17.95a4.938,4.938,0,0,1-1.453.216,2.29,2.29,0,0,1-2.573-2.548V10.778H86.046V9.019h1.312V6.811Zm8.251,10.276a3.008,3.008,0,0,1-2.457,1.079,2.837,2.837,0,0,1-2.2-.83,3.543,3.543,0,0,1-.776-2.432V9.019h2.4v5.809q0,1.4,1.278,1.4a1.732,1.732,0,0,0,1.677-.848V9.019h2.407V18H98.074Zm9.181-5.819a6.517,6.517,0,0,0-.863-.066,1.757,1.757,0,0,0-1.785.921V18h-2.4V9.019h2.266l.066,1.071a2.223,2.223,0,0,1,2-1.237,2.514,2.514,0,0,1,.747.108ZM113.3,18a2.664,2.664,0,0,1-.241-.805,2.9,2.9,0,0,1-2.266.971A3.189,3.189,0,0,1,108.6,17.4a2.456,2.456,0,0,1-.867-1.926,2.538,2.538,0,0,1,1.058-2.191,5.222,5.222,0,0,1,3.059-.772h1.1V12a1.48,1.48,0,0,0-.32-1,1.257,1.257,0,0,0-1.009-.374,1.429,1.429,0,0,0-.95.291.987.987,0,0,0-.344.8h-2.4a2.41,2.41,0,0,1,.481-1.444,3.182,3.182,0,0,1,1.361-1.042,4.961,4.961,0,0,1,1.976-.378,3.92,3.92,0,0,1,2.635.834,2.918,2.918,0,0,1,.975,2.345v3.893a4.294,4.294,0,0,0,.357,1.934V18Zm-1.984-1.668a2.066,2.066,0,0,0,.979-.237,1.554,1.554,0,0,0,.664-.635V13.916h-.9q-1.8,0-1.917,1.245l-.008.141a.96.96,0,0,0,.315.739A1.225,1.225,0,0,0,111.314,16.332Z" transform="translate(-146 -7117)" fill="#12263f"/>
    <path id="Trazado_715391" data-name="Trazado 715391" d="M56.944,16h5.288v2H54.453V5.914h2.49Zm11.82,1.087a3.008,3.008,0,0,1-2.457,1.079,2.837,2.837,0,0,1-2.2-.83,3.543,3.543,0,0,1-.776-2.432V9.019h2.4v5.809q0,1.4,1.278,1.4a1.732,1.732,0,0,0,1.677-.848V9.019h2.407V18H68.83Zm6.89-1.021h4.391V18H72.591V16.539l4.225-5.586h-4.1V9.019h7.2v1.413Z" transform="translate(48 -7117)" fill="#12263f"/>
    <path id="Trazado_715389" data-name="Trazado 715389" d="M55.334,18h-2.49V5.914h2.49Zm4.358-8.981.075,1.038a3.136,3.136,0,0,1,2.582-1.2,2.606,2.606,0,0,1,2.125.838,3.912,3.912,0,0,1,.714,2.507V18h-2.4V12.256a1.556,1.556,0,0,0-.332-1.108,1.486,1.486,0,0,0-1.1-.344,1.65,1.65,0,0,0-1.519.863V18h-2.4V9.019ZM69.877,6.811V9.019h1.536v1.76H69.877v4.482a1.07,1.07,0,0,0,.191.714.959.959,0,0,0,.73.216,3.826,3.826,0,0,0,.706-.058V17.95a4.938,4.938,0,0,1-1.453.216,2.29,2.29,0,0,1-2.573-2.548V10.778H66.167V9.019h1.312V6.811Zm7.006,11.355a4.409,4.409,0,0,1-3.217-1.212,4.308,4.308,0,0,1-1.241-3.229v-.232a5.426,5.426,0,0,1,.523-2.42A3.838,3.838,0,0,1,74.43,9.429a4.159,4.159,0,0,1,2.187-.577,3.727,3.727,0,0,1,2.9,1.162,4.722,4.722,0,0,1,1.058,3.3v.979H74.857a2.229,2.229,0,0,0,.7,1.411,2.12,2.12,0,0,0,1.482.531,2.589,2.589,0,0,0,2.167-1l1.179,1.32a3.6,3.6,0,0,1-1.461,1.191A4.793,4.793,0,0,1,76.883,18.166Zm-.274-7.379a1.5,1.5,0,0,0-1.158.484,2.5,2.5,0,0,0-.569,1.384h3.337v-.192a1.786,1.786,0,0,0-.432-1.238A1.547,1.547,0,0,0,76.609,10.787Zm10.376.481a6.517,6.517,0,0,0-.863-.066,1.757,1.757,0,0,0-1.785.921V18h-2.4V9.019H84.2l.066,1.071a2.223,2.223,0,0,1,2-1.237,2.514,2.514,0,0,1,.747.108Zm4.731,4.964a1.573,1.573,0,0,0,1.079-.365,1.28,1.28,0,0,0,.432-.971h2.25a3.077,3.077,0,0,1-.5,1.673,3.286,3.286,0,0,1-1.341,1.179,4.2,4.2,0,0,1-1.88.419,3.9,3.9,0,0,1-3.038-1.224,4.845,4.845,0,0,1-1.112-3.383V13.4a4.79,4.79,0,0,1,1.1-3.312,3.854,3.854,0,0,1,3.03-1.237,3.778,3.778,0,0,1,2.7.959,3.4,3.4,0,0,1,1.033,2.552h-2.25a1.648,1.648,0,0,0-.432-1.139,1.6,1.6,0,0,0-2.362.173,3.541,3.541,0,0,0-.427,1.983v.249a3.586,3.586,0,0,0,.423,2A1.463,1.463,0,0,0,91.716,16.232ZM102.051,18a2.664,2.664,0,0,1-.241-.805,2.9,2.9,0,0,1-2.266.971,3.189,3.189,0,0,1-2.187-.764,2.456,2.456,0,0,1-.867-1.926,2.538,2.538,0,0,1,1.058-2.191,5.222,5.222,0,0,1,3.059-.772h1.1V12a1.48,1.48,0,0,0-.32-1,1.257,1.257,0,0,0-1.009-.374,1.429,1.429,0,0,0-.95.291.987.987,0,0,0-.344.8h-2.4a2.41,2.41,0,0,1,.481-1.444A3.182,3.182,0,0,1,98.531,9.23a4.961,4.961,0,0,1,1.976-.378,3.92,3.92,0,0,1,2.635.834,2.918,2.918,0,0,1,.975,2.345v3.893a4.294,4.294,0,0,0,.357,1.934V18Zm-1.984-1.668a2.066,2.066,0,0,0,.979-.237,1.554,1.554,0,0,0,.664-.635V13.916h-.9q-1.8,0-1.917,1.245l-.008.141a.96.96,0,0,0,.315.739A1.225,1.225,0,0,0,100.067,16.332Zm8.143-7.313.075,1a3.156,3.156,0,0,1,2.582-1.17,2.4,2.4,0,0,1,2.382,1.37,3.084,3.084,0,0,1,2.7-1.37,2.679,2.679,0,0,1,2.175.851,3.911,3.911,0,0,1,.714,2.561V18h-2.407V12.272a1.71,1.71,0,0,0-.3-1.116,1.324,1.324,0,0,0-1.054-.353,1.5,1.5,0,0,0-1.494,1.029L113.589,18h-2.4V12.281a1.689,1.689,0,0,0-.307-1.129,1.337,1.337,0,0,0-1.046-.349,1.555,1.555,0,0,0-1.478.847V18h-2.4V9.019Zm20.561,4.574a5.439,5.439,0,0,1-.921,3.366,3.052,3.052,0,0,1-2.573,1.208,2.8,2.8,0,0,1-2.333-1.121l-.108.955h-2.158V5.25h2.4V9.824a2.732,2.732,0,0,1,2.183-.971,3.077,3.077,0,0,1,2.577,1.208,5.446,5.446,0,0,1,.934,3.4Zm-2.4-.174a3.573,3.573,0,0,0-.432-1.988,1.46,1.46,0,0,0-1.287-.627,1.582,1.582,0,0,0-1.577.938v3.544a1.6,1.6,0,0,0,1.594.946,1.481,1.481,0,0,0,1.527-1.146A5.909,5.909,0,0,0,126.372,13.418ZM132.78,18h-2.407V9.019h2.407ZM130.232,6.694a1.181,1.181,0,0,1,.361-.888,1.556,1.556,0,0,1,1.963,0,1.175,1.175,0,0,1,.365.888,1.178,1.178,0,0,1-.369.9,1.539,1.539,0,0,1-1.951,0A1.178,1.178,0,0,1,130.232,6.694Zm4.15,6.732a5.327,5.327,0,0,1,.515-2.382,3.767,3.767,0,0,1,1.482-1.619,4.323,4.323,0,0,1,2.245-.573,4.09,4.09,0,0,1,2.968,1.112,4.464,4.464,0,0,1,1.282,3.021l.017.614a4.694,4.694,0,0,1-1.154,3.316,4.472,4.472,0,0,1-6.2,0,4.777,4.777,0,0,1-1.158-3.387Zm2.4.17a3.357,3.357,0,0,0,.481,1.958,1.73,1.73,0,0,0,2.739.008,3.674,3.674,0,0,0,.49-2.141,3.324,3.324,0,0,0-.49-1.945,1.592,1.592,0,0,0-1.378-.69,1.566,1.566,0,0,0-1.361.686A3.735,3.735,0,0,0,136.781,13.6Zm11.472-.154a5.264,5.264,0,0,1,.984-3.329,3.187,3.187,0,0,1,2.652-1.262,2.8,2.8,0,0,1,2.3,1.013l.1-.847h2.175V17.7a3.839,3.839,0,0,1-.535,2.05,3.439,3.439,0,0,1-1.507,1.328,5.3,5.3,0,0,1-2.274.457,4.925,4.925,0,0,1-1.926-.394,3.418,3.418,0,0,1-1.419-1.017l1.063-1.461a2.81,2.81,0,0,0,2.175,1,2.057,2.057,0,0,0,1.486-.51,1.915,1.915,0,0,0,.531-1.448v-.481a2.775,2.775,0,0,1-2.183.938,3.179,3.179,0,0,1-2.619-1.266,5.262,5.262,0,0,1-1-3.358Zm2.4.179a3.278,3.278,0,0,0,.49,1.916,1.558,1.558,0,0,0,1.345.694,1.666,1.666,0,0,0,1.569-.823V11.626A1.662,1.662,0,0,0,152.5,10.8a1.568,1.568,0,0,0-1.357.707A3.694,3.694,0,0,0,150.652,13.621ZM163.51,18a2.664,2.664,0,0,1-.241-.805,2.9,2.9,0,0,1-2.266.971,3.189,3.189,0,0,1-2.187-.764,2.456,2.456,0,0,1-.867-1.926,2.538,2.538,0,0,1,1.058-2.191,5.222,5.222,0,0,1,3.059-.772h1.1V12a1.48,1.48,0,0,0-.32-1,1.257,1.257,0,0,0-1.009-.374,1.429,1.429,0,0,0-.95.291.987.987,0,0,0-.344.8h-2.4a2.41,2.41,0,0,1,.481-1.444A3.182,3.182,0,0,1,159.99,9.23a4.961,4.961,0,0,1,1.976-.378,3.92,3.92,0,0,1,2.635.834,2.918,2.918,0,0,1,.975,2.345v3.893a4.294,4.294,0,0,0,.357,1.934V18Zm-1.984-1.668a2.066,2.066,0,0,0,.979-.237,1.554,1.554,0,0,0,.664-.635V13.916h-.9q-1.8,0-1.917,1.245l-.008.141a.96.96,0,0,0,.315.739A1.225,1.225,0,0,0,161.526,16.332Zm10.758-.813a.773.773,0,0,0-.436-.693,4.95,4.95,0,0,0-1.4-.452q-3.2-.672-3.2-2.723a2.468,2.468,0,0,1,.992-2,4,4,0,0,1,2.594-.8,4.307,4.307,0,0,1,2.735.805,2.538,2.538,0,0,1,1.025,2.092h-2.4a1.161,1.161,0,0,0-.332-.851,1.405,1.405,0,0,0-1.038-.336,1.436,1.436,0,0,0-.938.274.865.865,0,0,0-.332.7.739.739,0,0,0,.378.643,3.885,3.885,0,0,0,1.274.423,10.407,10.407,0,0,1,1.511.4,2.482,2.482,0,0,1,1.9,2.416,2.343,2.343,0,0,1-1.054,1.988,4.548,4.548,0,0,1-2.723.76,4.75,4.75,0,0,1-2-.4,3.363,3.363,0,0,1-1.374-1.1,2.565,2.565,0,0,1-.5-1.515h2.274a1.252,1.252,0,0,0,.473.979,1.877,1.877,0,0,0,1.179.34,1.737,1.737,0,0,0,1.042-.261A.814.814,0,0,0,172.284,15.518Zm8.01,2.648a4.409,4.409,0,0,1-3.217-1.212,4.308,4.308,0,0,1-1.241-3.229v-.232a5.426,5.426,0,0,1,.523-2.42,3.838,3.838,0,0,1,1.482-1.644,4.159,4.159,0,0,1,2.187-.577,3.727,3.727,0,0,1,2.9,1.162,4.722,4.722,0,0,1,1.058,3.3v.979h-5.719a2.228,2.228,0,0,0,.7,1.411,2.12,2.12,0,0,0,1.482.531,2.589,2.589,0,0,0,2.167-1l1.179,1.32a3.6,3.6,0,0,1-1.461,1.191A4.793,4.793,0,0,1,180.294,18.166Zm-.274-7.379a1.5,1.5,0,0,0-1.158.484,2.5,2.5,0,0,0-.569,1.384h3.337v-.192a1.786,1.786,0,0,0-.432-1.238A1.547,1.547,0,0,0,180.02,10.787Zm4.956,2.64a5.327,5.327,0,0,1,.515-2.382,3.767,3.767,0,0,1,1.482-1.619,4.323,4.323,0,0,1,2.245-.573,4.09,4.09,0,0,1,2.968,1.112,4.464,4.464,0,0,1,1.282,3.021l.017.614a4.694,4.694,0,0,1-1.154,3.316,4.472,4.472,0,0,1-6.2,0,4.777,4.777,0,0,1-1.158-3.387Zm2.4.17a3.357,3.357,0,0,0,.481,1.958,1.73,1.73,0,0,0,2.739.008,3.674,3.674,0,0,0,.49-2.141,3.324,3.324,0,0,0-.49-1.945,1.592,1.592,0,0,0-1.378-.69,1.566,1.566,0,0,0-1.361.686A3.735,3.735,0,0,0,187.375,13.6Zm12.451,1.922a.773.773,0,0,0-.436-.693,4.95,4.95,0,0,0-1.4-.452q-3.2-.672-3.2-2.723a2.468,2.468,0,0,1,.992-2,4,4,0,0,1,2.594-.8,4.307,4.307,0,0,1,2.735.805,2.538,2.538,0,0,1,1.025,2.092h-2.4a1.161,1.161,0,0,0-.332-.851,1.405,1.405,0,0,0-1.038-.336,1.436,1.436,0,0,0-.938.274.865.865,0,0,0-.332.7.739.739,0,0,0,.378.643,3.885,3.885,0,0,0,1.274.423,10.407,10.407,0,0,1,1.511.4,2.482,2.482,0,0,1,1.9,2.416,2.343,2.343,0,0,1-1.054,1.988,4.548,4.548,0,0,1-2.723.76,4.75,4.75,0,0,1-2-.4,3.363,3.363,0,0,1-1.374-1.1,2.565,2.565,0,0,1-.5-1.515h2.274a1.252,1.252,0,0,0,.473.979,1.877,1.877,0,0,0,1.179.34,1.737,1.737,0,0,0,1.042-.261A.814.814,0,0,0,199.826,15.518Zm3.5-2.092a5.327,5.327,0,0,1,.515-2.382,3.767,3.767,0,0,1,1.482-1.619,4.323,4.323,0,0,1,2.245-.573,4.09,4.09,0,0,1,2.968,1.112,4.464,4.464,0,0,1,1.282,3.021l.017.614a4.694,4.694,0,0,1-1.154,3.316,4.472,4.472,0,0,1-6.2,0,4.777,4.777,0,0,1-1.158-3.387Zm2.4.17a3.357,3.357,0,0,0,.481,1.958,1.73,1.73,0,0,0,2.739.008,3.674,3.674,0,0,0,.49-2.141,3.324,3.324,0,0,0-.49-1.945,1.592,1.592,0,0,0-1.378-.69,1.566,1.566,0,0,0-1.361.686A3.735,3.735,0,0,0,205.728,13.6Z" transform="translate(-422 -7117)" fill="#12263f"/>
    <g id="_x33_5_fertilizer" transform="translate(-736.5 -7217.133)">
      <g id="Grupo_1008710" data-name="Grupo 1008710" transform="translate(0 18.133)">
        <g id="Grupo_1008701" data-name="Grupo 1008701" transform="translate(1.036 23.564)">
          <path id="Trazado_715299" data-name="Trazado 715299" d="M11.725,229.427H72.149c4.028,0,5.362-3.551,3.274-6.338-.643-.859-1.341-1.409-1.877-2.058-2.667-3.278-1.068-11.61-1.3-19.025-.119-3.745-.706-7.256-2.552-9.758l-27.757-4.188-27.754,4.188c-4.044,5.49-2.048,15.822-2.314,22.86-.1,2.522-.484,4.62-1.544,5.922-.532.649-1.23,1.2-1.873,2.058-2.088,2.787-.754,6.338,3.274,6.338Z" transform="translate(-7.473 -188.061)" fill="#c68642" fill-rule="evenodd"/>
        </g>
        <g id="Grupo_1008702" data-name="Grupo 1008702" transform="translate(8.173 1.04)">
          <path id="Trazado_715300" data-name="Trazado 715300" d="M59.041,44.39l26.444,2.791,27.329-2.791a6.118,6.118,0,0,0,.155-1.382,6.227,6.227,0,0,0-8.39-5.819,7.18,7.18,0,0,0-10.549-4.719,10.108,10.108,0,0,0-18.447-1.552,6.615,6.615,0,0,0-8.5,4.35c-.087,0-.179-.008-.27-.008a7.859,7.859,0,0,0-7.771,9.128Z" transform="translate(-58.938 -25.635)" fill="#594003" fill-rule="evenodd"/>
        </g>
        <g id="Grupo_1008703" data-name="Grupo 1008703" transform="translate(4.534 19.796)">
          <path id="Trazado_715301" data-name="Trazado 715301" d="M63.658,168.841H92.091a1.878,1.878,0,0,0,1.877-1.868v-4.22a1.878,1.878,0,0,0-1.877-1.868H34.571a1.878,1.878,0,0,0-1.877,1.868v4.22a1.878,1.878,0,0,0,1.877,1.868H63.658Z" transform="translate(-32.694 -160.885)" fill="#f7b36b" fill-rule="evenodd"/>
        </g>
        <g id="Grupo_1008704" data-name="Grupo 1008704" transform="translate(55.945 27.752)">
          <path id="Trazado_715302" data-name="Trazado 715302" d="M403.435,218.262c5.493,7.454-.163,23.85,3.858,28.782.532.649,1.23,1.2,1.873,2.058,2.088,2.787.754,6.338-3.274,6.338h7.31c4.028,0,5.362-3.551,3.274-6.338-.643-.859-1.341-1.409-1.877-2.058-2.667-3.278-1.068-11.61-1.3-19.025-.119-3.745-.706-7.256-2.552-9.758Z" transform="translate(-403.435 -218.262)" fill="#bf7526" fill-rule="evenodd"/>
        </g>
        <g id="Grupo_1008705" data-name="Grupo 1008705" transform="translate(55.945 19.796)">
          <path id="Trazado_715303" data-name="Trazado 715303" d="M405.312,162.754v4.22a1.877,1.877,0,0,1-1.877,1.868h7.985a1.878,1.878,0,0,0,1.877-1.868v-4.22a1.878,1.878,0,0,0-1.877-1.868h-7.985a1.87,1.87,0,0,1,1.877,1.868Z" transform="translate(-403.435 -160.885)" fill="#f29a3d" fill-rule="evenodd"/>
        </g>
        <g id="Grupo_1008706" data-name="Grupo 1008706" transform="translate(19.343 37.429)">
          <path id="Trazado_715304" data-name="Trazado 715304" d="M139.74,288.293c-2.294,15.755,11.863,14.484,10.287,10.26C154.262,300.125,155.536,286.005,139.74,288.293Z" transform="translate(-139.488 -288.042)" fill="#a0e897" fill-rule="evenodd"/>
        </g>
        <g id="Grupo_1008707" data-name="Grupo 1008707" transform="translate(37.386 37.429)">
          <path id="Trazado_715305" data-name="Trazado 715305" d="M282.661,288.293c-15.8-2.288-14.522,11.832-10.287,10.26C270.8,302.777,284.955,304.048,282.661,288.293Z" transform="translate(-269.603 -288.042)" fill="#a0e897" fill-rule="evenodd"/>
        </g>
        <g id="Grupo_1008708" data-name="Grupo 1008708" transform="translate(27.668 1.04)">
          <path id="Trazado_715306" data-name="Trazado 715306" d="M199.519,27.63c9.414-1.417,12,3.392,13.351,7.367,6.322-1.263,10.287,1.279,10.914,4.976,3.227-1.2,7.5.914,6.719,4.418h3.4a6.118,6.118,0,0,0,.155-1.382,6.227,6.227,0,0,0-8.39-5.819,7.18,7.18,0,0,0-10.549-4.719,10.112,10.112,0,0,0-15.6-4.841Z" transform="translate(-199.519 -25.635)" fill="#422f00" fill-rule="evenodd"/>
        </g>
        <g id="Grupo_1008709" data-name="Grupo 1008709" transform="translate(0 0)">
          <path id="Trazado_715307" data-name="Trazado 715307" d="M167.474,101.671a1.04,1.04,0,1,0-.4,1.277A1.048,1.048,0,0,0,167.474,101.671Z" transform="translate(-142.53 -89.546)"/>
          <path id="Trazado_715308" data-name="Trazado 715308" d="M242.594,62a1.039,1.039,0,1,0-.41,1.28A1.048,1.048,0,0,0,242.594,62Z" transform="translate(-207.231 -55.372)"/>
          <path id="Trazado_715309" data-name="Trazado 715309" d="M341.109,111.491a1.04,1.04,0,1,0-.428,1.291A1.048,1.048,0,0,0,341.109,111.491Z" transform="translate(-292.086 -98.003)"/>
          <path id="Trazado_715310" data-name="Trazado 715310" d="M164.278,280.8a17.251,17.251,0,0,0-8.77.647,8.663,8.663,0,0,0-4.538,3.849c-1.3,2.369-1.236,5.36.143,6.956a3.068,3.068,0,0,0,.576.519l-2.982,2.976-2.985-2.977a3.069,3.069,0,0,0,.574-.518c1.379-1.6,1.44-4.587.143-6.956a8.663,8.663,0,0,0-4.538-3.849,17.25,17.25,0,0,0-8.77-.647,1.04,1.04,0,0,0-.88.88,17.145,17.145,0,0,0,.645,8.741,8.662,8.662,0,0,0,3.848,4.53,7.693,7.693,0,0,0,3.647.94,5.106,5.106,0,0,0,3.344-1.082,3.064,3.064,0,0,0,.514-.569l3.418,3.409v5.106a1.04,1.04,0,1,0,2.08,0V297.65l3.415-3.408a3.062,3.062,0,0,0,.513.568,5.1,5.1,0,0,0,3.344,1.082,7.7,7.7,0,0,0,3.647-.94,8.661,8.661,0,0,0,3.848-4.53,17.143,17.143,0,0,0,.645-8.741A1.04,1.04,0,0,0,164.278,280.8Zm-19.556,10.092a.634.634,0,0,1-.609.274l-3.78-3.771a1.04,1.04,0,0,0-1.469,1.473l3.78,3.77a.626.626,0,0,1-.27.6c-.825.715-2.83.876-4.63-.11-1.687-.924-4.325-3.488-3.535-10.367,6.912-.79,9.482,1.85,10.406,3.537C145.591,288.082,145.431,290.073,144.721,290.894Zm14.944,2.233c-1.8.985-3.8.824-4.63.11a.626.626,0,0,1-.27-.6l3.78-3.772a1.04,1.04,0,1,0-1.469-1.472l-3.778,3.77a.634.634,0,0,1-.61-.273c-.709-.821-.87-2.812.108-4.6.924-1.688,3.494-4.327,10.406-3.537C163.991,289.64,161.352,292.2,159.665,293.127Z" transform="translate(-113.684 -244.151)"/>
          <path id="Trazado_715311" data-name="Trazado 715311" d="M69.819,76.1a12.728,12.728,0,0,0-1.229-1.375c-.249-.251-.485-.488-.674-.717-1.6-1.964-1.4-6.551-1.2-11.407.233-5.456.491-11.561-1.731-15.88a2.911,2.911,0,0,0,1.859-2.708V39.8a2.916,2.916,0,0,0-2.917-2.908h-.7c.005-.114.009-.227.009-.341a7.266,7.266,0,0,0-8.719-7.1,8.22,8.22,0,0,0-10.7-4.849,11.151,11.151,0,0,0-19.489-1.36,7.664,7.664,0,0,0-8.749,4.534,8.914,8.914,0,0,0-8.45,8.882c0,.078,0,.156,0,.235H6.411A2.916,2.916,0,0,0,3.494,39.8v4.22a2.913,2.913,0,0,0,2.437,2.866C3.8,51.191,4.05,57.212,4.28,62.6c.207,4.858.4,9.446-1.2,11.408-.194.236-.43.475-.681.728A12.727,12.727,0,0,0,1.181,76.1a5.161,5.161,0,0,0-.714,5.386A5.1,5.1,0,0,0,5.288,84.1H65.712a5.1,5.1,0,0,0,4.821-2.615,5.161,5.161,0,0,0-.714-5.386ZM9.213,36.654a6.831,6.831,0,0,1,6.834-6.814c.075,0,.151,0,.223.007a1.044,1.044,0,0,0,1.044-.743,5.594,5.594,0,0,1,5.337-3.97,5.505,5.505,0,0,1,1.823.306,1.04,1.04,0,0,0,1.258-.486,9.068,9.068,0,0,1,16.548,1.39,1.04,1.04,0,0,0,1.5.571,6.14,6.14,0,0,1,9.02,4.032,1.04,1.04,0,0,0,1.378.757,5.186,5.186,0,0,1,6.989,4.843c0,.115,0,.228-.012.341H9.218c0-.078,0-.157,0-.235ZM5.574,44.017V39.8a.834.834,0,0,1,.837-.828H63.93a.834.834,0,0,1,.837.828v4.22a.834.834,0,0,1-.837.828H6.411a.834.834,0,0,1-.837-.828Zm63.1,36.541a3.107,3.107,0,0,1-2.96,1.466H5.288a3.107,3.107,0,0,1-2.96-1.466,3.07,3.07,0,0,1,.518-3.208A10.9,10.9,0,0,1,3.879,76.2c.274-.276.557-.562.815-.876a9.812,9.812,0,0,0,1.725-5.539h4.371a1.04,1.04,0,1,0,0-2.08H6.5c.013-1.613-.06-3.361-.138-5.194-.236-5.545-.5-11.8,1.932-15.586H62.71a16.113,16.113,0,0,1,2,7.677H59.878a1.04,1.04,0,0,0,0,2.08h4.907c.022,1.942-.063,3.929-.144,5.832-.234,5.49-.437,10.232,1.666,12.814.255.309.536.591.807.864a10.87,10.87,0,0,1,1.04,1.155,3.07,3.07,0,0,1,.518,3.208Z" transform="translate(0 -18.133)"/>
        </g>
      </g>
    </g>
    <g id="humedad" transform="translate(-534.571 -7195)">
      <path id="Trazado_715312" data-name="Trazado 715312" d="M46.406,47.467a19.451,19.451,0,0,1-38.9,0C7.5,36.725,26.954,12.1,26.954,12.1S46.406,36.725,46.406,47.467Zm0,0" transform="translate(-6.668 -10.754)" fill="#96d1f3"/>
      <path id="Trazado_715313" data-name="Trazado 715313" d="M290.8,12.106A115.06,115.06,0,0,0,280.535,27.67c4.424,7.046,8.507,14.88,8.507,19.8,0,.207,0,.414-.011.619A12.817,12.817,0,0,0,303.61,35.4c0-7.076-12.812-23.295-12.812-23.295Zm0,0" transform="translate(-249.304 -10.758)" fill="#96d1f3"/>
      <path id="Trazado_715314" data-name="Trazado 715314" d="M10.845,47.468c0-8.8,13.066-26.934,17.78-33.188-1.037-1.376-1.67-2.178-1.67-2.178S7.5,36.725,7.5,47.468A19.451,19.451,0,0,0,26.955,66.919c.563,0,1.12-.025,1.67-.072a19.451,19.451,0,0,1-17.78-19.379Zm0,0" transform="translate(-6.668 -10.754)" fill="#3ca6e6"/>
      <path id="Trazado_715315" data-name="Trazado 715315" d="M292.375,48.087c.007-.206.011-.411.011-.619,0-4.921-4.083-12.755-8.507-19.8A104.892,104.892,0,0,1,292.472,14.3c-1.014-1.366-1.671-2.2-1.671-2.2a115.051,115.051,0,0,0-10.262,15.565c4.424,7.046,8.506,14.88,8.506,19.8,0,.207,0,.413-.011.619a12.865,12.865,0,0,0,3.445.013l-.1-.013Zm0,0" transform="translate(-249.307 -10.755)" fill="#3ca6e6"/>
      <path id="Trazado_715316" data-name="Trazado 715316" d="M170.642,449.811h-1.67v-1.67h1.67Zm-2.784,0h-1.67v-1.67h1.67Zm0,0" transform="translate(-147.686 -398.25)" fill="#fff"/>
      <path id="Trazado_715317" data-name="Trazado 715317" d="M20.287,0C14.37,7.49,0,27.185,0,36.713a20.287,20.287,0,0,0,40.573,0C40.573,27.185,26.2,7.489,20.287,0Zm0,55.33A18.637,18.637,0,0,1,1.67,36.713c0-9.233,15.24-29.6,18.616-34,3.376,4.4,18.616,24.767,18.616,34A18.637,18.637,0,0,1,20.287,55.33Zm0,0"/>
      <path id="Trazado_715318" data-name="Trazado 715318" d="M249.049,167.685c0-2.72-1.613-8.451-9.3-20.306l-1.4.908c8.147,12.571,9.026,17.753,9.026,19.4Zm0,0" transform="translate(-211.817 -130.972)"/>
      <path id="Trazado_715319" data-name="Trazado 715319" d="M406.4,118.408c0-1.1-.583-4.571-5.976-12.9l-1.4.908c5.432,8.385,5.707,11.457,5.707,11.987Zm0,0" transform="translate(-354.601 -93.766)"/>
      <path id="Trazado_715320" data-name="Trazado 715320" d="M299.145.83,298.49,0a124.005,124.005,0,0,0-9.3,13.432l1.441.845A124.366,124.366,0,0,1,298.49,2.715c3.388,4.441,11.977,16.405,11.977,21.928A11.932,11.932,0,0,1,299.7,36.558l.167,1.663a13.649,13.649,0,0,0,12.268-13.579c0-7.282-12.461-23.141-12.992-23.813Zm0,0" transform="translate(-256.996 0)"/>
    </g>
    <g id="planta" transform="translate(-363.71 -7201.998)">
      <path id="Trazado_715321" data-name="Trazado 715321" d="M51.21,459.729c0-.047,8.637-7.379,29.005-7.379,19.784,0,29.005,7.332,29.005,7.379Z" transform="translate(-6.439 -388.349)" fill="#f6cc90"/>
      <path id="Trazado_715322" data-name="Trazado 715322" d="M234.028,452.351q-1.9,0-3.656.081c17.332.8,25.445,7.253,25.445,7.3h7.216C263.033,459.683,253.812,452.351,234.028,452.351Z" transform="translate(-160.251 -388.35)" fill="#f0c17f"/>
      <path id="Trazado_715323" data-name="Trazado 715323" d="M280.612,19.391a12.274,12.274,0,0,1-8.719,8.024A12.72,12.72,0,0,1,269.977,15.7a12.406,12.406,0,0,1,8.781-8.2A12.655,12.655,0,0,1,280.612,19.391Z" transform="translate(-193.664 -6.441)" fill="#c5e866"/>
      <path id="Trazado_715324" data-name="Trazado 715324" d="M288.416,7.5a11.342,11.342,0,0,0-3.643,1.568,12.669,12.669,0,0,1,.828,10.322,12.2,12.2,0,0,1-5.06,6.464,10.33,10.33,0,0,0,1.01,1.56,12.274,12.274,0,0,0,8.719-8.024A12.654,12.654,0,0,0,288.416,7.5Z" transform="translate(-203.322 -6.441)" fill="#b2d94b"/>
      <path id="Trazado_715325" data-name="Trazado 715325" d="M261.366,174.735a18.083,18.083,0,0,1-6.731-.241,19.729,19.729,0,0,1,5.245-17.643,19.185,19.185,0,0,1,17.793-5.468,19.592,19.592,0,0,1-3.5,15.6" transform="translate(-180.759 -129.602)" fill="#9cc042"/>
      <path id="Trazado_715326" data-name="Trazado 715326" d="M289.913,151.384a17.608,17.608,0,0,0-6.22-.281,12.038,12.038,0,0,1,1.551.281,19.592,19.592,0,0,1-3.5,15.6l-12.809,7.755c-.142.02-.282.038-.421.055a19.535,19.535,0,0,0,5.09-.055l12.809-7.755A19.592,19.592,0,0,0,289.913,151.384Z" transform="translate(-192.998 -129.604)" fill="#85aa18"/>
      <path id="Trazado_715327" data-name="Trazado 715327" d="M104.286,261.942a14.939,14.939,0,0,1,5.707,13.2A15.29,15.29,0,0,1,95.86,272.7a15.1,15.1,0,0,1-5.886-13.338A15.212,15.212,0,0,1,104.286,261.942Z" transform="translate(-39.655 -222.004)" fill="#c5e866"/>
      <path id="Trazado_715328" data-name="Trazado 715328" d="M109.769,91.174a18.992,18.992,0,0,0,16.845,7.31,19.736,19.736,0,0,0-3.131-18.141A19.2,19.2,0,0,0,106.458,72.8,19.635,19.635,0,0,0,109.769,91.174Z" transform="translate(-53.03 -62.422)" fill="#9cc042"/>
      <path id="Trazado_715329" data-name="Trazado 715329" d="M310.935,276.833a12.232,12.232,0,0,1-11.763,1.278,12.707,12.707,0,0,1,5.378-10.573,12.363,12.363,0,0,1,11.918-1.385A12.642,12.642,0,0,1,310.935,276.833Z" transform="translate(-219.311 -227.699)" fill="#c5e866"/>
      <path id="Trazado_715330" data-name="Trazado 715330" d="M331.069,266.157a12.12,12.12,0,0,0-7.014-.71,10.192,10.192,0,0,1,2.345.71,12.642,12.642,0,0,1-5.532,10.68,12.36,12.36,0,0,1-4.694,2.006,12.179,12.179,0,0,0,9.363-2.006A12.641,12.641,0,0,0,331.069,266.157Z" transform="translate(-233.913 -227.702)" fill="#b2d94b"/>
      <path id="Trazado_715331" data-name="Trazado 715331" d="M102.958,70.182a31.612,31.612,0,0,0-6.879-3.5,61.65,61.65,0,0,0-21.407-3.737,21.564,21.564,0,0,1,5.037-11.44,13.244,13.244,0,0,0,12.518-1.5,13.619,13.619,0,0,0,5.987-11.632,1.061,1.061,0,0,0-.594-.874,11.057,11.057,0,0,0-2.465-.776,20.314,20.314,0,0,0,2.585-6.009,1.062,1.062,0,0,0-2.059-.515,18.238,18.238,0,0,1-2.907,6.256,13.542,13.542,0,0,0-8.139,2.51A13.189,13.189,0,0,0,80.2,44.116a18.513,18.513,0,0,1-4.547.017c2.156-2.908,7.776-9.957,14.1-13.638a1.062,1.062,0,0,0-1.067-1.834C82.529,32.242,77.17,38.619,74.587,42a18.614,18.614,0,0,1,16.5-19.482,17.794,17.794,0,0,1,4.928.149,17.324,17.324,0,0,1,.23,2.571,1.062,1.062,0,0,0,2.122-.037,17.032,17.032,0,0,0-.424-3.694,1.061,1.061,0,0,0-.743-.753,18.4,18.4,0,0,0-6.24-.356A20.541,20.541,0,0,0,78.37,26.5c-.369.37-.714.745-1.039,1.122.6-1.835,1.247-3.82,1.912-5.816a13.3,13.3,0,0,0,8.708-8.51A13.632,13.632,0,0,0,85.9.369a1.061,1.061,0,0,0-1-.353,13.385,13.385,0,0,0-9.591,8.9,13.69,13.69,0,0,0,1.853,12.412c-.619,1.859-1.223,3.7-1.781,5.419a20.009,20.009,0,0,0-4.094-9.481A20.557,20.557,0,0,0,59.506,9.719a18.391,18.391,0,0,0-6.239-.386,1.061,1.061,0,0,0-.827.661,18.084,18.084,0,0,0-.973,4.669,1.062,1.062,0,0,0,2.115.183,17.953,17.953,0,0,1,.636-3.471,17.8,17.8,0,0,1,4.911.436,18.262,18.262,0,0,1,10.489,6.766,17.852,17.852,0,0,1,3.871,11.541,19.933,19.933,0,0,1-.373,3.571A67.593,67.593,0,0,0,62.714,19.6a1.062,1.062,0,0,0-1.5,1.5A66.472,66.472,0,0,1,71.459,35.093a18.532,18.532,0,0,1-3.559-.432A17.717,17.717,0,0,1,57.574,28.1a18.71,18.71,0,0,1-3.7-7.894,1.062,1.062,0,0,0-2.08.42A20.81,20.81,0,0,0,55.9,29.407a20.183,20.183,0,0,0,16.535,7.806V55.082c-.32-.69-.666-1.344-1.03-1.963A15.917,15.917,0,0,0,65.287,39.1a16.161,16.161,0,0,0-15.36-2.733,1.061,1.061,0,0,0-.658.828,16.048,16.048,0,0,0,6.278,14.33,15.768,15.768,0,0,0,9.921,3.443,16.944,16.944,0,0,0,4.272-.544,20.428,20.428,0,0,1,2.613,8.524,67.843,67.843,0,0,0-15.247,1.881,1.062,1.062,0,0,0,.515,2.059,65.763,65.763,0,0,1,14.818-1.819v2.439a1.062,1.062,0,0,0,2.122,0V65.068c12.516.124,20.514,3.189,24.492,5.25H48.384a34.887,34.887,0,0,1,3.98-1.789,1.062,1.062,0,0,0-.754-1.984,34.439,34.439,0,0,0-5.639,2.7c-2.261,1.378-2.261,1.71-2.261,2.13a1.061,1.061,0,0,0,1.061,1.061h58.011c1.613,0,.978-1.694.177-2.259ZM85.842,40.713A11.332,11.332,0,0,1,96.1,39.174a11.556,11.556,0,0,1-5.08,9.088,11.133,11.133,0,0,1-9.7,1.567,26.051,26.051,0,0,1,7.622-4.862,1.062,1.062,0,0,0-.836-1.951,28.826,28.826,0,0,0-6.748,4A11.21,11.21,0,0,1,85.842,40.713Zm-8,5.676c.475,0,.982-.017,1.513-.056a14.392,14.392,0,0,0-.533,3.028,23.535,23.535,0,0,0-4.256,6.284V46.12A19.462,19.462,0,0,0,77.837,46.389ZM77.316,9.607A11.38,11.38,0,0,1,84.67,2.265,11.577,11.577,0,0,1,85.945,12.6a11.159,11.159,0,0,1-5.825,6.59c1.378-4.073,2.74-7.931,3.727-10.353a1.062,1.062,0,0,0-1.965-.8c-1.031,2.527-2.435,6.508-3.844,10.676a11.4,11.4,0,0,1-.722-9.109ZM56.861,49.863a14.1,14.1,0,0,1-5.193-8.069,13.945,13.945,0,0,1-.351-3.644,14.255,14.255,0,0,1,12.655,2.622,13.675,13.675,0,0,1,5.036,7.941c.1.465.177.907.229,1.319a24.84,24.84,0,0,0-2.118-2.252,25.656,25.656,0,0,0-7.448-4.933,1.062,1.062,0,0,0-.77,1.978,23.785,23.785,0,0,1,6.766,4.5,22.822,22.822,0,0,1,2.842,3.2,14.113,14.113,0,0,1-11.648-2.669Z" transform="translate(0 0)" fill="#060606"/>
    </g>
    <g id="termometro" transform="translate(-113.389 -7202)">
      <path id="Trazado_715332" data-name="Trazado 715332" d="M31.008,45.641V15.56a8.06,8.06,0,0,0-16.12,0V45.641a15.448,15.448,0,1,0,16.12,0Z" transform="translate(-6.493 -6.492)" fill="#b9f0ff"/>
      <path id="Trazado_715333" data-name="Trazado 715333" d="M100.56,41.53a4.03,4.03,0,1,0-8.06,0V63.551h8.06Z" transform="translate(-80.074 -32.462)" fill="#7ce3ff"/>
      <path id="Trazado_715334" data-name="Trazado 715334" d="M92.5,231.431h8.06v14.344H92.5Z" transform="translate(-80.074 -200.342)" fill="#64b3fb"/>
      <path id="Trazado_715335" data-name="Trazado 715335" d="M48.918,327.337a11.418,11.418,0,1,1,11.418-11.418A11.431,11.431,0,0,1,48.918,327.337Z" transform="translate(-32.463 -263.596)" fill="#88c5fd"/>
      <path id="Trazado_715336" data-name="Trazado 715336" d="M43.7,315.91q0-.242.01-.481s0-.007,0-.01a11.348,11.348,0,0,1,2.035-6.021,10.409,10.409,0,0,1,7.2-4.171c-.305-.115-.615-.22-.931-.309a11.394,11.394,0,0,0-10.726,2.506h0v0A11.416,11.416,0,0,0,52.016,326.9,11.439,11.439,0,0,1,43.7,315.91Z" transform="translate(-32.463 -263.587)" fill="#64b3fb"/>
      <path id="Trazado_715337" data-name="Trazado 715337" d="M298.008,45.641V15.56a8.06,8.06,0,1,0-16.12,0V45.641a15.448,15.448,0,1,0,16.12,0Z" transform="translate(-237.626 -6.492)" fill="#b9f0ff"/>
      <path id="Trazado_715338" data-name="Trazado 715338" d="M367.56,41.53a4.03,4.03,0,1,0-8.06,0v5.9h8.06Z" transform="translate(-311.207 -32.462)" fill="#7ce3ff"/>
      <path id="Trazado_715339" data-name="Trazado 715339" d="M359.5,111.431h8.06V141.9H359.5Z" transform="translate(-311.207 -96.462)" fill="#ea5b70"/>
      <path id="Trazado_715340" data-name="Trazado 715340" d="M315.918,327.337a11.418,11.418,0,1,1,11.418-11.418A11.431,11.431,0,0,1,315.918,327.337Z" transform="translate(-263.596 -263.596)" fill="#ff8e9e"/>
      <path id="Trazado_715341" data-name="Trazado 715341" d="M310.7,315.91q0-.242.01-.481s0-.007,0-.01a11.348,11.348,0,0,1,2.035-6.021,10.409,10.409,0,0,1,7.2-4.171c-.305-.115-.615-.22-.931-.309a11.394,11.394,0,0,0-10.726,2.506h0v0A11.416,11.416,0,0,0,319.017,326.9,11.438,11.438,0,0,1,310.7,315.91Z" transform="translate(-263.596 -263.587)" fill="#ea5b70"/>
      <path id="Trazado_715342" data-name="Trazado 715342" d="M210.333,206a1.009,1.009,0,0,0,1.426-1.426,4.033,4.033,0,1,0,0,5.706,1.009,1.009,0,0,0-1.426-1.426,2.017,2.017,0,1,1,0-2.853Z" transform="translate(-177.352 -176.07)"/>
      <circle id="Elipse_5689" data-name="Elipse 5689" cx="1.007" cy="1.007" r="1.007" transform="translate(34.143 25.514)"/>
      <path id="Trazado_715343" data-name="Trazado 715343" d="M255.173,91.965a1.009,1.009,0,0,0,1.009-1.009V88.939h1.277a1.009,1.009,0,1,0,0-2.017h-1.277V85.913h2.084a1.009,1.009,0,0,0,0-2.017h-3.093a1.009,1.009,0,0,0-1.009,1.009v6.052A1.008,1.008,0,0,0,255.173,91.965Z" transform="translate(-220.022 -72.626)"/>
      <circle id="Elipse_5690" data-name="Elipse 5690" cx="1.007" cy="1.007" r="1.007" transform="translate(39.516 9.26)"/>
      <path id="Trazado_715344" data-name="Trazado 715344" d="M25.523,38.6V9.068a9.067,9.067,0,1,0-18.135,0V38.6A16.451,16.451,0,0,0,25.316,66.184a1.008,1.008,0,0,0-1.088-1.7A14.437,14.437,0,1,1,8.923,40.007a1.007,1.007,0,0,0,.48-.859V9.067a7.052,7.052,0,1,1,14.1,0V39.149a1.008,1.008,0,0,0,.48.859A14.424,14.424,0,0,1,27.1,62.068a1.008,1.008,0,0,0,1.486,1.361,16.43,16.43,0,0,0,2.156-19.262,16.606,16.606,0,0,0-5.221-5.57Z"/>
      <path id="Trazado_715345" data-name="Trazado 715345" d="M37.388,66.937a12.426,12.426,0,1,0,10.075,0V57.059c0-.01,0-.02,0-.031a1.008,1.008,0,0,0-1.008-.977H39.4V54.037h1.679a1.007,1.007,0,1,0,0-2.015H39.4V50.007h1.679a1.007,1.007,0,0,0,0-2.015H39.4V45.977h1.679a1.007,1.007,0,1,0,0-2.015H39.4V41.947h1.679a1.007,1.007,0,0,0,0-2.015H39.4V37.917h1.679a1.007,1.007,0,1,0,0-2.015H39.4v-.864a3.022,3.022,0,0,1,6.045,0V53.029a1.007,1.007,0,1,0,2.015,0V35.037a5.037,5.037,0,1,0-10.075,0v31.9ZM46.1,68.553a10.411,10.411,0,1,1-7.347,0,1.008,1.008,0,0,0,.651-.942V62.1h1.679a1.007,1.007,0,1,0,0-2.015H39.4V58.066h6.045v9.545A1.007,1.007,0,0,0,46.1,68.553Z" transform="translate(-25.97 -25.97)"/>
      <path id="Trazado_715346" data-name="Trazado 715346" d="M72.007,368A1.008,1.008,0,0,0,71,369.008v1.343a1.007,1.007,0,1,0,2.015,0v-1.343A1.008,1.008,0,0,0,72.007,368Z" transform="translate(-61.462 -318.565)"/>
      <path id="Trazado_715347" data-name="Trazado 715347" d="M160.007,371.358a1.008,1.008,0,0,0,1.007-1.008v-1.343a1.007,1.007,0,1,0-2.015,0v1.343A1.008,1.008,0,0,0,160.007,371.358Z" transform="translate(-137.641 -318.565)"/>
      <path id="Trazado_715348" data-name="Trazado 715348" d="M105.239,386.1a1.007,1.007,0,0,0-1.343.474,1.384,1.384,0,0,1-2.481,0,1.007,1.007,0,1,0-1.818.869,3.4,3.4,0,0,0,6.116,0A1.007,1.007,0,0,0,105.239,386.1Z" transform="translate(-86.133 -334.145)"/>
      <path id="Trazado_715349" data-name="Trazado 715349" d="M292.523,38.6V9.068a9.067,9.067,0,1,0-18.135,0V38.6a16.625,16.625,0,0,0-2.193,1.737,1.008,1.008,0,1,0,1.38,1.469,14.592,14.592,0,0,1,2.348-1.795,1.007,1.007,0,0,0,.48-.859V9.068a7.052,7.052,0,1,1,14.1,0V39.149a1.008,1.008,0,0,0,.48.859,14.443,14.443,0,1,1-19.8,4.7,1.007,1.007,0,0,0-1.71-1.066A16.455,16.455,0,1,0,292.523,38.6Z" transform="translate(-231.133)"/>
      <path id="Trazado_715350" data-name="Trazado 715350" d="M304.388,66.937a12.426,12.426,0,1,0,10.075,0v-26c0-.01,0-.02,0-.031a1.008,1.008,0,0,0-1.006-.977H306.4V37.917h1.679a1.007,1.007,0,1,0,0-2.015H306.4v-.864a3.023,3.023,0,0,1,6.045,0v1.871a1.007,1.007,0,1,0,2.015,0V35.037a5.037,5.037,0,1,0-10.075,0Zm8.06-24.991V67.611a1.008,1.008,0,0,0,.651.942,10.411,10.411,0,1,1-7.347,0,1.007,1.007,0,0,0,.651-.942V62.1h1.679a1.007,1.007,0,1,0,0-2.015H306.4V58.066h1.679a1.007,1.007,0,1,0,0-2.015H306.4V54.036h1.679a1.007,1.007,0,1,0,0-2.015H306.4V50.006h1.679a1.007,1.007,0,1,0,0-2.015H306.4V45.976h1.679a1.007,1.007,0,1,0,0-2.015H306.4V41.946Z" transform="translate(-257.103 -25.97)"/>
      <path id="Trazado_715351" data-name="Trazado 715351" d="M339.008,368A1.008,1.008,0,0,0,338,369.008v1.343a1.008,1.008,0,0,0,2.015,0v-1.343A1.008,1.008,0,0,0,339.008,368Z" transform="translate(-292.595 -318.565)"/>
      <path id="Trazado_715352" data-name="Trazado 715352" d="M427.008,371.358a1.008,1.008,0,0,0,1.008-1.008v-1.343a1.008,1.008,0,0,0-2.015,0v1.343A1.008,1.008,0,0,0,427.008,371.358Z" transform="translate(-368.774 -318.565)"/>
      <path id="Trazado_715353" data-name="Trazado 715353" d="M368.415,386.571a1.007,1.007,0,1,0-1.818.869,3.4,3.4,0,0,0,6.116,0,1.007,1.007,0,1,0-1.818-.869,1.384,1.384,0,0,1-2.481,0Z" transform="translate(-317.266 -334.145)"/>
    </g>
    <g id="dom" transform="translate(81.557 -7199.443)">
      <g id="Grupo_1008713" data-name="Grupo 1008713" transform="translate(2.111 2.111)">
        <g id="Grupo_1008711" data-name="Grupo 1008711" transform="translate(0 0)">
          <path id="Trazado_715354" data-name="Trazado 715354" d="M67.6,33.921a1.467,1.467,0,0,1,0,2.822l-6.311,1.811A2.083,2.083,0,0,0,60.1,41.676l1.767,2.767a2.1,2.1,0,0,1,.167,1.922l-.022.044a2.056,2.056,0,0,1-1.467,1.233l-3.211.711a2.1,2.1,0,0,0-1.378,3.055l3.189,5.733a1.523,1.523,0,0,1,.189.722A1.447,1.447,0,0,1,58.9,58.9a1.464,1.464,0,0,1-1.755.244l-5.733-3.189a2.1,2.1,0,0,0-3.055,1.378l-.711,3.211a2.056,2.056,0,0,1-1.233,1.467l-.044.022a2.1,2.1,0,0,1-1.922-.167L41.676,60.1a2.083,2.083,0,0,0-3.122,1.189L36.743,67.6a1.467,1.467,0,0,1-2.822,0L32.11,61.286A2.083,2.083,0,0,0,28.988,60.1l-2.767,1.767a2.1,2.1,0,0,1-1.922.167l-.044-.022a2.056,2.056,0,0,1-1.233-1.467l-.711-3.211a2.1,2.1,0,0,0-3.055-1.378l-5.733,3.189a1.523,1.523,0,0,1-.722.189,1.447,1.447,0,0,1-1.033-.433,1.464,1.464,0,0,1-.244-1.755l3.189-5.733a2.1,2.1,0,0,0-1.378-3.055l-3.211-.711a2.056,2.056,0,0,1-1.467-1.233l-.022-.044A2.1,2.1,0,0,1,8.8,44.443l1.767-2.767a2.083,2.083,0,0,0-1.189-3.122L3.067,36.743a1.467,1.467,0,0,1,0-2.822L9.377,32.11a2.083,2.083,0,0,0,1.189-3.122L8.8,26.221A2.1,2.1,0,0,1,8.633,24.3l.022-.044a2.056,2.056,0,0,1,1.467-1.233l3.211-.711a2.1,2.1,0,0,0,1.378-3.055l-3.189-5.733a1.523,1.523,0,0,1-.189-.722,1.447,1.447,0,0,1,.433-1.033,1.464,1.464,0,0,1,1.755-.244l5.733,3.189a2.1,2.1,0,0,0,3.055-1.378l.711-3.211a2.056,2.056,0,0,1,1.233-1.467l.044-.022a2.1,2.1,0,0,1,1.922.167l2.767,1.767A2.083,2.083,0,0,0,32.11,9.377l1.811-6.311a1.467,1.467,0,0,1,2.822,0l1.811,6.311a2.083,2.083,0,0,0,3.122,1.189L44.443,8.8a2.1,2.1,0,0,1,1.922-.167l.044.022a2.056,2.056,0,0,1,1.233,1.467l.711,3.211a2.1,2.1,0,0,0,3.055,1.378l5.733-3.189a1.523,1.523,0,0,1,.722-.189,1.447,1.447,0,0,1,1.033.433,1.464,1.464,0,0,1,.244,1.755L56,19.188a2.086,2.086,0,0,0,1.433,3.055l3.2.6a2.105,2.105,0,0,1,1.644,1.633A2.063,2.063,0,0,1,62,26.01l-1.9,2.978a2.083,2.083,0,0,0,1.189,3.122Z" transform="translate(-2 -2)" fill="#ffc729"/>
        </g>
        <g id="Grupo_1008712" data-name="Grupo 1008712" transform="translate(13.333 13.333)">
          <circle id="Elipse_5691" data-name="Elipse 5691" cx="20" cy="20" r="20" transform="translate(-0.001 -0.001)" fill="#fcd770"/>
        </g>
      </g>
      <g id="Grupo_1008714" data-name="Grupo 1008714" transform="translate(1 1)">
        <path id="Trazado_715355" data-name="Trazado 715355" d="M34.11,13A21.11,21.11,0,1,0,55.22,34.11,21.134,21.134,0,0,0,34.11,13Zm0,40A18.888,18.888,0,1,1,53,34.11,18.909,18.909,0,0,1,34.11,53Z" transform="translate(0.333 0.333)"/>
        <path id="Trazado_715356" data-name="Trazado 715356" d="M17.621,28.905l2.13.633A14.53,14.53,0,0,1,33.6,19.222V17A16.767,16.767,0,0,0,17.621,28.905Z" transform="translate(0.846 0.777)"/>
        <path id="Trazado_715357" data-name="Trazado 715357" d="M17,32.238h2.222a14.693,14.693,0,0,1,.146-2.064l-2.2-.314A16.815,16.815,0,0,0,17,32.238Z" transform="translate(0.777 2.205)"/>
        <path id="Trazado_715358" data-name="Trazado 715358" d="M68.011,32.959l-6.314-1.8a.971.971,0,0,1-.553-1.455l1.9-2.977a3.195,3.195,0,0,0-2.1-4.853L57.75,21.26a.972.972,0,0,1-.667-1.427l3.147-5.663a2.584,2.584,0,0,0-3.513-3.513l-5.741,3.189a.972.972,0,0,1-1.421-.639L48.843,10a3.244,3.244,0,0,0-4.884-2.022L41.188,9.741a.971.971,0,0,1-1.457-.552l-1.8-6.314a2.583,2.583,0,0,0-4.969,0l-1.8,6.313a.972.972,0,0,1-1.457.553L26.927,7.975A3.245,3.245,0,0,0,22.042,10l-.711,3.209a.972.972,0,0,1-1.421.639l-5.741-3.189a2.584,2.584,0,0,0-3.513,3.513l3.189,5.742a.971.971,0,0,1-.639,1.419L10,22.041a3.246,3.246,0,0,0-2.022,4.884L9.741,29.7a.97.97,0,0,1-.553,1.454l-6.313,1.8a2.584,2.584,0,0,0,0,4.97l6.314,1.8a.971.971,0,0,1,.553,1.455L7.976,43.958A3.245,3.245,0,0,0,10,48.842l3.209.711a.971.971,0,0,1,.639,1.42l-3.189,5.741a2.584,2.584,0,0,0,3.513,3.515l5.741-3.189a.972.972,0,0,1,1.421.639l.711,3.21a3.244,3.244,0,0,0,4.884,2.022L29.7,61.146a.971.971,0,0,1,1.457.552l1.8,6.314a2.583,2.583,0,0,0,4.968,0l1.8-6.314a.972.972,0,0,1,1.457-.553l2.771,1.767a3.245,3.245,0,0,0,4.884-2.022l.711-3.209a.972.972,0,0,1,1.421-.639l5.741,3.189a2.584,2.584,0,0,0,3.513-3.513l-3.189-5.742a.971.971,0,0,1,.639-1.419l3.209-.711a3.246,3.246,0,0,0,2.022-4.884l-1.765-2.773a.97.97,0,0,1,.553-1.454l6.313-1.8a2.584,2.584,0,0,0,0-4.969Zm-.61,2.832-6.314,1.8a3.194,3.194,0,0,0-1.815,4.788l1.767,2.773a1,1,0,0,1,.058.943.975.975,0,0,1-.688.577l-3.209.711a3.194,3.194,0,0,0-2.1,4.669L58.287,57.8a.362.362,0,0,1-.492.493L52.054,55.1a3.193,3.193,0,0,0-4.67,2.1l-.71,3.208a1,1,0,0,1-.626.708.976.976,0,0,1-.9-.077l-2.772-1.768a3.195,3.195,0,0,0-4.788,1.817L35.79,67.4a.378.378,0,0,1-.7,0l-1.8-6.314a3.163,3.163,0,0,0-1.939-2.109,3.163,3.163,0,0,0-2.85.293l-2.771,1.767a1,1,0,0,1-.943.058.974.974,0,0,1-.578-.687L23.5,57.2a3.193,3.193,0,0,0-4.67-2.1l-5.74,3.189a.363.363,0,0,1-.493-.493l3.189-5.74a3.194,3.194,0,0,0-2.1-4.67l-3.208-.711a1,1,0,0,1-.709-.626.973.973,0,0,1,.079-.9l1.765-2.771A3.194,3.194,0,0,0,9.794,37.6l-6.315-1.8a.37.37,0,0,1-.257-.35.363.363,0,0,1,.262-.348l6.314-1.8A3.194,3.194,0,0,0,11.614,28.5L9.847,25.73a1,1,0,0,1-.058-.943.975.975,0,0,1,.688-.577l3.209-.711a3.194,3.194,0,0,0,2.1-4.669L12.6,13.089a.362.362,0,0,1,.492-.493l5.741,3.189a3.193,3.193,0,0,0,4.67-2.1l.71-3.208a1,1,0,0,1,.626-.708.982.982,0,0,1,.9.077L28.5,11.612A3.195,3.195,0,0,0,33.292,9.8l1.8-6.314a.378.378,0,0,1,.7,0L37.6,9.8a3.194,3.194,0,0,0,4.788,1.815l2.771-1.767a1.009,1.009,0,0,1,.943-.058.974.974,0,0,1,.578.687l.711,3.209a3.193,3.193,0,0,0,4.67,2.1L57.8,12.6a.363.363,0,0,1,.493.493l-3.147,5.663a3.192,3.192,0,0,0,2.193,4.688l3.194.609a.973.973,0,0,1,.639,1.478l-1.9,2.974a3.194,3.194,0,0,0,1.815,4.788l6.314,1.8h0a.371.371,0,0,1,.259.351A.363.363,0,0,1,67.4,35.791Z" transform="translate(-1 -1)"/>
      </g>
    </g>
    <g transform="matrix(1, 0, 0, 1, -814, -7248.97)" filter="url(#Icon_akar-arrow-right-thick)">
      <path id="Icon_akar-arrow-right-thick-5" data-name="Icon akar-arrow-right-thick" d="M46.179,25.34,29.971,4.5V16.054L4.5,16.078V34.6H29.971V46.179Z" transform="translate(189.13 69.76)" fill="#adce32" stroke="#0b481e" stroke-linecap="round" stroke-linejoin="round" stroke-width="1"/>
    </g>
    <g transform="matrix(1, 0, 0, 1, -814, -7248.97)" filter="url(#Icon_akar-arrow-right-thick-2)">
      <path id="Icon_akar-arrow-right-thick-6" data-name="Icon akar-arrow-right-thick" d="M46.179,25.34,29.971,4.5V16.054L4.5,16.078V34.6H29.971V46.179Z" transform="translate(616.27 69.76)" fill="#adce32" stroke="#0b481e" stroke-linecap="round" stroke-linejoin="round" stroke-width="1"/>
    </g>
    <g transform="matrix(1, 0, 0, 1, -814, -7248.97)" filter="url(#Icon_akar-arrow-right-thick-3)">
      <path id="Icon_akar-arrow-right-thick-7" data-name="Icon akar-arrow-right-thick" d="M46.179,25.34,29.971,4.5V16.054L4.5,16.078V34.6H29.971V46.179Z" transform="translate(381.13 69.76)" fill="#adce32" stroke="#0b481e" stroke-linecap="round" stroke-linejoin="round" stroke-width="1"/>
    </g>
    <g transform="matrix(1, 0, 0, 1, -814, -7248.97)" filter="url(#Icon_akar-arrow-right-thick-4)">
      <path id="Icon_akar-arrow-right-thick-8" data-name="Icon akar-arrow-right-thick" d="M46.179,25.34,29.971,4.5V16.054L4.5,16.078V34.6H29.971V46.179Z" transform="translate(808.27 69.76)" fill="#adce32" stroke="#0b481e" stroke-linecap="round" stroke-linejoin="round" stroke-width="1"/>
    </g>
  </g>
</svg>
