<svg xmlns="http://www.w3.org/2000/svg" xmlns:xlink="http://www.w3.org/1999/xlink" width="148" height="149" viewBox="0 0 148 149">
  <defs>
    <radialGradient id="radial-gradient" cx="0.5" cy="0.5" r="0.5" gradientUnits="objectBoundingBox">
      <stop offset="0" stop-color="#fff"/>
      <stop offset="1" stop-color="#e9e9e9"/>
    </radialGradient>
    <filter id="_51" x="0" y="0" width="148" height="149" filterUnits="userSpaceOnUse">
      <feOffset dx="3" dy="3" input="SourceAlpha"/>
      <feGaussianBlur stdDeviation="3" result="blur"/>
      <feFlood flood-opacity="0.161"/>
      <feComposite operator="in" in2="blur"/>
      <feComposite in="SourceGraphic"/>
    </filter>
  </defs>
  <g id="Grupo_1008511" data-name="Grupo 1008511" transform="translate(-883.534 -1115.893)">
    <g transform="matrix(1, 0, 0, 1, 883.53, 1115.89)" filter="url(#_51)">
      <g id="_51-2" data-name="51" transform="translate(6 6)" stroke="#fff" stroke-width="3" fill="url(#radial-gradient)">
        <ellipse cx="65" cy="65.5" rx="65" ry="65.5" stroke="none"/>
        <ellipse cx="65" cy="65.5" rx="63.5" ry="64" fill="none"/>
      </g>
    </g>
    <g id="_025-weather" data-name="025-weather" transform="translate(920.534 1152.893)">
      <g id="Grupo_1008507" data-name="Grupo 1008507" transform="translate(1.012 1.012)">
        <g id="Grupo_1008506" data-name="Grupo 1008506" transform="translate(5.16 36.386)">
          <path id="Trazado_713178" data-name="Trazado 713178" d="M45.989,343.632a6.739,6.739,0,0,0,3.112,3.506c2.02,1.169,4.223,1.34,5.583.577-.015-1.558-1.268-3.383-3.292-4.548a6.724,6.724,0,0,0-4.605-.94C45.733,342.456,45.656,342.605,45.989,343.632Z" transform="translate(-45.814 -333.433)" fill="#b3e59f" fill-rule="evenodd"/>
          <path id="Trazado_713179" data-name="Trazado 713179" d="M294.494,343.632a6.715,6.715,0,0,0,3.108,3.506c2.024,1.169,4.227,1.34,5.587.577-.019-1.558-1.268-3.383-3.292-4.548a6.724,6.724,0,0,0-4.605-.94C294.238,342.456,294.158,342.605,294.494,343.632Z" transform="translate(-260.84 -333.433)" fill="#b3e59f" fill-rule="evenodd"/>
          <path id="Trazado_713180" data-name="Trazado 713180" d="M116.216,278.195a6.731,6.731,0,0,0-1.5,4.464c0,2.333.955,4.33,2.295,5.125,1.34-.794,2.3-2.792,2.3-5.125a6.758,6.758,0,0,0-1.486-4.453C117.1,277.408,116.938,277.4,116.216,278.195Z" transform="translate(-105.436 -277.603)" fill="#b3e59f" fill-rule="evenodd"/>
          <path id="Trazado_713181" data-name="Trazado 713181" d="M364.732,278.195a6.71,6.71,0,0,0-1.5,4.464c0,2.333.951,4.33,2.291,5.125,1.344-.794,2.3-2.792,2.3-5.125a6.737,6.737,0,0,0-1.486-4.453C365.618,277.408,365.45,277.4,364.732,278.195Z" transform="translate(-320.474 -277.603)" fill="#b3e59f" fill-rule="evenodd"/>
          <path id="Trazado_713182" data-name="Trazado 713182" d="M160.561,343.6a6.694,6.694,0,0,1-3.124,3.548c-2.02,1.169-4.224,1.34-5.583.577.015-1.558,1.268-3.383,3.292-4.548a6.7,6.7,0,0,1,4.632-.932C160.8,342.468,160.874,342.6,160.561,343.6Z" transform="translate(-137.569 -333.441)" fill="#b3e59f" fill-rule="evenodd"/>
          <path id="Trazado_713183" data-name="Trazado 713183" d="M409.053,343.6a6.71,6.71,0,0,1-3.124,3.548c-2.024,1.169-4.227,1.34-5.587.577.019-1.558,1.268-3.383,3.292-4.548a6.708,6.708,0,0,1,4.632-.932C409.286,342.468,409.366,342.6,409.053,343.6Z" transform="translate(-352.582 -333.441)" fill="#b3e59f" fill-rule="evenodd"/>
        </g>
        <path id="Trazado_713184" data-name="Trazado 713184" d="M342.141,24.38a6.668,6.668,0,1,1-9.444,0,2.172,2.172,0,0,0,.8-1.726V11.434a3.924,3.924,0,0,1,7.848,0V22.65A2.139,2.139,0,0,0,342.141,24.38Z" transform="translate(-287.205 -7.512)" fill="#faf8f9" fill-rule="evenodd"/>
        <path id="Trazado_713185" data-name="Trazado 713185" d="M343.736,24.723a6.668,6.668,0,1,1-11.143,6.511,3.919,3.919,0,0,0,7.076-2.325v-21a3.938,3.938,0,0,1,3.269,3.868V22.993A2.139,2.139,0,0,0,343.736,24.723Z" transform="translate(-288.8 -7.856)" fill="#ede9fb" fill-rule="evenodd"/>
        <path id="Trazado_713186" data-name="Trazado 713186" d="M26.787,14.619c.917,0,1.027,0,1.283-.916a8.517,8.517,0,0,1,15.21-2.5,1.443,1.443,0,0,0,1.573.76,6.295,6.295,0,1,1,.3,12.583H26.787a4.963,4.963,0,0,1,0-9.925Z" transform="translate(-19.899 -7.512)" fill="#9dc6fb" fill-rule="evenodd"/>
        <path id="Trazado_713187" data-name="Trazado 713187" d="M49.083,44.392a6.292,6.292,0,0,1-2.509,12.064H28.21a4.965,4.965,0,0,1-4.739-3.494,4.93,4.93,0,0,0,1.47.222H43.306a6.3,6.3,0,0,0,5.778-8.791Z" transform="translate(-21.321 -39.424)" fill="#80b4fb" fill-rule="evenodd"/>
        <path id="Trazado_713188" data-name="Trazado 713188" d="M8.558,430.135H73.42a1.048,1.048,0,0,1,1.046,1.046v7.928a1.051,1.051,0,0,1-1.046,1.046H8.558a1.051,1.051,0,0,1-1.046-1.046v-7.928a1.048,1.048,0,0,1,1.046-1.046Z" transform="translate(-7.512 -373.201)" fill="#d68756" fill-rule="evenodd"/>
        <path id="Trazado_713189" data-name="Trazado 713189" d="M71.2,430.135H73.42a1.048,1.048,0,0,1,1.046,1.046v7.928a1.051,1.051,0,0,1-1.046,1.046H8.558a1.051,1.051,0,0,1-1.046-1.046v-2.222H68.581a2.627,2.627,0,0,0,2.616-2.616Z" transform="translate(-7.512 -373.201)" fill="#c47443" fill-rule="evenodd"/>
      </g>
      <path id="Trazado_713190" data-name="Trazado 713190" d="M40.754,47.2a4,4,0,0,0,.626,1.222,6.978,6.978,0,0,0,4.655,2.692,4.124,4.124,0,0,0,1.375-.073,3.994,3.994,0,0,0-.626-1.222,6.966,6.966,0,0,0-4.655-2.692,4.124,4.124,0,0,0-1.375.073ZM36.778,58.958a1.01,1.01,0,1,1,0-2.02H50.217V53.952l-1.776-1.127a5.755,5.755,0,0,1-2.608.29A9.01,9.01,0,0,1,39.746,49.6a5.441,5.441,0,0,1-1.107-2.952,1.009,1.009,0,0,1,.512-.974,5.368,5.368,0,0,1,3.181-.558,8.989,8.989,0,0,1,6.087,3.513,5.741,5.741,0,0,1,1.062,2.459l.737.47V48.1a5.726,5.726,0,0,1-1.577-2.135,8.947,8.947,0,0,1,0-7.023,5.43,5.43,0,0,1,2.051-2.467,1.008,1.008,0,0,1,1.05-.011,5.378,5.378,0,0,1,2.074,2.478,8.947,8.947,0,0,1,0,7.023A5.725,5.725,0,0,1,52.236,48.1v3.464l.737-.47a5.742,5.742,0,0,1,1.062-2.459,8.988,8.988,0,0,1,6.083-3.513,5.374,5.374,0,0,1,3.185.558,1,1,0,0,1,.508.974,5.4,5.4,0,0,1-1.1,2.952,9.018,9.018,0,0,1-6.087,3.513,5.755,5.755,0,0,1-2.608-.29l-1.776,1.127v2.986H67.966a1.007,1.007,0,0,1,1.008,1.008v10.02a1.007,1.007,0,0,1-1.008,1.008H1.012A1.01,1.01,0,0,1,0,67.966V57.946a1.01,1.01,0,0,1,1.012-1.008H16.738V53.952l-1.772-1.127a5.778,5.778,0,0,1-2.612.29,8.746,8.746,0,0,1-3.4-1.138A8.658,8.658,0,0,1,6.267,49.6a5.434,5.434,0,0,1-1.1-2.952,1,1,0,0,1,.512-.974,5.368,5.368,0,0,1,3.181-.558,8.688,8.688,0,0,1,3.4,1.138,8.658,8.658,0,0,1,2.685,2.375A5.685,5.685,0,0,1,16,51.091l.737.47V48.1a5.766,5.766,0,0,1-1.577-2.135,8.99,8.99,0,0,1,0-7.023,5.413,5.413,0,0,1,2.054-2.467,1,1,0,0,1,1.046-.011,5.362,5.362,0,0,1,2.077,2.478,8.99,8.99,0,0,1,0,7.023A5.769,5.769,0,0,1,18.761,48.1v3.464l.737-.47a5.685,5.685,0,0,1,1.058-2.459,8.989,8.989,0,0,1,6.087-3.513,5.368,5.368,0,0,1,3.181.558,1,1,0,0,1,.512.974,5.434,5.434,0,0,1-1.1,2.952,9.012,9.012,0,0,1-6.087,3.513,5.772,5.772,0,0,1-2.612-.29l-1.772,1.127v2.986H32.2a1.01,1.01,0,1,1,0,2.02H2.02v8H66.954v-8H36.778ZM17.345,21.465a1.006,1.006,0,0,1,1.745,1l-3.551,6.148a1.006,1.006,0,0,1-1.745-1Zm-5.232,0a1.006,1.006,0,0,1,1.745,1l-3.551,6.148a1,1,0,1,1-1.741-1Zm10.463,0a1.006,1.006,0,0,1,1.745,1L20.77,28.614a1.006,1.006,0,0,1-1.745-1Zm-7.782-4.434a1.01,1.01,0,1,1,0,2.02H7.9a5.972,5.972,0,1,1,.26-11.937,9.529,9.529,0,0,1,17.3-2.624,7.3,7.3,0,1,1,.8,14.561H19.372a1.01,1.01,0,1,1,0-2.02h6.893a5.283,5.283,0,0,0,0-10.566,5.333,5.333,0,0,0-1.073.107,1.009,1.009,0,0,1-1.153-.512A7.507,7.507,0,0,0,9.959,8.382a1.007,1.007,0,0,1-1.211.836A3.953,3.953,0,1,0,7.9,17.032ZM50.22,8.6a1.006,1.006,0,1,1,2.012,0V24.94a1.006,1.006,0,1,1-2.012,0Zm3.918,3.922a1.01,1.01,0,0,1,2.02,0v4.189a7.691,7.691,0,1,1-9.864,0V4.934a4.932,4.932,0,0,1,9.864,0V7.943a1.01,1.01,0,0,1-2.02,0V4.934a2.912,2.912,0,0,0-5.824,0V17.2a1.012,1.012,0,0,1-.42.814,5.66,5.66,0,0,0-1.715,2.016,5.656,5.656,0,1,0,8.451-1.963,1.017,1.017,0,0,1-.493-.867V12.518ZM27.6,48.418a4.068,4.068,0,0,0,.622-1.222,4.1,4.1,0,0,0-1.371-.072,6.986,6.986,0,0,0-4.659,2.692,4.172,4.172,0,0,0-.626,1.222,4.13,4.13,0,0,0,1.375.073A6.965,6.965,0,0,0,27.6,48.418ZM17.75,38.611A4.074,4.074,0,0,0,17,39.761a7.036,7.036,0,0,0,0,5.381,4.1,4.1,0,0,0,.748,1.153,4.1,4.1,0,0,0,.748-1.153,7.037,7.037,0,0,0,0-5.381,4.074,4.074,0,0,0-.748-1.149ZM7.279,47.2A4.071,4.071,0,0,0,7.9,48.418a6.649,6.649,0,0,0,2.062,1.814,6.719,6.719,0,0,0,2.6.878,4.13,4.13,0,0,0,1.375-.073,4.175,4.175,0,0,0-.626-1.222A6.649,6.649,0,0,0,11.246,48a6.654,6.654,0,0,0-2.6-.878A4.1,4.1,0,0,0,7.279,47.2Zm53.795,1.222A4.088,4.088,0,0,0,61.7,47.2a4.121,4.121,0,0,0-1.375-.072,6.976,6.976,0,0,0-4.655,2.692,4,4,0,0,0-.626,1.222,4.124,4.124,0,0,0,1.375.073A6.969,6.969,0,0,0,61.073,48.418Zm-9.849-9.807a4.074,4.074,0,0,0-.748,1.149,7.037,7.037,0,0,0,0,5.381,4.1,4.1,0,0,0,.748,1.153,4.015,4.015,0,0,0,.748-1.153,6.99,6.99,0,0,0,0-5.381,3.994,3.994,0,0,0-.748-1.149Z" transform="translate(0 0)"/>
    </g>
  </g>
</svg>
