<svg xmlns="http://www.w3.org/2000/svg" width="70" height="70" viewBox="0 0 70 70">
  <g id="Grupo_1008720" data-name="Grupo 1008720" transform="translate(-1255 -492.648)">
    <g id="Elipse_5636" data-name="Elipse 5636" transform="translate(1255 492.648)" fill="#fff" stroke="#296725" stroke-width="2">
      <circle cx="35" cy="35" r="35" stroke="none"/>
      <circle cx="35" cy="35" r="34" fill="none"/>
    </g>
    <path id="Trazado_715373" data-name="Trazado 715373" d="M31.938,20.422h2.484q2.953,0,2.953-2.891a2.5,2.5,0,0,0-.7-1.836,2.666,2.666,0,0,0-1.984-.711,2.854,2.854,0,0,0-1.82.609,1.859,1.859,0,0,0-.773,1.516H26.828a5.39,5.39,0,0,1,1-3.2,6.6,6.6,0,0,1,2.773-2.2,9.482,9.482,0,0,1,3.9-.789,9.317,9.317,0,0,1,5.969,1.734,5.766,5.766,0,0,1,2.172,4.766,4.806,4.806,0,0,1-.9,2.773,6.4,6.4,0,0,1-2.617,2.117A6.116,6.116,0,0,1,41.969,24.3,5.246,5.246,0,0,1,43,27.609a5.87,5.87,0,0,1-2.344,4.875A9.729,9.729,0,0,1,34.5,34.313a10.089,10.089,0,0,1-4.148-.852,6.5,6.5,0,0,1-2.9-2.359,6.134,6.134,0,0,1-.984-3.43h5.3a2.371,2.371,0,0,0,.844,1.813,2.979,2.979,0,0,0,2.078.766,3.12,3.12,0,0,0,2.219-.773,2.585,2.585,0,0,0,.828-1.977,3.022,3.022,0,0,0-.859-2.437,3.592,3.592,0,0,0-2.375-.719H31.938Z" transform="translate(1255 508.893)" fill="#296725"/>
  </g>
</svg>
