<svg xmlns="http://www.w3.org/2000/svg" xmlns:xlink="http://www.w3.org/1999/xlink" width="123" height="123" viewBox="0 0 123 123">
  <defs>
    <radialGradient id="radial-gradient" cx="0.5" cy="0.5" r="0.5" gradientUnits="objectBoundingBox">
      <stop offset="0" stop-color="#fff"/>
      <stop offset="1" stop-color="#e9e9e9"/>
    </radialGradient>
    <filter id="_44" x="0" y="0" width="123" height="123" filterUnits="userSpaceOnUse">
      <feOffset dx="3" dy="3" input="SourceAlpha"/>
      <feGaussianBlur stdDeviation="3" result="blur"/>
      <feFlood flood-opacity="0.161"/>
      <feComposite operator="in" in2="blur"/>
      <feComposite in="SourceGraphic"/>
    </filter>
  </defs>
  <g id="Grupo_1008698" data-name="Grupo 1008698" transform="translate(-1309 -1582)">
    <g transform="matrix(1, 0, 0, 1, 1309, 1582)" filter="url(#_44)">
      <g id="_44-2" data-name="44" transform="translate(6 6)" stroke="#fff" stroke-width="3" fill="url(#radial-gradient)">
        <circle cx="52.5" cy="52.5" r="52.5" stroke="none"/>
        <circle cx="52.5" cy="52.5" r="51" fill="none"/>
      </g>
    </g>
    <g id="bayas" transform="translate(1340 1619.328)">
      <path id="Trazado_715255" data-name="Trazado 715255" d="M280.231,24.154q-.579,0-1.162-.033a.888.888,0,0,1-.829-.771A20.645,20.645,0,0,1,299.377.018a.888.888,0,0,1,.848.75,20.26,20.26,0,0,1-19.993,23.387Zm0,0" transform="translate(-247.206 -0.002)" fill="#adce32"/>
      <path id="Trazado_715256" data-name="Trazado 715256" d="M233.779,37.956H232a18.119,18.119,0,0,1,5.238-12.784l.293-.3L257.759,2.55l1.316,1.192L238.507,26.415a16.35,16.35,0,0,0-4.728,11.541Zm0,0" transform="translate(-206.259 -2.263)" fill="#58af7a"/>
      <path id="Trazado_715257" data-name="Trazado 715257" d="M313.855,167.9l10.032-.5.088,1.773-10.032.5Zm0,0" transform="translate(-279.027 -148.821)" fill="#58af7a"/>
      <path id="Trazado_715258" data-name="Trazado 715258" d="M351.457,126.644l9.405-.464.088,1.773-9.405.464Zm0,0" transform="translate(-312.456 -112.173)" fill="#58af7a"/>
      <path id="Trazado_715259" data-name="Trazado 715259" d="M394.426,79.969l7.523-.371.088,1.773-7.523.371Zm0,0" transform="translate(-350.657 -70.76)" fill="#58af7a"/>
      <path id="Trazado_715260" data-name="Trazado 715260" d="M437.4,34.025l3.761-.186.088,1.773-3.761.186Zm0,0" transform="translate(-388.864 -30.08)" fill="#58af7a"/>
      <path id="Trazado_715261" data-name="Trazado 715261" d="M302.18,96.329l1.774-.087.454,9.25-1.774.087Zm0,0" transform="translate(-268.647 -85.558)" fill="#58af7a"/>
      <path id="Trazado_715262" data-name="Trazado 715262" d="M339.684,53.3l1.773-.088.463,9.405-1.773.087Zm0,0" transform="translate(-301.99 -47.302)" fill="#58af7a"/>
      <path id="Trazado_715263" data-name="Trazado 715263" d="M383.5,22.814l1.773-.088.371,7.523-1.773.088Zm0,0" transform="translate(-340.943 -20.2)" fill="#58af7a"/>
      <path id="Trazado_715264" data-name="Trazado 715264" d="M428.207,9.419l1.774-.087.184,3.763-1.773.087Zm0,0" transform="translate(-380.689 -8.292)" fill="#58af7a"/>
      <path id="Trazado_715265" data-name="Trazado 715265" d="M20.285,89.833A20.259,20.259,0,0,1,.292,66.448.887.887,0,0,1,1.14,65.7,20.645,20.645,0,0,1,22.28,89.03a.887.887,0,0,1-.829.771q-.583.032-1.166.033Zm0,0" transform="translate(-0.044 -58.393)" fill="#adce32"/>
      <g id="Grupo_1008697" data-name="Grupo 1008697" transform="translate(0.445 7.582)">
        <path id="Trazado_715266" data-name="Trazado 715266" d="M4.012,69.476l1.316-1.191L25.563,90.632l-1.316,1.191Zm0,0" transform="translate(-4.012 -68.285)" fill="#58af7a"/>
        <path id="Trazado_715267" data-name="Trazado 715267" d="M74.969,234.863l.087-1.774,10.032.494L85,235.357Zm0,0" transform="translate(-67.095 -214.801)" fill="#58af7a"/>
        <path id="Trazado_715268" data-name="Trazado 715268" d="M43.012,193.641l.088-1.774,9.4.464-.087,1.773Zm0,0" transform="translate(-38.684 -178.154)" fill="#58af7a"/>
        <path id="Trazado_715269" data-name="Trazado 715269" d="M16.984,147.047l.087-1.773,7.524.371-.088,1.773Zm0,0" transform="translate(-15.545 -136.73)" fill="#58af7a"/>
        <path id="Trazado_715270" data-name="Trazado 715270" d="M7.922,101.3l.088-1.773,3.761.186-.088,1.773Zm0,0" transform="translate(-7.488 -96.057)" fill="#58af7a"/>
        <path id="Trazado_715271" data-name="Trazado 715271" d="M157.762,171.052l.456-9.247,1.773.088-.456,9.247Zm0,0" transform="translate(-140.7 -151.427)" fill="#58af7a"/>
        <path id="Trazado_715272" data-name="Trazado 715272" d="M120.164,128.292l.465-9.405,1.773.088-.464,9.405Zm0,0" transform="translate(-107.275 -113.272)" fill="#58af7a"/>
        <path id="Trazado_715273" data-name="Trazado 715273" d="M77.188,95.938l.371-7.524,1.773.088-.371,7.524Zm0,0" transform="translate(-69.067 -86.18)" fill="#58af7a"/>
        <path id="Trazado_715274" data-name="Trazado 715274" d="M34.215,78.648l.186-3.761,1.773.088-.186,3.761Zm0,0" transform="translate(-30.863 -74.154)" fill="#58af7a"/>
        <path id="Trazado_715275" data-name="Trazado 715275" d="M193.19,287.223h-1.776v-6.136a16.34,16.34,0,0,0-4.817-11.63l-.25-.249,1.255-1.255.25.249a18.1,18.1,0,0,1,5.337,12.885Zm0,0" transform="translate(-166.114 -245.795)" fill="#58af7a"/>
        <path id="Trazado_715276" data-name="Trazado 715276" d="M232,321.609h1.776v7.18H232Zm0,0" transform="translate(-206.704 -293.498)" fill="#58af7a"/>
        <path id="Trazado_715277" data-name="Trazado 715277" d="M223.61,196.534h-1.776v-3.906a5.083,5.083,0,0,0-2.268-4.238l.985-1.477a6.855,6.855,0,0,1,3.058,5.715Zm0,0" transform="translate(-195.646 -173.749)" fill="#58af7a"/>
      </g>
      <path id="Trazado_715278" data-name="Trazado 715278" d="M194.667,166.936a2.663,2.663,0,1,1,2.663-2.663A2.663,2.663,0,0,1,194.667,166.936Zm0,0" transform="translate(-170.698 -143.671)" fill="#8a4325"/>
      <path id="Trazado_715279" data-name="Trazado 715279" d="M236.551,262.787l-.985-1.477,1.633-1.089a15.5,15.5,0,0,1,8.624-2.611v1.776a13.73,13.73,0,0,0-7.635,2.308Zm0,0" transform="translate(-209.426 -229.018)" fill="#58af7a"/>
      <path id="Trazado_715280" data-name="Trazado 715280" d="M182.479,334.676l-1.039-1.039A7.634,7.634,0,0,0,176,331.385v-1.776a9.4,9.4,0,0,1,6.69,2.772l1.039,1.039Zm0,0" transform="translate(-156.473 -293.028)" fill="#58af7a"/>
      <path id="Trazado_715281" data-name="Trazado 715281" d="M322.667,246.936a2.663,2.663,0,1,1,2.663-2.663A2.663,2.663,0,0,1,322.667,246.936Zm0,0" transform="translate(-284.494 -214.793)" fill="#8a4325"/>
      <path id="Trazado_715282" data-name="Trazado 715282" d="M138.667,318.936a2.663,2.663,0,1,1,2.663-2.663A2.663,2.663,0,0,1,138.667,318.936Zm0,0" transform="translate(-120.912 -278.803)" fill="#8a4325"/>
      <path id="Trazado_715283" data-name="Trazado 715283" d="M8.323,27.55l0,.095.141.007a20.134,20.134,0,0,0,11.781,3.79c.279,0,.56-.013.841-.024a16.331,16.331,0,0,1,4.042,7.007,9.358,9.358,0,0,0-4.86-1.807,2.658,2.658,0,1,0-.021,1.776,7.626,7.626,0,0,1,4.721,2.219l.7.7c.049.517.076,1.037.076,1.562V49.01h1.776V35.693a16.52,16.52,0,0,1,.178-2.308l1.059-.71a13.71,13.71,0,0,1,6.924-2.286,2.663,2.663,0,1,0-.016-1.776,15.471,15.471,0,0,0-7.445,2.308,16.36,16.36,0,0,1,4.03-6.769l.02-.023c.251.009.5.021.752.021A20.142,20.142,0,0,0,44.807,20.36l.14-.007,0-.094a20.377,20.377,0,0,0,3.072-2.765,20.171,20.171,0,0,0,5-16.728.888.888,0,0,0-.848-.75A20.635,20.635,0,0,0,30.983,22.91a18.268,18.268,0,0,0-2.589,3.349,6.837,6.837,0,0,0-1.977-4.611,2.663,2.663,0,1,0-2.448,1.617,2.616,2.616,0,0,0,1.243-.322,5.075,5.075,0,0,1,1.421,3.518v3.63a18.226,18.226,0,0,0-.86,5.02A18.192,18.192,0,0,0,22.292,30.1,20.635,20.635,0,0,0,1.1,7.3a.887.887,0,0,0-.847.751A20.275,20.275,0,0,0,8.323,27.55Zm9.432,10.807a.888.888,0,1,1,.888-.888A.888.888,0,0,1,17.755,38.357Zm20.419-9.765a.888.888,0,1,1-.888.888A.888.888,0,0,1,38.174,28.591ZM23.082,20.6a.888.888,0,1,1,.888.888A.888.888,0,0,1,23.082,20.6ZM6.569,23.591c-.134-.148-.26-.3-.389-.453l7.635.376L16.3,26.259,9.1,25.9a18.546,18.546,0,0,1-2.531-2.313Zm6.874-3.129-3.082-3.4.284-5.77A18.87,18.87,0,0,1,13.791,13.4ZM8.674,15.2,5.593,11.8l.114-2.308a18.811,18.811,0,0,1,3.2.989ZM3.906,9.935l-.733-.809c.257.02.514.04.769.069ZM2.587,11.127l-.811-.04c0-.273.013-.547.027-.821Zm1.687,1.864,3.082,3.4-4.9-.241a18.309,18.309,0,0,1-.6-3.279Zm4.769,5.264,3.082,3.4L4.861,21.3l-.005.093a18.433,18.433,0,0,1-1.793-3.437Zm8.94,9.865,1.376,1.519a18.431,18.431,0,0,1-7.107-1.8Zm15.9-5.77,1.379-1.52,5.766-.285a18.343,18.343,0,0,1-7.145,1.808Zm10.292-3.737-7.225.355,2.486-2.744,7.651-.377c-.13.152-.256.305-.39.453a18.662,18.662,0,0,1-2.522,2.316Zm-4.7-12.506A18.837,18.837,0,0,1,42.624,4l.284,5.77-3.082,3.4Zm8.927,7.9-7.279.355,3.085-3.4,5.989-.3A18.418,18.418,0,0,1,48.408,14.1Zm2.4-5.149L45.9,9.1l3.086-3.4,2.423-.119a18.306,18.306,0,0,1-.6,3.282Zm.678-5.06-.811.041.784-.864c.014.276.025.551.03.824ZM49.36,2.646l-.036-.74c.256-.029.512-.051.77-.069ZM47.673,4.511l-3.078,3.4-.232-4.724a18.776,18.776,0,0,1,3.2-.99ZM37.514,7.981c.088-.095.177-.184.266-.277l.361,7.331-2.486,2.744-.336-6.83a18.9,18.9,0,0,1,2.195-2.968Zm-3.807,6.387.26,5.273-1.332,1.466a18.809,18.809,0,0,1,1.072-6.74ZM20.627,28.394,19.3,26.927l.261-5.271a18.8,18.8,0,0,1,1.071,6.739ZM17.949,18.237l-.337,6.829-2.486-2.744.362-7.329c.088.088.177.177.266.276a18.906,18.906,0,0,1,2.195,2.968Zm0,0" transform="translate(0 0)"/>
    </g>
  </g>
</svg>
