<svg xmlns="http://www.w3.org/2000/svg" xmlns:xlink="http://www.w3.org/1999/xlink" width="148" height="149" viewBox="0 0 148 149">
  <defs>
    <radialGradient id="radial-gradient" cx="0.5" cy="0.5" r="0.5" gradientUnits="objectBoundingBox">
      <stop offset="0" stop-color="#fff"/>
      <stop offset="1" stop-color="#e9e9e9"/>
    </radialGradient>
    <filter id="_51" x="0" y="0" width="148" height="149" filterUnits="userSpaceOnUse">
      <feOffset dx="3" dy="3" input="SourceAlpha"/>
      <feGaussianBlur stdDeviation="3" result="blur"/>
      <feFlood flood-opacity="0.161"/>
      <feComposite operator="in" in2="blur"/>
      <feComposite in="SourceGraphic"/>
    </filter>
  </defs>
  <g id="Grupo_1008510" data-name="Grupo 1008510" transform="translate(-573.534 -1115.893)">
    <g transform="matrix(1, 0, 0, 1, 573.53, 1115.89)" filter="url(#_51)">
      <g id="_51-2" data-name="51" transform="translate(6 6)" stroke="#fff" stroke-width="3" fill="url(#radial-gradient)">
        <ellipse cx="65" cy="65.5" rx="65" ry="65.5" stroke="none"/>
        <ellipse cx="65" cy="65.5" rx="63.5" ry="64" fill="none"/>
      </g>
    </g>
    <g id="_012-fertilizer" data-name="012-fertilizer" transform="translate(618.534 1152.893)">
      <g id="Grupo_1008505" data-name="Grupo 1008505" transform="translate(1.008 1.007)">
        <path id="Trazado_713169" data-name="Trazado 713169" d="M70.06,40.959c.046-9,1.413-17.024,3.743-22.092.855-1.86.535-2.341-.3-3.884-1.405-2.589-1.642-5.167-.24-6.568,1.512-1.512,4.38-1.1,7.179.615A4.056,4.056,0,0,0,84.4,9.7a46,46,0,0,1,21.419,0,4.056,4.056,0,0,0,3.96-.668c2.8-1.718,5.663-2.127,7.179-.615,1.4,1.4,1.165,3.979-.241,6.568-.836,1.543-1.157,2.024-.3,3.884,2.329,5.068,3.7,13.091,3.742,22.092-.046,9-1.413,17.024-3.742,22.1-.855,1.856-.535,2.337.3,3.88,1.405,2.593,1.642,5.167.241,6.568-1.516,1.512-4.38,1.1-7.179-.615a4.075,4.075,0,0,0-3.96-.668,46,46,0,0,1-21.419,0,4.075,4.075,0,0,0-3.96.668c-2.8,1.718-5.667,2.127-7.179.615-1.4-1.4-1.165-3.975.24-6.568.836-1.543,1.157-2.024.3-3.88-2.329-5.071-3.7-13.091-3.742-22.1Z" transform="translate(-70.06 -7.482)" fill="#f5bc98" fill-rule="evenodd"/>
        <path id="Trazado_713170" data-name="Trazado 713170" d="M123.131,9.664A9.667,9.667,0,0,0,124.3,9.03c2.8-1.718,5.663-2.127,7.179-.615,1.4,1.4,1.165,3.975-.241,6.568-.836,1.543-1.157,2.024-.3,3.884,2.329,5.068,3.7,13.091,3.742,22.092-.046,9-1.413,17.024-3.742,22.1-.855,1.856-.535,2.337.3,3.88,1.405,2.593,1.642,5.167.241,6.568-1.516,1.512-4.38,1.1-7.179-.615a4.075,4.075,0,0,0-3.96-.668,46,46,0,0,1-21.419,0,4.075,4.075,0,0,0-3.96.668c-2.8,1.718-5.667,2.127-7.179.615-1.4-1.4-1.165-3.975.24-6.568a5.336,5.336,0,0,0,.8-1.913c4.518,4.35,10.708,5.193,17.539,5.193,13.835,0,25.051-3.444,25.051-32.524,0-15.519-3.192-23.734-8.275-28.026Z" transform="translate(-84.577 -7.481)" fill="#e59b6c" fill-rule="evenodd"/>
        <path id="Trazado_713171" data-name="Trazado 713171" d="M164.178,94.687a14.3,14.3,0,1,0-14.294-14.3A14.323,14.323,0,0,0,164.178,94.687Z" transform="translate(-139.131 -58.196)" fill="#ffefd6" fill-rule="evenodd"/>
        <path id="Trazado_713172" data-name="Trazado 713172" d="M189.764,86.048A14.3,14.3,0,1,1,169.811,106a14.3,14.3,0,0,0,19.953-19.953Z" transform="translate(-156.373 -75.464)" fill="#ffe6c1" fill-rule="evenodd"/>
        <g id="Grupo_1008504" data-name="Grupo 1008504" transform="translate(14.378 12.65)">
          <path id="Trazado_713173" data-name="Trazado 713173" d="M176.972,162.287a6.25,6.25,0,0,0,2.845,3.162c1.864,1.077,3.9,1.237,5.148.531-.015-1.436-1.169-3.116-3.036-4.193a6.281,6.281,0,0,0-4.136-.886C176.724,161.1,176.617,161.263,176.972,162.287Z" transform="translate(-176.79 -152.82)" fill="#95d6a4" fill-rule="evenodd"/>
          <path id="Trazado_713174" data-name="Trazado 713174" d="M241.62,102a6.266,6.266,0,0,0-1.31,4.04c0,2.154.874,3.991,2.112,4.724,1.241-.733,2.116-2.57,2.116-4.724a6.248,6.248,0,0,0-1.325-4.055c-.7-.806-.89-.8-1.592.015Z" transform="translate(-231.753 -101.384)" fill="#95d6a4" fill-rule="evenodd"/>
          <path id="Trazado_713175" data-name="Trazado 713175" d="M282.529,162.254a6.244,6.244,0,0,1-2.857,3.193c-1.864,1.077-3.9,1.237-5.148.531.015-1.436,1.169-3.116,3.036-4.193a6.233,6.233,0,0,1,4.17-.878C282.766,161.1,282.865,161.257,282.529,162.254Z" transform="translate(-261.359 -152.818)" fill="#95d6a4" fill-rule="evenodd"/>
        </g>
        <path id="Trazado_713176" data-name="Trazado 713176" d="M151.844,307.464h24.673a1.966,1.966,0,0,1,1.959,1.963v2.264a1.966,1.966,0,0,1-1.959,1.963H151.844a1.966,1.966,0,0,1-1.959-1.963v-2.264A1.966,1.966,0,0,1,151.844,307.464Z" transform="translate(-139.131 -267.051)" fill="#c47443" fill-rule="evenodd"/>
      </g>
      <path id="Trazado_713177" data-name="Trazado 713177" d="M79.076,22.743a3.865,3.865,0,0,0,.542,1.023,6.349,6.349,0,0,0,4.235,2.448,3.6,3.6,0,0,0,1.161-.046,3.869,3.869,0,0,0-.542-1.023A6.345,6.345,0,0,0,80.233,22.7,3.816,3.816,0,0,0,79.076,22.743Zm-2.78,29.8a1.01,1.01,0,0,1,0-2.02h24.673a1.01,1.01,0,0,1,0,2.02Zm0,3.922a1.01,1.01,0,0,1,0-2.02H95.611a1.01,1.01,0,1,1,0,2.02ZM90.922,42.432a1.01,1.01,0,1,1,0-2.02h10.047a2.979,2.979,0,0,1,2.971,2.971v2.264a2.979,2.979,0,0,1-2.971,2.971H76.3a2.973,2.973,0,0,1-2.971-2.971V43.383A2.973,2.973,0,0,1,76.3,40.412H86.343a1.01,1.01,0,1,1,0,2.02H76.3a.958.958,0,0,0-.951.951v2.264a.958.958,0,0,0,.951.951h24.673a.958.958,0,0,0,.951-.951V43.383a.958.958,0,0,0-.951-.951ZM66,48.981a1.009,1.009,0,0,1-1.974.412,64.946,64.946,0,0,1-1.062-7.084c-.241-2.478-.374-5.106-.39-7.821A80.057,80.057,0,0,1,63.6,21.815a40.147,40.147,0,0,1,2.807-9.841,2.423,2.423,0,0,0-.195-2.845,10.084,10.084,0,0,1-1.371-4.4,4.537,4.537,0,0,1,1.226-3.5,4.628,4.628,0,0,1,3.807-1.2A10.881,10.881,0,0,1,74.49,1.7a4.983,4.983,0,0,0,1.489.714,3.607,3.607,0,0,0,1.68-.16,47.018,47.018,0,0,1,21.946,0,3.6,3.6,0,0,0,1.68.16,4.976,4.976,0,0,0,1.489-.714A10.881,10.881,0,0,1,107.388.025a4.627,4.627,0,0,1,3.807,1.2,4.537,4.537,0,0,1,1.226,3.5,10.049,10.049,0,0,1-1.371,4.4,2.429,2.429,0,0,0-.2,2.845c.21.451.408.92.6,1.405.2.519.386,1.031.554,1.531a1.011,1.011,0,0,1-1.921.63c-.172-.527-.344-1-.512-1.432-.176-.454-.359-.89-.546-1.3-1.039-2.257-.7-2.879.26-4.644a8.221,8.221,0,0,0,1.126-3.509,2.621,2.621,0,0,0-.642-2,2.711,2.711,0,0,0-2.211-.619,8.877,8.877,0,0,0-3.731,1.378,6.531,6.531,0,0,1-2.127.97A5.457,5.457,0,0,1,99.082,4.2a45.017,45.017,0,0,0-20.9,0,5.457,5.457,0,0,1-2.616.183,6.532,6.532,0,0,1-2.127-.97,8.876,8.876,0,0,0-3.731-1.378,2.71,2.71,0,0,0-2.211.619,2.623,2.623,0,0,0-.642,2,8.2,8.2,0,0,0,1.126,3.509c.958,1.764,1.3,2.387.26,4.644a38.134,38.134,0,0,0-2.65,9.333,77.1,77.1,0,0,0-1,12.342c.015,2.646.145,5.205.382,7.634A62.676,62.676,0,0,0,66,48.981Zm45.237-29.126a1.007,1.007,0,1,1,1.97-.42,64.483,64.483,0,0,1,1.085,7.141c.248,2.505.382,5.159.4,7.9a80.065,80.065,0,0,1-1.027,12.678A39.981,39.981,0,0,1,110.852,57a2.429,2.429,0,0,0,.2,2.845,10.1,10.1,0,0,1,1.371,4.4,4.533,4.533,0,0,1-1.226,3.5,4.629,4.629,0,0,1-3.807,1.207,10.88,10.88,0,0,1-4.613-1.673,5.111,5.111,0,0,0-1.489-.718,3.663,3.663,0,0,0-1.68.16,36.754,36.754,0,0,1-5.194.97,50.442,50.442,0,0,1-11.559,0,36.753,36.753,0,0,1-5.194-.97,3.66,3.66,0,0,0-1.68-.16,5.114,5.114,0,0,0-1.489.718,10.88,10.88,0,0,1-4.613,1.673,4.629,4.629,0,0,1-3.807-1.207,4.534,4.534,0,0,1-1.226-3.5,10.065,10.065,0,0,1,1.371-4.4A2.422,2.422,0,0,0,66.409,57q-.321-.7-.619-1.466c-.2-.531-.393-1.065-.569-1.608a1.008,1.008,0,0,1,1.917-.623c.176.538.351,1.039.531,1.5s.378.928.573,1.356c1.039,2.257.7,2.879-.26,4.644a8.235,8.235,0,0,0-1.126,3.509,2.617,2.617,0,0,0,.642,2,2.724,2.724,0,0,0,2.211.623,8.888,8.888,0,0,0,3.731-1.382,6.7,6.7,0,0,1,2.127-.97,5.417,5.417,0,0,1,2.616.187,35.086,35.086,0,0,0,4.9.913,49.357,49.357,0,0,0,11.1,0,35.123,35.123,0,0,0,4.9-.913,5.417,5.417,0,0,1,2.616-.187,6.7,6.7,0,0,1,2.127.97,8.887,8.887,0,0,0,3.731,1.382,2.725,2.725,0,0,0,2.211-.623,2.617,2.617,0,0,0,.642-2,8.271,8.271,0,0,0-1.126-3.509c-.959-1.764-1.3-2.387-.26-4.644a38.087,38.087,0,0,0,2.65-9.333,77.1,77.1,0,0,0,1-12.342c-.015-2.669-.149-5.258-.39-7.71a62.377,62.377,0,0,0-1.05-6.919ZM88.63,7.9a15.306,15.306,0,1,1-10.822,4.483A15.259,15.259,0,0,1,88.63,7.9Zm9.4,5.911A13.285,13.285,0,1,0,101.92,23.2,13.247,13.247,0,0,0,98.028,13.807Zm-6.82,14.156-1.566,1V32.6a1.01,1.01,0,0,1-2.02,0V28.959l-1.566-1a5.387,5.387,0,0,1-2.406.256,8.35,8.35,0,0,1-5.667-3.269,5.08,5.08,0,0,1-1.035-2.761,1,1,0,0,1,.512-.974,5.022,5.022,0,0,1,2.979-.523,8.387,8.387,0,0,1,5.667,3.269,5.291,5.291,0,0,1,.985,2.268l.531.336V23.552a5.392,5.392,0,0,1-1.447-1.971,8.338,8.338,0,0,1,0-6.542A5.049,5.049,0,0,1,88.1,12.73a1.016,1.016,0,0,1,1.05-.011A5.062,5.062,0,0,1,91.09,15.04a8.338,8.338,0,0,1,0,6.542,5.393,5.393,0,0,1-1.447,1.971v3.013l.531-.336a5.29,5.29,0,0,1,.985-2.268,8.387,8.387,0,0,1,5.667-3.269,5.02,5.02,0,0,1,2.979.523,1,1,0,0,1,.512.974,5.079,5.079,0,0,1-1.035,2.761,8.35,8.35,0,0,1-5.667,3.269,5.385,5.385,0,0,1-2.406-.256Zm6.438-4.2a3.861,3.861,0,0,0,.542-1.023,3.816,3.816,0,0,0-1.157-.046,6.345,6.345,0,0,0-4.239,2.448,3.862,3.862,0,0,0-.542,1.023,3.6,3.6,0,0,0,1.161.046,6.35,6.35,0,0,0,4.235-2.448ZM88.63,14.884a3.759,3.759,0,0,0-.615.978,6.384,6.384,0,0,0,0,4.9,3.759,3.759,0,0,0,.615.978,3.666,3.666,0,0,0,.619-.978,6.382,6.382,0,0,0,0-4.9,3.662,3.662,0,0,0-.619-.978Z" transform="translate(-62.575 0)"/>
    </g>
  </g>
</svg>
