<svg xmlns="http://www.w3.org/2000/svg" xmlns:xlink="http://www.w3.org/1999/xlink" width="1240" height="563" viewBox="0 0 1240 563">
  <defs>
    <linearGradient id="linear-gradient" x1="0.5" x2="0.5" y2="1.789" gradientUnits="objectBoundingBox">
      <stop offset="0" stop-color="#d2e1f1"/>
      <stop offset="1" stop-color="#cdd7a6"/>
    </linearGradient>
    <clipPath id="clip-path">
      <path id="Rectángulo_348692" data-name="Rectángulo 348692" d="M15,0H1225a15,15,0,0,1,15,15V548a15,15,0,0,1-15,15H15A15,15,0,0,1,0,548V15A15,15,0,0,1,15,0Z" transform="translate(37.32 0.001)" fill="none"/>
    </clipPath>
    <clipPath id="clip-path-2">
      <rect id="Rectángulo_348676" data-name="Rectángulo 348676" width="485.464" height="260.745" transform="translate(0 367.544)" fill="none"/>
    </clipPath>
    <clipPath id="clip-path-3">
      <rect id="Rectángulo_348677" data-name="Rectángulo 348677" width="659.906" height="214.981" transform="translate(739.524 413.308)" fill="none"/>
    </clipPath>
    <clipPath id="clip-path-4">
      <rect id="Rectángulo_348679" data-name="Rectángulo 348679" width="250.001" height="478.862" transform="translate(488.23 210.702)" fill="none"/>
    </clipPath>
    <clipPath id="clip-path-5">
      <rect id="Rectángulo_348681" data-name="Rectángulo 348681" width="250" height="478.862" transform="translate(1193.92 210.702)" fill="none"/>
    </clipPath>
    <clipPath id="clip-path-6">
      <rect id="Rectángulo_348682" data-name="Rectángulo 348682" width="123.917" height="98.017" transform="translate(458.618 361.464)" fill="none"/>
    </clipPath>
    <clipPath id="clip-path-7">
      <rect id="Rectángulo_348683" data-name="Rectángulo 348683" width="172.726" height="58.905" transform="translate(518.189 388.323)" fill="none"/>
    </clipPath>
  </defs>
  <g id="Grupo_1008717" data-name="Grupo 1008717" transform="translate(6018 7254)">
    <rect id="Rectángulo_348611" data-name="Rectángulo 348611" width="1240" height="563" rx="15" transform="translate(-6018 -7254)" fill="url(#linear-gradient)"/>
    <g id="Grupo_1008590" data-name="Grupo 1008590" transform="translate(-6055.32 -7254.001)">
      <g id="Grupo_1008589" data-name="Grupo 1008589" clip-path="url(#clip-path)">
        <g id="Grupo_1008573" data-name="Grupo 1008573" opacity="0.36" style="isolation: isolate">
          <g id="Grupo_1008572" data-name="Grupo 1008572">
            <g id="Grupo_1008571" data-name="Grupo 1008571" clip-path="url(#clip-path-2)">
              <path id="Trazado_713605" data-name="Trazado 713605" d="M311.73,377.788c-58.483,11.648-108.53,32.8-155.958,54.1C62.862,470.327,0,463.236,0,463.236S.04,575.569.04,628.289H485.464V370.122c-58.239-4.688-117.9-3.459-173.734,7.666" fill="#b7cbdf"/>
            </g>
          </g>
        </g>
        <g id="Grupo_1008576" data-name="Grupo 1008576" opacity="0.36" style="isolation: isolate">
          <g id="Grupo_1008575" data-name="Grupo 1008575">
            <g id="Grupo_1008574" data-name="Grupo 1008574" clip-path="url(#clip-path-3)">
              <path id="Trazado_713606" data-name="Trazado 713606" d="M1364.33,450.412c-64.634,44.531-180.7,40.226-272.634,29.608-121.515-14.035-237.072-40.864-352.172-65.652V628.289h659.9V413.309a117.763,117.763,0,0,1-35.1,37.1" fill="#b7cbdf"/>
            </g>
          </g>
        </g>
        <g id="Grupo_1008579" data-name="Grupo 1008579" opacity="0.4">
          <g id="Grupo_1008578" data-name="Grupo 1008578">
            <g id="Grupo_1008577" data-name="Grupo 1008577" clip-path="url(#clip-path-4)">
              <rect id="Rectángulo_348678" data-name="Rectángulo 348678" width="250.001" height="478.862" transform="translate(488.23 210.702)" fill="#f3f2f1"/>
            </g>
          </g>
        </g>
        <path id="Trazado_713607" data-name="Trazado 713607" d="M611.524,337.7H727.371V221.854H611.524Zm114.14-1.706H613.23V223.561H725.664Z" fill="#80a2a1"/>
        <path id="Trazado_713608" data-name="Trazado 713608" d="M611.524,451.84H727.371V335.994H611.524Zm114.14-1.707H613.23V337.7H725.664Z" fill="#80a2a1"/>
        <path id="Trazado_713609" data-name="Trazado 713609" d="M611.524,565.978H727.371V450.133H611.524Zm114.14-1.706H613.23V451.84H725.664Z" fill="#80a2a1"/>
        <path id="Trazado_713610" data-name="Trazado 713610" d="M497.385,337.7H613.23V221.854H497.385Zm114.139-1.706H499.092V223.561H611.524Z" fill="#80a2a1"/>
        <path id="Trazado_713611" data-name="Trazado 713611" d="M497.385,451.84H613.23V335.994H497.385Zm114.139-1.707H499.092V337.7H611.524Z" fill="#80a2a1"/>
        <path id="Trazado_713612" data-name="Trazado 713612" d="M497.385,565.978H613.23V450.133H497.385Zm114.139-1.706H499.092V451.84H611.524Z" fill="#80a2a1"/>
        <path id="Trazado_713613" data-name="Trazado 713613" d="M486.523,691.271H738.23V210.7H486.523Zm250-1.707H488.229V212.409H736.524Z" fill="#80a2a1"/>
        <g id="Grupo_1008582" data-name="Grupo 1008582" opacity="0.4">
          <g id="Grupo_1008581" data-name="Grupo 1008581">
            <g id="Grupo_1008580" data-name="Grupo 1008580" clip-path="url(#clip-path-5)">
              <rect id="Rectángulo_348680" data-name="Rectángulo 348680" width="250.001" height="478.862" transform="translate(1193.919 210.702)" fill="#f3f2f1"/>
            </g>
          </g>
        </g>
        <path id="Trazado_713614" data-name="Trazado 713614" d="M1203.074,337.7h115.845V221.854H1203.074Zm114.139-1.706H1204.781V223.561h112.432Z" fill="#80a2a1"/>
        <path id="Trazado_713615" data-name="Trazado 713615" d="M1203.074,451.84h115.845V335.994H1203.074Zm114.139-1.707H1204.781V337.7h112.432Z" fill="#80a2a1"/>
        <path id="Trazado_713616" data-name="Trazado 713616" d="M1203.074,565.978h115.845V450.133H1203.074Zm114.139-1.706H1204.781V451.84h112.432Z" fill="#80a2a1"/>
        <path id="Trazado_713617" data-name="Trazado 713617" d="M1192.213,691.271H1443.92V210.7H1192.213Zm250-1.707h-248.3V212.409h248.3Z" fill="#80a2a1"/>
        <path id="Trazado_713618" data-name="Trazado 713618" d="M534.1,442.071c2.016-.422,5.107-.464,7.123-.885a69.858,69.858,0,0,0,30.765,27.645,100.689,100.689,0,0,0,18.742-40.067c2.525,0,5.56,1.649,8.085,1.649-3.056,8.474-5.916,16.829-8.972,25.3a72.7,72.7,0,0,0,39.31-30.694c2.424,0,5.572-.412,7.995-.412-6.479,14.969-19.51,26.442-34.188,33.556-7.613,3.691-16.211,6.719-20.949,13.728-4.947,7.32-4.243,17.242-.926,25.43l-15.369.589a43.848,43.848,0,0,1,3.249-23.32A68.109,68.109,0,0,1,534.1,442.071" fill="#a77256"/>
        <path id="Trazado_713619" data-name="Trazado 713619" d="M458.619,417.621a23.576,23.576,0,0,0,13.993,21.33,12.794,12.794,0,0,0,5.528,9.982,11.949,11.949,0,0,0,10.955,1.11c3.515,5.562,9.949,8.8,16.484,9.368a21.717,21.717,0,0,0,17.679-7c5.545,5.068,15.306,3.857,20.186-1.859,5.939,4.453,14.539,2.184,19.743-3.089,5.222-5.273,6.809-13.412,5.427-20.7,5.819-.392,11.535-4.129,13.292-9.692a15.015,15.015,0,0,0-4.76-15.767,9.386,9.386,0,0,0,2.525-9.846,9.9,9.9,0,0,0-7.849-6.928c2.252-3.345,1.826-7.884-.41-11.245s-7.884-3.806-11.842-3.038a9.67,9.67,0,0,0-1.877-8.788,12.022,12.022,0,0,0-5.171-3.958c-5-1.946-10.716-.837-15.562,1.416a17.346,17.346,0,0,0-15.2-4.932,18.994,18.994,0,0,0-13.873,9.471,17.011,17.011,0,0,0-18.668-.1,17.568,17.568,0,0,0-7.457,17.474c-3.7-.461-7.1,2.116-9.112,5.256a10.228,10.228,0,0,0-.069,10.614,21.5,21.5,0,0,0-7.235,4.88,23.152,23.152,0,0,0-6.723,16.04" fill="#5c9a76"/>
        <g id="Grupo_1008585" data-name="Grupo 1008585" style="mix-blend-mode: multiply;isolation: isolate">
          <g id="Grupo_1008584" data-name="Grupo 1008584">
            <g id="Grupo_1008583" data-name="Grupo 1008583" clip-path="url(#clip-path-6)">
              <path id="Trazado_713620" data-name="Trazado 713620" d="M458.619,417.621a23.576,23.576,0,0,0,13.993,21.33,12.794,12.794,0,0,0,5.528,9.982,11.949,11.949,0,0,0,10.955,1.11c3.515,5.562,9.949,8.8,16.484,9.368a21.717,21.717,0,0,0,17.679-7c5.545,5.068,15.306,3.857,20.186-1.859,5.939,4.453,14.539,2.184,19.743-3.089,5.222-5.273,6.809-13.412,5.427-20.7,5.819-.392,11.535-4.129,13.292-9.692a15.015,15.015,0,0,0-4.76-15.767,9.386,9.386,0,0,0,2.525-9.846,9.9,9.9,0,0,0-7.849-6.928c2.252-3.345,1.826-7.884-.41-11.245s-7.884-3.806-11.842-3.038a9.67,9.67,0,0,0-1.877-8.788,11.818,11.818,0,0,0-10.153,6.553c-5.683-2.014-12.406-.614-17.423,2.747a19.775,19.775,0,0,0-8.6,15.17c-5.375,2.611-8.856,8.652-9.351,14.59a17.63,17.63,0,0,0,7.184,15.545c-2.645,6.28-.819,14.232,3.617,19.4a18.882,18.882,0,0,0,18.5,5.9,10.855,10.855,0,0,0,4.419,4.607,11.779,11.779,0,0,1-7.491-1.484c.973,1.109,1.946,2.218,2.918,3.344a16.284,16.284,0,0,1-11.927,1.894,16.635,16.635,0,0,1-9.881-7.166,8.3,8.3,0,0,0,1.809,5.682c-4.505,4.88-11.228,7.389-17.661,5.75a18.921,18.921,0,0,1-13.361-13.48,7.568,7.568,0,0,0-1.928,5.853,10.8,10.8,0,0,1-9.693-5.136c-2.116-3.26-2.8-7.253-2.815-11.143a8.769,8.769,0,0,0-2.065,4.2,22.465,22.465,0,0,1-12.4-17.286,22.963,22.963,0,0,1,3.958-15.426,23.152,23.152,0,0,0-6.723,16.04" fill="#acd1c2"/>
            </g>
          </g>
        </g>
        <path id="Trazado_713621" data-name="Trazado 713621" d="M504.012,374.547c8.784,0,8.8,13.651,0,13.651s-8.8-13.651,0-13.651" fill="#fbd46d"/>
        <path id="Trazado_713622" data-name="Trazado 713622" d="M505.933,436.3c6.588,0,6.6,10.238,0,10.238s-6.6-10.238,0-10.238" fill="#fbd46d"/>
        <path id="Trazado_713623" data-name="Trazado 713623" d="M525.527,413.168c-3.106,5.153-2.321,12.576.938,17.627a16.51,16.51,0,0,0,15.512,7.252,16.415,16.415,0,0,0,12.371,6.246,16.2,16.2,0,0,0,12.61-5.529,25.941,25.941,0,0,0,38.872-.6c2.338,3.14,6.092,3.959,9.965,3.361a11.074,11.074,0,0,0,8.6-7.115c7,4.726,17.149,4.778,24.623.836a23.975,23.975,0,0,0,12.559-20.614,32.763,32.763,0,0,0,8.72,1.485,12.751,12.751,0,0,0,8.907-2.44c2.44-2,3.771-5.495,2.645-8.447,4.232-1.621,7.918-5.443,8.805-9.88a15.208,15.208,0,0,0-.153-6.313v-.018a13.694,13.694,0,0,0-3.652-6.842c1.689-7.457-1.553-15.511-7.218-20.631-5.665-5.136-13.4-7.559-21.023-7.9s-15.221,1.263-22.559,3.378a13.258,13.258,0,0,0-9.521-7.166,13.957,13.957,0,0,0-11.757,3.5c-7.594-9.283-20.358-13.907-31.978-10.99a32.541,32.541,0,0,0-23.429,24.76c-4.2-1.6-9.795,1.5-10.426,5.956a17.8,17.8,0,0,0-15.46,1.74,17.38,17.38,0,0,0-7.816,13.242c-.153.085-.307.171-.443.256a15,15,0,0,0-7.031,12.439,14.34,14.34,0,0,0,7.338,12.406" fill="#3a5f58"/>
        <g id="Grupo_1008588" data-name="Grupo 1008588" style="mix-blend-mode: multiply;isolation: isolate">
          <g id="Grupo_1008587" data-name="Grupo 1008587">
            <g id="Grupo_1008586" data-name="Grupo 1008586" clip-path="url(#clip-path-7)">
              <path id="Trazado_713624" data-name="Trazado 713624" d="M525.527,413.168c-3.106,5.153-2.321,12.576.938,17.627a16.51,16.51,0,0,0,15.512,7.252,16.415,16.415,0,0,0,12.371,6.246,16.2,16.2,0,0,0,12.61-5.529,25.941,25.941,0,0,0,38.872-.6c2.338,3.14,6.092,3.959,9.965,3.361a11.074,11.074,0,0,0,8.6-7.115c7,4.726,17.149,4.778,24.623.836a23.975,23.975,0,0,0,12.559-20.614,32.763,32.763,0,0,0,8.72,1.485,12.751,12.751,0,0,0,8.907-2.44c2.44-2,3.771-5.495,2.645-8.447,4.232-1.621,7.918-5.443,8.805-9.88a15.208,15.208,0,0,0-.153-6.313,9.974,9.974,0,0,1-1.331,3.344,13.52,13.52,0,0,1-8.566,5.631,25.352,25.352,0,0,1-10.444-.188,9.07,9.07,0,0,0,5.205,4.488c-2.85,4.164-8.225,6.6-12.918,4.761a13.812,13.812,0,0,0-4.47-10.716,27.28,27.28,0,0,1-2.526,21.023,22.163,22.163,0,0,1-17.593,11.126c-7.218.341-14.624-3.755-17.661-10.324a17.138,17.138,0,0,0,2.44,9.5c-2,4.164-6.4,7.133-10.938,6.263a10.881,10.881,0,0,1-8.566-9.641c-.683,2.867-1.143,5.614-.341,8.429-6.467,4.539-15.034,5.956-22.286,2.833a23.655,23.655,0,0,1-13.822-17.968,27.508,27.508,0,0,0-2.866,14.777,12.465,12.465,0,0,1-13.635,1.468,12.873,12.873,0,0,1-6.842-12.15,13.279,13.279,0,0,0-2.184,8.327,15.625,15.625,0,0,1-9.9-10.87,16.342,16.342,0,0,1,3.874-14.538c-2.781.409-5.665,1.894-7,4.385-3.277-2.337-5.8-5.665-6.263-9.658a14.617,14.617,0,0,1,3.345-11.023,15,15,0,0,0-7.031,12.439,14.34,14.34,0,0,0,7.338,12.406" fill="#acd1c2"/>
            </g>
          </g>
        </g>
        <path id="Trazado_713625" data-name="Trazado 713625" d="M673.59,378.763c7.686,0,7.7,11.945,0,11.945s-7.7-11.945,0-11.945" fill="#fbd46d"/>
        <path id="Trazado_713626" data-name="Trazado 713626" d="M646.808,368.832c5.511,0,5.521,8.565,0,8.565s-5.52-8.565,0-8.565" fill="#fbd46d"/>
        <path id="Trazado_713627" data-name="Trazado 713627" d="M629.874,411.91c7.686,0,7.7,11.945,0,11.945s-7.7-11.945,0-11.945" fill="#fbd46d"/>
        <path id="Trazado_713628" data-name="Trazado 713628" d="M608.256,367.979c5.49,0,5.5,8.532,0,8.532s-5.5-8.532,0-8.532" fill="#fbd46d"/>
        <path id="Trazado_713629" data-name="Trazado 713629" d="M584.717,394.724c8.784,0,8.8,13.651,0,13.651s-8.8-13.651,0-13.651" fill="#fbd46d"/>
        <path id="Trazado_713630" data-name="Trazado 713630" d="M564.06,381.057c6.588,0,6.6,10.238,0,10.238s-6.6-10.238,0-10.238" fill="#fbd46d"/>
        <path id="Trazado_713631" data-name="Trazado 713631" d="M467.185,495.041l9.215,15.87,2.15,3.7,4.982,8.6h197.38l6.654-11.467,2.219-3.823,7.474-12.883c2.508-4.351-.222-10.136-4.795-10.136H471.98c-4.573,0-7.3,5.785-4.8,10.136" fill="#eb9168"/>
        <path id="Trazado_713632" data-name="Trazado 713632" d="M476.4,510.91l2.15,3.7a35.638,35.638,0,0,0,9.727-.631c10.784-2.168,20.715-8.379,31.909-8.447,9.061-.051,16.16,5.631,24.351,8.583,7.678,2.764,14.692,1.16,21.722-2.543,7.082-3.7,13.788-8.207,22.166-7.03,7.747,1.092,14.692,5.256,21.944,7.952,7.423,2.764,14.778,3.447,22.218.358,7.918-3.293,14.931-8.941,23.975-7.917,8.771.972,16.467,6.057,25.271,6.876a26.814,26.814,0,0,0,5.734-.068l2.218-3.822c-4.624,1.263-10.136.443-14.436-.888-9.282-2.9-18.4-7.644-28.309-4.607-7.576,2.321-14.009,8.054-22,9.061-7.627.956-14.982-2.7-21.79-5.631-6.553-2.85-13.532-5.665-20.818-4.761-7.559.922-13.7,5.665-20.426,8.805a21.236,21.236,0,0,1-11.143,2.27c-3.993-.427-7.73-2.184-11.3-3.959a80.375,80.375,0,0,0-10.648-4.761,29.861,29.861,0,0,0-13.1-1.007c-9.488,1.263-18.02,5.9-27.3,8a31.135,31.135,0,0,1-12.115.461" fill="#f8d0aa"/>
        <rect id="Rectángulo_348684" data-name="Rectángulo 348684" width="278.802" height="9.898" transform="translate(442.82 523.212)" fill="#a77256"/>
        <rect id="Rectángulo_348685" data-name="Rectángulo 348685" width="245.771" height="6.414" transform="translate(459.335 533.11)" fill="#7b3e2a"/>
        <path id="Trazado_713633" data-name="Trazado 713633" d="M736.012,810.914H743.1l-51.9-271.39H677.863Z" fill="#a77256"/>
        <path id="Trazado_713634" data-name="Trazado 713634" d="M428.429,810.914h-7.084l51.9-271.39h13.336Z" fill="#a77256"/>
        <path id="Trazado_713635" data-name="Trazado 713635" d="M579.644,810.914H584.8l3.05-271.39H576.593Z" fill="#a77256"/>
        <path id="Trazado_713636" data-name="Trazado 713636" d="M489.117,245.15a.658.658,0,0,0,.1-.008.64.64,0,0,0,.534-.731,40.929,40.929,0,0,1,53.784-45.021.64.64,0,1,0,.417-1.21,42.209,42.209,0,0,0-55.465,46.429.64.64,0,0,0,.632.541" fill="#3a5f58"/>
        <path id="Trazado_713637" data-name="Trazado 713637" d="M488.962,244.944a.643.643,0,0,0,.637-.567c.784-6.859,1.673-14.635,6.04-20.571,4.629-6.295,13.16-9.94,22.227-9.491,7.44.36,15.189,3.162,23.689,8.564a.64.64,0,1,0,.687-1.08c-8.694-5.525-16.646-8.391-24.313-8.762-9.493-.459-18.44,3.374-23.32,10.01-4.569,6.212-5.519,14.514-6.284,21.185a.642.642,0,0,0,.564.708c.025,0,.05,0,.073,0" fill="#3a5f58"/>
        <path id="Trazado_713638" data-name="Trazado 713638" d="M488.769,246l.062,0a.64.64,0,0,0,.574-.7A78.169,78.169,0,0,1,525.736,171.5a.64.64,0,0,0-.679-1.085,79.439,79.439,0,0,0-36.925,75,.64.64,0,0,0,.637.578" fill="#3a5f58"/>
        <path id="Trazado_713639" data-name="Trazado 713639" d="M489.231,244.951a.64.64,0,0,0,.64-.623,74.723,74.723,0,0,0-34.583-64.254.64.64,0,0,0-.677,1.087,73.418,73.418,0,0,1,33.98,63.133.641.641,0,0,0,.623.657Z" fill="#3a5f58"/>
        <path id="Trazado_713640" data-name="Trazado 713640" d="M489.074,245.766a.268.268,0,0,0,.04,0,.638.638,0,0,0,.6-.679c-.925-14.482-1.88-29.457-5.619-43.789-4.181-16.021-11.593-29.25-21.437-38.255a.64.64,0,0,0-.863.944c9.66,8.838,16.943,21.852,21.06,37.635,3.71,14.213,4.661,29.125,5.583,43.547a.639.639,0,0,0,.638.6" fill="#3a5f58"/>
        <path id="Trazado_713641" data-name="Trazado 713641" d="M489.364,245.837a.655.655,0,0,0,.207-.034.641.641,0,0,0,.4-.813c-2.22-6.516-4.836-13.4-8.922-19.586-4.423-6.7-10.029-11.566-16.213-14.081-7.18-2.923-15.3-2.448-21.173,1.238a.64.64,0,0,0,.68,1.085c5.536-3.471,13.206-3.907,20.01-1.138,7.51,3.054,12.645,9.082,15.629,13.6,4,6.066,6.584,12.858,8.775,19.3a.642.642,0,0,0,.607.433" fill="#3a5f58"/>
        <path id="Trazado_713642" data-name="Trazado 713642" d="M489.141,244.713l.062,0a.64.64,0,0,0,.574-.7c-.42-4.214-.855-8.572-2.608-12.58-1.983-4.528-5.524-7.755-9.476-8.631-3.8-.845-8.112.39-11.819,3.39-3.25,2.63-5.583,6.105-7.837,9.466a.64.64,0,0,0,1.063.714c2.2-3.283,4.479-6.677,7.58-9.186,3.351-2.711,7.362-3.882,10.737-3.134,3.553.788,6.76,3.739,8.579,7.894,1.673,3.823,2.1,8.078,2.508,12.193a.641.641,0,0,0,.637.577" fill="#3a5f58"/>
        <path id="Trazado_713643" data-name="Trazado 713643" d="M488.924,242.533h.01a.641.641,0,0,0,.63-.65A245.26,245.26,0,0,1,502.3,159.715a.64.64,0,0,0-1.213-.407,246.528,246.528,0,0,0-12.8,82.6.64.64,0,0,0,.64.63" fill="#3a5f58"/>
        <path id="Trazado_713644" data-name="Trazado 713644" d="M551.031,235.86H426.918s30.662,35.569,38.553,40.525c16.039,2.086,33.007,1.894,50.669,0Z" fill="#f8d0aa"/>
        <path id="Trazado_713645" data-name="Trazado 713645" d="M458.411,273.763a.767.767,0,0,0,.654-.307l30.226-36.271,30.835,36.277a.775.775,0,0,0,.658.3.859.859,0,0,0,.653-.314L551.693,236.4a.853.853,0,0,0,.068-.981l-62.055-102.5a.886.886,0,0,0-1.46,0l-62.057,102.5a.853.853,0,0,0,.08.994l31.492,37.049a.851.851,0,0,0,.65.3m30.873-38.756a1.025,1.025,0,0,0-.655.307L458.4,271.585l-30.437-35.809,61.009-100.769,61.014,100.78-29.228,35.789-30.828-36.268a.853.853,0,0,0-.65-.3" fill="#415067"/>
        <path id="Trazado_713646" data-name="Trazado 713646" d="M489.184,276.1a218.457,218.457,0,0,0,31.715-2.346.855.855,0,0,0,.722-.969.843.843,0,0,0-.969-.719,208.375,208.375,0,0,1-62.112,0,.863.863,0,0,0-.973.713.855.855,0,0,0,.714.974,202.19,202.19,0,0,0,30.9,2.347" fill="#415067"/>
        <path id="Trazado_713648" data-name="Trazado 713648" d="M486.146,235.86a3.137,3.137,0,1,0,3.137-3.136,3.136,3.136,0,0,0-3.137,3.136" fill="#415067"/>
        <path id="Trazado_713649" data-name="Trazado 713649" d="M517.638,272.909a3.137,3.137,0,1,0,3.137-3.138,3.136,3.136,0,0,0-3.137,3.138" fill="#415067"/>
        <path id="Trazado_713650" data-name="Trazado 713650" d="M455.272,272.909a3.137,3.137,0,1,0,3.137-3.138,3.137,3.137,0,0,0-3.137,3.138" fill="#415067"/>
        <path id="Trazado_713651" data-name="Trazado 713651" d="M551.739,221.7c12.143,2.979,24.052-3.023,26.6-13.4S573.1,187.079,560.961,184.1s-24.052,3.023-26.6,13.4,5.233,21.213,17.377,24.192" fill="#3a5f58"/>
        <path id="Trazado_713652" data-name="Trazado 713652" d="M445.878,171.9c9.529,8.1,22.864,8.054,29.786-.093s4.807-21.314-4.722-29.409-22.864-8.054-29.786.093-4.807,21.314,4.722,29.409" fill="#3a5f58"/>
        <path id="Trazado_713653" data-name="Trazado 713653" d="M491.591,138.141c-4.056,9.892-.487,20.72,7.969,24.187s18.6-1.742,22.654-11.633.487-20.719-7.971-24.187-18.6,1.742-22.652,11.633" fill="#3a5f58"/>
        <path id="Trazado_713654" data-name="Trazado 713654" d="M415.075,210.566c-6.122,10.6-3.736,23.442,5.33,28.676s21.377.881,27.5-9.723,3.736-23.441-5.329-28.675-21.377-.881-27.5,9.722" fill="#3a5f58"/>
        <path id="Trazado_713655" data-name="Trazado 713655" d="M546.268,230.043c-7.473-6.782-18.232-7.1-24.03-.71s-4.44,17.067,3.034,23.848,18.232,7.1,24.03.71,4.44-17.066-3.034-23.848" fill="#3a5f58"/>
        <path id="Trazado_713656" data-name="Trazado 713656" d="M470.848,244.179c3.037-7.409.364-15.521-5.971-18.118s-13.932,1.3-16.969,8.714-.364,15.521,5.97,18.118,13.933-1.305,16.97-8.714" fill="#5c9a76"/>
        <path id="Trazado_713657" data-name="Trazado 713657" d="M488.839,248.338c1.925,10.191,10.549,17.118,19.262,15.472s14.215-11.242,12.29-21.433-10.55-17.118-19.263-15.472-14.214,11.242-12.289,21.433" fill="#5c9a76"/>
        <path id="Trazado_713658" data-name="Trazado 713658" d="M554.062,216.358c-6.916-3.581-15.005-1.691-18.067,4.222s.062,13.61,6.979,17.191,15.005,1.691,18.066-4.222-.063-13.61-6.978-17.191" fill="#5c9a76"/>
        <path id="Trazado_713659" data-name="Trazado 713659" d="M528.938,148.527c-9.681,6.284-13.173,18.089-7.8,26.365s17.576,9.892,27.257,3.608,13.173-18.089,7.8-26.366-17.576-9.891-27.257-3.607" fill="#5c9a76"/>
        <path id="Trazado_713660" data-name="Trazado 713660" d="M442.134,187.828c7.218,4.658,16.3,3.431,20.281-2.74s1.359-14.951-5.859-19.609-16.3-3.431-20.281,2.74-1.36,14.951,5.859,19.609" fill="#5c9a76"/>
        <path id="Trazado_713661" data-name="Trazado 713661" d="M866.642,482.652a16.245,16.245,0,0,1-.291,3.938c-.083.458-.194.915-.319,1.373a35.148,35.148,0,0,1-2.455,6.226c-.235.458-.457.915-.693,1.373-1.04,2.066-2.135,4.118-3.051,6.212-.194.457-.388.915-.568,1.373a21.3,21.3,0,0,0-1.512,6.24c-.027.36-.041.735-.041,1.1a2.021,2.021,0,0,0,.014.291A18.726,18.726,0,0,0,859,517.055c.167.471.347.929.541,1.4.888,2.136,2.011,4.23,3.093,6.31.235.471.485.943.721,1.414.3.6.6,1.206.887,1.8a17.72,17.72,0,0,1,1.387,4.492c.083.458.152.916.194,1.387a20.64,20.64,0,0,1-.236,6.268c-.083.471-.194.929-.319,1.373a13.108,13.108,0,0,1-2.995,5.56H838.4a11.227,11.227,0,0,0,3.037-5.99c.1-.458.166-.916.221-1.373a23.988,23.988,0,0,0-.221-6.268c-.07-.457-.153-.915-.236-1.387a45.167,45.167,0,0,0-1.719-6.295c-.167-.485-.333-.943-.5-1.4-.111-.278-.208-.555-.319-.818-.707-1.817-1.5-3.647-2.26-5.492-.194-.457-.388-.929-.568-1.4a51.445,51.445,0,0,1-2.191-6.309c-.125-.458-.236-.916-.333-1.387a21.705,21.705,0,0,1-.555-6.268c.028-.457.069-.915.139-1.386.028-.153.041-.3.069-.458a22.486,22.486,0,0,1,1.886-5.768c.222-.472.444-.929.679-1.387,1.054-2.094,2.261-4.132,3.37-6.2q.354-.687.707-1.373a26.157,26.157,0,0,0,2.26-6.226q.063-.375.125-.749.042-.312.083-.624a23.154,23.154,0,0,0-.194-6.268c-.055-.457-.138-.929-.222-1.4-.374-2.094-.887-4.174-1.331-6.282-.1-.458-.194-.929-.277-1.4a32,32,0,0,1-.652-5.838c0-.139,0-.291.014-.43,0-.471.014-.929.056-1.387a29.3,29.3,0,0,1,1.206-6.253c.139-.458.291-.916.444-1.373a65.1,65.1,0,0,1,2.551-6.226c.208-.458.43-.916.638-1.359.111-.222.208-.444.319-.666.873-1.83,1.775-3.675,2.593-5.547.222-.457.416-.929.6-1.386a42.464,42.464,0,0,0,2.205-6.212c.125-.458.236-.929.333-1.4a25.449,25.449,0,0,0,.471-2.912,22.067,22.067,0,0,0,.083-3.328c-.027-.457-.069-.929-.124-1.386a18.259,18.259,0,0,0-1.914-6.31,11.125,11.125,0,0,0-.846-1.4,12.58,12.58,0,0,0-3.979-3.855,31.284,31.284,0,0,1,9.276,3.952,22.662,22.662,0,0,1,2,1.428,24.781,24.781,0,0,1,5.865,6.379c.306.443.583.915.846,1.386.028.056.07.125.1.181a27.4,27.4,0,0,1,2.427,6.129,12.018,12.018,0,0,1,.347,1.4,28.881,28.881,0,0,1,.693,6.268c0,.471-.014.929-.041,1.4a28.007,28.007,0,0,1-.971,6.24q-.187.687-.416,1.373a1.618,1.618,0,0,1-.069.236c-.694,2.024-1.609,4.007-2.5,5.99-.208.458-.417.915-.611,1.373a30.925,30.925,0,0,0-2.135,6.226,11.624,11.624,0,0,0-.208,1.387,12.816,12.816,0,0,0-.125,2.066,15.818,15.818,0,0,0,.68,4.2,13.616,13.616,0,0,0,.457,1.4,50.791,50.791,0,0,0,2.94,6.309c.236.472.485.929.721,1.4a34.772,34.772,0,0,1,2.662,6.323,11.852,11.852,0,0,1,.361,1.386,16.374,16.374,0,0,1,.305,2.33" fill="#3a5f58"/>
        <path id="Trazado_713662" data-name="Trazado 713662" d="M865.588,540.128a14.092,14.092,0,0,1-.319,1.373q-11.918-.208-23.837-.43c.1-.458.167-.915.222-1.373q11.961.23,23.934.43" fill="#5c9a76"/>
        <path id="Trazado_713663" data-name="Trazado 713663" d="M865.824,533.861q-12.189-.209-24.391-.43c-.07-.457-.153-.915-.236-1.387q12.21.208,24.433.43c.083.458.152.916.194,1.387" fill="#5c9a76"/>
        <path id="Trazado_713664" data-name="Trazado 713664" d="M863.355,526.179q-11.938-.209-23.878-.43c-.167-.485-.333-.943-.5-1.4.332,0,.665.014,1,.014q11.336.207,22.658.4c.236.471.485.943.721,1.414" fill="#5c9a76"/>
        <path id="Trazado_713665" data-name="Trazado 713665" d="M859.542,518.455l-23.143-.416c-.194-.458-.388-.929-.569-1.4l4.146.083,19.025.332c.167.472.347.93.541,1.4" fill="#5c9a76"/>
        <path id="Trazado_713666" data-name="Trazado 713666" d="M857.712,510.482a2.021,2.021,0,0,0,.014.291q-12.043-.228-24.086-.443c-.125-.458-.236-.916-.333-1.387l6.67.125q8.882.166,17.777.319c-.028.36-.042.735-.042,1.1" fill="#5c9a76"/>
        <path id="Trazado_713667" data-name="Trazado 713667" d="M859.833,501.773c-.194.459-.388.916-.568,1.374q-13.251-.231-26.513-.473c.027-.457.069-.914.138-1.385l7.086.124q9.921.188,19.857.36" fill="#5c9a76"/>
        <path id="Trazado_713668" data-name="Trazado 713668" d="M863.577,494.189c-.236.458-.457.915-.693,1.373l-28.038-.5c.222-.472.443-.929.679-1.387l4.451.083q11.794.209,23.6.43" fill="#5c9a76"/>
        <path id="Trazado_713669" data-name="Trazado 713669" d="M866.351,486.59c-.083.458-.2.915-.32,1.373q-13.562-.23-27.137-.486.354-.686.708-1.372a3.363,3.363,0,0,0,.375.014q13.187.228,26.374.471" fill="#5c9a76"/>
        <path id="Trazado_713670" data-name="Trazado 713670" d="M866.337,480.322q-12.229-.229-24.474-.444c.041-.249.083-.5.125-.748q.041-.312.083-.624,11.96.207,23.906.429a12.115,12.115,0,0,1,.36,1.387" fill="#5c9a76"/>
        <path id="Trazado_713671" data-name="Trazado 713671" d="M863.314,472.612c-7.141-.125-14.3-.263-21.437-.374-.056-.458-.139-.929-.222-1.4l20.938.374c.236.472.486.93.721,1.4" fill="#5c9a76"/>
        <path id="Trazado_713672" data-name="Trazado 713672" d="M859.653,464.9q-9.672-.165-19.33-.346c-.1-.457-.194-.929-.277-1.4q9.567.166,19.149.346a13.685,13.685,0,0,0,.458,1.4" fill="#5c9a76"/>
        <path id="Trazado_713673" data-name="Trazado 713673" d="M858.849,455.848a11.429,11.429,0,0,0-.208,1.387q-9.609-.187-19.233-.347c0-.471.014-.929.056-1.387.166.014.346.014.513.014l18.872.333" fill="#5c9a76"/>
        <path id="Trazado_713674" data-name="Trazado 713674" d="M861.594,448.249c-.208.458-.416.915-.61,1.373l-20.314-.374c.138-.458.291-.916.443-1.373l20.481.374" fill="#5c9a76"/>
        <path id="Trazado_713675" data-name="Trazado 713675" d="M864.576,440.65q-.187.687-.416,1.373l-20.495-.374c.208-.458.43-.916.638-1.359q10.13.165,20.273.36" fill="#5c9a76"/>
        <path id="Trazado_713676" data-name="Trazado 713676" d="M865.588,433.009c0,.471-.014.929-.041,1.4l-18.332-.332c.222-.458.416-.929.6-1.387q8.882.166,17.777.319" fill="#5c9a76"/>
        <path id="Trazado_713677" data-name="Trazado 713677" d="M864.894,426.742c-4.964-.083-9.915-.18-14.879-.263.125-.458.236-.93.333-1.4,4.729.1,9.471.18,14.2.263a12.046,12.046,0,0,1,.347,1.4" fill="#5c9a76"/>
        <path id="Trazado_713678" data-name="Trazado 713678" d="M862.024,419.032c-3.7-.069-7.419-.125-11.121-.194-.028-.458-.069-.929-.125-1.387,3.467.07,6.933.125,10.4.194.3.444.582.916.846,1.387" fill="#5c9a76"/>
        <path id="Trazado_713679" data-name="Trazado 713679" d="M855.313,411.267l-6.448-.125a11.054,11.054,0,0,0-.846-1.4c1.761.041,3.536.069,5.3.1a22.462,22.462,0,0,1,2,1.428" fill="#5c9a76"/>
        <path id="Trazado_713680" data-name="Trazado 713680" d="M816.227,493.177a15.121,15.121,0,0,1,.777,3.608c.046.432.068.872.076,1.315a32.854,32.854,0,0,1-.559,6.23c-.09.473-.169.941-.259,1.414-.388,2.127-.829,4.256-1.1,6.375-.053.461-.107.923-.148,1.38a19.952,19.952,0,0,0,.29,5.994c.071.331.157.67.252.994a1.826,1.826,0,0,0,.089.257,17.5,17.5,0,0,0,2.8,5.3c.274.379.556.742.855,1.113,1.358,1.681,2.918,3.263,4.436,4.842.336.361.684.718,1.02,1.078.43.455.852.925,1.271,1.383a16.552,16.552,0,0,1,2.428,3.663c.2.388.378.78.539,1.192a19.29,19.29,0,0,1,1.442,5.682c.049.445.07.885.076,1.315a12.253,12.253,0,0,1-1.22,5.776l-21.411,6.3a10.487,10.487,0,0,0,1.143-6.172c-.033-.436-.092-.864-.162-1.289a22.435,22.435,0,0,0-1.852-5.562c-.183-.392-.378-.78-.577-1.181a42.243,42.243,0,0,0-3.2-5.192c-.277-.391-.547-.758-.817-1.124-.172-.219-.333-.442-.5-.649-1.113-1.443-2.3-2.876-3.474-4.328-.295-.359-.593-.731-.879-1.106a48.077,48.077,0,0,1-3.628-5.08c-.233-.377-.453-.758-.664-1.155a20.3,20.3,0,0,1-2.151-5.474c-.095-.418-.179-.839-.241-1.28-.015-.144-.043-.285-.058-.429a21.016,21.016,0,0,1,.17-5.67c.074-.481.153-.95.243-1.422.393-2.156.938-4.3,1.387-6.447l.273-1.417a24.5,24.5,0,0,0,.384-6.179c-.028-.235-.056-.469-.085-.7l-.09-.582a21.642,21.642,0,0,0-1.827-5.568c-.17-.4-.369-.8-.568-1.2-.888-1.779-1.9-3.508-2.85-5.281-.207-.385-.419-.782-.618-1.183a29.9,29.9,0,0,1-2.124-5.063c-.036-.124-.076-.261-.1-.389-.125-.423-.233-.837-.316-1.258a27.393,27.393,0,0,1-.568-5.926c0-.447.02-.9.036-1.348a61,61,0,0,1,.646-6.255c.066-.465.144-.934.214-1.387.041-.228.069-.453.111-.681.3-1.872.622-3.763.862-5.657.078-.469.128-.943.169-1.4a39.758,39.758,0,0,0,.339-6.152c-.009-.443-.033-.9-.071-1.343a23.787,23.787,0,0,0-.345-2.736,20.682,20.682,0,0,0-.8-3.006c-.145-.4-.307-.814-.477-1.21a17.054,17.054,0,0,0-3.38-5.153,10.413,10.413,0,0,0-1.128-1.033,11.756,11.756,0,0,0-4.584-2.407,29.226,29.226,0,0,1,9.36,1.1,21.094,21.094,0,0,1,2.167.754,23.162,23.162,0,0,1,6.941,4.173c.391.317.764.667,1.124,1.02.04.043.1.094.135.136a25.621,25.621,0,0,1,3.792,4.856,11.483,11.483,0,0,1,.68,1.164,26.9,26.9,0,0,1,2.274,5.438c.125.422.233.836.332,1.266a26.112,26.112,0,0,1,.775,5.852q.013.664-.01,1.34a1.478,1.478,0,0,1,0,.23c-.087,2-.385,4.018-.658,6.03-.066.465-.132.93-.185,1.391a28.9,28.9,0,0,0-.273,6.146,10.666,10.666,0,0,0,.179,1.3,11.9,11.9,0,0,0,.433,1.885,14.786,14.786,0,0,0,1.717,3.588,12.716,12.716,0,0,0,.779,1.135,47.477,47.477,0,0,0,4.3,4.883c.336.36.68.7,1.016,1.065a32.523,32.523,0,0,1,4.054,4.968,10.949,10.949,0,0,1,.689,1.149,14.994,14.994,0,0,1,.888,2.008" fill="#3a5f58"/>
        <path id="Trazado_713681" data-name="Trazado 713681" d="M830.438,544.994a13.121,13.121,0,0,1,.076,1.315q-10.741,2.957-21.487,5.9c-.034-.436-.092-.865-.163-1.29q10.783-2.948,21.574-5.925" fill="#5c9a76"/>
        <path id="Trazado_713682" data-name="Trazado 713682" d="M829,539.311q-10.984,3.027-21.985,6.046c-.182-.392-.377-.78-.577-1.181q11-3.033,22.022-6.057c.2.388.378.78.54,1.192" fill="#5c9a76"/>
        <path id="Trazado_713683" data-name="Trazado 713683" d="M824.758,533.074q-10.761,2.961-21.524,5.911c-.278-.391-.548-.758-.818-1.124.3-.088.6-.163.9-.251q10.22-2.8,20.422-5.614c.336.361.684.717,1.02,1.078" fill="#5c9a76"/>
        <path id="Trazado_713684" data-name="Trazado 713684" d="M819.3,527.154l-20.862,5.729c-.295-.359-.593-.73-.879-1.1l3.74-1.019,17.147-4.718c.273.379.556.742.854,1.113" fill="#5c9a76"/>
        <path id="Trazado_713685" data-name="Trazado 713685" d="M815.558,520.487a1.959,1.959,0,0,0,.089.257q-10.858,2.971-21.714,5.954c-.233-.378-.453-.759-.664-1.156l6.013-1.647q8.008-2.193,16.024-4.4c.071.33.157.67.252.993" fill="#5c9a76"/>
        <path id="Trazado_713686" data-name="Trazado 713686" d="M815.165,512.119c-.053.461-.107.923-.148,1.381q-11.94,3.288-23.9,6.568c-.1-.418-.179-.839-.241-1.28l6.387-1.756q8.945-2.449,17.9-4.913" fill="#5c9a76"/>
        <path id="Trazado_713687" data-name="Trazado 713687" d="M816.522,504.33c-.091.473-.169.941-.26,1.414l-25.273,6.945c.075-.481.153-.95.244-1.422l4.013-1.1q10.631-2.924,21.276-5.838" fill="#5c9a76"/>
        <path id="Trazado_713688" data-name="Trazado 713688" d="M817.005,496.785c.046.432.067.872.076,1.315q-12.22,3.37-24.461,6.72.137-.708.272-1.417c.116-.021.228-.054.34-.086q11.885-3.273,23.773-6.532" fill="#5c9a76"/>
        <path id="Trazado_713689" data-name="Trazado 713689" d="M815.34,491.169q-11.027,3.02-22.063,6.056c-.028-.235-.057-.47-.085-.705l-.09-.581q10.779-2.967,21.549-5.918a11.036,11.036,0,0,1,.689,1.148" fill="#5c9a76"/>
        <path id="Trazado_713690" data-name="Trazado 713690" d="M810.6,485.053q-9.654,2.656-19.321,5.317c-.171-.4-.37-.8-.569-1.2l18.874-5.186c.336.361.68.7,1.016,1.066" fill="#5c9a76"/>
        <path id="Trazado_713691" data-name="Trazado 713691" d="M805.281,479.105q-8.717,2.4-17.424,4.786c-.208-.385-.419-.782-.618-1.183q8.623-2.373,17.262-4.738a12.943,12.943,0,0,0,.78,1.135" fill="#5c9a76"/>
        <path id="Trazado_713692" data-name="Trazado 713692" d="M802.172,471.2a10.845,10.845,0,0,0,.179,1.3q-8.666,2.365-17.337,4.761c-.124-.423-.233-.837-.316-1.258.153-.032.315-.079.464-.123l17.01-4.678" fill="#5c9a76"/>
        <path id="Trazado_713693" data-name="Trazado 713693" d="M802.63,463.66c-.066.465-.132.93-.185,1.392l-18.314,5.021c0-.447.019-.9.035-1.348l18.464-5.065" fill="#5c9a76"/>
        <path id="Trazado_713694" data-name="Trazado 713694" d="M803.3,456.06q.014.664-.011,1.341l-18.476,5.068c.066-.465.144-.934.214-1.387q9.126-2.521,18.273-5.022" fill="#5c9a76"/>
        <path id="Trazado_713695" data-name="Trazado 713695" d="M802.193,448.942c.124.423.233.837.332,1.267L786,454.744c.078-.469.128-.943.169-1.4q8.007-2.191,16.024-4.4" fill="#5c9a76"/>
        <path id="Trazado_713696" data-name="Trazado 713696" d="M799.919,443.505c-4.473,1.234-8.938,2.453-13.411,3.687-.009-.443-.034-.895-.071-1.344q6.4-1.738,12.8-3.507a11.266,11.266,0,0,1,.68,1.164" fill="#5c9a76"/>
        <path id="Trazado_713697" data-name="Trazado 713697" d="M795.312,437.348c-3.338.914-6.685,1.844-10.023,2.758-.146-.4-.308-.815-.478-1.21,3.127-.852,6.25-1.716,9.377-2.568.39.317.763.667,1.124,1.02" fill="#5c9a76"/>
        <path id="Trazado_713698" data-name="Trazado 713698" d="M787.246,432.155l-5.815,1.588a10.2,10.2,0,0,0-1.127-1.032c1.59-.427,3.189-.871,4.775-1.31a21.094,21.094,0,0,1,2.167.754" fill="#5c9a76"/>
        <path id="Trazado_713699" data-name="Trazado 713699" d="M858.144,494.321a16.175,16.175,0,0,0-.507,3.916c-.011.465.006.936.036,1.409a35.173,35.173,0,0,0,1.151,6.593c.139.495.264.988.4,1.484.6,2.233,1.263,4.464,1.738,6.7.1.487.2.975.28,1.459a21.283,21.283,0,0,1,.225,6.417c-.045.358-.107.728-.18,1.081a1.981,1.981,0,0,1-.072.282,18.722,18.722,0,0,1-2.514,5.9c-.258.428-.526.84-.811,1.263-1.3,1.913-2.821,3.738-4.3,5.557-.326.415-.665.827-.991,1.241-.419.522-.827,1.062-1.232,1.587a17.736,17.736,0,0,0-2.263,4.122c-.173.431-.333.866-.469,1.319a20.646,20.646,0,0,0-1.03,6.187,13.947,13.947,0,0,0,.036,1.409,13.1,13.1,0,0,0,1.815,6.049l23.389,4.806a11.226,11.226,0,0,1-1.769-6.479c0-.468.021-.93.059-1.389a23.968,23.968,0,0,1,1.479-6.095c.16-.434.333-.866.51-1.311A45.2,45.2,0,0,1,876.079,542c.261-.441.516-.856.771-1.271.164-.249.315-.5.477-.737,1.058-1.637,2.2-3.271,3.319-4.924.283-.409.567-.832.839-1.257a51.577,51.577,0,0,0,3.416-5.74c.214-.423.415-.849.6-1.291a21.706,21.706,0,0,0,1.8-6.028c.065-.454.116-.91.143-1.386,0-.155.02-.307.024-.462a22.487,22.487,0,0,0-.686-6.03c-.123-.507-.248-1-.387-1.5-.611-2.263-1.382-4.5-2.053-6.75q-.208-.742-.416-1.487a26.177,26.177,0,0,1-.961-6.554q.014-.378.028-.758c.015-.209.029-.419.044-.628a23.16,23.16,0,0,1,1.452-6.1c.146-.437.323-.882.5-1.328.788-1.975,1.709-3.909,2.568-5.885.187-.429.377-.871.554-1.316a32.03,32.03,0,0,0,1.813-5.587c.028-.136.059-.285.073-.424.1-.462.173-.913.224-1.369a29.278,29.278,0,0,0,.077-6.369c-.043-.476-.1-.955-.158-1.434a65.238,65.238,0,0,0-1.246-6.612c-.112-.49-.237-.983-.351-1.46-.064-.239-.115-.476-.179-.716-.487-1.968-1-3.956-1.424-5.955-.125-.493-.22-.993-.3-1.478a42.567,42.567,0,0,1-.909-6.529c-.03-.473-.044-.957-.044-1.439a25.527,25.527,0,0,1,.124-2.947,22.193,22.193,0,0,1,.588-3.276c.12-.443.255-.9.4-1.334a18.244,18.244,0,0,1,3.144-5.8,10.984,10.984,0,0,1,1.111-1.2,12.563,12.563,0,0,1,4.673-2.975,31.258,31.258,0,0,0-9.882,2,22.734,22.734,0,0,0-2.243,1,24.787,24.787,0,0,0-7.029,5.067c-.389.374-.755.78-1.108,1.188-.038.049-.093.109-.131.158a27.361,27.361,0,0,0-3.611,5.515,12.03,12.03,0,0,0-.621,1.3,28.781,28.781,0,0,0-1.941,6c-.095.462-.173.913-.241,1.38a27.972,27.972,0,0,0-.305,6.308q.045.709.131,1.428a1.477,1.477,0,0,0,.021.245c.271,2.122.769,4.249,1.239,6.37.111.49.223.98.321,1.467a30.906,30.906,0,0,1,.839,6.529,11.542,11.542,0,0,1-.075,1.4,12.868,12.868,0,0,1-.294,2.049,15.839,15.839,0,0,1-1.511,3.979,13.967,13.967,0,0,1-.73,1.28,50.94,50.94,0,0,1-4.149,5.588c-.326.415-.663.812-.989,1.227a34.811,34.811,0,0,0-3.88,5.658,11.856,11.856,0,0,0-.632,1.285,16.263,16.263,0,0,0-.768,2.221" fill="#5c9a76"/>
        <path id="Trazado_713700" data-name="Trazado 713700" d="M847.609,550.834c-.013.479,0,.949.036,1.409q11.716,2.195,23.436,4.376c0-.468.02-.93.058-1.389q-11.76-2.184-23.53-4.4" fill="#6fb38b"/>
        <path id="Trazado_713701" data-name="Trazado 713701" d="M848.639,544.647q11.982,2.25,23.979,4.488c.16-.434.333-.866.51-1.311q-12-2.253-24.02-4.5c-.173.431-.333.866-.469,1.319" fill="#6fb38b"/>
        <path id="Trazado_713702" data-name="Trazado 713702" d="M852.6,537.619q11.736,2.2,23.476,4.385c.261-.442.516-.857.771-1.272-.326-.067-.655-.12-.981-.187q-11.145-2.078-22.275-4.166c-.326.414-.665.826-.991,1.24" fill="#6fb38b"/>
        <path id="Trazado_713703" data-name="Trazado 713703" d="M857.893,530.821l22.753,4.25c.283-.409.568-.832.839-1.257l-4.078-.753-18.7-3.5c-.258.428-.527.84-.812,1.263" fill="#6fb38b"/>
        <path id="Trazado_713704" data-name="Trazado 713704" d="M861.29,523.379a2.175,2.175,0,0,1-.072.283q11.842,2.2,23.682,4.412c.215-.423.415-.849.6-1.291l-6.558-1.22q-8.733-1.625-17.477-3.265c-.046.358-.107.728-.18,1.081" fill="#6fb38b"/>
        <path id="Trazado_713705" data-name="Trazado 713705" d="M860.965,514.422c.1.487.2.975.28,1.459q13.024,2.442,26.066,4.874c.065-.454.116-.91.143-1.386l-6.966-1.3q-9.756-1.813-19.523-3.643" fill="#6fb38b"/>
        <path id="Trazado_713706" data-name="Trazado 713706" d="M858.824,506.239c.139.5.264.988.4,1.484l27.565,5.154c-.123-.506-.248-1-.387-1.5l-4.377-.814q-11.594-2.17-23.2-4.329" fill="#6fb38b"/>
        <path id="Trazado_713707" data-name="Trazado 713707" d="M857.637,498.237c-.011.465.006.935.036,1.409q13.331,2.505,26.679,4.986-.208-.744-.416-1.487a3.526,3.526,0,0,1-.37-.062q-12.963-2.43-25.929-4.846" fill="#6fb38b"/>
        <path id="Trazado_713708" data-name="Trazado 713708" d="M858.912,492.1q12.026,2.238,24.063,4.491c.009-.253.019-.506.028-.759q.023-.314.044-.627-11.757-2.2-23.5-4.391a12.148,12.148,0,0,0-.632,1.286" fill="#6fb38b"/>
        <path id="Trazado_713709" data-name="Trazado 713709" d="M863.424,485.157q10.53,1.972,21.074,3.948c.147-.437.323-.882.5-1.327l-20.586-3.848c-.326.415-.662.813-.988,1.227" fill="#6fb38b"/>
        <path id="Trazado_713710" data-name="Trazado 713710" d="M868.562,478.341q9.508,1.785,19,3.552c.187-.429.377-.871.554-1.316q-9.406-1.762-18.828-3.516a13.242,13.242,0,0,1-.73,1.28" fill="#6fb38b"/>
        <path id="Trazado_713711" data-name="Trazado 713711" d="M871.172,469.634a11.542,11.542,0,0,1-.075,1.4q9.45,1.75,18.909,3.531c.1-.462.173-.913.224-1.369-.165-.02-.342-.056-.505-.09l-18.553-3.472" fill="#6fb38b"/>
        <path id="Trazado_713712" data-name="Trazado 713712" d="M870.012,461.638c.112.49.223.98.321,1.468l19.974,3.721c-.043-.476-.1-.955-.158-1.434l-20.137-3.755" fill="#6fb38b"/>
        <path id="Trazado_713713" data-name="Trazado 713713" d="M868.621,453.6q.045.709.131,1.428l20.151,3.758c-.112-.49-.237-.983-.351-1.459q-9.956-1.875-19.931-3.727" fill="#6fb38b"/>
        <path id="Trazado_713714" data-name="Trazado 713714" d="M869.167,445.907c-.095.462-.173.913-.241,1.38l18.023,3.364c-.125-.493-.22-.994-.3-1.479q-8.733-1.625-17.477-3.265" fill="#6fb38b"/>
        <path id="Trazado_713715" data-name="Trazado 713715" d="M871.108,439.907c4.879.918,9.748,1.819,14.627,2.736-.03-.473-.044-.957-.044-1.438q-6.977-1.285-13.962-2.6a12.228,12.228,0,0,0-.621,1.3" fill="#6fb38b"/>
        <path id="Trazado_713716" data-name="Trazado 713716" d="M875.471,432.932c3.641.677,7.292,1.371,10.932,2.048.12-.443.255-.9.4-1.333-3.41-.63-6.817-1.273-10.226-1.9-.388.373-.755.779-1.108,1.188" fill="#6fb38b"/>
        <path id="Trazado_713717" data-name="Trazado 713717" d="M883.608,426.677l6.341,1.175a10.984,10.984,0,0,1,1.111-1.2c-1.734-.314-3.478-.644-5.209-.971a22.734,22.734,0,0,0-2.243,1" fill="#6fb38b"/>
        <path id="Trazado_713718" data-name="Trazado 713718" d="M809.7,487.866a15.058,15.058,0,0,0,.626,3.618c.118.416.262.83.419,1.242a32.686,32.686,0,0,0,2.834,5.541c.259.4.506.8.766,1.208,1.149,1.818,2.348,3.618,3.384,5.473.221.406.443.812.651,1.22a19.789,19.789,0,0,1,1.962,5.638c.059.331.105.676.138,1.01a1.876,1.876,0,0,1,.013.271,17.411,17.411,0,0,1-.613,5.929c-.111.451-.237.891-.374,1.345-.628,2.056-1.478,4.1-2.291,6.119-.176.457-.365.916-.54,1.374-.228.579-.443,1.17-.659,1.748a16.516,16.516,0,0,0-.877,4.284c-.035.431-.058.861-.054,1.3a19.209,19.209,0,0,0,.784,5.779,13.109,13.109,0,0,0,.42,1.242,12.187,12.187,0,0,0,3.274,4.876l22.1-2.158a10.443,10.443,0,0,1-3.352-5.27c-.131-.415-.237-.832-.33-1.25a22.317,22.317,0,0,1-.361-5.821c.023-.43.059-.861.093-1.3a41.945,41.945,0,0,1,1.023-5.982c.11-.464.222-.9.335-1.341.078-.267.143-.532.221-.786.491-1.745,1.057-3.511,1.6-5.286.138-.442.275-.9.4-1.348a47.981,47.981,0,0,0,1.457-6.037c.074-.435.136-.869.183-1.314a20.158,20.158,0,0,0-.053-5.851c-.067-.421-.147-.84-.254-1.271-.039-.138-.066-.278-.105-.417a20.911,20.911,0,0,0-2.267-5.168c-.248-.416-.494-.82-.754-1.222-1.165-1.843-2.465-3.62-3.679-5.432q-.388-.6-.778-1.207a24.356,24.356,0,0,1-2.655-5.558l-.183-.682c-.044-.19-.089-.38-.133-.57a21.512,21.512,0,0,1-.387-5.818c.01-.428.044-.872.079-1.316.157-1.972.444-3.943.664-5.934.048-.432.1-.878.13-1.322a29.773,29.773,0,0,0,.076-5.461c-.013-.129-.026-.27-.052-.4-.042-.436-.1-.858-.176-1.278a27.279,27.279,0,0,0-1.682-5.679c-.17-.411-.352-.821-.535-1.231a60.677,60.677,0,0,0-2.924-5.531c-.234-.4-.48-.809-.713-1.2-.123-.2-.232-.392-.355-.588-.974-1.615-1.975-3.24-2.9-4.9-.246-.4-.468-.822-.677-1.229a39.492,39.492,0,0,1-2.6-5.55c-.157-.413-.3-.839-.435-1.267a23.71,23.71,0,0,1-.7-2.652,20.659,20.659,0,0,1-.377-3.073c-.016-.426-.02-.866-.01-1.294a16.944,16.944,0,0,1,1.2-6.012,10.227,10.227,0,0,1,.656-1.373,11.7,11.7,0,0,1,3.335-3.928,29.108,29.108,0,0,0-8.229,4.5,21.228,21.228,0,0,0-1.719,1.5,23.068,23.068,0,0,0-4.852,6.433c-.242.438-.456.9-.657,1.36-.021.054-.053.122-.074.176a25.5,25.5,0,0,0-1.692,5.891,11.216,11.216,0,0,0-.194,1.328,26.852,26.852,0,0,0-.076,5.863c.043.437.1.859.165,1.293a26.024,26.024,0,0,0,1.463,5.687c.157.413.326.823.509,1.233a1.4,1.4,0,0,0,.085.212c.825,1.811,1.851,3.564,2.852,5.319.233.4.467.809.688,1.215a28.707,28.707,0,0,1,2.539,5.569,10.538,10.538,0,0,1,.318,1.265,11.85,11.85,0,0,1,.3,1.9,14.691,14.691,0,0,1-.249,3.95,12.539,12.539,0,0,1-.3,1.337,47.048,47.048,0,0,1-2.15,6.1c-.176.458-.366.9-.541,1.362a32.323,32.323,0,0,0-1.893,6.092,11.086,11.086,0,0,0-.208,1.316,15.11,15.11,0,0,0-.072,2.184" fill="#5c9a76"/>
        <path id="Trazado_713719" data-name="Trazado 713719" d="M815.872,540.966c.12.429.264.842.419,1.242q11.012-1.27,22.022-2.552c-.131-.415-.236-.832-.329-1.251q-11.049,1.293-22.112,2.561" fill="#6fb38b"/>
        <path id="Trazado_713720" data-name="Trazado 713720" d="M815.088,535.187q11.262-1.295,22.536-2.6c.022-.43.058-.861.092-1.3q-11.28,1.3-22.574,2.606c-.035.431-.058.861-.054,1.3" fill="#6fb38b"/>
        <path id="Trazado_713721" data-name="Trazado 713721" d="M816.678,527.854q11.031-1.272,22.061-2.556c.11-.464.223-.9.335-1.341-.308.03-.615.073-.923.1q-10.472,1.216-20.933,2.42c-.176.457-.365.916-.54,1.374" fill="#6fb38b"/>
        <path id="Trazado_713722" data-name="Trazado 713722" d="M819.509,520.361l21.382-2.476c.138-.441.275-.9.4-1.348l-3.829.452-17.578,2.027c-.111.451-.237.891-.374,1.345" fill="#6fb38b"/>
        <path id="Trazado_713723" data-name="Trazado 713723" d="M820.483,512.816a1.9,1.9,0,0,1,.013.272q11.126-1.3,22.252-2.587c.074-.435.136-.869.183-1.314l-6.162.718q-8.2.957-16.424,1.9c.059.331.105.676.138,1.009" fill="#6fb38b"/>
        <path id="Trazado_713724" data-name="Trazado 713724" d="M817.732,504.949c.221.406.442.812.65,1.219q12.243-1.408,24.5-2.832c-.067-.421-.147-.841-.254-1.271l-6.547.756q-9.165,1.069-18.345,2.128" fill="#6fb38b"/>
        <path id="Trazado_713725" data-name="Trazado 713725" d="M813.582,498.267c.259.4.506.806.766,1.208l25.9-3c-.248-.416-.494-.82-.754-1.222l-4.112.479q-10.9,1.259-21.8,2.531" fill="#6fb38b"/>
        <path id="Trazado_713726" data-name="Trazado 713726" d="M810.328,491.485c.118.416.262.829.419,1.242q12.531-1.438,25.072-2.9l-.779-1.206a3.1,3.1,0,0,1-.345.046q-12.184,1.4-24.367,2.82" fill="#6fb38b"/>
        <path id="Trazado_713727" data-name="Trazado 713727" d="M809.775,485.683q11.3-1.317,22.611-2.622l-.183-.682c-.044-.19-.089-.38-.133-.57q-11.051,1.273-22.087,2.558a11.053,11.053,0,0,0-.208,1.316" fill="#6fb38b"/>
        <path id="Trazado_713728" data-name="Trazado 713728" d="M811.876,478.274c6.6-.761,13.208-1.536,19.807-2.284.01-.428.044-.872.079-1.316l-19.345,2.239c-.176.457-.365.9-.541,1.361" fill="#6fb38b"/>
        <path id="Trazado_713729" data-name="Trazado 713729" d="M814.567,470.808q8.937-1.028,17.859-2.068c.048-.432.1-.877.13-1.321q-8.84,1.018-17.692,2.051a12.874,12.874,0,0,1-.3,1.338" fill="#6fb38b"/>
        <path id="Trazado_713730" data-name="Trazado 713730" d="M814.493,462.355a10.724,10.724,0,0,1,.318,1.265q8.877-1.043,17.769-2.059c-.043-.437-.1-.859-.177-1.279-.153.028-.32.045-.474.06l-17.436,2.013" fill="#6fb38b"/>
        <path id="Trazado_713731" data-name="Trazado 713731" d="M811.266,455.57c.234.4.468.809.689,1.215l18.767-2.182c-.17-.411-.352-.821-.535-1.23l-18.921,2.2" fill="#6fb38b"/>
        <path id="Trazado_713732" data-name="Trazado 713732" d="M807.82,448.806q.235.619.509,1.233l18.934-2.2c-.233-.4-.48-.808-.713-1.2q-9.36,1.07-18.73,2.165" fill="#6fb38b"/>
        <path id="Trazado_713733" data-name="Trazado 713733" d="M806.192,441.827c.043.436.1.859.165,1.293l16.936-1.965c-.247-.4-.469-.822-.677-1.23q-8.205.957-16.424,1.9" fill="#6fb38b"/>
        <path id="Trazado_713734" data-name="Trazado 713734" d="M806.268,435.963c4.587-.526,9.16-1.063,13.747-1.588-.157-.413-.3-.839-.435-1.266-4.367.517-8.749,1.022-13.118,1.526a11.216,11.216,0,0,0-.194,1.328" fill="#6fb38b"/>
        <path id="Trazado_713735" data-name="Trazado 713735" d="M808.227,428.568c3.42-.4,6.855-.786,10.275-1.185-.016-.426-.02-.866-.01-1.294-3.2.377-6.405.742-9.607,1.119-.243.438-.457.9-.658,1.36" fill="#6fb38b"/>
        <path id="Trazado_713736" data-name="Trazado 713736" d="M813.737,420.775l5.956-.7a10.292,10.292,0,0,1,.657-1.373c-1.626.2-3.267.384-4.894.569a20.859,20.859,0,0,0-1.719,1.5" fill="#6fb38b"/>
        <path id="Trazado_713737" data-name="Trazado 713737" d="M812.152,648.048a140.054,140.054,0,0,0,59.268,0,15.106,15.106,0,0,0,11.947-14.765V540.61H800.206v92.673a15.1,15.1,0,0,0,11.946,14.765" fill="#fbd46d"/>
        <rect id="Rectángulo_348686" data-name="Rectángulo 348686" width="8.966" height="142.691" transform="translate(837.303 530.605)" fill="#a77256"/>
        <rect id="Rectángulo_348687" data-name="Rectángulo 348687" width="8.966" height="142.691" transform="translate(879.65 530.605)" fill="#a77256"/>
        <rect id="Rectángulo_348688" data-name="Rectángulo 348688" width="8.966" height="142.691" transform="translate(794.956 530.605)" fill="#a77256"/>
        <path id="Trazado_713738" data-name="Trazado 713738" d="M646.8,193.992H910.63a16.832,16.832,0,0,0,16.832-16.832V125.851a16.832,16.832,0,0,0-16.832-16.832H646.8a16.832,16.832,0,0,0-16.832,16.832V177.16A16.832,16.832,0,0,0,646.8,193.992" fill="#fff"/>
        <path id="Trazado_713739" data-name="Trazado 713739" d="M660,138.593h-5.241v4.861H660.6v1.46h-7.581V131.432H660.3v1.46h-5.541v4.261H660Z"/>
        <path id="Trazado_713740" data-name="Trazado 713740" d="M662.555,143.113a4.606,4.606,0,0,0,2.32.7c1.281,0,1.881-.639,1.881-1.44,0-.84-.5-1.3-1.8-1.781-1.74-.62-2.56-1.58-2.56-2.74,0-1.56,1.261-2.841,3.341-2.841a4.838,4.838,0,0,1,2.381.6l-.441,1.28a3.767,3.767,0,0,0-1.98-.56c-1.04,0-1.62.6-1.62,1.32,0,.8.58,1.16,1.84,1.641,1.68.639,2.54,1.48,2.54,2.921,0,1.7-1.32,2.9-3.62,2.9a5.517,5.517,0,0,1-2.72-.66Z"/>
        <path id="Trazado_713741" data-name="Trazado 713741" d="M677.617,144.554a6.479,6.479,0,0,1-2.78.561,4.6,4.6,0,0,1-4.822-4.942,4.919,4.919,0,0,1,5.2-5.14,5.863,5.863,0,0,1,2.44.5l-.4,1.36a4.082,4.082,0,0,0-2.04-.46,3.65,3.65,0,0,0-.06,7.281,5,5,0,0,0,2.16-.48Z"/>
        <path id="Trazado_713742" data-name="Trazado 713742" d="M687.777,142.273c0,1,.021,1.881.08,2.641H686.3l-.1-1.58h-.04a3.643,3.643,0,0,1-3.2,1.8c-1.521,0-3.341-.839-3.341-4.24v-5.661h1.76v5.36c0,1.841.56,3.081,2.161,3.081a2.546,2.546,0,0,0,2.32-1.6,2.576,2.576,0,0,0,.16-.9v-5.94h1.76Z"/>
        <path id="Trazado_713743" data-name="Trazado 713743" d="M697.6,144.554a6.481,6.481,0,0,1-2.781.561,4.6,4.6,0,0,1-4.821-4.942,4.919,4.919,0,0,1,5.2-5.14,5.867,5.867,0,0,1,2.44.5l-.4,1.36a4.081,4.081,0,0,0-2.04-.46,3.65,3.65,0,0,0-.061,7.281,5,5,0,0,0,2.16-.48Z"/>
        <path id="Trazado_713744" data-name="Trazado 713744" d="M699.656,130.711h1.76v6.041h.04a3.276,3.276,0,0,1,1.261-1.24,3.616,3.616,0,0,1,1.8-.5c1.3,0,3.381.8,3.381,4.141v5.761h-1.76v-5.561c0-1.56-.581-2.88-2.241-2.88a2.53,2.53,0,0,0-2.36,1.759,2.135,2.135,0,0,0-.12.841v5.841h-1.76Z"/>
        <path id="Trazado_713745" data-name="Trazado 713745" d="M711.735,140.394a3.1,3.1,0,0,0,3.321,3.36,6.37,6.37,0,0,0,2.681-.5l.3,1.26a7.846,7.846,0,0,1-3.221.6c-2.98,0-4.761-1.96-4.761-4.88s1.72-5.222,4.541-5.222c3.16,0,4,2.781,4,4.561a6.712,6.712,0,0,1-.059.821Zm5.161-1.261c.021-1.12-.46-2.86-2.44-2.86-1.781,0-2.561,1.639-2.7,2.86Zm.42-8.082-2.44,2.861h-1.26l1.76-2.861Z"/>
        <rect id="Rectángulo_348689" data-name="Rectángulo 348689" width="1.76" height="14.203" transform="translate(725.015 130.711)"/>
        <path id="Trazado_713746" data-name="Trazado 713746" d="M738.5,139.993c0,3.581-2.481,5.141-4.822,5.141-2.62,0-4.64-1.92-4.64-4.98,0-3.242,2.12-5.142,4.8-5.142,2.78,0,4.661,2.02,4.661,4.981m-7.682.1c0,2.121,1.22,3.721,2.94,3.721,1.681,0,2.941-1.58,2.941-3.761,0-1.64-.82-3.721-2.9-3.721s-2.98,1.921-2.98,3.761"/>
        <path id="Trazado_713747" data-name="Trazado 713747" d="M751.555,143.414h-.04a3.445,3.445,0,0,1-3.16,1.719c-2.261,0-4.1-1.959-4.1-4.9,0-3.621,2.34-5.222,4.381-5.222a3.185,3.185,0,0,1,2.981,1.681h.04l.059-1.46h1.661c-.04.819-.06,1.66-.06,2.66v10.983h-1.761Zm0-4.261a3.044,3.044,0,0,0-.079-.74,2.574,2.574,0,0,0-2.522-2c-1.82,0-2.92,1.54-2.92,3.72,0,1.921.92,3.6,2.861,3.6a2.621,2.621,0,0,0,2.52-1.92,2.956,2.956,0,0,0,.14-.84Z"/>
        <path id="Trazado_713748" data-name="Trazado 713748" d="M764.316,142.273c0,1,.02,1.881.08,2.641h-1.56l-.1-1.58h-.04a3.645,3.645,0,0,1-3.2,1.8c-1.521,0-3.341-.839-3.341-4.24v-5.661h1.761v5.36c0,1.841.559,3.081,2.16,3.081a2.476,2.476,0,0,0,2.48-2.5v-5.94h1.761Z"/>
        <path id="Trazado_713749" data-name="Trazado 713749" d="M768.214,140.394a3.1,3.1,0,0,0,3.32,3.36,6.367,6.367,0,0,0,2.681-.5l.3,1.26a7.842,7.842,0,0,1-3.221.6c-2.981,0-4.761-1.96-4.761-4.88s1.721-5.222,4.541-5.222c3.161,0,4,2.781,4,4.561a6.93,6.93,0,0,1-.059.821Zm5.161-1.261c.02-1.12-.46-2.86-2.44-2.86-1.781,0-2.561,1.639-2.7,2.86Z"/>
        <path id="Trazado_713750" data-name="Trazado 713750" d="M786.855,144.914l-.14-1.221h-.06a3.608,3.608,0,0,1-2.961,1.44,2.758,2.758,0,0,1-2.96-2.779c0-2.341,2.08-3.622,5.821-3.6v-.2a2,2,0,0,0-2.2-2.239,4.829,4.829,0,0,0-2.521.72l-.4-1.161a6.009,6.009,0,0,1,3.181-.861c2.959,0,3.68,2.022,3.68,3.961v3.622a13.637,13.637,0,0,0,.16,2.32Zm-.26-4.942c-1.921-.04-4.1.3-4.1,2.182a1.558,1.558,0,0,0,1.662,1.679,2.407,2.407,0,0,0,2.339-1.619,1.815,1.815,0,0,0,.1-.56Z"/>
        <path id="Trazado_713751" data-name="Trazado 713751" d="M798.036,144.554a6.481,6.481,0,0,1-2.781.561,4.6,4.6,0,0,1-4.821-4.942,4.919,4.919,0,0,1,5.2-5.14,5.867,5.867,0,0,1,2.44.5l-.4,1.36a4.082,4.082,0,0,0-2.04-.46,3.65,3.65,0,0,0-.061,7.281,5,5,0,0,0,2.16-.48Z"/>
        <path id="Trazado_713752" data-name="Trazado 713752" d="M805.455,144.914l-.14-1.221h-.059a3.61,3.61,0,0,1-2.961,1.44,2.758,2.758,0,0,1-2.961-2.779c0-2.341,2.081-3.622,5.821-3.6v-.2a2,2,0,0,0-2.2-2.239,4.824,4.824,0,0,0-2.521.72l-.4-1.161a6.014,6.014,0,0,1,3.181-.861c2.96,0,3.68,2.022,3.68,3.961v3.622a13.638,13.638,0,0,0,.16,2.32Zm-.26-4.942c-1.92-.04-4.1.3-4.1,2.182a1.557,1.557,0,0,0,1.661,1.679,2.408,2.408,0,0,0,2.34-1.619,1.841,1.841,0,0,0,.1-.56Z"/>
        <path id="Trazado_713753" data-name="Trazado 713753" d="M809.654,144.914c.04-.66.08-1.641.08-2.5v-11.7h1.74v6.081h.04a3.606,3.606,0,0,1,3.3-1.78c2.4,0,4.1,2,4.08,4.941,0,3.461-2.18,5.181-4.341,5.181a3.447,3.447,0,0,1-3.24-1.821h-.061l-.08,1.6Zm1.82-3.881a3.312,3.312,0,0,0,.08.641,2.716,2.716,0,0,0,2.641,2.059c1.84,0,2.94-1.5,2.94-3.721,0-1.94-1-3.6-2.881-3.6a2.806,2.806,0,0,0-2.68,2.16,3.471,3.471,0,0,0-.1.721Z"/>
        <path id="Trazado_713754" data-name="Trazado 713754" d="M826.474,144.914l-.14-1.221h-.059a3.61,3.61,0,0,1-2.961,1.44,2.758,2.758,0,0,1-2.961-2.779c0-2.341,2.081-3.622,5.821-3.6v-.2a2,2,0,0,0-2.2-2.239,4.824,4.824,0,0,0-2.521.72l-.4-1.161a6.014,6.014,0,0,1,3.181-.861c2.96,0,3.68,2.022,3.68,3.961v3.622a13.638,13.638,0,0,0,.16,2.32Zm-.26-4.942c-1.92-.04-4.1.3-4.1,2.182a1.557,1.557,0,0,0,1.661,1.679,2.408,2.408,0,0,0,2.34-1.619,1.842,1.842,0,0,0,.1-.56Z"/>
        <path id="Trazado_713755" data-name="Trazado 713755" d="M830.513,143.113a4.6,4.6,0,0,0,2.32.7c1.281,0,1.881-.639,1.881-1.44,0-.84-.5-1.3-1.8-1.781-1.74-.62-2.56-1.58-2.56-2.74,0-1.56,1.26-2.841,3.341-2.841a4.831,4.831,0,0,1,2.38.6l-.44,1.28a3.767,3.767,0,0,0-1.98-.56c-1.04,0-1.62.6-1.62,1.32,0,.8.58,1.16,1.839,1.641,1.681.639,2.541,1.48,2.541,2.921,0,1.7-1.32,2.9-3.621,2.9a5.52,5.52,0,0,1-2.72-.66Z"/>
        <path id="Trazado_713756" data-name="Trazado 713756" d="M851.275,130.711v11.7c0,.861.019,1.841.08,2.5h-1.581l-.08-1.68h-.04a3.581,3.581,0,0,1-3.3,1.9c-2.34,0-4.141-1.981-4.141-4.921-.019-3.221,1.981-5.2,4.341-5.2a3.237,3.237,0,0,1,2.921,1.48h.04v-5.781Zm-1.761,8.462a3.155,3.155,0,0,0-.08-.74,2.59,2.59,0,0,0-2.541-2.04c-1.82,0-2.9,1.6-2.9,3.74,0,1.961.96,3.581,2.861,3.581a2.646,2.646,0,0,0,2.58-2.1,3.1,3.1,0,0,0,.08-.759Z"/>
        <path id="Trazado_713757" data-name="Trazado 713757" d="M855.172,140.394a3.1,3.1,0,0,0,3.321,3.36,6.37,6.37,0,0,0,2.681-.5l.3,1.26a7.846,7.846,0,0,1-3.221.6c-2.981,0-4.761-1.96-4.761-4.88s1.72-5.222,4.541-5.222c3.16,0,4,2.781,4,4.561a6.712,6.712,0,0,1-.059.821Zm5.161-1.261c.021-1.12-.46-2.86-2.44-2.86-1.781,0-2.561,1.639-2.7,2.86Z"/>
        <path id="Trazado_713758" data-name="Trazado 713758" d="M876.814,130.711v11.7c0,.861.02,1.841.08,2.5h-1.58l-.08-1.68h-.04a3.582,3.582,0,0,1-3.3,1.9c-2.341,0-4.141-1.981-4.141-4.921-.02-3.221,1.981-5.2,4.341-5.2a3.234,3.234,0,0,1,2.92,1.48h.04v-5.781Zm-1.761,8.462a3.151,3.151,0,0,0-.079-.74,2.59,2.59,0,0,0-2.541-2.04c-1.82,0-2.9,1.6-2.9,3.74,0,1.961.96,3.581,2.861,3.581a2.646,2.646,0,0,0,2.581-2.1,3.1,3.1,0,0,0,.079-.759Z"/>
        <path id="Trazado_713759" data-name="Trazado 713759" d="M880.712,140.394a3.1,3.1,0,0,0,3.32,3.36,6.366,6.366,0,0,0,2.681-.5l.3,1.26a7.842,7.842,0,0,1-3.221.6c-2.981,0-4.761-1.96-4.761-4.88s1.721-5.222,4.541-5.222c3.161,0,4,2.781,4,4.561a6.917,6.917,0,0,1-.059.821Zm5.161-1.261c.02-1.12-.46-2.86-2.44-2.86-1.781,0-2.561,1.639-2.7,2.86Z"/>
        <path id="Trazado_713760" data-name="Trazado 713760" d="M896.654,144.554a6.481,6.481,0,0,1-2.781.561,4.6,4.6,0,0,1-4.821-4.942,4.919,4.919,0,0,1,5.2-5.14,5.867,5.867,0,0,1,2.44.5l-.4,1.36a4.081,4.081,0,0,0-2.04-.46,3.65,3.65,0,0,0-.061,7.281,5,5,0,0,0,2.16-.48Z"/>
        <path id="Trazado_713761" data-name="Trazado 713761" d="M900.672,132.512a1.09,1.09,0,0,1-2.18,0,1.073,1.073,0,0,1,1.1-1.1,1.045,1.045,0,0,1,1.08,1.1m-1.96,2.72h1.76v9.682h-1.76Z"/>
        <path id="Trazado_713762" data-name="Trazado 713762" d="M903.392,138.253c0-1.141-.021-2.121-.08-3.021h1.54l.06,1.9h.08a2.9,2.9,0,0,1,2.68-2.121,1.9,1.9,0,0,1,.5.06v1.66a2.629,2.629,0,0,0-.6-.06,2.469,2.469,0,0,0-2.361,2.261,4.957,4.957,0,0,0-.08.82v5.161h-1.74Z"/>
        <path id="Trazado_713763" data-name="Trazado 713763" d="M669.976,159.232l2.12,5.721c.22.64.46,1.4.62,1.98h.04c.18-.58.38-1.32.62-2.02l1.92-5.681h1.861l-2.64,6.9c-1.261,3.321-2.121,5.021-3.321,6.061a4.783,4.783,0,0,1-2.16,1.141l-.441-1.481a4.636,4.636,0,0,0,1.54-.86,5.327,5.327,0,0,0,1.481-1.96,1.271,1.271,0,0,0,.14-.42,1.527,1.527,0,0,0-.12-.46l-3.581-8.922Z"/>
        <path id="Trazado_713764" data-name="Trazado 713764" d="M685.116,156.451v2.781h2.521v1.34h-2.521v5.221c0,1.2.34,1.881,1.32,1.881a3.93,3.93,0,0,0,1.021-.12l.08,1.32a4.318,4.318,0,0,1-1.561.24,2.439,2.439,0,0,1-1.9-.74,3.59,3.59,0,0,1-.681-2.521v-5.281h-1.5v-1.34h1.5v-2.321Z"/>
        <path id="Trazado_713765" data-name="Trazado 713765" d="M690.475,164.394a3.1,3.1,0,0,0,3.321,3.36,6.369,6.369,0,0,0,2.681-.5l.3,1.26a7.846,7.846,0,0,1-3.221.6c-2.981,0-4.761-1.96-4.761-4.88s1.72-5.222,4.541-5.222c3.16,0,4,2.781,4,4.561a6.712,6.712,0,0,1-.059.821Zm5.161-1.261c.021-1.12-.46-2.86-2.44-2.86-1.781,0-2.561,1.639-2.7,2.86Z"/>
        <path id="Trazado_713766" data-name="Trazado 713766" d="M703.755,162.392c0-1.24-.04-2.24-.08-3.16h1.58l.08,1.66h.04a3.8,3.8,0,0,1,3.44-1.881c2.341,0,4.1,1.981,4.1,4.921,0,3.481-2.12,5.2-4.4,5.2a3.394,3.394,0,0,1-2.981-1.519h-.04v5.26h-1.74Zm1.74,2.581a3.959,3.959,0,0,0,.08.72,2.715,2.715,0,0,0,2.641,2.06c1.86,0,2.94-1.52,2.94-3.741,0-1.94-1.02-3.6-2.881-3.6a2.809,2.809,0,0,0-2.66,2.181,2.862,2.862,0,0,0-.12.72Z"/>
        <path id="Trazado_713767" data-name="Trazado 713767" d="M723.237,166.273c0,1,.02,1.881.08,2.641h-1.56l-.1-1.58h-.04a3.645,3.645,0,0,1-3.2,1.8c-1.521,0-3.341-.839-3.341-4.24v-5.661h1.761v5.36c0,1.841.559,3.081,2.16,3.081a2.476,2.476,0,0,0,2.48-2.5v-5.94h1.761Z"/>
        <path id="Trazado_713768" data-name="Trazado 713768" d="M727.135,164.394a3.1,3.1,0,0,0,3.32,3.36,6.366,6.366,0,0,0,2.681-.5l.3,1.26a7.842,7.842,0,0,1-3.221.6c-2.981,0-4.761-1.96-4.761-4.88s1.721-5.222,4.541-5.222c3.161,0,4,2.781,4,4.561a6.933,6.933,0,0,1-.059.821Zm5.161-1.261c.02-1.12-.46-2.86-2.44-2.86-1.781,0-2.561,1.639-2.7,2.86Z"/>
        <path id="Trazado_713769" data-name="Trazado 713769" d="M744.537,154.711v11.7c0,.861.02,1.841.08,2.5h-1.58l-.08-1.68h-.04a3.582,3.582,0,0,1-3.3,1.9c-2.341,0-4.141-1.981-4.141-4.921-.02-3.221,1.981-5.2,4.341-5.2a3.234,3.234,0,0,1,2.92,1.48h.04v-5.781Zm-1.761,8.462a3.154,3.154,0,0,0-.079-.74,2.59,2.59,0,0,0-2.541-2.04c-1.82,0-2.9,1.6-2.9,3.74,0,1.961.96,3.581,2.861,3.581a2.646,2.646,0,0,0,2.581-2.1,3.105,3.105,0,0,0,.079-.759Z"/>
        <path id="Trazado_713770" data-name="Trazado 713770" d="M756.217,163.993c0,3.581-2.481,5.141-4.821,5.141-2.621,0-4.641-1.92-4.641-4.98,0-3.242,2.12-5.142,4.8-5.142,2.781,0,4.661,2.02,4.661,4.981m-7.682.1c0,2.121,1.221,3.721,2.94,3.721,1.681,0,2.942-1.58,2.942-3.761,0-1.64-.82-3.721-2.9-3.721s-2.98,1.921-2.98,3.761"/>
        <path id="Trazado_713771" data-name="Trazado 713771" d="M768.036,168.914l-.14-1.221h-.06a3.607,3.607,0,0,1-2.961,1.44,2.758,2.758,0,0,1-2.96-2.779c0-2.341,2.08-3.622,5.821-3.6v-.2a2,2,0,0,0-2.2-2.239,4.829,4.829,0,0,0-2.521.72l-.4-1.161a6.009,6.009,0,0,1,3.181-.861c2.959,0,3.68,2.022,3.68,3.961v3.622a13.638,13.638,0,0,0,.16,2.32Zm-.26-4.942c-1.921-.04-4.1.3-4.1,2.182a1.558,1.558,0,0,0,1.662,1.679,2.407,2.407,0,0,0,2.339-1.619,1.813,1.813,0,0,0,.1-.56Z"/>
        <path id="Trazado_713772" data-name="Trazado 713772" d="M772.795,159.232l2.12,5.721c.22.64.46,1.4.62,1.98h.04c.18-.58.38-1.32.62-2.02l1.92-5.681h1.861l-2.64,6.9c-1.261,3.321-2.121,5.021-3.321,6.061a4.783,4.783,0,0,1-2.16,1.141l-.441-1.481a4.636,4.636,0,0,0,1.54-.86,5.327,5.327,0,0,0,1.481-1.96,1.27,1.27,0,0,0,.14-.42,1.529,1.529,0,0,0-.12-.46l-3.581-8.922Z"/>
        <path id="Trazado_713773" data-name="Trazado 713773" d="M789.676,166.273c0,1,.021,1.881.08,2.641H788.2l-.1-1.58h-.04a3.643,3.643,0,0,1-3.2,1.8c-1.521,0-3.341-.839-3.341-4.24v-5.661h1.76v5.36c0,1.841.56,3.081,2.161,3.081a2.546,2.546,0,0,0,2.32-1.6,2.574,2.574,0,0,0,.16-.9v-5.94h1.76Z"/>
        <path id="Trazado_713774" data-name="Trazado 713774" d="M800.957,154.711v11.7c0,.861.02,1.841.08,2.5h-1.58l-.08-1.68h-.04a3.582,3.582,0,0,1-3.3,1.9c-2.341,0-4.141-1.981-4.141-4.921-.02-3.221,1.981-5.2,4.341-5.2a3.234,3.234,0,0,1,2.92,1.48h.04v-5.781Zm-1.761,8.462a3.151,3.151,0,0,0-.079-.74,2.59,2.59,0,0,0-2.541-2.04c-1.82,0-2.9,1.6-2.9,3.74,0,1.961.96,3.581,2.861,3.581a2.646,2.646,0,0,0,2.581-2.1,3.1,3.1,0,0,0,.079-.759Z"/>
        <path id="Trazado_713775" data-name="Trazado 713775" d="M809.236,168.914l-.14-1.221h-.06a3.608,3.608,0,0,1-2.961,1.44,2.758,2.758,0,0,1-2.96-2.779c0-2.341,2.08-3.622,5.821-3.6v-.2a2,2,0,0,0-2.2-2.239,4.829,4.829,0,0,0-2.521.72l-.4-1.161a6.009,6.009,0,0,1,3.181-.861c2.959,0,3.68,2.022,3.68,3.961v3.622a13.638,13.638,0,0,0,.16,2.32Zm-.26-4.942c-1.921-.04-4.1.3-4.1,2.182a1.558,1.558,0,0,0,1.662,1.679,2.407,2.407,0,0,0,2.339-1.619,1.815,1.815,0,0,0,.1-.56Z"/>
        <path id="Trazado_713776" data-name="Trazado 713776" d="M813.514,162.253c0-1.141-.02-2.121-.08-3.021h1.54l.061,1.9h.08a2.9,2.9,0,0,1,2.68-2.121,1.9,1.9,0,0,1,.5.06v1.66a2.638,2.638,0,0,0-.6-.06,2.47,2.47,0,0,0-2.361,2.261,4.957,4.957,0,0,0-.08.82v5.161h-1.74Z"/>
        <path id="Trazado_713777" data-name="Trazado 713777" d="M831.2,168.554a6.481,6.481,0,0,1-2.781.561,4.6,4.6,0,0,1-4.821-4.942,4.919,4.919,0,0,1,5.2-5.14,5.867,5.867,0,0,1,2.44.5l-.4,1.36a4.081,4.081,0,0,0-2.04-.46,3.65,3.65,0,0,0-.061,7.281,5,5,0,0,0,2.16-.48Z"/>
        <path id="Trazado_713778" data-name="Trazado 713778" d="M841.9,163.993c0,3.581-2.481,5.141-4.822,5.141-2.62,0-4.64-1.92-4.64-4.98,0-3.242,2.12-5.142,4.8-5.142,2.78,0,4.661,2.02,4.661,4.981m-7.682.1c0,2.121,1.22,3.721,2.94,3.721,1.681,0,2.941-1.58,2.941-3.761,0-1.64-.82-3.721-2.9-3.721s-2.98,1.921-2.98,3.761"/>
        <path id="Trazado_713779" data-name="Trazado 713779" d="M844.114,161.852c0-1-.02-1.82-.08-2.62h1.56l.1,1.6h.04a3.565,3.565,0,0,1,3.2-1.82c1.34,0,3.421.8,3.421,4.121v5.782h-1.761v-5.582c0-1.56-.58-2.86-2.24-2.86a2.5,2.5,0,0,0-2.36,1.8,2.534,2.534,0,0,0-.12.82v5.822h-1.761Z"/>
        <path id="Trazado_713780" data-name="Trazado 713780" d="M860.433,164.394a3.1,3.1,0,0,0,3.321,3.36,6.37,6.37,0,0,0,2.681-.5l.3,1.26a7.846,7.846,0,0,1-3.221.6c-2.981,0-4.761-1.96-4.761-4.88s1.72-5.222,4.541-5.222c3.16,0,4,2.781,4,4.561a6.712,6.712,0,0,1-.059.821Zm5.161-1.261c.021-1.12-.46-2.86-2.44-2.86-1.781,0-2.561,1.639-2.7,2.86Z"/>
        <rect id="Rectángulo_348690" data-name="Rectángulo 348690" width="1.761" height="14.203" transform="translate(869.473 154.711)"/>
        <rect id="Rectángulo_348691" data-name="Rectángulo 348691" width="1.761" height="14.203" transform="translate(874.193 154.711)"/>
        <path id="Trazado_713781" data-name="Trazado 713781" d="M887.675,163.993c0,3.581-2.481,5.141-4.821,5.141-2.621,0-4.641-1.92-4.641-4.98,0-3.242,2.12-5.142,4.8-5.142,2.781,0,4.661,2.02,4.661,4.981m-7.682.1c0,2.121,1.221,3.721,2.94,3.721,1.681,0,2.942-1.58,2.942-3.761,0-1.64-.82-3.721-2.9-3.721s-2.98,1.921-2.98,3.761"/>
        <path id="Trazado_713782" data-name="Trazado 713782" d="M888.993,167.874a1.184,1.184,0,0,1,1.2-1.261,1.263,1.263,0,1,1-1.2,1.261"/>
        <path id="Trazado_713783" data-name="Trazado 713783" d="M435.863,373.953H616.235a14.093,14.093,0,0,0,14.093-14.093V303.073a14.093,14.093,0,0,0-14.093-14.093H435.863a14.093,14.093,0,0,0-14.093,14.093V359.86a14.093,14.093,0,0,0,14.093,14.093" fill="#fff"/>
        <path id="Trazado_713784" data-name="Trazado 713784" d="M280.687,304.788c-8.638-1.8-17.342-5.01-23.475-11.356s-9.031-16.418-5.051-24.3c2.925-5.788,9.228-10.231,9.366-16.715.172-8.078-9.512-13.908-9.13-21.979.242-5.1,4.427-8.993,6.942-13.439,2.98-5.268,3.637-11.483,4.46-17.479s1.985-12.237,5.717-17,10.814-7.444,16.041-4.392c10.1-9.262,23.1-16.092,36.707-14.465s26.421,11.695,29.138,25.128c1.444,7.142.186,14.949,3.483,21.447,2.48,4.886,7.341,8.544,8.625,13.871,1.561,6.477-2.746,12.9-7.556,17.5-2.692,2.578-5.819,5.283-6.223,8.989-.554,5.077,4.139,8.95,6.942,13.22,4.852,7.391,4.044,17.62-.7,25.081s-12.839,12.34-21.357,14.7-17.5,2.447-26.332,2.008-18.945.979-27.6-.83" fill="#212131"/>
        <path id="Trazado_713785" data-name="Trazado 713785" d="M241.155,479.1l2.1,181.094L218.185,818.1s11.088,7.585,27.114.667l42.4-147.883a38.6,38.6,0,0,0,1.239-6.2l16.743-144.606L342.3,669.42l2.123,150.567s14.861,5.21,27.029,1.693l14.67-150.088a38.568,38.568,0,0,0-.113-8.531L363.611,483.4Z" fill="#e5c282"/>
        <path id="Trazado_713786" data-name="Trazado 713786" d="M240.749,477.237s-3.821,156.647-3.821,174.093c0,0,76.833,43.368,153.667,5.425,0,0-17.472-137.525-26.314-177.364Z" fill="#415067"/>
        <path id="Trazado_713787" data-name="Trazado 713787" d="M314.3,292.536s105.126-21.753,181.866-56.2l9.563,16.554s-155.44,63.285-157.29,83.1Z" fill="#e5c282"/>
        <path id="Trazado_713788" data-name="Trazado 713788" d="M523.471,232.372s5.219-.357,10.23-1.074a7.8,7.8,0,0,1-2.282-2.851c-.484-.92-1-1.82-1.517-2.72-2.355-.069-4.095-.05-4.095-.05s1.576-.139,3.844-.4c-.406-.708-.812-1.414-1.193-2.136a3.35,3.35,0,0,1,.564-3.856c-3.126.23-5.394.464-5.394.464s20.6-5.526,19.169-8.812c-1.169-2.69-23.333,3.321-27.632,5.827s-20.039,20.14-20.039,20.14l1.369,18.987c23.88-1.878,23.652-17.427,23.652-17.427s16.46-.381,17.216-2.692-13.892-3.4-13.892-3.4" fill="#e5c282"/>
        <path id="Trazado_713789" data-name="Trazado 713789" d="M502.664,233.786s10.411-8.857,12.2-7.5-4.866,8.957-4.866,8.957a10.206,10.206,0,0,1-2.121,10.575c-1.237,1.386-3.212,1.781-5.015,2.229" fill="#e5c282"/>
        <path id="Trazado_713790" data-name="Trazado 713790" d="M509.63,244.326a12.109,12.109,0,0,1-1.363,1.844,8.664,8.664,0,0,1-4.967,2.31.527.527,0,1,1-.154-1.043,7.635,7.635,0,0,0,4.334-1.969,9.621,9.621,0,0,0,2.033-10.011.526.526,0,0,1,.085-.561c2.022-2.311,5.18-6.526,5.034-7.974-.016-.156-.069-.2-.091-.216-.771-.586-6.161,2.909-11.536,7.481a.526.526,0,0,1-.743-.06.532.532,0,0,1,.059-.743c3.229-2.746,10.943-8.974,12.858-7.515a1.3,1.3,0,0,1,.5.946c.223,2.2-3.985,7.258-5.083,8.538a10.841,10.841,0,0,1-.968,8.973" fill="#ba8947"/>
        <path id="Trazado_713791" data-name="Trazado 713791" d="M511.558,222.065l15.594-6.218,31.683,50.3c2.038,3.3.943,7.567-2.272,8.848L529.55,285.763c-3.207,1.279-6.931-1.05-7.732-4.836Z" fill="#415067"/>
        <path id="Trazado_713792" data-name="Trazado 713792" d="M524.816,207.394s12.2,6.994,17.252,7.639l-1.452,1.455a31.442,31.442,0,0,1-18.24-4.737Z" fill="#415067"/>
        <path id="Trazado_713793" data-name="Trazado 713793" d="M506.1,198.258c-3.93,2.05-7,10.749-7,10.749l2.16,5.97,8.04,2.765,2.256,4.323,15.594-6.218s-3.515-4.729-3.221-6.52,14.286-11.152,14.286-11.152l-1.441-4.025c-5.914-.872-26.746,2.057-30.676,4.108" fill="#eb9168"/>
        <path id="Trazado_713794" data-name="Trazado 713794" d="M530.166,220.632a4.614,4.614,0,0,1,3.124,4.959s-9.582,5.183-11.656,2.491,8.532-7.45,8.532-7.45" fill="#e5c282"/>
        <path id="Trazado_713795" data-name="Trazado 713795" d="M533.71,226.258s-9.123,3.4-8.871,5.893,11.777-1.279,11.777-1.279a5.179,5.179,0,0,0-2.906-4.614" fill="#e5c282"/>
        <path id="Trazado_713796" data-name="Trazado 713796" d="M537.126,231.681s-7.71,2.278-7.164,4.1,9.878.205,9.878.205a5.127,5.127,0,0,0-2.714-4.308" fill="#e5c282"/>
        <path id="Trazado_713797" data-name="Trazado 713797" d="M240.749,477.237a116.752,116.752,0,0,1,1.9-15.374c2.039-9.433,14.156-33.626,18.964-70.1,1.159-8.732.708-20.929-.193-32.064-1.217-15.081-3.239-28.227-3.26-28.367l0-.006c1.961-26.634,2.975-45.561,2.64-45.691,5.766-5.174,18.244-8.246,28.646-8.223h1.581c8.56-1.133,25.429-.38,30.329.608,2.14.315,4.294.694,6.4,1.152l6.448,1.661c4.945,1.489,8.829,3.228,10.055,4.8,2.324,3.35,3.691,13.773,5.066,31.382,5.265,10.4,11.375,27.354,2.867,42.206v.016l-.011,0a33.684,33.684,0,0,1-3.987,5.565s-.214,1.241-.514,3.384c-.945,6.649-2.726,21.871-1.5,34.288,1.473,14.975,14.809,49.664,18.11,76.909l.007.009h-.005c0,.025,1.54,5.418-5.738,7.318-37.268,9.727-74.409,10.6-111.831.987-4.474-1.15-5.967-4.215-5.965-10.469" fill="#eb9168"/>
        <path id="Trazado_713798" data-name="Trazado 713798" d="M384.778,591.33c-4.164-27.132-10.433-68.164-14.6-95.3-2.886-18.8-5.782-37.654-10.813-56-3.378-12.318-7.712-24.386-10.331-36.887s-4.463-26.088-.849-38.338c0,0,7.457-2.3,8.192-20.931s-7.063-26.858-7.063-26.858a27.735,27.735,0,0,1-5.581-7.064c-2.178-4.467-5.752-27.846-5.752-27.846-2.249-3.046-7.094-2.126-7.094-2.126s5.816,30.605,0,33.887-32.86,3.7-38.385,0-11.422-35.865-11.422-35.865c-4.189-1.334-8.145,1.7-8.145,1.7S276.419,311.9,275.3,318.2c-1.831,10.3-15.172,28.268-15.172,28.268,2.192,19.5,1.651,39.473-2.686,58.608-3.021,13.332-8.243,26.055-12.1,39.17-12.572,42.765-10.789,102.575-8.414,147.087,47.769,13.443,100.765,15.674,147.85,0" fill="#5c9a76"/>
        <path id="Trazado_713799" data-name="Trazado 713799" d="M314.51,481.023a88.752,88.752,0,0,1-38.413-8.668,1.054,1.054,0,0,1,.915-1.9,87.34,87.34,0,0,0,74.727.128,1.054,1.054,0,0,1,.906,1.9,88.778,88.778,0,0,1-38.135,8.536" fill="#3a5f58"/>
        <path id="Trazado_713800" data-name="Trazado 713800" d="M252.313,352.282c14.792-20.474,25.355-44.592,8.482-66.643-7.822,2.306-19.552,19.084-22.7,24.8-1.9,3.443-3.6,6.5-5.167,9.278Z" fill="#e5c282"/>
        <path id="Trazado_713801" data-name="Trazado 713801" d="M287.028,191.743c11.742-22.372,54.424-15.484,58.014,2.1,7.386,36.162,2.458,51.135-7.486,59.865-11.507,10.1-18.426,7.647-18.791,25.928-4.233,11.159-21.152,16.811-26.815,4.3a125.611,125.611,0,0,0-9.911-48.366s.148-34.6,4.989-43.82" fill="#e5c282"/>
        <path id="Trazado_713802" data-name="Trazado 713802" d="M348,204.608s3.055-8.009-6.9-21.126c-6.369-8.39-24.532-10.195-39.943-7.091s-22.025,9.932-22.352,21.03-1.232,24.962-1.232,24.962l6.073,4.479c5.452-3.763,7.262-13.5,7.827-20.928a58.286,58.286,0,0,0,33.828-12.85A37.388,37.388,0,0,0,348,204.608" fill="#212131"/>
        <path id="Trazado_713803" data-name="Trazado 713803" d="M313.573,225.519a2.729,2.729,0,1,0,2.685-2.772,2.729,2.729,0,0,0-2.685,2.772"/>
        <path id="Trazado_713804" data-name="Trazado 713804" d="M316.289,224.729a1,1,0,1,0,.983-1.015,1,1,0,0,0-.983,1.015" fill="#fff"/>
        <path id="Trazado_713805" data-name="Trazado 713805" d="M334.678,225.181a2.729,2.729,0,1,0,2.685-2.772,2.729,2.729,0,0,0-2.685,2.772"/>
        <path id="Trazado_713806" data-name="Trazado 713806" d="M337.395,224.391a1,1,0,1,0,.983-1.015,1,1,0,0,0-.983,1.015" fill="#fff"/>
        <path id="Trazado_713807" data-name="Trazado 713807" d="M332.681,214.526a8.933,8.933,0,0,1,11.12.367,1.8,1.8,0,0,1,.286,2.253,1.3,1.3,0,0,1-1.962.319A6.41,6.41,0,0,0,337.436,216a6.5,6.5,0,0,0-2.414.705c-.673.349-1.323.946-2.093.519a1.385,1.385,0,0,1-.468-.435,1.784,1.784,0,0,1,.22-2.26" fill="#212131"/>
        <path id="Trazado_713808" data-name="Trazado 713808" d="M322.044,214.7a11.426,11.426,0,0,0-12.73.749,1.608,1.608,0,0,0,2.009,2.512,8.022,8.022,0,0,1,5.319-1.6,8.69,8.69,0,0,1,2.792.61c.785.315,1.558.882,2.419.433a1.549,1.549,0,0,0,.521-.451,1.621,1.621,0,0,0-.33-2.251" fill="#212131"/>
        <path id="Trazado_713809" data-name="Trazado 713809" d="M328.168,240.8a9.649,9.649,0,0,0,4.514-1.185,1.425,1.425,0,0,0-1.366-2.5,7.49,7.49,0,0,1-8.811-1.489,1.426,1.426,0,1,0-2.276,1.718,10.212,10.212,0,0,0,7.939,3.458" fill="#ba8947"/>
        <path id="Trazado_713810" data-name="Trazado 713810" d="M331.406,232.635a.357.357,0,0,0,.338-.263c.638-2.337-.165-3.116-.952-3.356a3.441,3.441,0,0,0-2.816.663.358.358,0,0,0-.108.493.364.364,0,0,0,.494.108,2.772,2.772,0,0,1,2.221-.581c.706.214.865,1.051.473,2.486a.359.359,0,0,0,.251.438.372.372,0,0,0,.1.012" fill="#ba8947"/>
        <path id="Trazado_713811" data-name="Trazado 713811" d="M272.717,236.51c3.718,4.292,9.494,5.379,12.9,2.428s3.155-8.823-.563-13.115-9.494-5.379-12.9-2.427-3.155,8.822.563,13.114" fill="#e5c282"/>
        <path id="Trazado_713812" data-name="Trazado 713812" d="M274.569,225.486a6.3,6.3,0,0,1,5.532.018,5.157,5.157,0,0,1,2.141,1.611,3.133,3.133,0,0,1,.5,2.876,4.433,4.433,0,0,1-1.49,1.816,4.241,4.241,0,0,0-1,1.044,1.6,1.6,0,0,0,2.1,2.23.713.713,0,0,1,.619,1.285,2.949,2.949,0,0,1-1.238.287,3.015,3.015,0,0,1-2.718-4.5,5.411,5.411,0,0,1,1.328-1.437A3.294,3.294,0,0,0,281.4,229.5a1.721,1.721,0,0,0-.309-1.544,1.436,1.436,0,0,0-2.58.2,2.555,2.555,0,0,0-.588,2.1.711.711,0,0,1-.574.828.654.654,0,0,1-.117.012.713.713,0,0,1-.711-.586,3.946,3.946,0,0,1,.922-3.3,3.234,3.234,0,0,1,1.056-.746,4.481,4.481,0,0,0-3.243.274,2.759,2.759,0,0,0-1.33,3.372.713.713,0,1,1-1.285.619,4.171,4.171,0,0,1,1.928-5.242" fill="#ba8947"/>
        <path id="Trazado_713813" data-name="Trazado 713813" d="M898.232,187.039l52.624,39.648L924.544,161.3Z" fill="#fff"/>
        <path id="Trazado_713814" data-name="Trazado 713814" d="M466.086,287.434l-101.21,4.18,102.591,32.6Z" fill="#fff"/>
        <path id="Trazado_713815" data-name="Trazado 713815" d="M257.23,347.437l-1.271-59.3s-49.82,47.207-69.479,200.329a33.428,33.428,0,0,0-1.271,33.978,1.12,1.12,0,0,0,1.038.585,9.444,9.444,0,0,0,3.325,4.546,1.065,1.065,0,0,0,1.452-.155,5.222,5.222,0,0,0,.756.873,3.639,3.639,0,0,0,3.6.778,2.892,2.892,0,0,0,3.171.152c2.18-1.265,1.817-3.837,1.6-5.931a38.684,38.684,0,0,1,.027-8.242,39.408,39.408,0,0,1,3.4-12.216l.1,2.067a46.925,46.925,0,0,0,.334,6.288c.276,1.483,1.615,2.877,3.271,2.324,1.628-.542,1.876-2.675,2.183-4.058a38.743,38.743,0,0,0-1.9-22.706c3.707-20.881,18.321-93.315,49.659-139.316" fill="#e5c282"/>
        <path id="Trazado_713816" data-name="Trazado 713816" d="M1006.118,476.2,1004.56,794c11.522,3.1,25.528-1.1,25.528-1.1l34.33-285.94,3.416-34.084Z" fill="#f1ae9d"/>
        <path id="Trazado_713817" data-name="Trazado 713817" d="M1006.118,476.2s-4.838,257.136-4.838,278.339c0,0,14.677,11.93,38.069.726l28.485-282.384Z" fill="#4b4b4b"/>
        <path id="Trazado_713818" data-name="Trazado 713818" d="M1121.388,470s2.144,27.649-6.618,56.4c-5.351,17.559-36.511,113.758-36.511,113.758l51,134.505c-7.383,6.582-15.636,7.6-24.165,8.3,0,0-69.354-117.134-68.655-138.884s26.375-166.965,26.375-166.965Z" fill="#f1ae9d"/>
        <path id="Trazado_713819" data-name="Trazado 713819" d="M1059.516,477.287s-29.577,153.744-28.042,164.829,47.678,104.545,50.252,104.585,24.058,11.085,34.661-14.459L1081.726,637.3s45.3-115.734,39.662-167.307Z" fill="#585858"/>
        <path id="Trazado_713820" data-name="Trazado 713820" d="M1021.422,357.375s-18.281,44.581-33.22,44.884-102.7-30.444-102.7-30.444l5.628-17.09,88.164,16.857c9.6-27.142,13.772-33.116,27.667-58.33,2.968-5.386,14.019-21.192,21.388-23.364,13.84,19.995,2.694,45.4-6.923,67.487" fill="#f1ae9d"/>
        <path id="Trazado_713821" data-name="Trazado 713821" d="M873.037,370.107a55.687,55.687,0,0,1-13.89,1.79,4.8,4.8,0,0,1-1.714-.214,1.727,1.727,0,0,1-1.135-1.213c-.193-1.05.9-1.851,1.847-2.335a57.253,57.253,0,0,1,8.021-3.593c-4.4.1-8.8.2-13.2.124a5.707,5.707,0,0,1-2.1-.306,1.769,1.769,0,0,1-.346-3.273,5.91,5.91,0,0,1,1.9-.729c3.979-1.011,7.982-1.941,11.961-2.952a102.812,102.812,0,0,1-15.481-2.184,4.919,4.919,0,0,1-1.7-.666,1.591,1.591,0,0,1,.209-2.887,5.061,5.061,0,0,1,1.7-.415,83.482,83.482,0,0,1,16.725-.35,71.952,71.952,0,0,1-13.343-4.995c-.836-.412-1.779-1.011-1.809-1.942a1.8,1.8,0,0,1,1.35-1.629,5.126,5.126,0,0,1,2.253-.016,116.987,116.987,0,0,1,24.852,6.472c-1.338-3.306-2.513-6.843-2.035-10.378.148-1.1.76-2.4,1.867-2.384.782.01,1.365.694,1.836,1.318l6.011,7.961a50.423,50.423,0,0,1,5.221,7.9,16.9,16.9,0,0,1,1.925,9.159,11.7,11.7,0,0,1-5.949,9.032,13.234,13.234,0,0,1-7.363,1.279c-2.514-.234-5.289-1.616-7.626-2.575" fill="#f1ae9d"/>
        <path id="Trazado_713822" data-name="Trazado 713822" d="M1044.454,271.347l-25.4,9.235s-9.5,110.523-12.939,195.614c81.428,14.385,115.365-4.053,115.365-4.053-8.156-99.785-26.006-194.123-26.006-194.123L1069.69,270.5Z" fill="#fbd46d"/>
        <path id="Trazado_713823" data-name="Trazado 713823" d="M1019.057,280.582c-16.538,9.3-33.205,61.679-33.205,61.679l35.174,15.61Z" fill="#fbd46d"/>
        <path id="Trazado_713824" data-name="Trazado 713824" d="M1095.477,278.02c21.206,8.348,43.4,55.967,43.4,55.967l-32.11,20.739Z" fill="#fbd46d"/>
        <path id="Trazado_713825" data-name="Trazado 713825" d="M1013.006,352.261a.5.5,0,0,0,.493-.44c.766-6.77,1.281-13.647,1.779-20.3s1.013-13.535,1.778-20.3a.5.5,0,0,0-.437-.55.489.489,0,0,0-.549.438c-.768,6.782-1.285,13.671-1.783,20.335-.5,6.642-1.011,13.51-1.774,20.259a.5.5,0,0,0,.437.55l.056,0" fill="#f8b152"/>
        <path id="Trazado_713826" data-name="Trazado 713826" d="M1105.471,353.411a.516.516,0,0,0,.178-.032.5.5,0,0,0,.286-.641,238.984,238.984,0,0,1-11.16-38.628.484.484,0,0,0-.584-.39.494.494,0,0,0-.39.584,240.2,240.2,0,0,0,11.206,38.789.5.5,0,0,0,.464.318" fill="#f8b152"/>
        <path id="Trazado_713827" data-name="Trazado 713827" d="M1136.117,335.766l-29.354,18.959,2.28,7.664,26.6,39.12-16.936,73.742,20.5.755s23.34-60.412,23.34-76.6-26.433-63.637-26.433-63.637" fill="#f1ae9d"/>
        <path id="Trazado_713828" data-name="Trazado 713828" d="M1126.332,465.7s-19.107,4.246-22.978,6.89-17.953,19.068-16.138,21.151c2.217,2.544,15.253-12.742,15.253-12.742s-11.469,18.841-8.99,20.282c2.8,1.629,13.152-16.03,13.152-16.03s-6.855,14.008-4.63,15.483c2.176,1.442,11.272-14.762,11.272-14.762s-5,12.9-2.73,13.2,7.81-12.841,7.81-12.841,14.754,6.356,20.857-10.322Z" fill="#f1ae9d"/>
        <path id="Trazado_713829" data-name="Trazado 713829" d="M1088.2,185.279c-1.969-7.649-6.882-14.981-14.269-17.778-6.82-2.583-15.2-.217-21.538-3.832-8.36-4.771-18.229-8.568-27.464-5.851-8.849,2.6-15.242,11.04-16.962,20.1a37.418,37.418,0,0,0,5.778,26.989c10.574,15.625,31.259,19.931,41.61,35.63,2.257,3.424,5.08,7.267,9.691,7.025,4.245-.223,6.822-4.115,8.9-7.332a116.9,116.9,0,0,0,13.545-29.49,51.578,51.578,0,0,0,.712-25.464" fill="#644336"/>
        <path id="Trazado_713830" data-name="Trazado 713830" d="M1070.022,183.53c-12.092-20.5-51.932-12.031-54.49,4.678-5.263,34.371.072,48.229,9.836,55.98,11.3,8.97,18.429,7.54,19.087,27.159,4.5,10.3,20.491,11.193,25.236-.846a118.329,118.329,0,0,1,7.07-45.972s-1.753-32.545-6.739-41" fill="#f1ae9d"/>
        <path id="Trazado_713831" data-name="Trazado 713831" d="M1013.253,198.479s-3.248-7.393,5.51-20.2c5.6-8.192,22.607-10.737,37.253-8.535s21.187,8.318,22.012,18.745,2.324,23.43,2.324,23.43l-5.505,4.5c-9.059-5.613-8.942-28.116-8.942-28.116a24.584,24.584,0,0,1-17.891,4.274,22.761,22.761,0,0,1-20.514,3.82c-3.719,3.352-9.593,2.95-14.247,2.084" fill="#644336"/>
        <path id="Trazado_713832" data-name="Trazado 713832" d="M1046.62,216.549a2.571,2.571,0,1,1-2.656-2.483,2.571,2.571,0,0,1,2.656,2.483"/>
        <path id="Trazado_713833" data-name="Trazado 713833" d="M1044.027,215.932a.942.942,0,1,1-.972-.91.94.94,0,0,1,.972.91" fill="#fff"/>
        <path id="Trazado_713834" data-name="Trazado 713834" d="M1026.745,217.215a2.571,2.571,0,1,1-2.656-2.483,2.572,2.572,0,0,1,2.656,2.483"/>
        <path id="Trazado_713835" data-name="Trazado 713835" d="M1024.152,216.6a.942.942,0,1,1-.973-.909.941.941,0,0,1,.973.909" fill="#fff"/>
        <path id="Trazado_713836" data-name="Trazado 713836" d="M1028.128,207.1a8.415,8.415,0,0,0-10.446.864,1.7,1.7,0,0,0-.165,2.132,1.228,1.228,0,0,0,1.862.209,6.033,6.033,0,0,1,4.344-1.6,6.145,6.145,0,0,1,2.3.551c.65.3,1.289.828,1.994.391a1.313,1.313,0,0,0,.42-.431,1.68,1.68,0,0,0-.312-2.116" fill="#644336"/>
        <path id="Trazado_713837" data-name="Trazado 713837" d="M1038.144,206.761a10.764,10.764,0,0,1,12.013.111,1.515,1.515,0,1,1-1.773,2.457,7.555,7.555,0,0,0-5.08-1.259,8.169,8.169,0,0,0-2.6.7c-.724.333-1.425.9-2.256.52a1.449,1.449,0,0,1-.512-.4,1.527,1.527,0,0,1,.206-2.133" fill="#644336"/>
        <path id="Trazado_713838" data-name="Trazado 713838" d="M1033.6,231.611a9.1,9.1,0,0,1-4.3-.9,1.343,1.343,0,0,1,1.169-2.418,7.057,7.057,0,0,0,8.221-1.813,1.344,1.344,0,0,1,2.222,1.511,9.622,9.622,0,0,1-7.309,3.624" fill="#b36355"/>
        <path id="Trazado_713839" data-name="Trazado 713839" d="M1030.172,224.076a.337.337,0,0,1-.331-.232c-.709-2.169.011-2.939.739-3.2a3.241,3.241,0,0,1,2.681.493.336.336,0,0,1,.125.459.341.341,0,0,1-.459.124,2.611,2.611,0,0,0-2.118-.443c-.653.234-.765,1.03-.329,2.361a.335.335,0,0,1-.308.44" fill="#b36355"/>
        <path id="Trazado_713840" data-name="Trazado 713840" d="M1085.576,224.985c-3.3,4.212-8.682,5.5-12.025,2.886s-3.38-8.154-.082-12.366,8.682-5.5,12.025-2.886,3.38,8.154.082,12.366" fill="#f1ae9d"/>
        <path id="Trazado_713841" data-name="Trazado 713841" d="M1083.318,214.7a5.928,5.928,0,0,0-5.2.275,4.853,4.853,0,0,0-1.94,1.616,2.955,2.955,0,0,0-.334,2.729,4.2,4.2,0,0,0,1.487,1.64,3.987,3.987,0,0,1,.993.935,1.511,1.511,0,0,1-1.867,2.2.672.672,0,0,0-.523,1.238,2.779,2.779,0,0,0,1.178.212,2.84,2.84,0,0,0,2.348-4.361,5.091,5.091,0,0,0-1.317-1.29,3.105,3.105,0,0,1-1.061-1.093,1.623,1.623,0,0,1,.218-1.467,2.7,2.7,0,0,1,.492-.531,2.74,2.74,0,0,1,1.945.6,2.4,2.4,0,0,1,.651,1.947.67.67,0,0,0,.579.752.584.584,0,0,0,.11.006.672.672,0,0,0,.643-.585,3.717,3.717,0,0,0-1.022-3.059,3.038,3.038,0,0,0-1.028-.653,4.23,4.23,0,0,1,3.064.107,2.6,2.6,0,0,1,1.409,3.111.672.672,0,1,0,1.238.522,3.93,3.93,0,0,0-2.059-4.842" fill="#b36355"/>
        <path id="Trazado_713842" data-name="Trazado 713842" d="M499.358,318.555h-5.241v4.861h5.842v1.46h-7.582V311.394h7.281v1.46h-5.541v4.261h5.241Z"/>
        <path id="Trazado_713843" data-name="Trazado 713843" d="M501.916,323.075a4.6,4.6,0,0,0,2.32.7c1.281,0,1.881-.639,1.881-1.44,0-.84-.5-1.3-1.8-1.781-1.74-.62-2.56-1.58-2.56-2.74,0-1.56,1.26-2.841,3.341-2.841a4.831,4.831,0,0,1,2.38.6l-.44,1.28a3.767,3.767,0,0,0-1.98-.56c-1.04,0-1.62.6-1.62,1.32,0,.8.58,1.16,1.839,1.641,1.681.639,2.541,1.48,2.541,2.921,0,1.7-1.32,2.9-3.621,2.9a5.52,5.52,0,0,1-2.72-.66Z"/>
        <path id="Trazado_713844" data-name="Trazado 713844" d="M512.2,312.413v2.781h2.521v1.34H512.2v5.221c0,1.2.34,1.881,1.32,1.881a3.931,3.931,0,0,0,1.021-.12l.08,1.32a4.318,4.318,0,0,1-1.561.24,2.439,2.439,0,0,1-1.9-.74,3.589,3.589,0,0,1-.681-2.521v-5.281h-1.5v-1.34h1.5v-2.321Z"/>
        <path id="Trazado_713845" data-name="Trazado 713845" d="M522.057,324.876l-.14-1.22h-.059a3.609,3.609,0,0,1-2.961,1.44,2.758,2.758,0,0,1-2.961-2.78c0-2.341,2.081-3.621,5.821-3.6v-.2a2,2,0,0,0-2.2-2.24,4.823,4.823,0,0,0-2.521.719l-.4-1.16a6.014,6.014,0,0,1,3.181-.86c2.961,0,3.68,2.02,3.68,3.961v3.621a13.63,13.63,0,0,0,.16,2.32Zm-.26-4.941c-1.92-.04-4.1.3-4.1,2.181a1.557,1.557,0,0,0,1.66,1.68,2.412,2.412,0,0,0,2.341-1.62,1.876,1.876,0,0,0,.1-.56Zm.88-8.922-2.44,2.861h-1.26l1.76-2.861Z"/>
        <path id="Trazado_713846" data-name="Trazado 713846" d="M530.5,324.876c.04-.66.08-1.641.08-2.5v-11.7h1.74v6.081h.04a3.606,3.606,0,0,1,3.3-1.78c2.4,0,4.1,2,4.081,4.941,0,3.461-2.181,5.181-4.341,5.181a3.45,3.45,0,0,1-3.241-1.821h-.06l-.08,1.6Zm1.82-3.881a3.317,3.317,0,0,0,.08.641,2.716,2.716,0,0,0,2.641,2.059c1.841,0,2.94-1.5,2.94-3.721,0-1.94-1-3.6-2.88-3.6a2.805,2.805,0,0,0-2.68,2.16,3.465,3.465,0,0,0-.1.721Z"/>
        <path id="Trazado_713847" data-name="Trazado 713847" d="M543.916,312.473a1.09,1.09,0,0,1-2.18,0,1.072,1.072,0,0,1,1.1-1.1,1.045,1.045,0,0,1,1.081,1.1m-1.96,2.721h1.761v9.682h-1.761Z"/>
        <path id="Trazado_713848" data-name="Trazado 713848" d="M547.616,320.356a3.1,3.1,0,0,0,3.32,3.36,6.382,6.382,0,0,0,2.681-.5l.3,1.26a7.859,7.859,0,0,1-3.221.6c-2.981,0-4.761-1.96-4.761-4.881s1.721-5.221,4.541-5.221c3.161,0,4,2.781,4,4.56a6.953,6.953,0,0,1-.059.822Zm5.161-1.262c.02-1.12-.46-2.86-2.44-2.86-1.781,0-2.561,1.64-2.7,2.86Z"/>
        <path id="Trazado_713849" data-name="Trazado 713849" d="M556.656,317.814c0-1-.021-1.82-.08-2.62h1.559l.1,1.6h.04a3.563,3.563,0,0,1,3.2-1.82c1.341,0,3.421.8,3.421,4.121v5.782h-1.76v-5.582c0-1.56-.581-2.86-2.241-2.86a2.5,2.5,0,0,0-2.36,1.8,2.534,2.534,0,0,0-.12.82v5.822h-1.76Z"/>
        <path id="Trazado_713850" data-name="Trazado 713850" d="M567.334,323.836a1.184,1.184,0,0,1,1.2-1.261,1.263,1.263,0,1,1-1.2,1.261"/>
        <path id="Trazado_713851" data-name="Trazado 713851" d="M461.448,343.175l.06.52a4.533,4.533,0,0,1-1.26,3.42,4.358,4.358,0,0,0-1.381,2.721c0,1.02.62,1.7,1.9,1.7a3.5,3.5,0,0,0,2.021-.62l.48,1.28a5.536,5.536,0,0,1-2.88.8c-2.281,0-3.341-1.421-3.341-2.94,0-1.361.76-2.322,1.741-3.442a3.993,3.993,0,0,0,1.12-2.92l-.02-.52Zm.42-2.841a1.183,1.183,0,1,1-2.36,0,1.181,1.181,0,1,1,2.36,0"/>
        <path id="Trazado_713852" data-name="Trazado 713852" d="M476.708,350.856c-1.82-.48-3.6-1.02-5.161-1.56a2.575,2.575,0,0,0-.819-.2c-3.2-.12-5.941-2.48-5.941-6.821,0-4.32,2.64-7.1,6.281-7.1,3.66,0,6.041,2.84,6.041,6.821,0,3.461-1.6,5.682-3.841,6.462v.08c1.341.34,2.8.66,3.94.86Zm-1.44-8.782c0-2.7-1.4-5.48-4.261-5.48-2.94,0-4.381,2.719-4.36,5.64-.021,2.861,1.56,5.442,4.28,5.442,2.781,0,4.341-2.521,4.341-5.6"/>
        <path id="Trazado_713853" data-name="Trazado 713853" d="M487.468,346.235c0,1,.02,1.881.08,2.641h-1.56l-.1-1.58h-.04a3.645,3.645,0,0,1-3.2,1.8c-1.521,0-3.341-.839-3.341-4.24v-5.661h1.761v5.36c0,1.841.559,3.081,2.16,3.081a2.476,2.476,0,0,0,2.48-2.5v-5.94h1.761Z"/>
        <path id="Trazado_713854" data-name="Trazado 713854" d="M491.366,344.356a3.1,3.1,0,0,0,3.321,3.36,6.37,6.37,0,0,0,2.681-.5l.3,1.26a7.846,7.846,0,0,1-3.221.6c-2.98,0-4.761-1.96-4.761-4.88s1.72-5.222,4.541-5.222c3.16,0,4,2.781,4,4.561a6.719,6.719,0,0,1-.059.821Zm5.161-1.261c.021-1.12-.46-2.86-2.44-2.86-1.781,0-2.561,1.639-2.7,2.86Zm.42-8.082-2.44,2.861h-1.26l1.76-2.861Z"/>
        <path id="Trazado_713855" data-name="Trazado 713855" d="M513.007,334.673v11.7c0,.861.02,1.841.08,2.5h-1.58l-.08-1.68h-.04a3.582,3.582,0,0,1-3.3,1.9c-2.341,0-4.141-1.981-4.141-4.921-.02-3.221,1.981-5.2,4.341-5.2a3.234,3.234,0,0,1,2.92,1.48h.04v-5.781Zm-1.761,8.462a3.151,3.151,0,0,0-.079-.74,2.59,2.59,0,0,0-2.541-2.04c-1.82,0-2.9,1.6-2.9,3.74,0,1.961.96,3.581,2.861,3.581a2.646,2.646,0,0,0,2.581-2.1,3.1,3.1,0,0,0,.079-.759Z"/>
        <path id="Trazado_713856" data-name="Trazado 713856" d="M516.906,344.356a3.1,3.1,0,0,0,3.321,3.36,6.37,6.37,0,0,0,2.681-.5l.3,1.26a7.846,7.846,0,0,1-3.221.6c-2.981,0-4.761-1.96-4.761-4.88s1.72-5.222,4.541-5.222c3.16,0,4,2.781,4,4.561a6.712,6.712,0,0,1-.059.821Zm5.161-1.261c.021-1.12-.46-2.86-2.44-2.86-1.781,0-2.561,1.639-2.7,2.86Z"/>
        <path id="Trazado_713857" data-name="Trazado 713857" d="M525.866,348.876c.04-.66.08-1.641.08-2.5v-11.7h1.74v6.081h.04a3.606,3.606,0,0,1,3.3-1.78c2.4,0,4.1,2,4.08,4.941,0,3.461-2.18,5.181-4.341,5.181a3.448,3.448,0,0,1-3.24-1.821h-.061l-.08,1.6Zm1.82-3.881a3.317,3.317,0,0,0,.08.641,2.716,2.716,0,0,0,2.641,2.059c1.84,0,2.94-1.5,2.94-3.721,0-1.94-1-3.6-2.881-3.6a2.806,2.806,0,0,0-2.68,2.16,3.466,3.466,0,0,0-.1.721Z"/>
        <path id="Trazado_713858" data-name="Trazado 713858" d="M546.088,343.955c0,3.581-2.481,5.141-4.822,5.141-2.62,0-4.64-1.92-4.64-4.98,0-3.242,2.12-5.142,4.8-5.142,2.78,0,4.661,2.02,4.661,4.981m-7.682.1c0,2.121,1.22,3.721,2.94,3.721,1.681,0,2.941-1.58,2.941-3.761,0-1.64-.82-3.721-2.9-3.721s-2.98,1.921-2.98,3.761"/>
        <path id="Trazado_713859" data-name="Trazado 713859" d="M552.545,334.673h1.76v6.041h.04a3.276,3.276,0,0,1,1.261-1.24,3.616,3.616,0,0,1,1.8-.5c1.3,0,3.381.8,3.381,4.14v5.762h-1.76v-5.561c0-1.56-.581-2.88-2.241-2.88a2.53,2.53,0,0,0-2.36,1.759,2.136,2.136,0,0,0-.12.841v5.841h-1.76Z"/>
        <path id="Trazado_713860" data-name="Trazado 713860" d="M569.005,348.875l-.14-1.22h-.059a3.61,3.61,0,0,1-2.961,1.44,2.758,2.758,0,0,1-2.961-2.78c0-2.341,2.081-3.621,5.821-3.6v-.2a2,2,0,0,0-2.2-2.24,4.815,4.815,0,0,0-2.521.72l-.4-1.161a6.014,6.014,0,0,1,3.181-.86c2.96,0,3.68,2.021,3.68,3.961v3.621a13.63,13.63,0,0,0,.16,2.32Zm-.26-4.941c-1.92-.04-4.1.3-4.1,2.181a1.558,1.558,0,0,0,1.661,1.68,2.408,2.408,0,0,0,2.34-1.62,1.842,1.842,0,0,0,.1-.56Z"/>
        <path id="Trazado_713861" data-name="Trazado 713861" d="M580.186,348.515a6.481,6.481,0,0,1-2.781.561,4.6,4.6,0,0,1-4.821-4.942,4.919,4.919,0,0,1,5.2-5.14,5.867,5.867,0,0,1,2.44.5l-.4,1.36a4.081,4.081,0,0,0-2.04-.46,3.65,3.65,0,0,0-.061,7.281,5,5,0,0,0,2.16-.48Z"/>
        <path id="Trazado_713862" data-name="Trazado 713862" d="M583.1,344.356a3.1,3.1,0,0,0,3.32,3.36,6.367,6.367,0,0,0,2.681-.5l.3,1.26a7.842,7.842,0,0,1-3.221.6c-2.981,0-4.761-1.96-4.761-4.88s1.721-5.222,4.541-5.222c3.161,0,4,2.781,4,4.561a6.917,6.917,0,0,1-.059.821Zm5.161-1.261c.02-1.12-.46-2.86-2.44-2.86-1.781,0-2.561,1.639-2.7,2.86Z"/>
        <path id="Trazado_713863" data-name="Trazado 713863" d="M592.145,342.215c0-1.141-.021-2.121-.08-3.021h1.54l.06,1.9h.08a2.9,2.9,0,0,1,2.68-2.121,1.9,1.9,0,0,1,.5.06v1.66a2.628,2.628,0,0,0-.6-.06,2.469,2.469,0,0,0-2.361,2.261,4.95,4.95,0,0,0-.08.82v5.161h-1.74Z"/>
        <path id="Trazado_713864" data-name="Trazado 713864" d="M600.045,345.054l-.04-.519a4.59,4.59,0,0,1,1.241-3.461,4.4,4.4,0,0,0,1.4-2.74c0-1.021-.641-1.7-1.9-1.721a3.555,3.555,0,0,0-2.02.62l-.48-1.26a5.244,5.244,0,0,1,2.86-.8c2.3,0,3.341,1.421,3.341,2.941,0,1.36-.76,2.341-1.721,3.481a3.951,3.951,0,0,0-1.14,2.941l.02.519Zm-.44,2.8a1.182,1.182,0,0,1,1.2-1.26,1.252,1.252,0,1,1-1.2,1.26"/>
      </g>
    </g>
  </g>
</svg>
